<svg width="662" height="140" viewBox="0 0 662 140" fill="none" xmlns="http://www.w3.org/2000/svg">
<rect width="662" height="140" rx="20" fill="white" fill-opacity="0.7"/>
<rect x="0.5" y="0.5" width="661" height="139" rx="19.5" stroke="black" stroke-opacity="0.1"/>
<path d="M44.3516 47.7656C45.5391 47.5 46.7109 47.2109 47.8672 46.8984V41.5547H44.6797V39.9609H47.8672V35.3672H49.7188V39.9609H52.6016V41.5547H49.7188V46.4297C50.7969 46.1484 51.8594 45.8516 52.9062 45.5391C52.9062 45.9141 52.9219 46.5234 52.9531 47.3672C51.8594 47.6641 50.7812 47.9609 49.7188 48.2578V55.2422C49.7188 57.0078 48.9219 57.8984 47.3281 57.9141C46.7344 57.9141 45.9219 57.9141 44.8906 57.9141C44.7969 57.1797 44.6797 56.5391 44.5391 55.9922C45.3516 56.0859 46.125 56.1328 46.8594 56.1328C47.5312 56.1328 47.8672 55.7422 47.8672 54.9609V48.7969C46.7578 49.1094 45.6719 49.4219 44.6094 49.7344L44.3516 47.7656ZM53.3984 40.3359H60.7578C61.9609 38.6172 63.0391 36.8672 63.9922 35.0859L65.8438 36.1172C64.7188 37.7109 63.6875 39.1172 62.75 40.3359H67.2734V42H53.3984V40.3359ZM52.0625 54.9844H67.625V56.6484H52.0625V54.9844ZM54.125 47.2969H66.3359V48.9141H54.125V47.2969ZM54.5 36.1172L55.9062 35.1094C56.875 36.2188 57.8125 37.3672 58.7188 38.5547L57.1016 39.6797C56.3516 38.5234 55.4844 37.3359 54.5 36.1172ZM81.5938 54.3516C82.625 53.6328 83.5625 52.8203 84.4062 51.9141C83.7344 49.4766 83.3125 46.4062 83.1406 42.7031H68.6094V41.1797H74.9609V38.9766H69.9922V37.5H74.9609V35.2734H76.6016V37.5H81.1953V38.9766H76.6016V41.1797H83.0938C83.0312 39.8359 82.9766 37.8594 82.9297 35.25H84.6641C84.6641 37.4531 84.7031 39.4297 84.7812 41.1797H91.3438V42.7031H84.8281C84.9688 45.6562 85.2969 48.1875 85.8125 50.2969C87.0312 48.6719 88.0234 46.8125 88.7891 44.7188L90.4297 45.4219C89.3828 47.9844 88.0312 50.2656 86.375 52.2656C86.7188 53.3125 87.1328 54.2188 87.6172 54.9844C88.0234 55.6562 88.4219 55.9922 88.8125 55.9922C89.1406 55.9922 89.375 55.6953 89.5156 55.1016C89.7031 54.3203 89.8828 53.2266 90.0547 51.8203C90.6641 52.1016 91.2188 52.3125 91.7188 52.4531C91.4844 53.9688 91.2344 55.1953 90.9688 56.1328C90.5938 57.3984 89.9219 58.0312 88.9531 58.0312C87.8281 58.0312 86.8516 57.2812 86.0234 55.7812C85.6641 55.1719 85.3281 54.4844 85.0156 53.7188C84.2969 54.4375 83.5391 55.1094 82.7422 55.7344C82.4141 55.2656 82.0312 54.8047 81.5938 54.3516ZM75.6875 43.6641L76.7656 42.75C77.3906 43.3125 78.0625 43.9766 78.7812 44.7422L77.9844 45.4219H82.1094V46.8047H77.8672V48.75H81.7578V50.0859H77.8672V52.0312H81.8281V53.3672H77.8672V55.3125H82.0859V56.6953H72.5469V58.0078H70.9531V48.4453C70.4062 49.1641 69.8438 49.8516 69.2656 50.5078C68.9219 50.0547 68.5625 49.6172 68.1875 49.1953C69.9062 47.4609 71.3047 45.4375 72.3828 43.125L73.8594 43.7812C73.5781 44.3281 73.2734 44.875 72.9453 45.4219H77.3047C76.7578 44.7656 76.2188 44.1797 75.6875 43.6641ZM85.8125 37.2891L86.8203 36.0703C88.1953 37.0234 89.4062 37.9141 90.4531 38.7422L89.2812 40.1953C88.1562 39.1641 87 38.1953 85.8125 37.2891ZM72.5469 52.0312H76.2734V50.0859H72.5469V52.0312ZM72.5469 48.75H76.2734V46.8047H72.5469V48.75ZM72.5469 55.3125H76.2734V53.3672H72.5469V55.3125ZM100.953 48.7969V47.1797H113.234V48.7734C112.219 50.9141 110.789 52.7266 108.945 54.2109C110.805 55.2891 113.094 55.9922 115.812 56.3203C115.297 56.9922 114.852 57.6172 114.477 58.1953C111.648 57.6328 109.266 56.6797 107.328 55.3359C105.156 56.7109 102.516 57.7109 99.4062 58.3359C99.0938 57.8047 98.7188 57.2422 98.2812 56.6484C101.297 56.1484 103.844 55.3203 105.922 54.1641C104.359 52.7266 103.188 50.9375 102.406 48.7969H100.953ZM92.2812 47.9531C93.2188 47.5625 94.2188 47.1094 95.2812 46.5938V41.2969H92.4688V39.6797H95.2812V35.1328H96.9922V39.6797H99.6641V41.2969H96.9922V45.7734C97.7422 45.3828 98.5234 44.9766 99.3359 44.5547C99.3828 45.3359 99.4453 45.9531 99.5234 46.4062C98.7266 46.7969 97.8828 47.2266 96.9922 47.6953V55.4766C96.9922 57.1172 96.2266 57.9453 94.6953 57.9609C94.1953 57.9766 93.5859 57.9766 92.8672 57.9609C92.8047 57.3359 92.7109 56.6953 92.5859 56.0391C93.3359 56.1016 93.9297 56.1328 94.3672 56.1328C94.9766 56.1328 95.2812 55.8359 95.2812 55.2422V48.5625C94.4062 49.0156 93.4844 49.4922 92.5156 49.9922L92.2812 47.9531ZM100.062 42.8672H110.141C110.984 41.3984 111.758 39.9141 112.461 38.4141L114.266 39.1875C113.562 40.4219 112.812 41.6484 112.016 42.8672H115.109V46.4531H113.328V44.4844H101.844V46.4531H100.062V42.8672ZM100.555 38.4844C100.461 37.9375 100.352 37.375 100.227 36.7969C105.492 36.6719 110.281 36.3906 114.594 35.9531L114.922 37.6172C110.062 38.0078 105.273 38.2969 100.555 38.4844ZM111.172 48.7969H104.188C104.938 50.5625 106.023 52.0234 107.445 53.1797C109.07 51.9922 110.312 50.5312 111.172 48.7969ZM105.875 39.1172L107.352 38.4609C108.023 39.6172 108.594 40.6719 109.062 41.625L107.469 42.3516C106.984 41.2109 106.453 40.1328 105.875 39.1172ZM101.234 39.5391L102.688 38.8125C103.328 39.7812 103.938 40.7969 104.516 41.8594L102.992 42.6797C102.461 41.5547 101.875 40.5078 101.234 39.5391ZM124.742 38.4844V36.75H138.055V38.4609C137.32 43.8828 135.656 48.2578 133.062 51.5859C134.766 53.3047 137 54.7109 139.766 55.8047C139.109 56.5391 138.594 57.1875 138.219 57.75C135.531 56.3594 133.391 54.8125 131.797 53.1094C130.016 54.9688 127.531 56.7031 124.344 58.3125C124 57.75 123.562 57.1641 123.031 56.5547C126.328 55.0078 128.844 53.3672 130.578 51.6328C128.219 48.6484 126.758 44.2656 126.195 38.4844H124.742ZM116.234 49.9922C117.828 47.5703 119.023 44.8438 119.82 41.8125H116.469V40.1953H120.125V35.2266H121.906V40.1953H125.211V41.8125H121.906V44.9297L122.914 43.9922C124.32 45.3203 125.453 46.4922 126.312 47.5078L124.906 48.8203C123.859 47.4922 122.859 46.3281 121.906 45.3281V58.2422H120.125V45.3984C119.281 48.0234 118.25 50.2422 117.031 52.0547C116.812 51.3828 116.547 50.6953 116.234 49.9922ZM136.062 38.4844H128.07C128.539 43.5469 129.797 47.4375 131.844 50.1562C134 47.2656 135.406 43.375 136.062 38.4844Z" fill="black"/>
<path d="M47.2422 100.197H46.2363V94.1621H52.7207L53.1211 92.3555H44.6445V91.4961H63.3848V92.3555H54.1953L53.7363 94.1621H61.7637V98.0391C61.8223 99.3411 61.1745 100.002 59.8203 100.021C59.2474 100.048 58.668 100.061 58.082 100.061C58.0104 99.6699 57.9225 99.3379 57.8184 99.0645C58.5996 99.0905 59.153 99.1035 59.4785 99.1035C60.0124 99.097 60.3542 99.0156 60.5039 98.8594C60.6797 98.7096 60.7643 98.3906 60.7578 97.9023V95.0215H56.8223V99.7969H55.8164V95.0215H52.0957V99.8164H51.0996V95.0215H47.2422V100.197ZM45.2598 84.9824H53.4824V83.4395H46.2559V82.6191H61.5781V83.4395H54.4785V84.9824H62.7207V88.2441H61.7246V85.8223H54.4785V90.3828H53.4824V85.8223H46.2559V88.2441H45.2598V84.9824ZM55.9434 89.2988H60.084V90.0801H55.9434V89.2988ZM47.877 87.2188H52.0176V88H47.877V87.2188ZM47.877 89.2988H52.0176V90.0801H47.877V89.2988ZM55.9434 87.2188H60.084V88H55.9434V87.2188ZM65.1816 82.5996H82.7988V83.5176H76.9004V85.8418H81.8223V90.5391H66.1777V85.8418H71.041V83.5176H65.1816V82.5996ZM81.9199 100.256C81.5684 100.139 81.0475 99.9661 80.3574 99.7383C77.916 98.9375 76.0638 98.3451 74.8008 97.9609C72.6523 99.1133 69.5241 99.9336 65.416 100.422C65.2923 100.018 65.1523 99.6634 64.9961 99.3574C68.6159 98.9733 71.4023 98.3548 73.3555 97.502C71.5977 96.9355 69.8464 96.3822 68.1016 95.8418C68.8242 95.0215 69.4167 94.3216 69.8789 93.7422H64.5176V92.8242H70.6016C70.9922 92.3099 71.4316 91.6751 71.9199 90.9199L72.9648 91.3398C72.6523 91.7826 72.2845 92.2773 71.8613 92.8242H83.4629V93.7422H79.1758C78.3099 95.2135 77.2259 96.3984 75.9238 97.2969C76.015 97.3229 76.1484 97.362 76.3242 97.4141C78.9349 98.2018 80.9792 98.8301 82.457 99.2988L81.9199 100.256ZM74.5762 96.877C75.9043 96.1348 77.0241 95.0898 77.9355 93.7422H71.1582C70.8132 94.1979 70.3477 94.7708 69.7617 95.4609C70.0872 95.5586 70.5853 95.7051 71.2559 95.9004C72.6751 96.3171 73.7819 96.6426 74.5762 96.877ZM80.7969 86.7402H76.9004V89.6406H80.7969V86.7402ZM67.2031 86.7402V89.6406H71.041V86.7402H67.2031ZM72.0566 86.7402V89.6406H75.8848V86.7402H72.0566ZM72.0566 83.5176V85.8418H75.8848V83.5176H72.0566ZM101.881 94.7578C101.855 94.7318 101.819 94.696 101.773 94.6504C101.207 94.11 100.742 93.6803 100.377 93.3613C99.0033 93.3939 97.1315 93.446 94.7617 93.5176V97.6973C94.8333 99.2207 94.0846 99.9954 92.5156 100.021C92.1055 100.048 91.3535 100.061 90.2598 100.061C90.1816 99.5853 90.0872 99.2044 89.9766 98.918C90.5885 98.9701 91.3503 98.9961 92.2617 98.9961C93.2708 99.0547 93.7493 98.5697 93.6973 97.541V93.5371C92.1413 93.5892 90.276 93.6641 88.1016 93.7617C87.6589 93.7878 87.1348 93.8301 86.5293 93.8887C86.4642 93.8952 86.4154 93.8984 86.3828 93.8984L85.8848 92.8242C86.4837 92.694 87.1348 92.4661 87.8379 92.1406C89.791 91.2617 91.8646 90.1875 94.0586 88.918C92.2812 88.944 90.3151 89.0189 88.1602 89.1426C88.0951 89.1491 88.0039 89.1556 87.8867 89.1621C87.4115 89.1947 87.0762 89.2272 86.8809 89.2598L86.4414 88.2637C87.0143 88.0879 87.5059 87.873 87.916 87.6191C89.7585 86.6165 91.6074 85.4316 93.4629 84.0645C90.4551 84.2467 87.9746 84.3704 86.0215 84.4355C85.9694 84.0645 85.888 83.7259 85.7773 83.4199C91.7669 83.2246 97.1283 82.9121 101.861 82.4824L102.145 83.459C99.5794 83.6738 96.7832 83.8659 93.7559 84.0352L94.5762 84.6211C92.916 85.7604 90.9434 86.9453 88.6582 88.1758C89.9082 88.1497 92.0859 88.1009 95.1914 88.0293C95.3672 88.0228 95.4974 88.0195 95.582 88.0195C97.112 87.0755 98.3783 86.2422 99.3809 85.5195L100.357 86.2812C96.5098 88.7031 92.571 90.8613 88.541 92.7559C92.7142 92.6842 96.347 92.5996 99.4395 92.502C99.2246 92.3132 98.9023 92.0267 98.4727 91.6426C97.75 91.0111 97.2259 90.5488 96.9004 90.2559L97.6426 89.6211C99.2246 90.9427 100.898 92.4141 102.662 94.0352L101.881 94.7578ZM97.1836 95.6758L97.9355 94.9434C99.7064 96.1413 101.373 97.3197 102.936 98.4785L102.184 99.2988C100.257 97.8535 98.5898 96.6458 97.1836 95.6758ZM89.4395 94.9434L90.3184 95.6367C88.7298 97.0299 87.1022 98.306 85.4355 99.4648C85.2728 99.2305 85.0156 98.9408 84.6641 98.5957C86.4089 97.5085 88.0007 96.291 89.4395 94.9434ZM110.924 84.2988H116.842C116.744 83.9668 116.402 83.1335 115.816 81.7988L116.822 81.4766C117.187 82.2383 117.545 83.0521 117.896 83.918L116.939 84.2988H123.16V85.2754H115.66L116.676 85.7246C115.667 87.0202 114.394 88.5306 112.857 90.2559C115.624 90.1712 118.079 90.0801 120.221 89.9824C119.68 89.2988 119.12 88.599 118.541 87.8828L119.4 87.3164C120.859 89.0807 122.031 90.5358 122.916 91.6816L122.018 92.3359C121.679 91.8737 121.308 91.3822 120.904 90.8613C120.058 90.9134 119.365 90.9395 118.824 90.9395V97.4434C118.818 97.9902 118.909 98.3646 119.098 98.5664C119.28 98.7812 119.615 98.8854 120.104 98.8789H120.582C121.174 98.8854 121.568 98.804 121.764 98.6348C121.985 98.4785 122.138 98.1335 122.223 97.5996C122.288 97.209 122.359 96.5221 122.438 95.5391C122.861 95.7279 123.202 95.8548 123.463 95.9199C123.411 96.6296 123.323 97.3229 123.199 98C123.023 99.2891 122.158 99.9108 120.602 99.8652H119.898C118.434 99.9043 117.721 99.1751 117.76 97.6777V90.9785C116.712 91.0241 115.898 91.0632 115.318 91.0957C115.325 93.7585 114.996 95.6823 114.332 96.8672C113.74 98.0846 112.441 99.2826 110.436 100.461C110.26 100.214 110.022 99.9271 109.723 99.6016C111.663 98.5143 112.89 97.4434 113.404 96.3887C113.997 95.3926 114.283 93.651 114.264 91.1641C114.244 91.1641 114.215 91.1673 114.176 91.1738C113.993 91.1868 113.808 91.1966 113.619 91.2031C112.799 91.2617 112.125 91.3464 111.598 91.457L111.041 90.3828C111.503 90.1224 111.897 89.8294 112.223 89.5039C113.635 88.026 114.749 86.6165 115.562 85.2754H110.924V84.2988ZM106.48 93.2832C107.164 93.2181 108.232 93.1302 109.684 93.0195C110.12 92.987 110.452 92.9609 110.68 92.9414C110.628 93.1302 110.585 93.4199 110.553 93.8105C110.546 93.8366 110.543 93.8594 110.543 93.8789C108.043 94.0612 106.275 94.2272 105.24 94.377L104.879 93.4395C105.315 93.1465 105.868 92.5736 106.539 91.7207C107.086 91.0111 107.714 90.1322 108.424 89.084C106.887 89.11 105.699 89.1556 104.859 89.2207L104.557 88.1953C104.941 87.8828 105.354 87.4043 105.797 86.7598C107.06 84.8848 108.062 83.1725 108.805 81.623L109.898 82.0039C108.74 84.0221 107.402 86.1022 105.885 88.2441C106.08 88.2376 106.435 88.2279 106.949 88.2148C107.906 88.1823 108.596 88.1628 109.02 88.1562C109.312 87.707 109.719 87.0267 110.24 86.1152L111.305 86.5352C109.469 89.2826 107.861 91.5319 106.48 93.2832ZM104.801 98.5566L104.498 97.5605C107.343 97.0658 109.505 96.6589 110.982 96.3398C110.963 96.5677 110.953 96.737 110.953 96.8477C110.947 96.9453 110.943 97.1081 110.943 97.3359C108.958 97.6745 106.91 98.0814 104.801 98.5566ZM131.676 92.5996V91.6426H141.48V92.8047C140.38 94.7253 139.14 96.1966 137.76 97.2188C139.146 98.0846 141.012 98.7454 143.355 99.2012C143.16 99.5267 142.981 99.8652 142.818 100.217C140.312 99.6439 138.32 98.8594 136.842 97.8633C135.312 98.8138 133.124 99.6797 130.279 100.461C130.11 100.129 129.911 99.8034 129.684 99.4844C132.333 98.8529 134.426 98.0846 135.963 97.1797C134.628 96.0534 133.567 94.5267 132.779 92.5996H131.676ZM124.684 93.1562L124.459 92.082C124.791 91.9779 125.305 91.8053 126.002 91.5645C126.451 91.4147 126.79 91.3008 127.018 91.2227V86.6621H124.762V85.6953H127.018V81.6035H128.062V85.6953H130.143V86.6621H128.062V90.8418C128.759 90.5749 129.459 90.3014 130.162 90.0215C130.182 90.3991 130.214 90.7441 130.26 91.0566C130.064 91.1283 129.762 91.2389 129.352 91.3887C128.792 91.597 128.362 91.7533 128.062 91.8574V98.5176C128.128 99.6634 127.568 100.243 126.383 100.256C126.012 100.282 125.549 100.298 124.996 100.305C124.938 99.9466 124.866 99.5853 124.781 99.2207C125.224 99.2467 125.67 99.2598 126.119 99.2598C126.77 99.3053 127.07 99.0189 127.018 98.4004V92.2578C126.262 92.5638 125.484 92.8633 124.684 93.1562ZM130.982 88.0586H139.156C139.957 86.7109 140.637 85.4967 141.197 84.416L142.184 84.8848C141.415 86.1868 140.774 87.2448 140.26 88.0586H143.043V90.7637H141.998V89.0352H132.018V90.7637H130.982V88.0586ZM140.357 92.5996H133.922C134.651 94.2858 135.637 95.6204 136.881 96.6035C138.248 95.6139 139.407 94.2793 140.357 92.5996ZM142.74 83.3223C139.166 83.6348 135.325 83.8659 131.217 84.0156C131.178 83.6836 131.119 83.3451 131.041 83C134.524 82.9349 138.329 82.707 142.457 82.3164L142.74 83.3223ZM131.881 85.1387L132.76 84.6992C133.261 85.4544 133.756 86.2552 134.244 87.1016L133.297 87.5605C132.75 86.5775 132.278 85.7702 131.881 85.1387ZM135.885 84.7773L136.822 84.4648C137.232 85.3372 137.597 86.2031 137.916 87.0625L136.92 87.3555C136.62 86.5352 136.275 85.6758 135.885 84.7773ZM151.695 84.123V83.0977H162.057V84.1816C161.145 88.765 159.739 92.2513 157.838 94.6406C159.192 96.2161 161.087 97.7168 163.521 99.1426C163.274 99.4355 163.02 99.7741 162.76 100.158C160.331 98.6478 158.45 97.1016 157.115 95.5195C155.657 97.1992 153.557 98.8398 150.816 100.441C150.589 100.135 150.322 99.8099 150.016 99.4648C152.783 97.9414 154.911 96.3268 156.402 94.6211C154.521 92.1471 153.313 88.6478 152.779 84.123H151.695ZM160.982 84.123H153.863C154.306 88.2832 155.39 91.4961 157.115 93.7617C158.919 91.4831 160.208 88.2702 160.982 84.123ZM144.957 95.0801C144.846 94.748 144.693 94.3411 144.498 93.8594C145.982 91.9909 147.115 89.5788 147.896 86.623H144.957V85.6172H147.916V81.6426H148.961V85.6172H151.725V86.623H148.961V90.1191L149.645 89.5234C150.426 90.3177 151.266 91.2161 152.164 92.2188L151.363 92.9219C150.549 91.9648 149.749 91.0566 148.961 90.1973V100.344H147.916V88.7031C147.271 91.1576 146.285 93.2832 144.957 95.0801ZM172.916 100.617H172.096L173.678 95.6074H174.752L172.916 100.617ZM185.436 98.1367C185.253 97.8763 184.996 97.5638 184.664 97.1992C189.736 94.5951 193.453 91.1022 195.816 86.7207H185.143V85.6758H197.057V81.6426H198.18V85.6758H203.258V86.7207H198.18V96.8184C198.251 98.8757 197.285 99.8978 195.279 99.8848C194.413 99.9108 193.447 99.9238 192.379 99.9238C192.327 99.5527 192.239 99.1523 192.115 98.7227C192.525 98.7487 192.939 98.765 193.355 98.7715C193.557 98.778 193.779 98.7812 194.02 98.7812C194.221 98.7812 194.534 98.7812 194.957 98.7812C195.79 98.7878 196.347 98.6413 196.627 98.3418C196.92 98.0684 197.063 97.5085 197.057 96.6621V86.7207H196.881C194.381 91.6686 190.566 95.474 185.436 98.1367ZM206.725 100.236H205.699V89.084H213.082V98.1758C213.141 99.4323 212.532 100.061 211.256 100.061C210.657 100.087 210.045 100.1 209.42 100.1C209.374 99.7546 209.299 99.4095 209.195 99.0645C209.716 99.1035 210.318 99.123 211.002 99.123C211.738 99.1491 212.089 98.8496 212.057 98.2246V96.0566H206.725V100.236ZM215.543 91.2031H216.578V94.582C218.72 93.8073 220.686 92.8861 222.477 91.8184L223.102 92.7559C220.901 93.9082 218.727 94.8815 216.578 95.6758V97.5215C216.539 98.498 217.034 98.9701 218.062 98.9375H220.357C221.354 98.9505 221.92 98.5729 222.057 97.8047C222.167 97.2969 222.249 96.5938 222.301 95.6953C222.665 95.8451 222.997 95.959 223.297 96.0371C223.212 96.8639 223.115 97.5378 223.004 98.0586C222.77 99.3411 221.923 99.9629 220.465 99.9238H217.838C216.269 99.9629 215.504 99.2142 215.543 97.6777V91.2031ZM215.562 81.6426H216.598V85.3633C218.577 84.6211 220.416 83.752 222.115 82.7559L222.721 83.6641C220.689 84.7122 218.648 85.6302 216.598 86.418V87.6582C216.546 88.5957 217.04 89.0417 218.082 88.9961H220.318C221.301 89.0091 221.861 88.625 221.998 87.8438C222.122 87.2578 222.223 86.5514 222.301 85.7246C222.646 85.8613 222.984 85.9785 223.316 86.0762C223.199 86.9095 223.082 87.5833 222.965 88.0977C222.691 89.3802 221.842 90.0085 220.416 89.9824H217.896C216.308 90.015 215.53 89.3021 215.562 87.8438V81.6426ZM213.824 88.0586C213.681 87.8828 213.466 87.6289 213.18 87.2969C213.017 87.1081 212.896 86.9681 212.818 86.877C210.735 86.9616 208.59 87.069 206.383 87.1992C205.849 87.2318 205.38 87.3001 204.977 87.4043L204.518 86.3594C204.908 86.1576 205.309 85.8451 205.719 85.4219C206.891 84.1979 207.958 82.8698 208.922 81.4375L209.938 81.9355C208.694 83.5306 207.447 84.9792 206.197 86.2812C207.512 86.2357 209.459 86.1348 212.037 85.9785C211.451 85.3145 210.885 84.7025 210.338 84.1426L211.119 83.5176C212.265 84.6634 213.46 85.9362 214.703 87.3359L213.824 88.0586ZM206.725 89.9824V92.1406H212.057V89.9824H206.725ZM206.725 93.0195V95.1777H212.057V93.0195H206.725ZM232.076 81.5645L233.16 81.7793C232.822 82.6973 232.473 83.5566 232.115 84.3574H243.385V85.3633H231.676C230.882 87.0299 229.964 88.5566 228.922 89.9434V100.344H227.838V91.2422C227.083 92.0951 226.23 92.9479 225.279 93.8008C225.11 93.5469 224.863 93.2604 224.537 92.9414C227.219 90.5846 229.202 88.0586 230.484 85.3633H225.396V84.3574H230.963C231.256 83.7064 231.627 82.7754 232.076 81.5645ZM236.002 86.8965H237.076V90.8027H242.262V91.7793H237.076V97.8828H243.385V98.8594H229.84V97.8828H236.002V91.7793H230.855V90.8027H236.002V86.8965ZM244.996 92.3164C244.827 91.8477 244.667 91.4342 244.518 91.0762C246.529 88.3223 248.076 85.1647 249.156 81.6035L250.279 81.9648C249.771 83.4427 249.166 84.9336 248.463 86.4375V100.422H247.398V88.5371C246.591 90.028 245.79 91.2878 244.996 92.3164ZM260.719 88.9375L262.057 85.7441H253.463C252.818 87.0007 252.118 88.2246 251.363 89.416C251.025 89.1491 250.715 88.9375 250.436 88.7812C251.894 86.6263 253.115 84.2728 254.098 81.7207L255.182 82.043C254.785 82.9609 254.378 83.8594 253.961 84.7383H263.141V85.8223L261.783 89.2598C261.393 89.1165 261.038 89.0091 260.719 88.9375ZM256.441 87.6387H257.516V97.6582C257.568 99.3249 256.764 100.152 255.104 100.139C254.583 100.152 253.883 100.158 253.004 100.158C252.932 99.7546 252.851 99.3835 252.76 99.0449C253.378 99.084 254.085 99.1035 254.879 99.1035C255.96 99.1361 256.48 98.6348 256.441 97.5996V87.6387ZM250.377 96.7793C251.568 94.5853 252.529 92.4596 253.258 90.4023L254.264 90.7637C253.45 92.8926 252.496 95.0638 251.402 97.2773C250.999 97.0495 250.657 96.8835 250.377 96.7793ZM262.438 97.1016C261.48 94.849 260.501 92.7428 259.498 90.7832L260.436 90.3633C261.477 92.4141 262.486 94.4941 263.463 96.6035L262.438 97.1016ZM264.703 93.5762L264.42 92.4434C265.175 92.235 266.37 91.8932 268.004 91.418V86.6426H264.781V85.6172H268.004V81.7988H269.078V85.6172H272.018V86.6426H269.078V91.0957C270.387 90.7116 271.461 90.3796 272.301 90.0996C272.32 90.4902 272.353 90.8516 272.398 91.1836C271.656 91.3984 270.549 91.7305 269.078 92.1797V98.0977C269.098 99.4193 268.424 100.1 267.057 100.139C266.49 100.165 265.852 100.178 265.143 100.178C265.097 99.8457 265.016 99.4681 264.898 99.0449C265.536 99.084 266.178 99.1035 266.822 99.1035C267.63 99.123 268.023 98.7552 268.004 98V92.5215C266.526 92.9967 265.426 93.3483 264.703 93.5762ZM272.662 83.2832H283.424V84.3379H279.996V97.1797C280.061 99.0938 279.156 100.048 277.281 100.041C276.917 100.048 276.526 100.054 276.109 100.061C275.908 100.061 275.683 100.061 275.436 100.061C275.221 100.061 274.895 100.061 274.459 100.061C274.4 99.6699 274.312 99.2826 274.195 98.8984C275.139 98.9505 276.015 98.9766 276.822 98.9766C277.623 98.9831 278.163 98.8366 278.443 98.5371C278.743 98.2572 278.889 97.7233 278.883 96.9355V84.3379H272.662V83.2832ZM285.641 83.0586H302.721V84.123H298.717V90.2559H303.561V91.3398H298.717V100.344H297.604V91.3398H290.982C290.995 91.5807 291.002 91.8281 291.002 92.082C291.002 95.9622 289.296 98.7617 285.885 100.48C285.637 100.135 285.37 99.8034 285.084 99.4844C287.011 98.4102 288.274 97.3327 288.873 96.252C289.537 95.1842 289.872 93.5469 289.879 91.3398H284.781V90.2559H289.879V84.123H285.641V83.0586ZM291.002 84.123V90.2559H297.604V84.123H291.002ZM305.104 92.5996C304.921 92.3327 304.68 92.0267 304.381 91.6816C306.295 88.9342 307.809 85.5814 308.922 81.623L310.084 81.8965C309.739 83.0163 309.371 84.0645 308.98 85.041H314.303V86.1641C313.671 92.362 310.81 97.0755 305.719 100.305C305.478 99.9661 305.204 99.6439 304.898 99.3379C309.814 96.4147 312.581 92.0007 313.199 86.0957H308.561C308.189 86.9811 307.737 87.9479 307.203 88.9961C308.57 89.9922 309.71 90.8548 310.621 91.584L309.879 92.4629C308.616 91.3431 307.577 90.4674 306.764 89.8359C306.23 90.8125 305.676 91.7337 305.104 92.5996ZM316.744 81.6621H317.838V88.4004L318.443 87.7559C320.143 88.9212 321.816 90.1289 323.463 91.3789L322.662 92.3164C321.1 91.0339 319.492 89.8099 317.838 88.6445V100.422H316.744V81.6621ZM335.523 89.2207H336.578C336.533 91.5384 336.285 93.2637 335.836 94.3965H343.062V95.3633H335.377C335.26 95.5977 335.126 95.8158 334.977 96.0176C335.263 96.1283 335.68 96.291 336.227 96.5059C339.091 97.6126 341.363 98.5306 343.043 99.2598L342.438 100.256C339.794 99.0514 337.096 97.8926 334.342 96.7793C332.949 98.2832 329.928 99.4909 325.279 100.402C325.195 100.201 325.035 99.9108 324.801 99.5332C324.749 99.4486 324.71 99.3835 324.684 99.3379C329.996 98.3743 333.147 97.0495 334.137 95.3633H324.938V94.3965H334.684C335.23 93.3158 335.51 91.5905 335.523 89.2207ZM333.404 81.6035H334.459V83.5957H341.695V84.5625H334.459V87.0625H342.516V88.0586L341.119 90.7246C340.82 90.5814 340.507 90.4609 340.182 90.3633L341.461 88.0195H325.24V87.0625H333.404V84.5625H326.402V83.5957H333.404V81.6035ZM331.402 93.5762C329.788 93.0358 328.141 92.5378 326.461 92.082L326.822 91.2812C328.521 91.75 330.175 92.248 331.783 92.7754L331.402 93.5762ZM332.74 91.3594C331.516 90.9492 329.908 90.4349 327.916 89.8164L328.277 89.0645C330.068 89.5658 331.676 90.0508 333.102 90.5195L332.74 91.3594ZM344.596 91.0566H353.316V88.7617H345.963V87.8633H353.316V86.584H354.381V87.8633H362.057V88.7617H354.381V91.0566H363.424V91.9648H344.596V91.0566ZM357.477 92.7168H358.541V94.1426H362.76V95.041H358.541V97.7754C358.619 99.377 357.799 100.171 356.08 100.158C355.546 100.171 354.693 100.178 353.521 100.178C353.469 99.7741 353.382 99.4095 353.258 99.084C354.137 99.1361 355.012 99.1621 355.885 99.1621C356.484 99.1686 356.897 99.0482 357.125 98.8008C357.366 98.5599 357.483 98.1335 357.477 97.5215V95.041H345.26V94.1426H357.477V92.7168ZM348.385 81.3984L349.42 81.623C349.003 82.4238 348.665 83.0293 348.404 83.4395H354.117V84.3184H347.799C347.089 85.3079 346.249 86.2292 345.279 87.082C345.045 86.8021 344.778 86.5482 344.479 86.3203C346.126 85.0508 347.428 83.4102 348.385 81.3984ZM356.617 81.3984L357.682 81.6035C357.356 82.2936 357.037 82.9056 356.725 83.4395H363.238V84.3184H356.139C355.742 84.9108 355.227 85.5391 354.596 86.2031C354.374 86.0078 354.075 85.7995 353.697 85.5781C355.012 84.3411 355.986 82.9479 356.617 81.3984ZM348.541 96.0371L349.283 95.3828C350.253 96.1836 351.197 97.0104 352.115 97.8633L351.324 98.5957C350.452 97.7493 349.524 96.8965 348.541 96.0371ZM360.24 86.418L359.459 87.1016C358.801 86.3984 358.183 85.7767 357.604 85.2363L358.316 84.6406C358.915 85.1549 359.557 85.7474 360.24 86.418ZM351.461 86.4375L350.641 87.082C350.165 86.5026 349.618 85.8743 349 85.1973L349.762 84.6406C350.257 85.1354 350.823 85.7344 351.461 86.4375ZM372.184 98V95.8418H372.145C371.799 96.5775 371.298 97.1667 370.641 97.6094C369.983 98.0456 369.254 98.2637 368.453 98.2637C367.424 98.2637 366.611 97.9772 366.012 97.4043C365.413 96.8249 365.113 96.0957 365.113 95.2168C365.113 93.3288 366.363 92.1895 368.863 91.7988L372.184 91.3008C372.184 88.9831 371.311 87.8242 369.566 87.8242C368.382 87.8242 367.226 88.3027 366.1 89.2598V88.0879C366.497 87.7689 367.037 87.4987 367.721 87.2773C368.411 87.0495 369.059 86.9355 369.664 86.9355C370.777 86.9355 371.637 87.2806 372.242 87.9707C372.848 88.6608 373.15 89.6634 373.15 90.9785V98H372.184ZM369.215 92.6191C368.082 92.7819 367.285 93.0456 366.822 93.4102C366.367 93.7682 366.139 94.3574 366.139 95.1777C366.139 95.8158 366.35 96.3431 366.773 96.7598C367.203 97.1699 367.799 97.375 368.561 97.375C369.596 97.375 370.458 96.9909 371.148 96.2227C371.839 95.4544 372.184 94.4616 372.184 93.2441V92.1895L369.215 92.6191ZM377.428 96.0762H377.379V102.971H376.412V87.1992H377.379V89.4258H377.428C377.812 88.6315 378.365 88.0195 379.088 87.5898C379.811 87.1536 380.602 86.9355 381.461 86.9355C382.835 86.9355 383.906 87.4108 384.674 88.3613C385.449 89.3053 385.836 90.5879 385.836 92.209C385.836 94.0189 385.393 95.4805 384.508 96.5938C383.622 97.707 382.457 98.2637 381.012 98.2637C379.397 98.2637 378.202 97.5345 377.428 96.0762ZM377.379 92.0625V93.4199C377.379 94.5072 377.721 95.4382 378.404 96.2129C379.088 96.9876 379.986 97.375 381.1 97.375C382.2 97.375 383.095 96.903 383.785 95.959C384.475 95.015 384.82 93.7715 384.82 92.2285C384.82 90.8809 384.501 89.8099 383.863 89.0156C383.232 88.2214 382.389 87.8242 381.334 87.8242C380.077 87.8242 379.104 88.2474 378.414 89.0938C377.724 89.9336 377.379 90.9232 377.379 92.0625ZM389.537 96.0762H389.488V102.971H388.521V87.1992H389.488V89.4258H389.537C389.921 88.6315 390.475 88.0195 391.197 87.5898C391.92 87.1536 392.711 86.9355 393.57 86.9355C394.944 86.9355 396.015 87.4108 396.783 88.3613C397.558 89.3053 397.945 90.5879 397.945 92.209C397.945 94.0189 397.503 95.4805 396.617 96.5938C395.732 97.707 394.566 98.2637 393.121 98.2637C391.507 98.2637 390.312 97.5345 389.537 96.0762ZM389.488 92.0625V93.4199C389.488 94.5072 389.83 95.4382 390.514 96.2129C391.197 96.9876 392.096 97.375 393.209 97.375C394.309 97.375 395.204 96.903 395.895 95.959C396.585 95.015 396.93 93.7715 396.93 92.2285C396.93 90.8809 396.611 89.8099 395.973 89.0156C395.341 88.2214 394.498 87.8242 393.443 87.8242C392.187 87.8242 391.214 88.2474 390.523 89.0938C389.833 89.9336 389.488 90.9232 389.488 92.0625ZM400.201 83.4395H406.441V98.9766H405.406V97.2773H401.246V99.2207H400.201V83.4395ZM414.586 81.5645H415.641V85.9395H418.346V86.9355H415.641V97.502C415.66 99.1947 414.801 100.054 413.062 100.08C412.125 100.106 411.178 100.119 410.221 100.119C410.162 99.709 410.077 99.3216 409.967 98.957C410.787 98.9961 411.731 99.0156 412.799 99.0156C413.469 99.0221 413.932 98.8919 414.186 98.625C414.459 98.3711 414.592 97.9154 414.586 97.2578V86.9355H407.564V85.9395H414.586V81.5645ZM401.246 90.8223V96.3203H405.406V90.8223H401.246ZM401.246 84.3965V89.8848H405.406V84.3965H401.246ZM410.582 94.0645C409.807 92.4759 409.081 91.0599 408.404 89.8164L409.303 89.3574C410.143 90.8288 410.888 92.222 411.539 93.5371L410.582 94.0645ZM421.861 82.502H435.924V90.4219H421.861V82.502ZM430.484 91.3203H431.559V98.7227H438.199V99.7188H419.586V98.7227H426.119V91.3203H427.203V98.7227H430.484V91.3203ZM422.926 86.877V89.4648H434.859V86.877H422.926ZM422.926 83.459V85.959H434.859V83.459H422.926ZM433.365 96.1641C434.42 94.7839 435.387 93.4232 436.266 92.082L437.184 92.5996C436.135 94.2012 435.175 95.5879 434.303 96.7598L433.365 96.1641ZM420.738 92.5605L421.627 92.082C422.63 93.4297 423.593 94.8034 424.518 96.2031L423.541 96.7598C422.747 95.4642 421.812 94.0645 420.738 92.5605ZM439.42 88.4395H458.365V89.5234H449.703V97.6582C449.762 99.2598 449.036 100.067 447.525 100.08C447.115 100.1 446.725 100.109 446.354 100.109C446.171 100.116 445.966 100.119 445.738 100.119C445.549 100.119 445.23 100.119 444.781 100.119C444.736 99.735 444.664 99.3346 444.566 98.918C445.387 98.9701 446.214 98.9961 447.047 98.9961C447.626 99.0026 448.027 98.8952 448.248 98.6738C448.476 98.472 448.587 98.1009 448.58 97.5605V89.5234H439.42V88.4395ZM441.627 82.8828H456.227V83.9375H441.627V82.8828ZM443.619 91.6816L444.664 92.2383C443.238 94.6471 441.832 96.8021 440.445 98.7031C440.12 98.4427 439.785 98.2083 439.439 98C440.95 96.0534 442.343 93.9473 443.619 91.6816ZM452.984 92.2969L453.922 91.6816C455.224 93.3353 456.692 95.2819 458.326 97.5215L457.301 98.2246C455.901 96.1803 454.462 94.2044 452.984 92.2969ZM459.498 93.3223L459.381 92.1602C460.436 91.9193 461.422 91.6784 462.34 91.4375V86.584H459.703V85.6367H462.34V81.7988H463.424V85.6367H465.807V86.584H463.424V91.1445C464.186 90.9427 465.038 90.7083 465.982 90.4414C465.982 90.6693 465.989 90.9199 466.002 91.1934C466.008 91.3105 466.015 91.4049 466.021 91.4766C465.807 91.5352 465.491 91.6198 465.074 91.7305C464.345 91.9193 463.795 92.069 463.424 92.1797V98.0195C463.482 99.4779 462.815 100.204 461.422 100.197C461.077 100.21 460.549 100.217 459.84 100.217C459.775 99.7546 459.703 99.377 459.625 99.084C459.84 99.1035 460.071 99.1198 460.318 99.1328C460.436 99.1393 460.566 99.1426 460.709 99.1426C460.826 99.1426 460.999 99.1426 461.227 99.1426C462.014 99.1947 462.385 98.8138 462.34 98V92.4824C461.624 92.6777 460.676 92.9577 459.498 93.3223ZM466.666 85.9395H473.004C473.948 84.5658 474.859 83.127 475.738 81.623L476.783 82.1211C475.859 83.5273 474.999 84.8001 474.205 85.9395H478.082V86.9355H466.666V85.9395ZM465.846 98.1758H478.443V99.1816H465.846V98.1758ZM467.32 91.7598H477.301V92.7559H467.32V91.7598ZM468.082 82.2188L468.941 81.7012C469.723 82.7103 470.484 83.7487 471.227 84.8164L470.24 85.4023C469.68 84.5039 468.961 83.4427 468.082 82.2188ZM485.787 88.5957L486.744 88.3418C486.894 88.7715 487.07 89.3509 487.271 90.0801C487.285 90.1322 487.294 90.1712 487.301 90.1973H490.426V91.0176H486.861V92.9414H490.143V93.7617H486.861V95.6758H490.201V96.4961H486.861V98.4004H490.66V99.2207H482.438V100.344H481.461V92.3359C481.116 92.7982 480.631 93.3809 480.006 94.084C479.843 93.8626 479.622 93.6152 479.342 93.3418C480.839 91.7728 482.014 90.0736 482.867 88.2441L483.785 88.5762C483.544 89.0449 483.238 89.5853 482.867 90.1973H486.305C486.272 90.0931 486.223 89.9336 486.158 89.7188C486.008 89.2305 485.885 88.8561 485.787 88.5957ZM491.246 98.3223C491.018 98.0423 490.771 97.7884 490.504 97.5605C491.493 96.7858 492.288 96.0794 492.887 95.4414C492.34 93.3451 491.992 90.7116 491.842 87.541H479.605V86.6621H484.898V84.5625H480.758V83.7031H484.898V81.7207H485.904V83.7031H489.664V84.5625H485.904V86.6621H491.803C491.725 84.7806 491.679 83.0944 491.666 81.6035H492.701C492.721 83.5176 492.76 85.2038 492.818 86.6621H498.141V87.541H492.867C492.984 90.1973 493.264 92.5117 493.707 94.4844C494.638 93.332 495.523 91.7305 496.363 89.6797L497.32 90.0801C496.194 92.5866 495.081 94.4583 493.98 95.6953C494.566 97.8958 495.273 99.0124 496.1 99.0449C496.503 99.0319 496.764 98.7422 496.881 98.1758C497.07 97.2513 497.216 96.2454 497.32 95.1582C497.639 95.3145 497.962 95.4414 498.287 95.5391C498.131 96.8997 497.975 97.9284 497.818 98.625C497.597 99.6081 497.06 100.106 496.207 100.119C494.911 100.21 493.902 99.0319 493.18 96.584C492.724 97.0723 492.079 97.6517 491.246 98.3223ZM482.438 93.7617V95.6758H485.885V93.7617H482.438ZM482.438 91.0176V92.9414H485.885V91.0176H482.438ZM482.438 96.4961V98.4004H485.885V96.4961H482.438ZM493.941 83.1562L494.664 82.541C495.758 83.5762 496.611 84.416 497.223 85.0605L496.461 85.7441C495.738 84.9499 494.898 84.0872 493.941 83.1562Z" fill="#757575"/>
<rect x="550" y="48" width="84" height="42" rx="10.5" fill="#D9D9D9"/>
<rect x="578" y="52" width="52" height="34" rx="8.5" fill="#1D2547"/>
</svg>
