<svg width="662" height="162" viewBox="0 0 662 162" fill="none" xmlns="http://www.w3.org/2000/svg">
<rect width="662" height="162" rx="20" fill="white" fill-opacity="0.7"/>
<rect x="0.5" y="0.5" width="661" height="161" rx="19.5" stroke="black" stroke-opacity="0.1"/>
<path d="M53.6328 36.1641H65.3281V45.3984H63.6406V44.7188H55.3203V45.3984H53.6328V36.1641ZM50 57.1406C52.1875 55.3125 53.4141 52.6797 53.6797 49.2422H55.4375C55.3594 50.3359 55.2031 51.3516 54.9688 52.2891C55.9531 53.8203 57.2422 54.8516 58.8359 55.3828V48.3047H51.5938V46.7812H67.3906V48.3047H60.5938V50.9531H66.4766V52.4297H60.5938V55.7578C61.6562 55.8828 64.0156 55.875 67.6719 55.7344C67.6406 55.7969 67.4609 56.3672 67.1328 57.4453C65.2734 57.4922 63.3438 57.4609 61.3438 57.3516C58.1875 57.3203 55.8672 56.2266 54.3828 54.0703C53.7266 55.6953 52.7734 57.0859 51.5234 58.2422C51.0547 57.8359 50.5469 57.4688 50 57.1406ZM44.3047 47.5547C45.3047 47.1172 46.3125 46.6641 47.3281 46.1953V41.1797H44.4922V39.6094H47.3281V35.25H49.1094V39.6094H52.1094V41.1797H49.1094V45.3281C50.0156 44.875 50.9141 44.4062 51.8047 43.9219C51.8516 44.5312 51.9141 45.1484 51.9922 45.7734C51.0391 46.2422 50.0781 46.7266 49.1094 47.2266V55.3828C49.1094 56.8984 48.5312 57.7109 47.375 57.8203C46.5625 57.9141 45.6484 57.9453 44.6328 57.9141C44.5391 57.2578 44.4375 56.6172 44.3281 55.9922C45.1875 56.0859 45.9219 56.1328 46.5312 56.1328C47.0625 56.1328 47.3281 55.8359 47.3281 55.2422V48.1172C46.3906 48.6172 45.4609 49.1094 44.5391 49.5938L44.3047 47.5547ZM55.3203 43.2422H63.6406V41.1562H55.3203V43.2422ZM63.6406 37.6406H55.3203V39.7031H63.6406V37.6406ZM69.2188 40.9922H71.9844V38.0391H68.6562V36.5156H79.1328V38.0391H75.9219V40.9922H78.7109V58.125H77.2109V56.5312H70.7188V58.1953H69.2188V40.9922ZM80.3047 36.3281H90.5938V45H89V44.1797H80.3047V36.3281ZM84.5 44.7422H86.1875V47.2734H90.8281V48.75H86.1875V51.5391H90.6406V52.9688H86.1875V55.7812H91.625V57.2578H79.2266V55.7812H84.5V52.9688H80.1641V51.5391H84.5V48.75H81.3828C81.0547 49.625 80.6953 50.4141 80.3047 51.1172C79.7734 50.7734 79.2812 50.5156 78.8281 50.3438C79.6875 49.0312 80.3438 47.2188 80.7969 44.9062L82.3906 45.2578C82.2188 46.0703 82.0547 46.7422 81.8984 47.2734H84.5V44.7422ZM71.5391 49.6406C71.2109 49.1875 70.9375 48.8359 70.7188 48.5859V50.7891H77.2109V48.8906H76.1797C75.1328 48.8906 74.6094 48.3672 74.6094 47.3203V42.4688H73.2969V44.1797C73.2969 46.4141 72.7109 48.2344 71.5391 49.6406ZM70.7188 55.0547H77.2109V52.2188H70.7188V55.0547ZM81.8984 42.7969H89V40.875H81.8984V42.7969ZM89 37.7109H81.8984V39.5391H89V37.7109ZM77.2109 42.4688H75.9219V46.8047C75.9219 47.2734 76.1484 47.5078 76.6016 47.5078H77.2109V42.4688ZM70.7188 48.0938C71.5625 47.0781 71.9844 45.8047 71.9844 44.2734V42.4688H70.7188V48.0938ZM73.2969 40.9922H74.6094V38.0391H73.2969V40.9922ZM93.7812 36.5156H114.266V57.9609H112.297V56.4609H95.75V57.9609H93.7812V36.5156ZM112.297 38.2266H95.75V54.7969H112.297V38.2266ZM99.0312 41.8359H108.992V52.0547H107.164V50.7422H100.859V52.0547H99.0312V41.8359ZM107.164 43.4531H100.859V49.125H107.164V43.4531ZM134.797 41.0391C136.016 42.4453 137.359 44.1484 138.828 46.1484C138.266 46.5078 137.711 46.875 137.164 47.25C136.773 46.6719 136.391 46.125 136.016 45.6094C132.188 45.7812 128.664 45.9531 125.445 46.125C124.945 46.1406 124.32 46.2344 123.57 46.4062L122.773 44.6719C123.352 44.375 123.898 44.0156 124.414 43.5938C125.617 42.5625 126.828 41.2812 128.047 39.75H122.82V38.1094H130.273C129.664 37.1719 129.094 36.3672 128.562 35.6953L130.109 34.7344C130.688 35.4688 131.344 36.3203 132.078 37.2891L130.812 38.1094H138.828V39.75H128.422L130.016 40.4297C128.562 41.9766 127.195 43.2891 125.914 44.3672C128.461 44.2891 131.461 44.1875 134.914 44.0625C134.367 43.3125 133.844 42.6328 133.344 42.0234L134.797 41.0391ZM133.555 47.1562H135.312V55.0078C135.312 55.7266 135.594 56.0859 136.156 56.0859H136.977C137.461 56.0859 137.766 55.6797 137.891 54.8672C138 54.0234 138.07 53.0469 138.102 51.9375C138.648 52.1875 139.234 52.4141 139.859 52.6172C139.75 53.9297 139.633 54.9297 139.508 55.6172C139.32 57.0078 138.578 57.7031 137.281 57.7031H135.828C134.312 57.7031 133.555 56.7891 133.555 54.9609V47.1562ZM124.648 47.25H126.43C126.43 50.6719 126.109 53.0625 125.469 54.4219C124.828 55.9375 123.531 57.2266 121.578 58.2891C121.219 57.7109 120.828 57.1953 120.406 56.7422C122.172 55.8203 123.297 54.75 123.781 53.5312C124.359 52.3281 124.648 50.2344 124.648 47.25ZM117.031 57.3516C117.969 54.6172 118.781 51.5938 119.469 48.2812C120.156 48.5781 120.789 48.8203 121.367 49.0078C120.664 51.6953 119.906 54.6875 119.094 57.9844L117.031 57.3516ZM129.266 47.25H131.023V57.6797H129.266V47.25ZM116.328 42.8672L117.477 41.5312C118.742 42.4062 120.062 43.4141 121.438 44.5547C120.891 45.1953 120.445 45.6953 120.102 46.0547C118.477 44.6016 117.219 43.5391 116.328 42.8672ZM117.219 36.7734L118.414 35.5312C119.555 36.4375 120.828 37.5078 122.234 38.7422L120.852 40.125C119.555 38.8125 118.344 37.6953 117.219 36.7734ZM153.828 59.7656C151.047 56.7031 149.656 53.0156 149.656 48.7031C149.656 44.3281 151.047 40.5938 153.828 37.5H155.844C153.062 40.6562 151.672 44.3828 151.672 48.6797C151.672 52.9141 153.047 56.6094 155.797 59.7656H153.828ZM183.664 53.3203L185.234 52.5703C186.141 54.1641 187.008 55.7891 187.836 57.4453L186.078 58.3359C185.828 57.7422 185.57 57.1641 185.305 56.6016C180.461 56.9141 176.125 57.2109 172.297 57.4922L172.039 55.5703C174.383 55.4766 176.656 55.3828 178.859 55.2891V51.7969H174.828V52.7109H173.094V45.2578H178.859V42.6797H175.766V43.6172H174.031V36.4219H185.469V43.6172H183.734V42.6797H180.641V45.2578H186.43V51.7969H180.641V55.1953C181.969 55.1641 183.273 55.1172 184.555 55.0547C184.258 54.4453 183.961 53.8672 183.664 53.3203ZM165.57 42.0703H170.164V38.1094H164.867V36.5391H171.898V44.6484H170.164V43.6406H167.094L166.672 47.2969H171.688C171.531 50.625 171.391 53.0547 171.266 54.5859C171.125 56.6953 170.07 57.75 168.102 57.75C167.398 57.75 166.555 57.7422 165.57 57.7266C165.477 57.1484 165.352 56.5312 165.195 55.875C166.211 55.9531 167.078 55.9922 167.797 55.9922C168.859 55.9922 169.43 55.4453 169.508 54.3516C169.633 52.7578 169.742 50.9297 169.836 48.8672H164.82L165.57 42.0703ZM183.734 37.9922H175.766V41.1094H183.734V37.9922ZM184.695 50.2266V46.8281H180.641V50.2266H184.695ZM174.828 50.2266H178.859V46.8281H174.828V50.2266ZM191.82 45.5391L192.898 44.3203C194.086 45.1016 195.148 45.8203 196.086 46.4766C197.367 45.3047 198.43 43.9609 199.273 42.4453H193.062C191.984 43.9609 190.758 45.3359 189.383 46.5703C189.055 46.1484 188.664 45.7266 188.211 45.3047C190.617 43.3047 192.492 40.8672 193.836 37.9922H189.219V36.4219H201.664V37.9922H195.688C195.203 39.0078 194.672 39.9844 194.094 40.9219H201.031V42.4922C199.016 46.8203 195.336 50.0469 189.992 52.1719C189.648 51.5781 189.289 51.0703 188.914 50.6484C191.164 49.8359 193.109 48.8125 194.75 47.5781C193.859 46.9062 192.883 46.2266 191.82 45.5391ZM209.867 35.3203V47.9297C209.867 50.0078 208.953 51.0547 207.125 51.0703C206.266 51.0859 205.273 51.0859 204.148 51.0703C204.102 50.5391 204.008 49.8984 203.867 49.1484C204.836 49.2266 205.789 49.2656 206.727 49.2656C207.648 49.2656 208.109 48.7109 208.109 47.6016V35.3203H209.867ZM203 37.1484H204.711V47.0391H203V37.1484ZM191.305 52.1484L192.992 52.7578C192.148 54.8047 191.297 56.5859 190.438 58.1016C189.906 57.7891 189.336 57.5078 188.727 57.2578C189.695 55.6641 190.555 53.9609 191.305 52.1484ZM206.492 52.5703L207.969 51.6797C209.031 53.3047 210.039 54.9219 210.992 56.5312L209.328 57.5391C208.5 55.9609 207.555 54.3047 206.492 52.5703ZM195.008 52.8984L196.578 52.125C197.266 53.4375 198.031 55.0312 198.875 56.9062L197.117 57.7266C196.43 56.0234 195.727 54.4141 195.008 52.8984ZM200.82 52.7109L202.391 51.9844C203.141 53.375 203.914 54.9375 204.711 56.6719L203 57.4688C202.219 55.5469 201.492 53.9609 200.82 52.7109ZM218.352 43.7578C220.32 41.3516 222.078 38.4531 223.625 35.0625L225.383 35.6484C224.789 36.8672 224.164 38.0625 223.508 39.2344H235.227V40.8047H229.414V44.4609H234.898V46.0312H229.414V49.6875H234.898V51.2578H229.414V54.9844H235.602V56.5078H222.758V58.2656H220.977V43.2422C220.539 43.8516 220.094 44.4531 219.641 45.0469C219.359 44.7031 218.93 44.2734 218.352 43.7578ZM212.305 47.6484C213.352 47.3984 214.359 47.1484 215.328 46.8984V41.2031H212.469V39.5859H215.328V35.1328H217.086V39.5859H219.805V41.2031H217.086V46.4531C218.039 46.1875 218.945 45.9297 219.805 45.6797C219.836 46.3984 219.891 47 219.969 47.4844C218.953 47.7656 217.992 48.0391 217.086 48.3047V55.4297C217.086 57.0078 216.469 57.8359 215.234 57.9141C214.453 57.9609 213.656 57.9766 212.844 57.9609C212.781 57.3359 212.688 56.6953 212.562 56.0391C213.344 56.1016 213.969 56.1328 214.438 56.1328C215.031 56.1328 215.328 55.8203 215.328 55.1953V48.8203C214.344 49.1016 213.414 49.375 212.539 49.6406L212.305 47.6484ZM222.758 54.9844H227.633V51.2578H222.758V54.9844ZM222.758 49.6875H227.633V46.0312H222.758V49.6875ZM222.758 44.4609H227.633V40.8047H222.758V44.4609ZM227.07 36.0234L228.523 35.1328C229.289 36.1172 229.992 37.0859 230.633 38.0391L229.016 39.0234C228.438 38.0547 227.789 37.0547 227.07 36.0234ZM237.008 41.7891H243.43C243.617 41.4453 243.797 41.0859 243.969 40.7109H245.82C245.633 41.0547 245.445 41.4141 245.258 41.7891H258.992V43.4062H244.414C243.82 44.4531 243.211 45.4375 242.586 46.3594V58.0078H240.805V48.7266C239.727 50.0391 238.594 51.1953 237.406 52.1953C236.984 51.5703 236.617 51.0547 236.305 50.6484C238.695 48.7109 240.758 46.2969 242.492 43.4062H237.008V41.7891ZM244.32 50.4609H251.375V49.3125L254.82 47.0859H245.586V45.5156H257.703V47.0859L253.156 49.9688V50.4609H259.32V52.0781H253.156V55.1953C253.156 57.0391 252.305 57.9609 250.602 57.9609C249.617 57.9609 248.258 57.9453 246.523 57.9141C246.445 57.3359 246.344 56.7188 246.219 56.0625C247.656 56.1875 248.969 56.25 250.156 56.25C250.969 56.25 251.375 55.8047 251.375 54.9141V52.0781H244.32V50.4609ZM236.961 37.2891H243.148V35.2031H244.93V37.2891H251.445V35.1797H253.227V37.2891H259.32V38.9062H253.227V40.6172H251.445V38.9062H244.93V40.3594H243.148V38.9062H236.961V37.2891ZM270.148 59.7656H268.133C270.914 56.6094 272.305 52.875 272.305 48.5625C272.305 44.3125 270.93 40.625 268.18 37.5H270.148C272.93 40.5312 274.32 44.2188 274.32 48.5625C274.32 52.9531 272.93 56.6875 270.148 59.7656Z" fill="black"/>
<path d="M45.9434 98V82.873H46.9883V98H45.9434ZM57.0859 98.2637C54.9505 98.2637 53.248 97.554 51.9785 96.1348C50.709 94.7155 50.0742 92.8698 50.0742 90.5977C50.0742 88.1823 50.7253 86.2487 52.0273 84.7969C53.3294 83.3451 55.11 82.6191 57.3691 82.6191C59.4069 82.6191 61.0573 83.319 62.3203 84.7188C63.5833 86.112 64.2148 87.9414 64.2148 90.207C64.2148 92.707 63.5671 94.6764 62.2715 96.1152C60.9824 97.5475 59.2539 98.2637 57.0859 98.2637ZM57.1934 83.5762C55.4355 83.5762 53.987 84.2142 52.8477 85.4902C51.7148 86.7598 51.1484 88.4232 51.1484 90.4805C51.1484 92.5638 51.6855 94.224 52.7598 95.4609C53.834 96.6914 55.2695 97.3066 57.0664 97.3066C58.9349 97.3066 60.4128 96.6979 61.5 95.4805C62.5938 94.2565 63.1406 92.554 63.1406 90.373C63.1406 88.2376 62.6068 86.571 61.5391 85.373C60.4779 84.1751 59.0293 83.5762 57.1934 83.5762ZM66.832 97.4629V96.2715C67.9128 96.9616 69.0098 97.3066 70.123 97.3066C71.3079 97.3066 72.2031 97.0625 72.8086 96.5742C73.4206 96.0859 73.7266 95.4023 73.7266 94.5234C73.7266 93.7487 73.5215 93.1302 73.1113 92.668C72.7012 92.2057 71.8092 91.5775 70.4355 90.7832C68.9056 89.8913 67.9355 89.1458 67.5254 88.5469C67.1217 87.9414 66.9199 87.2448 66.9199 86.457C66.9199 85.3893 67.3333 84.4844 68.1602 83.7422C68.9935 82.9935 70.1003 82.6191 71.4805 82.6191C72.3854 82.6191 73.2871 82.7721 74.1855 83.0781V84.1719C73.3001 83.7747 72.3529 83.5762 71.3438 83.5762C70.3216 83.5762 69.5078 83.8366 68.9023 84.3574C68.3034 84.8717 68.0039 85.5326 68.0039 86.3398C68.0039 87.1081 68.209 87.7233 68.6191 88.1855C69.0293 88.6413 69.918 89.263 71.2852 90.0508C72.6979 90.8516 73.6387 91.5645 74.1074 92.1895C74.5762 92.8079 74.8105 93.5208 74.8105 94.3281C74.8105 95.487 74.4069 96.4342 73.5996 97.1699C72.7923 97.8991 71.6562 98.2637 70.1914 98.2637C69.6706 98.2637 69.0684 98.1823 68.3848 98.0195C67.7077 97.8568 67.1901 97.6712 66.832 97.4629ZM77.2324 83.2637H95.2305V84.3184H88.0332C85.403 88.5697 81.8613 92.1569 77.4082 95.0801C77.1999 94.8066 76.9395 94.5137 76.627 94.2012C81.1647 91.2259 84.5176 87.9316 86.6855 84.3184H77.2324V83.2637ZM85.4453 88.1172H86.5684V100.461H85.4453V88.1172ZM94.6934 94.543C92.3561 92.9089 90.1556 91.4473 88.0918 90.1582L88.7656 89.3379C90.7578 90.5749 92.9714 92.0104 95.4062 93.6445L94.6934 94.543ZM108.648 84.9824L109.488 84.3574C111.025 85.8483 112.913 87.7559 115.152 90.0801L114.254 90.8027C114.078 90.627 113.814 90.347 113.463 89.9629C113.15 89.6243 112.913 89.3704 112.75 89.2012C112.151 89.2207 111.168 89.2565 109.801 89.3086C109.267 89.3281 108.863 89.3444 108.59 89.3574V97.0234C108.583 97.6354 108.701 98.0553 108.941 98.2832C109.169 98.5306 109.586 98.651 110.191 98.6445H112.047C113.284 98.7161 113.971 98.1823 114.107 97.043C114.218 96.3919 114.312 95.5911 114.391 94.6406C114.82 94.7969 115.172 94.8978 115.445 94.9434C115.361 95.9134 115.276 96.6719 115.191 97.2188C114.996 98.957 113.967 99.7839 112.105 99.6992H110.025C108.32 99.7253 107.48 98.918 107.506 97.2773V89.3965C106.848 89.416 105.852 89.4616 104.518 89.5332C104.212 89.5462 103.984 89.556 103.834 89.5625C103.834 89.8034 103.818 90.2331 103.785 90.8516V90.8418C103.792 90.8418 103.792 90.8678 103.785 90.9199C103.792 91.0762 103.795 91.2552 103.795 91.457C103.795 95.5065 101.78 98.4883 97.75 100.402C97.5807 100.161 97.3203 99.8685 96.9688 99.5234C99.2734 98.2799 100.758 97.1178 101.422 96.0371C102.184 94.9759 102.607 93.2897 102.691 90.9785C102.698 90.8353 102.711 90.5586 102.73 90.1484C102.737 89.8945 102.743 89.7122 102.75 89.6016C102.216 89.6341 101.438 89.6732 100.416 89.7188C100.182 89.7253 100.006 89.7318 99.8887 89.7383C99.8236 89.7448 99.7292 89.7513 99.6055 89.7578C99.0781 89.7773 98.6257 89.8327 98.248 89.9238L97.7109 88.7617C98.2122 88.5469 98.6777 88.2409 99.1074 87.8438C101.204 86.0339 103.15 83.9245 104.947 81.5156L106.09 82.1211C104.436 84.0807 102.35 86.2617 99.8301 88.6641C102.2 88.5924 106.194 88.446 111.812 88.2246C111.279 87.6647 110.494 86.8574 109.459 85.8027C109.088 85.4316 108.818 85.1582 108.648 84.9824ZM123.551 89.084C123.277 88.8822 122.942 88.6738 122.545 88.459C123.893 86.3236 124.928 84.0449 125.65 81.623L126.725 81.916C126.38 82.9577 126.048 83.8594 125.729 84.6211H134.645V85.6367H129.625V91.3984H135.494V92.4434H129.625V100.402H128.531V92.4434H122.291V91.3984H128.531V85.6367H125.289C124.872 86.6068 124.293 87.7559 123.551 89.084ZM120.289 97.8633C121.389 97.0299 122.49 96.1608 123.59 95.2559C123.674 95.6986 123.782 96.099 123.912 96.457C122.714 97.2969 121.565 98.166 120.465 99.0645C120.113 99.3574 119.788 99.6634 119.488 99.9824L118.688 99.123C119.065 98.6608 119.244 98.14 119.225 97.5605V89.3574H116.686V88.3613H120.289V97.8633ZM120.289 85.7441C119.371 84.6504 118.456 83.6413 117.545 82.7168L118.365 82.0234C119.296 82.9414 120.23 83.9212 121.168 84.9629L120.289 85.7441ZM148.326 81.7988H149.43C149.43 82.6387 149.43 83.2865 149.43 83.7422C149.423 84.2695 149.417 84.7676 149.41 85.2363C149.755 92.1048 151.816 96.7402 155.592 99.1426C155.208 99.5462 154.941 99.8587 154.791 100.08C151.38 97.5671 149.426 93.8464 148.932 88.918C148.652 93.2995 146.656 97.1016 142.945 100.324C142.646 99.9661 142.359 99.6732 142.086 99.4453C146.129 96.2161 148.176 91.9551 148.229 86.6621C148.294 85.2884 148.326 83.6673 148.326 81.7988ZM140.709 81.7988H141.812C141.78 83.5566 141.699 85.3958 141.568 87.3164C141.555 87.5443 141.529 87.8698 141.49 88.293C141.464 88.6055 141.445 88.8398 141.432 88.9961L142.145 88.4395C143.277 89.722 144.599 91.2812 146.109 93.1172L145.211 93.8594C144.638 93.1302 143.74 92.0299 142.516 90.5586C142.027 89.9661 141.66 89.5202 141.412 89.2207C141.106 93.3809 139.798 97.0007 137.486 100.08C137.239 99.8457 136.926 99.5918 136.549 99.3184C139.042 96.3757 140.364 92.1764 140.514 86.7207C140.631 84.7546 140.696 83.1139 140.709 81.7988ZM156.705 93.3223L156.588 92.1602C157.643 91.9193 158.629 91.6784 159.547 91.4375V86.584H156.91V85.6367H159.547V81.7988H160.631V85.6367H163.014V86.584H160.631V91.1445C161.393 90.9427 162.245 90.7083 163.189 90.4414C163.189 90.6693 163.196 90.9199 163.209 91.1934C163.215 91.3105 163.222 91.4049 163.229 91.4766C163.014 91.5352 162.698 91.6198 162.281 91.7305C161.552 91.9193 161.002 92.069 160.631 92.1797V98.0195C160.689 99.4779 160.022 100.204 158.629 100.197C158.284 100.21 157.757 100.217 157.047 100.217C156.982 99.7546 156.91 99.377 156.832 99.084C157.047 99.1035 157.278 99.1198 157.525 99.1328C157.643 99.1393 157.773 99.1426 157.916 99.1426C158.033 99.1426 158.206 99.1426 158.434 99.1426C159.221 99.1947 159.592 98.8138 159.547 98V92.4824C158.831 92.6777 157.883 92.9577 156.705 93.3223ZM163.873 85.9395H170.211C171.155 84.5658 172.066 83.127 172.945 81.623L173.99 82.1211C173.066 83.5273 172.206 84.8001 171.412 85.9395H175.289V86.9355H163.873V85.9395ZM163.053 98.1758H175.65V99.1816H163.053V98.1758ZM164.527 91.7598H174.508V92.7559H164.527V91.7598ZM165.289 82.2188L166.148 81.7012C166.93 82.7103 167.691 83.7487 168.434 84.8164L167.447 85.4023C166.887 84.5039 166.168 83.4427 165.289 82.2188ZM182.994 88.5957L183.951 88.3418C184.101 88.7715 184.277 89.3509 184.479 90.0801C184.492 90.1322 184.501 90.1712 184.508 90.1973H187.633V91.0176H184.068V92.9414H187.35V93.7617H184.068V95.6758H187.408V96.4961H184.068V98.4004H187.867V99.2207H179.645V100.344H178.668V92.3359C178.323 92.7982 177.838 93.3809 177.213 94.084C177.05 93.8626 176.829 93.6152 176.549 93.3418C178.046 91.7728 179.221 90.0736 180.074 88.2441L180.992 88.5762C180.751 89.0449 180.445 89.5853 180.074 90.1973H183.512C183.479 90.0931 183.43 89.9336 183.365 89.7188C183.215 89.2305 183.092 88.8561 182.994 88.5957ZM188.453 98.3223C188.225 98.0423 187.978 97.7884 187.711 97.5605C188.701 96.7858 189.495 96.0794 190.094 95.4414C189.547 93.3451 189.199 90.7116 189.049 87.541H176.812V86.6621H182.105V84.5625H177.965V83.7031H182.105V81.7207H183.111V83.7031H186.871V84.5625H183.111V86.6621H189.01C188.932 84.7806 188.886 83.0944 188.873 81.6035H189.908C189.928 83.5176 189.967 85.2038 190.025 86.6621H195.348V87.541H190.074C190.191 90.1973 190.471 92.5117 190.914 94.4844C191.845 93.332 192.73 91.7305 193.57 89.6797L194.527 90.0801C193.401 92.5866 192.288 94.4583 191.188 95.6953C191.773 97.8958 192.48 99.0124 193.307 99.0449C193.71 99.0319 193.971 98.7422 194.088 98.1758C194.277 97.2513 194.423 96.2454 194.527 95.1582C194.846 95.3145 195.169 95.4414 195.494 95.5391C195.338 96.8997 195.182 97.9284 195.025 98.625C194.804 99.6081 194.267 100.106 193.414 100.119C192.118 100.21 191.109 99.0319 190.387 96.584C189.931 97.0723 189.286 97.6517 188.453 98.3223ZM179.645 93.7617V95.6758H183.092V93.7617H179.645ZM179.645 91.0176V92.9414H183.092V91.0176H179.645ZM179.645 96.4961V98.4004H183.092V96.4961H179.645ZM191.148 83.1562L191.871 82.541C192.965 83.5762 193.818 84.416 194.43 85.0605L193.668 85.7441C192.945 84.9499 192.105 84.0872 191.148 83.1562ZM199.371 86.6426H204.645L205.494 83.8008H197.486V82.8047H215.074V83.8008H206.627L205.787 86.6426H213.131V95.5195H212.047V87.6387H200.445V95.5977H199.371V86.6426ZM214.107 100.139C212.356 99.0059 209.977 97.5117 206.969 95.6562C206.572 95.4089 206.272 95.2233 206.07 95.0996C205.328 97.2611 202.428 99.0547 197.369 100.48C197.174 100.116 196.959 99.7773 196.725 99.4648C201.9 98.1628 204.749 96.3757 205.27 94.1035C205.465 93.5632 205.595 92.9414 205.66 92.2383C205.732 91.5547 205.768 90.5163 205.768 89.123H206.852C206.871 91.4342 206.718 93.1009 206.393 94.123C210.025 96.291 212.825 97.9967 214.791 99.2402L214.107 100.139ZM216.666 98.6445H219.352V86.457H225.553V84.377H217.105V83.4395H225.553V81.5645H226.607V83.4395H235.113V84.377H226.607V86.457H232.809V98.6445H235.553V99.582H216.666V98.6445ZM220.406 96.4961V98.6445H231.754V96.4961H220.406ZM220.406 87.3848V89.5234H231.754V87.3848H220.406ZM220.406 93.459V95.5977H231.754V93.459H220.406ZM220.406 90.4219V92.5605H231.754V90.4219H220.406ZM242.086 100.441C241.969 100.168 241.77 99.8132 241.49 99.377C244.459 98.8561 246.653 98.1823 248.072 97.3555C247.773 97.2318 247.317 97.0397 246.705 96.7793C245.527 96.291 244.57 95.8906 243.834 95.5781C244.426 94.8294 245.006 94.0645 245.572 93.2832H242.545V92.3555H246.188C246.585 91.776 247.005 91.0924 247.447 90.3047L248.531 90.6172C248.089 91.3659 247.727 91.9453 247.447 92.3555H255.406V93.2832H252.789C252.047 94.9694 251.168 96.2682 250.152 97.1797C250.367 97.2708 250.696 97.4043 251.139 97.5801C252.916 98.3027 254.299 98.8822 255.289 99.3184L254.625 100.285C252.327 99.2044 250.543 98.4036 249.273 97.8828C247.763 98.9375 245.367 99.7904 242.086 100.441ZM236.773 93.0391L236.588 91.916C237.46 91.7272 238.362 91.5091 239.293 91.2617V86.4375H236.793V85.4805H239.293V81.623H240.348V85.4805H242.35V86.4375H240.348V90.9785C240.901 90.8353 241.601 90.6432 242.447 90.4023C242.467 90.832 242.499 91.1771 242.545 91.4375C242.285 91.5091 241.871 91.6198 241.305 91.7695C240.882 91.8802 240.562 91.9648 240.348 92.0234V98C240.406 99.4714 239.762 100.204 238.414 100.197C238.049 100.21 237.486 100.217 236.725 100.217C236.699 99.9889 236.637 99.6569 236.539 99.2207C236.526 99.1686 236.516 99.1296 236.51 99.1035C237.128 99.1426 237.701 99.1621 238.229 99.1621C238.958 99.1882 239.312 98.8008 239.293 98V92.3164C238.974 92.401 238.495 92.5378 237.857 92.7266C237.376 92.8698 237.014 92.974 236.773 93.0391ZM242.574 88.6445H250.006C250.768 87.5768 251.503 86.4831 252.213 85.3633L253.17 85.9004C252.545 86.7858 251.865 87.7005 251.129 88.6445H255.465V89.5625H242.574V88.6445ZM245.328 95.2559C245.452 95.3014 245.637 95.373 245.885 95.4707C247.252 96.0111 248.3 96.4277 249.029 96.7207C250.071 95.9395 250.943 94.7936 251.646 93.2832H246.812C246.311 93.9798 245.816 94.6374 245.328 95.2559ZM248.072 81.9844L249.01 81.5645C249.29 82.0267 249.638 82.6647 250.055 83.4785C250.107 83.5762 250.146 83.651 250.172 83.7031L249.293 84.084H254.83V85.002H243.189V84.084H249.186C248.827 83.3678 248.456 82.668 248.072 81.9844ZM245.006 85.9199L245.846 85.3828C246.471 86.1315 247.125 86.9714 247.809 87.9023L246.93 88.4785C246.174 87.4434 245.533 86.5905 245.006 85.9199ZM257.574 90.2754H258.551V97.5996C258.603 97.5931 258.681 97.5801 258.785 97.5605C259.456 97.4499 259.97 97.3555 260.328 97.2773V88.4199H257.887V82.5801H262.926V88.4199H261.334V91.3594H263.385V92.2578H261.334V97.1016C261.432 97.082 261.578 97.056 261.773 97.0234C262.216 96.9388 262.77 96.8314 263.434 96.7012C263.434 97.1764 263.44 97.5085 263.453 97.6973C261.415 98.0358 259.195 98.4557 256.793 98.957L256.588 97.9219C256.881 97.8828 257.21 97.8275 257.574 97.7559V90.2754ZM274.605 94.1816C273.486 93.3874 272.415 92.6484 271.393 91.9648V97.8047C271.373 98.5273 271.738 98.8789 272.486 98.8594H273.17C273.899 98.8594 274.332 98.4785 274.469 97.7168C274.592 96.9746 274.68 96.2617 274.732 95.5781C275.097 95.7214 275.423 95.8288 275.709 95.9004C275.611 96.7728 275.504 97.4857 275.387 98.0391C275.159 99.2565 274.465 99.8652 273.307 99.8652H272.35C271.015 99.8652 270.348 99.2174 270.348 97.9219V81.6816H271.393V90.8613C272.825 91.7142 274.098 92.502 275.211 93.2246L274.605 94.1816ZM267.008 81.7207H268.053V89.9629C268.066 90.2884 268.072 90.5684 268.072 90.8027C268.072 95.2298 266.591 98.4427 263.629 100.441C263.355 100.103 263.082 99.8099 262.809 99.5625C265.426 97.8177 266.799 95.3242 266.93 92.082C266.839 92.1471 266.702 92.248 266.52 92.3848C265.354 93.2637 264.41 93.9896 263.688 94.5625L263.111 93.5176C264.166 92.8405 265.458 91.9616 266.988 90.8809C266.988 90.7767 266.992 90.6172 266.998 90.4023C267.005 90.181 267.008 90.015 267.008 89.9043V81.7207ZM258.873 83.4785V87.5215H261.949V83.4785H258.873ZM271.832 88.8398C272.665 87.5247 273.45 86.1185 274.186 84.6211L275.113 85.0801C274.234 86.7598 273.44 88.1855 272.73 89.3574L271.832 88.8398ZM263.57 85.0801L264.469 84.6602C265.087 85.8451 265.761 87.2318 266.49 88.8203L265.533 89.2988C264.947 87.873 264.293 86.4668 263.57 85.0801ZM277.828 82.7363H294.41V100.305H293.365V99.0156H278.873V100.305H277.828V82.7363ZM278.873 83.7031V98.0586H293.365V83.7031H278.873ZM282.213 87.2188H290.006V94.3184H282.213V87.2188ZM283.229 88.1562V93.3809H288.99V88.1562H283.229ZM303.932 82.541H314.371V89.9629H303.932V82.541ZM297.506 83.7422H301.871V97.9805H300.914V96.3594H298.473V98.3809H297.506V83.7422ZM305.328 98.7812C306.441 98.2148 307.555 97.6094 308.668 96.9648L308.746 98.0781C307.743 98.5469 306.591 99.1686 305.289 99.9434C305.016 100.1 304.742 100.285 304.469 100.5L303.785 99.5625C304 99.3346 304.143 99.1198 304.215 98.918C304.293 98.7161 304.332 98.4557 304.332 98.1367V92.8438H302.77V91.9355H315.406V92.8438H308.629C309.124 94.0286 309.677 95.0085 310.289 95.7832C312.053 94.7285 313.235 93.9603 313.834 93.4785L314.566 94.2988C313.785 94.8066 312.587 95.5391 310.973 96.4961C311.904 97.4206 313.424 98.2409 315.533 98.957C315.273 99.3021 315.071 99.6178 314.928 99.9043C311.061 98.5371 308.635 96.1836 307.652 92.8438H305.328V98.7812ZM298.473 84.6797V95.4219H300.914V84.6797H298.473ZM309.625 86.6621V89.084H313.385V86.6621H309.625ZM304.908 86.6621V89.084H308.648V86.6621H304.908ZM313.385 83.4199H309.625V85.7832H313.385V83.4199ZM304.908 83.4199V85.7832H308.648V83.4199H304.908ZM323.932 82.541H334.371V89.9629H323.932V82.541ZM317.506 83.7422H321.871V97.9805H320.914V96.3594H318.473V98.3809H317.506V83.7422ZM325.328 98.7812C326.441 98.2148 327.555 97.6094 328.668 96.9648L328.746 98.0781C327.743 98.5469 326.591 99.1686 325.289 99.9434C325.016 100.1 324.742 100.285 324.469 100.5L323.785 99.5625C324 99.3346 324.143 99.1198 324.215 98.918C324.293 98.7161 324.332 98.4557 324.332 98.1367V92.8438H322.77V91.9355H335.406V92.8438H328.629C329.124 94.0286 329.677 95.0085 330.289 95.7832C332.053 94.7285 333.235 93.9603 333.834 93.4785L334.566 94.2988C333.785 94.8066 332.587 95.5391 330.973 96.4961C331.904 97.4206 333.424 98.2409 335.533 98.957C335.273 99.3021 335.071 99.6178 334.928 99.9043C331.061 98.5371 328.635 96.1836 327.652 92.8438H325.328V98.7812ZM318.473 84.6797V95.4219H320.914V84.6797H318.473ZM329.625 86.6621V89.084H333.385V86.6621H329.625ZM324.908 86.6621V89.084H328.648V86.6621H324.908ZM333.385 83.4199H329.625V85.7832H333.385V83.4199ZM324.908 83.4199V85.7832H328.648V83.4199H324.908ZM345.025 100.617H344.205L345.787 95.6074H346.861L345.025 100.617ZM357.105 92.3164C356.936 91.8477 356.777 91.4342 356.627 91.0762C358.639 88.3223 360.185 85.1647 361.266 81.6035L362.389 81.9648C361.881 83.4427 361.275 84.9336 360.572 86.4375V100.422H359.508V88.5371C358.701 90.028 357.9 91.2878 357.105 92.3164ZM372.828 88.9375L374.166 85.7441H365.572C364.928 87.0007 364.228 88.2246 363.473 89.416C363.134 89.1491 362.825 88.9375 362.545 88.7812C364.003 86.6263 365.224 84.2728 366.207 81.7207L367.291 82.043C366.894 82.9609 366.487 83.8594 366.07 84.7383H375.25V85.8223L373.893 89.2598C373.502 89.1165 373.147 89.0091 372.828 88.9375ZM368.551 87.6387H369.625V97.6582C369.677 99.3249 368.873 100.152 367.213 100.139C366.692 100.152 365.992 100.158 365.113 100.158C365.042 99.7546 364.96 99.3835 364.869 99.0449C365.488 99.084 366.194 99.1035 366.988 99.1035C368.069 99.1361 368.59 98.6348 368.551 97.5996V87.6387ZM362.486 96.7793C363.678 94.5853 364.638 92.4596 365.367 90.4023L366.373 90.7637C365.559 92.8926 364.605 95.0638 363.512 97.2773C363.108 97.0495 362.766 96.8835 362.486 96.7793ZM374.547 97.1016C373.59 94.849 372.61 92.7428 371.607 90.7832L372.545 90.3633C373.587 92.4141 374.596 94.4941 375.572 96.6035L374.547 97.1016ZM376.812 93.5762L376.529 92.4434C377.285 92.235 378.479 91.8932 380.113 91.418V86.6426H376.891V85.6172H380.113V81.7988H381.188V85.6172H384.127V86.6426H381.188V91.0957C382.496 90.7116 383.57 90.3796 384.41 90.0996C384.43 90.4902 384.462 90.8516 384.508 91.1836C383.766 91.3984 382.659 91.7305 381.188 92.1797V98.0977C381.207 99.4193 380.533 100.1 379.166 100.139C378.6 100.165 377.962 100.178 377.252 100.178C377.206 99.8457 377.125 99.4681 377.008 99.0449C377.646 99.084 378.287 99.1035 378.932 99.1035C379.739 99.123 380.133 98.7552 380.113 98V92.5215C378.635 92.9967 377.535 93.3483 376.812 93.5762ZM384.771 83.2832H395.533V84.3379H392.105V97.1797C392.171 99.0938 391.266 100.048 389.391 100.041C389.026 100.048 388.635 100.054 388.219 100.061C388.017 100.061 387.792 100.061 387.545 100.061C387.33 100.061 387.005 100.061 386.568 100.061C386.51 99.6699 386.422 99.2826 386.305 98.8984C387.249 98.9505 388.124 98.9766 388.932 98.9766C389.732 98.9831 390.273 98.8366 390.553 98.5371C390.852 98.2572 390.999 97.7233 390.992 96.9355V84.3379H384.771V83.2832ZM397.75 83.0586H414.83V84.123H410.826V90.2559H415.67V91.3398H410.826V100.344H409.713V91.3398H403.092C403.105 91.5807 403.111 91.8281 403.111 92.082C403.111 95.9622 401.406 98.7617 397.994 100.48C397.747 100.135 397.48 99.8034 397.193 99.4844C399.12 98.4102 400.383 97.3327 400.982 96.252C401.646 95.1842 401.982 93.5469 401.988 91.3398H396.891V90.2559H401.988V84.123H397.75V83.0586ZM403.111 84.123V90.2559H409.713V84.123H403.111ZM429.43 81.623H430.465V84.543H435.152L434.732 87.9219C434.374 87.8828 434.02 87.8633 433.668 87.8633L434.049 85.5H430.465V89.6016H434.205V90.5781C433.398 93.0195 432.346 94.9401 431.051 96.3398C432.099 97.3099 433.606 98.2572 435.572 99.1816C435.351 99.4551 435.123 99.7806 434.889 100.158C433.027 99.1621 431.5 98.1367 430.309 97.082C429.117 98.1823 427.379 99.3216 425.094 100.5C424.892 100.174 424.664 99.8555 424.41 99.543C426.689 98.5013 428.414 97.4336 429.586 96.3398C428.238 94.9076 427.258 92.974 426.646 90.5391H425.514V90.6758C425.52 90.8971 425.523 91.1217 425.523 91.3496C425.523 95.0671 424.599 98.0977 422.75 100.441C422.535 100.246 422.229 100.018 421.832 99.7578C422.841 98.4753 423.531 97.1764 423.902 95.8613C424.286 94.5592 424.475 92.8112 424.469 90.6172V84.543H429.43V81.623ZM416.91 86.3984V85.4414H422.75V86.4766C422.008 87.9479 421.214 89.2305 420.367 90.3242V90.8613C420.686 91.1608 420.992 91.4603 421.285 91.7598C421.773 91.252 422.288 90.64 422.828 89.9238L423.609 90.5195C423.108 91.1315 422.548 91.7533 421.93 92.3848C422.411 92.8796 422.906 93.3776 423.414 93.8789L422.691 94.6016C421.917 93.7487 421.142 92.9023 420.367 92.0625V100.383H419.352V91.5156C418.785 92.1341 418.01 92.8893 417.027 93.7812C416.891 93.4167 416.731 93.0749 416.549 92.7559C418.749 90.9785 420.455 88.8594 421.666 86.3984H416.91ZM425.514 85.5V89.6016H429.43V85.5H425.514ZM433.111 90.5391H427.711C428.258 92.6159 429.13 94.3021 430.328 95.5977C431.474 94.3477 432.402 92.6615 433.111 90.5391ZM418.727 82.0234L419.625 81.6035C420.12 82.4238 420.634 83.3418 421.168 84.3574L420.23 84.8359C419.671 83.7096 419.169 82.7721 418.727 82.0234ZM449.566 86.3594H450.689V89.7773H455.23V90.8223H450.689V97.541C450.735 99.2467 449.902 100.106 448.189 100.119C447.369 100.139 446.415 100.152 445.328 100.158C445.257 99.7676 445.162 99.3802 445.045 98.9961C445.872 99.0417 446.812 99.0645 447.867 99.0645C448.505 99.071 448.948 98.9408 449.195 98.6738C449.449 98.4199 449.573 97.9674 449.566 97.3164V90.8223H437.105V89.7773H449.566V86.3594ZM437.809 84.084H445.787C445.592 83.3743 445.361 82.6191 445.094 81.8184L446.148 81.5352C446.201 81.6914 446.275 81.9225 446.373 82.2285C446.627 83.0033 446.819 83.6217 446.949 84.084H454.449V87.5605H453.346V85.0996H438.912V87.5605H437.809V84.084ZM439.791 92.6387L440.592 91.916C441.855 93.0749 443.147 94.3151 444.469 95.6367L443.59 96.4766C442.392 95.168 441.126 93.8887 439.791 92.6387ZM468.014 82.1211L468.951 81.6621C469.433 82.3392 469.973 83.153 470.572 84.1035L469.605 84.6016H474.586V92.9414H473.531V92.0039H465.533C465.488 95.2982 464.612 98.0846 462.906 100.363C462.737 100.201 462.418 99.9661 461.949 99.6602C463.03 98.1628 463.723 96.7565 464.029 95.4414C464.374 94.1523 464.54 92.1374 464.527 89.3965V84.6016H469.547C468.98 83.625 468.469 82.7982 468.014 82.1211ZM465.592 85.5977V89.4648C465.592 89.6471 465.589 89.9173 465.582 90.2754C465.576 90.6009 465.572 90.8418 465.572 90.998H473.531V85.5977H465.592ZM456.773 93.0977L456.588 91.9648C456.9 91.8867 457.424 91.7533 458.16 91.5645C458.759 91.4017 459.215 91.2812 459.527 91.2031V86.3008H456.949V85.3438H459.527V81.6426H460.592V85.3438H463.033V86.3008H460.592V90.9004C460.735 90.8613 460.95 90.7995 461.236 90.7148C462.083 90.4805 462.727 90.2949 463.17 90.1582C463.17 90.3535 463.173 90.5163 463.18 90.6465C463.186 90.7962 463.196 90.9818 463.209 91.2031C462.883 91.2878 462.398 91.4245 461.754 91.6133C461.233 91.7565 460.846 91.8639 460.592 91.9355V98C460.663 99.4323 460.009 100.132 458.629 100.1C458.323 100.113 457.838 100.119 457.174 100.119C457.102 99.5918 457.034 99.2174 456.969 98.9961C457.47 99.0286 457.958 99.0449 458.434 99.0449C458.857 99.0514 459.143 98.9733 459.293 98.8105C459.456 98.6543 459.534 98.3646 459.527 97.9414V92.2578C458.57 92.5443 457.652 92.8242 456.773 93.0977ZM493.814 98L492.086 93.293H485.533L483.795 98H482.652L488.355 82.873H489.352L494.986 98H493.814ZM489.176 85.3438C489.098 85.1354 489.036 84.9271 488.99 84.7188C488.938 84.543 488.886 84.3672 488.834 84.1914H488.785C488.668 84.6602 488.554 85.0378 488.443 85.3242L485.895 92.3359H491.734L489.176 85.3438ZM498.365 96.0762H498.316V102.971H497.35V87.1992H498.316V89.4258H498.365C498.749 88.6315 499.303 88.0195 500.025 87.5898C500.748 87.1536 501.539 86.9355 502.398 86.9355C503.772 86.9355 504.843 87.4108 505.611 88.3613C506.386 89.3053 506.773 90.5879 506.773 92.209C506.773 94.0189 506.331 95.4805 505.445 96.5938C504.56 97.707 503.395 98.2637 501.949 98.2637C500.335 98.2637 499.14 97.5345 498.365 96.0762ZM498.316 92.0625V93.4199C498.316 94.5072 498.658 95.4382 499.342 96.2129C500.025 96.9876 500.924 97.375 502.037 97.375C503.137 97.375 504.033 96.903 504.723 95.959C505.413 95.015 505.758 93.7715 505.758 92.2285C505.758 90.8809 505.439 89.8099 504.801 89.0156C504.169 88.2214 503.326 87.8242 502.271 87.8242C501.015 87.8242 500.042 88.2474 499.352 89.0938C498.661 89.9336 498.316 90.9232 498.316 92.0625ZM510.475 96.0762H510.426V102.971H509.459V87.1992H510.426V89.4258H510.475C510.859 88.6315 511.412 88.0195 512.135 87.5898C512.857 87.1536 513.648 86.9355 514.508 86.9355C515.882 86.9355 516.952 87.4108 517.721 88.3613C518.495 89.3053 518.883 90.5879 518.883 92.209C518.883 94.0189 518.44 95.4805 517.555 96.5938C516.669 97.707 515.504 98.2637 514.059 98.2637C512.444 98.2637 511.249 97.5345 510.475 96.0762ZM510.426 92.0625V93.4199C510.426 94.5072 510.768 95.4382 511.451 96.2129C512.135 96.9876 513.033 97.375 514.146 97.375C515.247 97.375 516.142 96.903 516.832 95.959C517.522 95.015 517.867 93.7715 517.867 92.2285C517.867 90.8809 517.548 89.8099 516.91 89.0156C516.279 88.2214 515.436 87.8242 514.381 87.8242C513.124 87.8242 512.151 88.2474 511.461 89.0938C510.771 89.9336 510.426 90.9232 510.426 92.0625ZM60.6406 126.422C60.0807 125.836 59.6543 125.383 59.3613 125.064C55.377 125.175 51.9688 125.341 49.1367 125.562C48.4792 125.608 47.9388 125.68 47.5156 125.777L46.8027 124.625C47.2715 124.391 47.737 124.088 48.1992 123.717C49.4297 122.656 50.709 121.282 52.0371 119.596H45.2402V118.561H62.7402V119.596H53.5605C52.1608 121.282 50.6016 122.923 48.8828 124.518C51.0182 124.413 54.1921 124.273 58.4043 124.098C58.235 123.941 57.9779 123.694 57.6328 123.355C56.9818 122.711 56.4642 122.206 56.0801 121.842L56.959 121.197C58.515 122.662 60.0612 124.156 61.5977 125.68L60.6406 126.422ZM62.6426 115.436C58.86 113.717 56.0182 111.604 54.1172 109.098C51.8711 111.702 48.9251 113.922 45.2793 115.758C45.0254 115.439 44.752 115.126 44.459 114.82C48.6322 112.861 51.8451 110.406 54.0977 107.457L55.3574 107.643C55.2793 107.74 55.1589 107.887 54.9961 108.082C54.9049 108.186 54.8398 108.264 54.8008 108.316C56.6432 110.784 59.5176 112.825 63.4238 114.439C63.0853 114.811 62.8249 115.143 62.6426 115.436ZM48.8047 114.557H59.1172V115.582H48.8047V114.557ZM79.1562 113.717L80.3379 114.137C78.9121 117.913 77.4993 121.246 76.0996 124.137H83.2383V125.221H64.7617V124.137H74.8594C76.5456 120.738 77.9779 117.265 79.1562 113.717ZM65.2598 111.344H82.7598V112.398H65.2598V111.344ZM67.6816 114.322L68.7754 113.922C69.7975 116.376 70.8457 119.049 71.9199 121.939L70.7383 122.418C69.6836 119.326 68.6647 116.627 67.6816 114.322ZM72.877 107.896L73.9414 107.535C74.4427 108.635 74.9017 109.71 75.3184 110.758L74.1953 111.197C73.7786 109.973 73.3392 108.873 72.877 107.896ZM89.6445 107.984L90.582 107.564C90.8945 108.163 91.3014 108.987 91.8027 110.035L91.002 110.396H95.9629V111.383H90.2012C89.153 113.036 88.0918 114.55 87.0176 115.924C88.6061 115.82 89.9863 115.751 91.1582 115.719C91.7246 114.859 92.2585 113.919 92.7598 112.896L93.7168 113.297C91.7051 117.431 88.9186 120.611 85.3574 122.838C85.2207 122.636 84.9831 122.356 84.6445 121.998C84.625 121.972 84.6087 121.952 84.5957 121.939C87.0436 120.475 89.0195 118.714 90.5234 116.656C89.1432 116.695 87.623 116.783 85.9629 116.92L85.582 115.924C86.7148 114.895 87.8411 113.382 88.9609 111.383H85.084V110.396H90.7773C90.4779 109.661 90.1003 108.857 89.6445 107.984ZM101.344 107.916H102.398V123.619C102.49 125.175 101.731 125.976 100.123 126.021C99.4785 126.067 98.6973 126.093 97.7793 126.1C97.7533 125.729 97.6882 125.335 97.584 124.918C98.1699 124.951 98.8893 124.97 99.7422 124.977C100.868 125.035 101.402 124.518 101.344 123.424V107.916ZM85.543 125.582C89.612 123.466 92.5905 120.393 94.4785 116.363L95.4355 116.764C94.4915 118.645 93.4857 120.224 92.418 121.5C93.1276 122.145 94.0684 123.007 95.2402 124.088C95.7155 124.531 96.0768 124.869 96.3242 125.104L95.4844 125.943C94.5729 124.967 93.3392 123.727 91.7832 122.223C90.403 123.74 88.5833 125.159 86.3242 126.48C86.1224 126.201 85.862 125.901 85.543 125.582ZM97.5352 109.898H98.5801V121.842H97.5352V109.898ZM111.783 116.725C111.601 116.49 111.347 116.21 111.021 115.885C113.046 113.326 114.547 110.559 115.523 107.584L116.617 107.838C116.142 109.114 115.615 110.315 115.035 111.441H123.199V112.457H121.021C120.429 116.682 119.335 119.755 117.74 121.676C118.932 123.017 120.803 124.212 123.355 125.26C123.056 125.637 122.825 125.969 122.662 126.256C120.071 125.019 118.189 123.772 117.018 122.516C115.93 123.727 114.264 125.029 112.018 126.422C111.803 126.103 111.555 125.797 111.275 125.504C113.567 124.163 115.243 122.887 116.305 121.676C114.99 120.068 114.042 117.597 113.463 114.264C112.936 115.104 112.376 115.924 111.783 116.725ZM109.498 107.662H110.562V126.422H109.498V120.162C108.508 120.709 107.561 121.275 106.656 121.861C106.337 122.083 106.064 122.324 105.836 122.584L104.977 121.617C105.191 121.363 105.338 121.116 105.416 120.875C105.501 120.628 105.543 120.309 105.543 119.918V110.416H106.598V120.699C106.949 120.51 107.916 119.951 109.498 119.02V107.662ZM117.018 120.816C118.482 118.961 119.456 116.174 119.938 112.457H114.498C114.472 112.503 114.439 112.571 114.4 112.662C114.348 112.766 114.309 112.844 114.283 112.896C114.817 116.464 115.729 119.104 117.018 120.816ZM134.479 116.422C134.387 116.266 134.254 116.038 134.078 115.738C133.928 115.484 133.814 115.292 133.736 115.162C131.731 115.247 129.745 115.367 127.779 115.523C126.959 115.582 126.285 115.667 125.758 115.777L125.201 114.703C125.637 114.397 125.969 114.098 126.197 113.805C127.337 112.34 128.232 110.999 128.883 109.781H124.879V108.805H135.68V109.781H130.143C129.068 111.507 127.975 113.105 126.861 114.576C128.508 114.492 130.621 114.381 133.199 114.244C132.757 113.521 132.236 112.721 131.637 111.842L132.535 111.402C133.193 112.34 134.12 113.756 135.318 115.65C135.383 115.755 135.432 115.833 135.465 115.885L134.479 116.422ZM129.703 116.383H130.758V118.844H135.279V119.801H130.758V123.883C132.034 123.727 133.674 123.505 135.68 123.219C135.68 123.668 135.686 124.003 135.699 124.225C132.939 124.557 129.332 125.029 124.879 125.641L124.615 124.557C126.178 124.394 127.874 124.208 129.703 124V119.801H125.104V118.844H129.703V116.383ZM141.402 107.76H142.457V123.756C142.496 125.214 141.79 125.969 140.338 126.021C139.85 126.041 138.997 126.054 137.779 126.061C137.708 125.455 137.643 125.074 137.584 124.918C137.903 124.957 138.769 124.977 140.182 124.977C141.008 124.996 141.415 124.557 141.402 123.658V107.76ZM137.203 109.703H138.258V121.744H137.203V109.703ZM151.998 108.58H161.539V115.357H151.998V108.58ZM149.938 126.402C149.612 126.103 149.326 125.882 149.078 125.738C150.868 124.117 151.874 121.93 152.096 119.176L153.121 119.322C153.023 120.064 152.903 120.738 152.76 121.344C153.619 123.355 154.833 124.433 156.402 124.576V118.199H150.24V117.301H163.277V118.199H157.438V120.758H162.516V121.637H157.438V124.684C157.555 124.697 157.721 124.703 157.936 124.703C158.574 124.723 159.4 124.732 160.416 124.732C161.477 124.739 162.512 124.736 163.521 124.723C163.352 125.165 163.245 125.497 163.199 125.719C161.669 125.719 160.533 125.715 159.791 125.709C158.919 125.702 158.121 125.686 157.398 125.66C154.99 125.66 153.316 124.654 152.379 122.643C151.897 124.003 151.083 125.257 149.938 126.402ZM144.615 119.342L144.439 118.219C145.481 117.789 146.422 117.382 147.262 116.998V112.74H144.723V111.803H147.262V107.662H148.297V111.803H150.465V112.74H148.297V116.52C149.221 116.07 149.908 115.732 150.357 115.504C150.357 115.536 150.361 115.592 150.367 115.67C150.393 116.061 150.426 116.357 150.465 116.559C149.579 116.962 148.857 117.298 148.297 117.564V123.98C148.375 125.426 147.77 126.158 146.48 126.178C146.174 126.204 145.715 126.217 145.104 126.217C145.032 125.702 144.964 125.338 144.898 125.123C145.048 125.13 145.221 125.136 145.416 125.143C145.514 125.143 145.628 125.143 145.758 125.143C145.868 125.143 146.051 125.143 146.305 125.143C146.975 125.188 147.294 124.801 147.262 123.98V118.043C146.363 118.466 145.481 118.899 144.615 119.342ZM153.043 112.398V114.459H160.504V112.398H153.043ZM153.043 109.479V111.52H160.504V109.479H153.043ZM164.859 108.756H173.043V109.645H170.465V112.496H172.701V126.197H171.822V124.996H166.1V126.256H165.221V112.496H167.418V109.645H164.859V108.756ZM174.4 108.541H182.516V114.703H174.4V108.541ZM174.361 121.119H178.121V118.502H175.104C174.863 119.114 174.576 119.726 174.244 120.338C173.938 120.156 173.652 120.003 173.385 119.879C174.062 118.707 174.599 117.389 174.996 115.924L175.924 116.158C175.761 116.692 175.598 117.187 175.436 117.643H178.121V115.504H179.078V117.643H182.799V118.502H179.078V121.119H182.643V121.979H179.078V124.703H183.443V125.582H173.541V124.703H178.121V121.979H174.361V121.119ZM166.1 113.355V120.562H171.822V118.443H170.963C170.032 118.463 169.576 117.916 169.596 116.803V113.355H168.277V114.342C168.284 115.683 168.202 116.663 168.033 117.281C167.883 117.913 167.532 118.613 166.979 119.381C166.738 119.146 166.49 118.954 166.236 118.805C166.738 118.147 167.057 117.545 167.193 116.998C167.35 116.451 167.424 115.579 167.418 114.381V113.355H166.1ZM166.1 121.422V124.117H171.822V121.422H166.1ZM175.338 112.037V113.844H181.578V112.037H175.338ZM175.338 109.4V111.197H181.578V109.4H175.338ZM171.822 113.355H170.465V116.578C170.426 117.327 170.696 117.675 171.275 117.623H171.822V113.355ZM168.277 109.645V112.496H169.596V109.645H168.277Z" fill="#757575"/>
<rect x="550" y="60" width="84" height="42" rx="10.5" fill="#D9D9D9"/>
<rect x="554" y="64" width="52" height="34" rx="8.5" fill="white"/>
</svg>
