<svg width="122" height="126" viewBox="0 0 122 126" fill="none" xmlns="http://www.w3.org/2000/svg">
<rect x="25.2703" y="12.7198" width="72.325" height="72.325" rx="35.1325" fill="#C02BD1" fill-opacity="0.08"/>
<g filter="url(#filter0_ddf_1_1763)">
<rect x="29.6273" y="17.0767" width="63.6112" height="63.6112" rx="31.6627" fill="url(#paint0_radial_1_1763)"/>
<rect x="30.061" y="17.5105" width="62.7437" height="62.7437" rx="31.2289" stroke="url(#paint1_radial_1_1763)" stroke-width="0.86747"/>
</g>
<path d="M47.8384 41.7847C48.6677 41.7847 49.4027 41.879 50.0436 42.0675C50.6844 42.2559 51.2247 42.501 51.6645 42.8025C52.1042 43.0915 52.4372 43.4182 52.6634 43.7826C52.8896 44.1344 53.0027 44.48 53.0027 44.8192C53.0027 45.0454 52.9524 45.2464 52.8519 45.4224C52.7639 45.5983 52.6445 45.7491 52.4938 45.8747C52.3555 45.9878 52.1985 46.0758 52.0226 46.1386C51.8467 46.2014 51.6707 46.2328 51.4948 46.2328C51.2938 46.2328 51.1053 46.1888 50.9294 46.1009C50.7535 46.0004 50.565 45.8182 50.364 45.5543C50.3137 45.4915 50.2697 45.4286 50.232 45.3658C50.1943 45.2904 50.1441 45.2213 50.0812 45.1585C49.8676 44.8821 49.5786 44.6622 49.2143 44.4988C48.8624 44.3355 48.4164 44.2538 47.8761 44.2538C47.1975 44.2538 46.651 44.3732 46.2363 44.6119C45.8217 44.8381 45.6143 45.1711 45.6143 45.6108C45.6143 45.7616 45.6395 45.9061 45.6897 46.0443C45.7525 46.1826 45.8531 46.3082 45.9913 46.4213C46.1295 46.5344 46.3243 46.6349 46.5756 46.7229C46.8394 46.7982 47.2038 46.8988 47.6687 47.0244C48.3975 47.2255 48.9755 47.3888 49.4027 47.5145C49.8425 47.6275 50.1943 47.7281 50.4582 47.816C50.7221 47.8914 50.9294 47.9668 51.0802 48.0422C51.231 48.1176 51.3943 48.2118 51.5702 48.3249C51.7713 48.4631 51.9723 48.6265 52.1733 48.815C52.3744 49.0034 52.5503 49.2296 52.7011 49.4935C52.8644 49.7448 52.9964 50.0275 53.0969 50.3416C53.1974 50.6558 53.2477 51.0076 53.2477 51.3971C53.2477 52.0882 53.0969 52.7039 52.7953 53.2442C52.5063 53.7719 52.1419 54.2117 51.7022 54.5635C51.1493 54.9907 50.5336 55.286 49.8551 55.4494C49.1891 55.6127 48.5043 55.6944 47.8007 55.6944C47.1096 55.6944 46.4625 55.6378 45.8594 55.5248C45.2688 55.4117 44.7222 55.2295 44.2196 54.9782C43.717 54.7269 43.3212 54.4693 43.0322 54.2054C42.7558 53.929 42.5421 53.6714 42.3914 53.4327C42.2531 53.1814 42.1652 52.9615 42.1275 52.773C42.1024 52.5845 42.0898 52.4463 42.0898 52.3583C42.0898 52.1322 42.1338 51.9248 42.2217 51.7364C42.3097 51.5479 42.4228 51.3908 42.561 51.2652C42.6992 51.1395 42.8563 51.0453 43.0322 50.9824C43.2081 50.9071 43.384 50.8694 43.5599 50.8694C43.8741 50.8694 44.1379 50.9636 44.3515 51.1521C44.5777 51.328 44.7976 51.5793 45.0112 51.906C45.1117 52.0568 45.2248 52.2138 45.3505 52.3772C45.4761 52.528 45.6395 52.6662 45.8405 52.7918C46.0541 52.9175 46.318 53.0243 46.6321 53.1122C46.9462 53.1876 47.342 53.2253 47.8195 53.2253C48.0331 53.2253 48.253 53.2128 48.4792 53.1876C48.7054 53.1625 48.9253 53.106 49.1389 53.018C49.1766 53.0054 49.2457 52.974 49.3462 52.9238C49.4593 52.8609 49.5724 52.7793 49.6854 52.6787C49.8111 52.5657 49.9179 52.4274 50.0059 52.2641C50.0938 52.1007 50.1378 51.8934 50.1378 51.6421C50.1378 51.3783 50.0875 51.1646 49.987 51.0013C49.8865 50.8379 49.7546 50.6997 49.5912 50.5866C49.4907 50.5238 49.3902 50.4673 49.2896 50.417C49.2017 50.3668 49.0698 50.3165 48.8938 50.2662C48.7305 50.2034 48.5106 50.1406 48.2342 50.0778C47.9577 50.0024 47.5996 49.9081 47.1598 49.795C46.607 49.6443 46.0541 49.4809 45.5012 49.305C44.9609 49.1291 44.4646 48.8966 44.0123 48.6076C43.5725 48.3186 43.2144 47.9542 42.938 47.5145C42.6615 47.0621 42.5233 46.4967 42.5233 45.8182C42.5233 45.215 42.6364 44.6685 42.8626 44.1784C43.1013 43.6758 43.4468 43.2486 43.8992 42.8968C44.3515 42.5449 44.9044 42.2748 45.5578 42.0863C46.2237 41.8853 46.9839 41.7847 47.8384 41.7847ZM54.5384 48.7584C54.5384 47.8412 54.6704 46.9679 54.9343 46.1386C55.2107 45.2967 55.6191 44.5616 56.1594 43.9334C56.7122 43.2926 57.397 42.7837 58.2138 42.4067C59.0431 42.0298 60.0106 41.8413 61.1163 41.8413C62.1467 41.8413 63.0702 42.0172 63.8869 42.369C64.7037 42.7209 65.3885 43.2046 65.9413 43.8203C66.5068 44.436 66.934 45.1711 67.223 46.0255C67.5245 46.8674 67.6753 47.7783 67.6753 48.7584C67.6753 49.7259 67.5245 50.6306 67.223 51.4725C66.9214 52.3144 66.4816 53.0494 65.9036 53.6777C65.3382 54.3059 64.6408 54.8023 63.8115 55.1666C62.9822 55.5185 62.0336 55.6944 60.9655 55.6944C59.8472 55.6944 58.886 55.4871 58.0818 55.0724C57.2777 54.6578 56.6117 54.1237 56.084 53.4704C55.5562 52.8044 55.1667 52.0631 54.9154 51.2463C54.6641 50.417 54.5384 49.5877 54.5384 48.7584ZM61.1163 44.3669C60.5509 44.3669 60.0483 44.4863 59.6085 44.725C59.1813 44.9637 58.8232 45.2841 58.5342 45.6862C58.2577 46.0758 58.0441 46.5344 57.8933 47.0621C57.7551 47.5773 57.686 48.1176 57.686 48.683C57.686 49.06 57.73 49.506 57.818 50.0212C57.9059 50.5238 58.0693 51.0076 58.308 51.4725C58.5593 51.9374 58.9048 52.3332 59.3446 52.6599C59.797 52.9866 60.3813 53.1499 61.0975 53.1499C61.6629 53.1499 62.1592 53.0431 62.5864 52.8295C63.0137 52.6034 63.3718 52.2955 63.6608 51.906C63.9623 51.5165 64.1822 51.0578 64.3204 50.5301C64.4712 49.9898 64.5466 49.4055 64.5466 48.7773C64.5466 48.6265 64.5403 48.4129 64.5278 48.1364C64.5152 47.8474 64.4649 47.5333 64.377 47.194C64.3016 46.8422 64.1696 46.4904 63.9812 46.1386C63.8053 45.7742 63.554 45.4412 63.2273 45.1396C62.9383 44.8883 62.6116 44.6999 62.2472 44.5742C61.8828 44.436 61.5058 44.3669 61.1163 44.3669ZM74.5639 41.7847C75.3932 41.7847 76.1283 41.879 76.7691 42.0675C77.4099 42.2559 77.9502 42.501 78.39 42.8025C78.8298 43.0915 79.1627 43.4182 79.3889 43.7826C79.6151 44.1344 79.7282 44.48 79.7282 44.8192C79.7282 45.0454 79.6779 45.2464 79.5774 45.4224C79.4894 45.5983 79.3701 45.7491 79.2193 45.8747C79.0811 45.9878 78.924 46.0758 78.7481 46.1386C78.5722 46.2014 78.3963 46.2328 78.2204 46.2328C78.0193 46.2328 77.8308 46.1888 77.6549 46.1009C77.479 46.0004 77.2905 45.8182 77.0895 45.5543C77.0392 45.4915 76.9952 45.4286 76.9576 45.3658C76.9199 45.2904 76.8696 45.2213 76.8068 45.1585C76.5932 44.8821 76.3042 44.6622 75.9398 44.4988C75.588 44.3355 75.1419 44.2538 74.6016 44.2538C73.9231 44.2538 73.3765 44.3732 72.9618 44.6119C72.5472 44.8381 72.3399 45.1711 72.3399 45.6108C72.3399 45.7616 72.365 45.9061 72.4152 46.0443C72.4781 46.1826 72.5786 46.3082 72.7168 46.4213C72.855 46.5344 73.0498 46.6349 73.3011 46.7229C73.565 46.7982 73.9293 46.8988 74.3943 47.0244C75.123 47.2255 75.701 47.3888 76.1283 47.5145C76.568 47.6275 76.9199 47.7281 77.1837 47.816C77.4476 47.8914 77.6549 47.9668 77.8057 48.0422C77.9565 48.1176 78.1198 48.2118 78.2957 48.3249C78.4968 48.4631 78.6978 48.6265 78.8989 48.815C79.0999 49.0034 79.2758 49.2296 79.4266 49.4935C79.59 49.7448 79.7219 50.0275 79.8224 50.3416C79.9229 50.6558 79.9732 51.0076 79.9732 51.3971C79.9732 52.0882 79.8224 52.7039 79.5208 53.2442C79.2318 53.7719 78.8675 54.2117 78.4277 54.5635C77.8748 54.9907 77.2591 55.286 76.5806 55.4494C75.9146 55.6127 75.2298 55.6944 74.5262 55.6944C73.8351 55.6944 73.188 55.6378 72.5849 55.5248C71.9943 55.4117 71.4477 55.2295 70.9451 54.9782C70.4425 54.7269 70.0467 54.4693 69.7577 54.2054C69.4813 53.929 69.2677 53.6714 69.1169 53.4327C68.9787 53.1814 68.8907 52.9615 68.853 52.773C68.8279 52.5845 68.8153 52.4463 68.8153 52.3583C68.8153 52.1322 68.8593 51.9248 68.9473 51.7364C69.0352 51.5479 69.1483 51.3908 69.2865 51.2652C69.4247 51.1395 69.5818 51.0453 69.7577 50.9824C69.9336 50.9071 70.1095 50.8694 70.2855 50.8694C70.5996 50.8694 70.8634 50.9636 71.0771 51.1521C71.3032 51.328 71.5231 51.5793 71.7367 51.906C71.8372 52.0568 71.9503 52.2138 72.076 52.3772C72.2016 52.528 72.365 52.6662 72.566 52.7918C72.7796 52.9175 73.0435 53.0243 73.3576 53.1122C73.6718 53.1876 74.0676 53.2253 74.545 53.2253C74.7586 53.2253 74.9785 53.2128 75.2047 53.1876C75.4309 53.1625 75.6508 53.106 75.8644 53.018C75.9021 53.0054 75.9712 52.974 76.0717 52.9238C76.1848 52.8609 76.2979 52.7793 76.411 52.6787C76.5366 52.5657 76.6434 52.4274 76.7314 52.2641C76.8193 52.1007 76.8633 51.8934 76.8633 51.6421C76.8633 51.3783 76.8131 51.1646 76.7125 51.0013C76.612 50.8379 76.4801 50.6997 76.3167 50.5866C76.2162 50.5238 76.1157 50.4673 76.0152 50.417C75.9272 50.3668 75.7953 50.3165 75.6194 50.2662C75.456 50.2034 75.2361 50.1406 74.9597 50.0778C74.6833 50.0024 74.3252 49.9081 73.8854 49.795C73.3325 49.6443 72.7796 49.4809 72.2268 49.305C71.6865 49.1291 71.1901 48.8966 70.7378 48.6076C70.298 48.3186 69.9399 47.9542 69.6635 47.5145C69.387 47.0621 69.2488 46.4967 69.2488 45.8182C69.2488 45.215 69.3619 44.6685 69.5881 44.1784C69.8268 43.6758 70.1724 43.2486 70.6247 42.8968C71.0771 42.5449 71.6299 42.2748 72.2833 42.0863C72.9493 41.8853 73.7095 41.7847 74.5639 41.7847Z" fill="white"/>
<g filter="url(#filter1_f_1_1763)" style="mix-blend-mode:plus-lighter">
<ellipse cx="60.9971" cy="71.5384" rx="19.1705" ry="6.53539" fill="#7A287D" fill-opacity="0.32"/>
<ellipse cx="60.9971" cy="71.5384" rx="19.1705" ry="6.53539" fill="white" fill-opacity="0.2"/>
</g>
<rect x="19.2432" y="1.67016" width="83.3747" height="83.3747" rx="41.5" fill="white" fill-opacity="0.05"/>
<defs>
<filter id="filter0_ddf_1_1763" x="1.74294" y="0" width="119.38" height="126" filterUnits="userSpaceOnUse" color-interpolation-filters="sRGB">
<feFlood flood-opacity="0" result="BackgroundImageFix"/>
<feColorMatrix in="SourceAlpha" type="matrix" values="0 0 0 0 0 0 0 0 0 0 0 0 0 0 0 0 0 0 127 0" result="hardAlpha"/>
<feOffset dy="17.3494"/>
<feGaussianBlur stdDeviation="13.8795"/>
<feComposite in2="hardAlpha" operator="out"/>
<feColorMatrix type="matrix" values="0 0 0 0 0.477282 0 0 0 0 0.156573 0 0 0 0 0.488341 0 0 0 0.21 0"/>
<feBlend mode="normal" in2="BackgroundImageFix" result="effect1_dropShadow_1_1763"/>
<feColorMatrix in="SourceAlpha" type="matrix" values="0 0 0 0 0 0 0 0 0 0 0 0 0 0 0 0 0 0 127 0" result="hardAlpha"/>
<feOffset dy="6.93976"/>
<feGaussianBlur stdDeviation="6.93976"/>
<feComposite in2="hardAlpha" operator="out"/>
<feColorMatrix type="matrix" values="0 0 0 0 0.718409 0 0 0 0 0.307024 0 0 0 0 0.764119 0 0 0 0.12 0"/>
<feBlend mode="normal" in2="effect1_dropShadow_1_1763" result="effect2_dropShadow_1_1763"/>
<feBlend mode="normal" in="SourceGraphic" in2="effect2_dropShadow_1_1763" result="shape"/>
<feGaussianBlur stdDeviation="8.5" result="effect3_foregroundBlur_1_1763"/>
</filter>
<filter id="filter1_f_1_1763" x="0.000114958" y="23.1765" width="121.994" height="96.7238" filterUnits="userSpaceOnUse" color-interpolation-filters="sRGB">
<feFlood flood-opacity="0" result="BackgroundImageFix"/>
<feBlend mode="normal" in="SourceGraphic" in2="BackgroundImageFix" result="shape"/>
<feGaussianBlur stdDeviation="20.8193" result="effect1_foregroundBlur_1_1763"/>
</filter>
<radialGradient id="paint0_radial_1_1763" cx="0" cy="0" r="1" gradientUnits="userSpaceOnUse" gradientTransform="translate(61.4329 48.8823) rotate(90) scale(31.8056)">
<stop stop-color="#FFDCF0"/>
<stop offset="1" stop-color="#DFA0E1"/>
</radialGradient>
<radialGradient id="paint1_radial_1_1763" cx="0" cy="0" r="1" gradientUnits="userSpaceOnUse" gradientTransform="translate(61.4329 9.23426) rotate(90) scale(101.952)">
<stop stop-color="white"/>
<stop offset="1" stop-color="white" stop-opacity="0"/>
</radialGradient>
</defs>
</svg>
