<svg width="122" height="119" viewBox="0 0 122 119" fill="none" xmlns="http://www.w3.org/2000/svg">
<rect x="25.1899" y="6.08033" width="72.0949" height="72.0949" rx="35.1325" fill="#C02BD1" fill-opacity="0.08"/>
<g filter="url(#filter0_dddiii_1_2022)">
<rect x="29.533" y="10.4234" width="63.4088" height="63.4088" rx="31.6627" fill="url(#paint0_radial_1_2022)" shape-rendering="crispEdges"/>
<rect x="29.9668" y="10.8571" width="62.5413" height="62.5413" rx="31.2289" stroke="url(#paint1_radial_1_2022)" stroke-width="0.86747" shape-rendering="crispEdges"/>
<path d="M47.6862 35.0528C48.5128 35.0528 49.2456 35.1467 49.8843 35.3346C50.5231 35.5225 51.0617 35.7667 51.5001 36.0673C51.9385 36.3554 52.2704 36.6811 52.4958 37.0443C52.7213 37.395 52.834 37.7394 52.834 38.0776C52.834 38.3031 52.7839 38.5035 52.6837 38.6788C52.596 38.8542 52.4771 39.0045 52.3268 39.1297C52.189 39.2425 52.0324 39.3301 51.8571 39.3928C51.6817 39.4554 51.5064 39.4867 51.331 39.4867C51.1306 39.4867 50.9427 39.4429 50.7674 39.3552C50.592 39.255 50.4041 39.0734 50.2037 38.8103C50.1536 38.7477 50.1098 38.6851 50.0722 38.6225C50.0346 38.5473 49.9845 38.4784 49.9219 38.4158C49.709 38.1403 49.4209 37.9211 49.0577 37.7582C48.707 37.5954 48.2623 37.514 47.7237 37.514C47.0474 37.514 46.5025 37.633 46.0892 37.871C45.6759 38.0964 45.4692 38.4283 45.4692 38.8667C45.4692 39.017 45.4943 39.1611 45.5444 39.2988C45.607 39.4366 45.7072 39.5619 45.845 39.6746C45.9827 39.7873 46.1769 39.8875 46.4274 39.9752C46.6904 40.0503 47.0537 40.1505 47.5171 40.2758C48.2435 40.4762 48.8197 40.639 49.2456 40.7643C49.6839 40.877 50.0346 40.9772 50.2977 41.0649C50.5607 41.14 50.7674 41.2152 50.9177 41.2903C51.068 41.3655 51.2308 41.4594 51.4062 41.5722C51.6066 41.7099 51.807 41.8728 52.0074 42.0606C52.2078 42.2485 52.3831 42.474 52.5334 42.737C52.6963 42.9875 52.8278 43.2693 52.928 43.5824C53.0282 43.8956 53.0783 44.2463 53.0783 44.6346C53.0783 45.3234 52.928 45.9372 52.6274 46.4758C52.3393 47.0018 51.9761 47.4402 51.5377 47.7909C50.9866 48.2168 50.3728 48.5111 49.6965 48.6739C49.0326 48.8368 48.35 48.9182 47.6486 48.9182C46.9597 48.9182 46.3147 48.8618 45.7135 48.7491C45.1248 48.6364 44.5799 48.4547 44.0789 48.2042C43.5779 47.9537 43.1834 47.697 42.8953 47.4339C42.6197 47.1584 42.4068 46.9016 42.2565 46.6636C42.1187 46.4131 42.031 46.1939 41.9935 46.0061C41.9684 45.8182 41.9559 45.6804 41.9559 45.5927C41.9559 45.3673 41.9997 45.1606 42.0874 44.9727C42.1751 44.7849 42.2878 44.6283 42.4256 44.503C42.5634 44.3778 42.7199 44.2839 42.8953 44.2212C43.0706 44.1461 43.246 44.1085 43.4213 44.1085C43.7345 44.1085 43.9975 44.2024 44.2104 44.3903C44.4359 44.5657 44.6551 44.8162 44.868 45.1418C44.9682 45.2921 45.0809 45.4487 45.2062 45.6115C45.3314 45.7618 45.4943 45.8996 45.6947 46.0249C45.9076 46.1501 46.1706 46.2566 46.4838 46.3443C46.7969 46.4194 47.1914 46.457 47.6674 46.457C47.8803 46.457 48.0995 46.4445 48.325 46.4194C48.5504 46.3944 48.7696 46.338 48.9825 46.2503C49.0201 46.2378 49.089 46.2065 49.1892 46.1564C49.3019 46.0937 49.4146 46.0123 49.5274 45.9121C49.6526 45.7994 49.7591 45.6616 49.8468 45.4988C49.9344 45.336 49.9783 45.1293 49.9783 44.8788C49.9783 44.6158 49.9282 44.4028 49.828 44.24C49.7278 44.0772 49.5963 43.9394 49.4334 43.8267C49.3332 43.7641 49.233 43.7077 49.1328 43.6576C49.0452 43.6075 48.9136 43.5574 48.7383 43.5073C48.5755 43.4447 48.3563 43.382 48.0807 43.3194C47.8052 43.2443 47.4482 43.1503 47.0098 43.0376C46.4587 42.8873 45.9076 42.7245 45.3565 42.5491C44.8179 42.3738 44.3232 42.142 43.8723 41.854C43.4339 41.5659 43.0769 41.2027 42.8013 40.7643C42.5258 40.3134 42.388 39.7497 42.388 39.0734C42.388 38.4722 42.5007 37.9273 42.7262 37.4388C42.9642 36.9378 43.3086 36.512 43.7595 36.1613C44.2104 35.8106 44.7615 35.5413 45.4129 35.3534C46.0767 35.153 46.8345 35.0528 47.6862 35.0528ZM54.3649 42.0043C54.3649 41.0899 54.4965 40.2194 54.7595 39.3928C55.035 38.5536 55.4421 37.8209 55.9807 37.1946C56.5318 36.5558 57.2144 36.0485 58.0286 35.6728C58.8552 35.297 59.8197 35.1092 60.9219 35.1092C61.9489 35.1092 62.8695 35.2845 63.6837 35.6352C64.4978 35.9859 65.1804 36.4681 65.7316 37.0819C66.2952 37.6956 66.721 38.4283 67.0091 39.28C67.3097 40.1192 67.46 41.0273 67.46 42.0043C67.46 42.9687 67.3097 43.8705 67.0091 44.7097C66.7085 45.5489 66.2701 46.2816 65.694 46.9079C65.1303 47.5341 64.4352 48.0289 63.6085 48.3921C62.7819 48.7428 61.8362 48.9182 60.7716 48.9182C59.6568 48.9182 58.6987 48.7115 57.897 48.2982C57.0954 47.8849 56.4316 47.3525 55.9055 46.7012C55.3795 46.0374 54.9912 45.2984 54.7407 44.4843C54.4902 43.6576 54.3649 42.8309 54.3649 42.0043ZM60.9219 37.6267C60.3582 37.6267 59.8572 37.7457 59.4189 37.9837C58.993 38.2217 58.636 38.5411 58.3479 38.9419C58.0724 39.3301 57.8595 39.7873 57.7092 40.3134C57.5714 40.8269 57.5025 41.3655 57.5025 41.9291C57.5025 42.3049 57.5463 42.7495 57.634 43.2631C57.7217 43.7641 57.8845 44.2463 58.1225 44.7097C58.373 45.1731 58.7174 45.5677 59.1558 45.8933C59.6067 46.219 60.1892 46.3818 60.9031 46.3818C61.4667 46.3818 61.9615 46.2754 62.3873 46.0624C62.8132 45.837 63.1701 45.5301 63.4582 45.1418C63.7588 44.7536 63.978 44.2964 64.1158 43.7703C64.2661 43.2317 64.3413 42.6493 64.3413 42.0231C64.3413 41.8728 64.335 41.6598 64.3225 41.3843C64.3099 41.0962 64.2598 40.7831 64.1722 40.4449C64.097 40.0942 63.9655 39.7435 63.7776 39.3928C63.6023 39.0295 63.3518 38.6976 63.0261 38.397C62.738 38.1465 62.4124 37.9586 62.0491 37.8334C61.6859 37.6956 61.3102 37.6267 60.9219 37.6267ZM74.3267 35.0528C75.1533 35.0528 75.8861 35.1467 76.5248 35.3346C77.1636 35.5225 77.7022 35.7667 78.1406 36.0673C78.579 36.3554 78.9109 36.6811 79.1363 37.0443C79.3618 37.395 79.4745 37.7394 79.4745 38.0776C79.4745 38.3031 79.4244 38.5035 79.3242 38.6788C79.2365 38.8542 79.1176 39.0045 78.9673 39.1297C78.8295 39.2425 78.6729 39.3301 78.4976 39.3928C78.3222 39.4554 78.1469 39.4867 77.9715 39.4867C77.7711 39.4867 77.5832 39.4429 77.4079 39.3552C77.2325 39.255 77.0446 39.0734 76.8442 38.8103C76.7941 38.7477 76.7503 38.6851 76.7127 38.6225C76.6751 38.5473 76.625 38.4784 76.5624 38.4158C76.3495 38.1403 76.0614 37.9211 75.6982 37.7582C75.3475 37.5954 74.9028 37.514 74.3642 37.514C73.6879 37.514 73.143 37.633 72.7297 37.871C72.3164 38.0964 72.1097 38.4283 72.1097 38.8667C72.1097 39.017 72.1348 39.1611 72.1849 39.2988C72.2475 39.4366 72.3477 39.5619 72.4855 39.6746C72.6232 39.7873 72.8174 39.8875 73.0679 39.9752C73.3309 40.0503 73.6941 40.1505 74.1576 40.2758C74.884 40.4762 75.4602 40.639 75.8861 40.7643C76.3244 40.877 76.6751 40.9772 76.9382 41.0649C77.2012 41.14 77.4079 41.2152 77.5582 41.2903C77.7085 41.3655 77.8713 41.4594 78.0467 41.5722C78.2471 41.7099 78.4475 41.8728 78.6479 42.0606C78.8483 42.2485 79.0236 42.474 79.1739 42.737C79.3367 42.9875 79.4683 43.2693 79.5685 43.5824C79.6687 43.8956 79.7188 44.2463 79.7188 44.6346C79.7188 45.3234 79.5685 45.9372 79.2679 46.4758C78.9798 47.0018 78.6166 47.4402 78.1782 47.7909C77.6271 48.2168 77.0133 48.5111 76.337 48.6739C75.6731 48.8368 74.9905 48.9182 74.2891 48.9182C73.6002 48.9182 72.9552 48.8618 72.354 48.7491C71.7653 48.6364 71.2204 48.4547 70.7194 48.2042C70.2184 47.9537 69.8239 47.697 69.5358 47.4339C69.2602 47.1584 69.0473 46.9016 68.897 46.6636C68.7592 46.4131 68.6715 46.1939 68.634 46.0061C68.6089 45.8182 68.5964 45.6804 68.5964 45.5927C68.5964 45.3673 68.6402 45.1606 68.7279 44.9727C68.8156 44.7849 68.9283 44.6283 69.0661 44.503C69.2039 44.3778 69.3604 44.2839 69.5358 44.2212C69.7111 44.1461 69.8865 44.1085 70.0618 44.1085C70.375 44.1085 70.638 44.2024 70.8509 44.3903C71.0764 44.5657 71.2956 44.8162 71.5085 45.1418C71.6087 45.2921 71.7214 45.4487 71.8467 45.6115C71.9719 45.7618 72.1348 45.8996 72.3352 46.0249C72.5481 46.1501 72.8111 46.2566 73.1243 46.3443C73.4374 46.4194 73.8319 46.457 74.3079 46.457C74.5208 46.457 74.74 46.4445 74.9655 46.4194C75.1909 46.3944 75.4101 46.338 75.623 46.2503C75.6606 46.2378 75.7295 46.2065 75.8297 46.1564C75.9424 46.0937 76.0551 46.0123 76.1679 45.9121C76.2931 45.7994 76.3996 45.6616 76.4873 45.4988C76.5749 45.336 76.6188 45.1293 76.6188 44.8788C76.6188 44.6158 76.5687 44.4028 76.4685 44.24C76.3683 44.0772 76.2368 43.9394 76.0739 43.8267C75.9737 43.7641 75.8735 43.7077 75.7733 43.6576C75.6857 43.6075 75.5541 43.5574 75.3788 43.5073C75.216 43.4447 74.9968 43.382 74.7212 43.3194C74.4457 43.2443 74.0887 43.1503 73.6503 43.0376C73.0992 42.8873 72.5481 42.7245 71.997 42.5491C71.4584 42.3738 70.9637 42.142 70.5128 41.854C70.0744 41.5659 69.7174 41.2027 69.4418 40.7643C69.1663 40.3134 69.0285 39.7497 69.0285 39.0734C69.0285 38.4722 69.1412 37.9273 69.3667 37.4388C69.6047 36.9378 69.9491 36.512 70.4 36.1613C70.8509 35.8106 71.402 35.5413 72.0533 35.3534C72.7172 35.153 73.475 35.0528 74.3267 35.0528Z" fill="black" fill-opacity="0.25"/>
</g>
<g filter="url(#filter1_f_1_2022)" style="mix-blend-mode:plus-lighter">
<ellipse cx="60.8031" cy="64.7118" rx="19.1095" ry="6.5146" fill="#7A287D" fill-opacity="0.32"/>
<ellipse cx="60.8031" cy="64.7118" rx="19.1095" ry="6.5146" fill="white" fill-opacity="0.2"/>
</g>
<defs>
<filter id="filter0_dddiii_1_2022" x="1.73739" y="-10.4233" width="119" height="129.423" filterUnits="userSpaceOnUse" color-interpolation-filters="sRGB">
<feFlood flood-opacity="0" result="BackgroundImageFix"/>
<feColorMatrix in="SourceAlpha" type="matrix" values="0 0 0 0 0 0 0 0 0 0 0 0 0 0 0 0 0 0 127 0" result="hardAlpha"/>
<feOffset dy="17.3494"/>
<feGaussianBlur stdDeviation="13.8795"/>
<feComposite in2="hardAlpha" operator="out"/>
<feColorMatrix type="matrix" values="0 0 0 0 0.477282 0 0 0 0 0.156573 0 0 0 0 0.488341 0 0 0 0.21 0"/>
<feBlend mode="normal" in2="BackgroundImageFix" result="effect1_dropShadow_1_2022"/>
<feColorMatrix in="SourceAlpha" type="matrix" values="0 0 0 0 0 0 0 0 0 0 0 0 0 0 0 0 0 0 127 0" result="hardAlpha"/>
<feOffset dy="6.93976"/>
<feGaussianBlur stdDeviation="6.93976"/>
<feComposite in2="hardAlpha" operator="out"/>
<feColorMatrix type="matrix" values="0 0 0 0 0.718409 0 0 0 0 0.307024 0 0 0 0 0.764119 0 0 0 0.12 0"/>
<feBlend mode="normal" in2="effect1_dropShadow_1_2022" result="effect2_dropShadow_1_2022"/>
<feColorMatrix in="SourceAlpha" type="matrix" values="0 0 0 0 0 0 0 0 0 0 0 0 0 0 0 0 0 0 127 0" result="hardAlpha"/>
<feOffset dy="1.73494"/>
<feGaussianBlur stdDeviation="1.73494"/>
<feComposite in2="hardAlpha" operator="out"/>
<feColorMatrix type="matrix" values="0 0 0 0 0.790548 0 0 0 0 0.322166 0 0 0 0 0.842591 0 0 0 0.09 0"/>
<feBlend mode="normal" in2="effect2_dropShadow_1_2022" result="effect3_dropShadow_1_2022"/>
<feBlend mode="normal" in="SourceGraphic" in2="effect3_dropShadow_1_2022" result="shape"/>
<feColorMatrix in="SourceAlpha" type="matrix" values="0 0 0 0 0 0 0 0 0 0 0 0 0 0 0 0 0 0 127 0" result="hardAlpha"/>
<feOffset dy="5.20482"/>
<feGaussianBlur stdDeviation="10.4096"/>
<feComposite in2="hardAlpha" operator="arithmetic" k2="-1" k3="1"/>
<feColorMatrix type="matrix" values="0 0 0 0 1 0 0 0 0 1 0 0 0 0 1 0 0 0 0.24 0"/>
<feBlend mode="plus-lighter" in2="shape" result="effect4_innerShadow_1_2022"/>
<feColorMatrix in="SourceAlpha" type="matrix" values="0 0 0 0 0 0 0 0 0 0 0 0 0 0 0 0 0 0 127 0" result="hardAlpha"/>
<feOffset dy="-20.8193"/>
<feGaussianBlur stdDeviation="13.8795"/>
<feComposite in2="hardAlpha" operator="arithmetic" k2="-1" k3="1"/>
<feColorMatrix type="matrix" values="0 0 0 0 1 0 0 0 0 1 0 0 0 0 1 0 0 0 0.22 0"/>
<feBlend mode="plus-lighter" in2="effect4_innerShadow_1_2022" result="effect5_innerShadow_1_2022"/>
<feColorMatrix in="SourceAlpha" type="matrix" values="0 0 0 0 0 0 0 0 0 0 0 0 0 0 0 0 0 0 127 0" result="hardAlpha"/>
<feOffset dy="3.46988"/>
<feGaussianBlur stdDeviation="5.20482"/>
<feComposite in2="hardAlpha" operator="arithmetic" k2="-1" k3="1"/>
<feColorMatrix type="matrix" values="0 0 0 0 1 0 0 0 0 1 0 0 0 0 1 0 0 0 1 0"/>
<feBlend mode="normal" in2="effect5_innerShadow_1_2022" result="effect6_innerShadow_1_2022"/>
</filter>
<filter id="filter1_f_1_2022" x="0.000114592" y="16.5037" width="121.606" height="96.4161" filterUnits="userSpaceOnUse" color-interpolation-filters="sRGB">
<feFlood flood-opacity="0" result="BackgroundImageFix"/>
<feBlend mode="normal" in="SourceGraphic" in2="BackgroundImageFix" result="shape"/>
<feGaussianBlur stdDeviation="20.8193" result="effect1_foregroundBlur_1_2022"/>
</filter>
<radialGradient id="paint0_radial_1_2022" cx="0" cy="0" r="1" gradientUnits="userSpaceOnUse" gradientTransform="translate(61.2374 42.1278) rotate(90) scale(31.7044)">
<stop stop-color="#FFDCF0"/>
<stop offset="1" stop-color="#DFA0E1"/>
</radialGradient>
<radialGradient id="paint1_radial_1_2022" cx="0" cy="0" r="1" gradientUnits="userSpaceOnUse" gradientTransform="translate(61.2374 2.60586) rotate(90) scale(101.628)">
<stop stop-color="white"/>
<stop offset="1" stop-color="white" stop-opacity="0"/>
</radialGradient>
</defs>
</svg>
