<svg width="304" height="80" viewBox="0 0 304 80" fill="none" xmlns="http://www.w3.org/2000/svg">
<rect width="304" height="80" rx="20" fill="white" fill-opacity="0.3"/>
<rect x="0.5" y="0.5" width="303" height="79" rx="19.5" stroke="white" stroke-opacity="0.5"/>
<path d="M264.429 50.4891L264.429 53.2498C264.429 53.4891 264.704 53.6213 264.889 53.4748L280.989 40.8998C281.126 40.7935 281.237 40.6572 281.313 40.5016C281.389 40.3459 281.429 40.1749 281.429 40.0016C281.429 39.8283 281.389 39.6573 281.313 39.5017C281.237 39.346 281.126 39.2098 280.989 39.1034L264.889 26.5284C264.7 26.382 264.429 26.5141 264.429 26.7534L264.429 29.5141C264.429 29.6891 264.511 29.857 264.647 29.9641L277.504 39.9998L264.647 50.0391C264.511 50.1463 264.429 50.3141 264.429 50.4891Z" fill="white"/>
<rect x="10.5" y="8.5" width="239" height="63" rx="15.5" fill="white" fill-opacity="0.5"/>
<rect x="10.5" y="8.5" width="239" height="63" rx="15.5" stroke="white"/>
<path d="M34.9141 39.1562H45.3555V34.5977H36.3086V33.4023H45.3555V29.3242H46.6445V33.4023H55.7969V34.5977H46.6445V39.1562H57.0625V40.3633H47.6758C49.9961 43.9102 53.1914 46.6836 57.2617 48.6836C56.918 49.0586 56.6133 49.4453 56.3477 49.8438C51.9648 47.3984 48.7305 44.2695 46.6445 40.457V51.9297H45.3555V40.5039C42.9414 44.6602 39.6914 47.9102 35.6055 50.2539C35.3945 49.9102 35.1172 49.5391 34.7734 49.1406C38.8359 46.8438 42.0039 43.918 44.2773 40.3633H34.9141V39.1562ZM63.7891 30.4961L65.1016 30.8594C64.5938 32.1016 64.0742 33.2539 63.543 34.3164H69.707V29.2422H71.0547V34.3164H80.0781V35.5586H71.0547V41.5117H79.4102V42.7656H71.0547V49.3164H81.332V50.5586H58.7148V49.3164H69.707V42.7656H61.3164V41.5117H69.707V35.5586H62.8984C61.9922 37.2227 60.9258 38.793 59.6992 40.2695C59.418 39.957 59.0742 39.6289 58.668 39.2852C60.8164 36.8398 62.5234 33.9102 63.7891 30.4961ZM104.512 51.6836C102.27 50.0664 100.566 48.4609 99.4023 46.8672C98.1836 48.5234 96.2773 50.2266 93.6836 51.9766C93.3242 51.5703 93.0039 51.2344 92.7227 50.9688C95.4648 49.1328 97.4336 47.3789 98.6289 45.707C97.4023 43.6836 96.4922 40.9883 95.8984 37.6211C95.6094 38.1211 95.3203 38.6094 95.0312 39.0859C94.6953 38.7344 94.375 38.4297 94.0703 38.1719C95.7969 35.625 97.0547 32.6836 97.8438 29.3477L99.0859 29.6055C98.6406 31.1992 98.168 32.6172 97.668 33.8594H105.086V35.0312H103.234C102.727 39.8125 101.695 43.3984 100.141 45.7891C101.234 47.4062 102.98 49.0039 105.379 50.582C105.113 50.8711 104.824 51.2383 104.512 51.6836ZM84.8125 41.6523L85.7734 40.8672C86.0859 41.1875 86.5391 41.6445 87.1328 42.2383C88.0469 43.168 88.7266 43.8633 89.1719 44.3242C89.875 43.2539 90.6055 41.9023 91.3633 40.2695L92.5117 40.7383C91.6758 42.6055 90.8672 44.1133 90.0859 45.2617C90.4062 45.5977 90.8945 46.1016 91.5508 46.7734C92.3945 47.6406 93.0352 48.3047 93.4727 48.7656L92.4414 49.7148C92.1211 49.3711 91.6641 48.8867 91.0703 48.2617C90.2656 47.4023 89.6758 46.7695 89.3008 46.3633C87.918 48.207 85.9414 50.0469 83.3711 51.8828C83.0508 51.4297 82.7539 51.0625 82.4805 50.7812C85.1133 49.0156 87.0898 47.2305 88.4102 45.4258C87.8555 44.832 87.0664 44 86.043 42.9297C85.4961 42.3594 85.0859 41.9336 84.8125 41.6523ZM97.1641 35.0312C97.1094 35.1797 97.0234 35.3867 96.9062 35.6523C96.8672 35.7383 96.8359 35.8047 96.8125 35.8516C97.4219 39.7031 98.2852 42.5977 99.4023 44.5352C100.723 42.4023 101.586 39.2344 101.992 35.0312H97.1641ZM83.1953 33.1328H94.457V34.293H83.1953V33.1328ZM86.7578 35.7227L87.8125 36.4258C86.5312 38.1055 85.1875 39.6719 83.7812 41.125L82.7969 40.293C84.1797 38.9492 85.5 37.4258 86.7578 35.7227ZM93.3789 40.6211C92.4727 39.4727 91.2656 38.0664 89.7578 36.4023L90.707 35.6523C92.2852 37.3477 93.5117 38.7266 94.3867 39.7891L93.3789 40.6211ZM87.332 29.8516L88.457 29.2773C88.7539 29.7461 89.3203 30.7188 90.1562 32.1953C90.2109 32.2969 90.2539 32.3711 90.2852 32.418L89.1016 32.9922C88.5 31.8125 87.9102 30.7656 87.332 29.8516ZM116.699 52.1406H115.715L117.613 46.1289H118.902L116.699 52.1406ZM131.348 31.3164H152.945V32.582H144.309C141.152 37.6836 136.902 41.9883 131.559 45.4961C131.309 45.168 130.996 44.8164 130.621 44.4414C136.066 40.8711 140.09 36.918 142.691 32.582H131.348V31.3164ZM141.203 37.1406H142.551V51.9531H141.203V37.1406ZM152.301 44.8516C149.496 42.8906 146.855 41.1367 144.379 39.5898L145.188 38.6055C147.578 40.0898 150.234 41.8125 153.156 43.7734L152.301 44.8516ZM163.691 29.2773L164.992 29.5352C164.586 30.6367 164.168 31.668 163.738 32.6289H177.262V33.8359H163.211C162.258 35.8359 161.156 37.668 159.906 39.332V51.8125H158.605V40.8906C157.699 41.9141 156.676 42.9375 155.535 43.9609C155.332 43.6562 155.035 43.3125 154.645 42.9297C157.863 40.1016 160.242 37.0703 161.781 33.8359H155.676V32.6289H162.355C162.707 31.8477 163.152 30.7305 163.691 29.2773ZM168.402 35.6758H169.691V40.3633H175.914V41.5352H169.691V48.8594H177.262V50.0312H161.008V48.8594H168.402V41.5352H162.227V40.3633H168.402V35.6758ZM179.559 31.5273H187.047V50.1719H185.805V48.1328H180.812V50.4648H179.559V31.5273ZM196.82 29.2773H198.086V34.5273H201.332V35.7227H198.086V48.4023C198.109 50.4336 197.078 51.4648 194.992 51.4961C193.867 51.5273 192.73 51.543 191.582 51.543C191.512 51.0508 191.41 50.5859 191.277 50.1484C192.262 50.1953 193.395 50.2188 194.676 50.2188C195.48 50.2266 196.035 50.0703 196.34 49.75C196.668 49.4453 196.828 48.8984 196.82 48.1094V35.7227H188.395V34.5273H196.82V29.2773ZM180.812 40.3867V46.9844H185.805V40.3867H180.812ZM180.812 32.6758V39.2617H185.805V32.6758H180.812ZM192.016 44.2773C191.086 42.3711 190.215 40.6719 189.402 39.1797L190.48 38.6289C191.488 40.3945 192.383 42.0664 193.164 43.6445L192.016 44.2773ZM212.805 41.3945V40.2109H223.34V41.4414C222.152 44.0898 220.742 46.1367 219.109 47.582C220.43 48.6445 222.496 49.582 225.309 50.3945C225.027 50.7695 224.77 51.1758 224.535 51.6133C221.746 50.6367 219.609 49.5664 218.125 48.4023C216.375 49.7148 214.031 50.9141 211.094 52C211.008 51.8516 210.738 51.4688 210.285 50.8516C213.363 49.7734 215.656 48.6602 217.164 47.5117C215.727 46.0742 214.609 44.0352 213.812 41.3945H212.805ZM202.797 47.8047L202.574 46.5508C202.793 46.5352 203.164 46.5039 203.688 46.457C204.156 46.418 204.516 46.3867 204.766 46.3633V31.0469C207.617 30.8672 210.094 30.5469 212.195 30.0859L212.699 31.2695C210.098 31.6914 207.867 31.9688 206.008 32.1016V35.7578H211.914V36.8828H206.008V40.7734H211.82V41.8984H206.008V46.2109C208.984 45.9062 211.258 45.6523 212.828 45.4492C212.82 45.5742 212.816 45.7617 212.816 46.0117C212.816 46.2773 212.82 46.4805 212.828 46.6211C210.781 46.832 208.508 47.0898 206.008 47.3945V51.9062H204.766V47.5586C204.617 47.5742 204.398 47.6016 204.109 47.6406C203.469 47.7109 203.031 47.7656 202.797 47.8047ZM223.691 37.2695C224.121 37.2695 224.438 37.2656 224.641 37.2578C224.883 37.2578 225.098 37.25 225.285 37.2344C225.184 37.6328 225.117 38.0352 225.086 38.4414C224.867 38.4492 224.621 38.457 224.348 38.4648C224.215 38.4648 224.066 38.4648 223.902 38.4648C223.754 38.4648 223.531 38.4648 223.234 38.4648C221.727 38.5195 220.992 37.6562 221.031 35.875V31.8203H216.18V32.582C216.195 34.4961 215.965 35.8906 215.488 36.7656C215.051 37.6797 214.105 38.5898 212.652 39.4961C212.465 39.2461 212.172 38.9414 211.773 38.582C213.125 37.8008 213.98 37.0352 214.34 36.2852C214.754 35.5664 214.953 34.3398 214.938 32.6055V30.6602H222.285V35.6758C222.277 36.293 222.379 36.7109 222.59 36.9297C222.777 37.1641 223.145 37.2773 223.691 37.2695ZM221.992 41.3945H215.078C215.93 43.7461 216.953 45.5195 218.148 46.7148C219.625 45.4727 220.906 43.6992 221.992 41.3945Z" fill="black" fill-opacity="0.4"/>
</svg>
