<svg width="151" height="151" viewBox="0 0 151 151" fill="none" xmlns="http://www.w3.org/2000/svg">
<g filter="url(#filter0_f_1_1223)">
<circle cx="75.4994" cy="75.4999" r="48.5354" fill="#F2C6A8"/>
</g>
<circle cx="75.4994" cy="75.4999" r="48.5354" fill="#F2C6A8"/>
<path d="M69.8161 86.8553C69.8161 87.8411 69.112 88.6659 68.1462 88.8471L66.9592 89.0482C65.9331 89.2092 65.1283 90.014 64.9674 91.04L64.7661 92.2271C64.5851 93.1928 63.7602 93.8971 62.7743 93.8971C61.7885 93.8971 60.9635 93.1928 60.7825 92.2271L60.5812 91.04C60.4204 90.014 59.6155 89.2092 58.5894 89.0482L57.4025 88.8471C56.4366 88.6659 55.7325 87.8411 55.7325 86.8553C55.7325 85.8694 56.4366 85.0445 57.4025 84.8635L58.5894 84.6622C59.6155 84.5012 60.4204 83.6965 60.5812 82.6704L60.7825 81.4833C60.9635 80.5176 61.7885 79.8134 62.7743 79.8134C63.7602 79.8134 64.5851 80.5176 64.7661 81.4833L64.9674 82.6704C65.1283 83.6965 65.9331 84.5012 66.9592 84.6622L68.1462 84.8635C69.112 85.0445 69.8161 85.8694 69.8161 86.8553ZM66.0388 57.3795C66.9819 56.792 67.2707 55.5502 66.6843 54.6071C66.0958 53.664 64.857 53.3772 63.9129 53.9607C62.7743 54.67 61.3567 55.5522 60.4637 57.0671C59.4018 58.8688 59.442 61.6038 61.3469 63.0616C62.6181 64.0303 64.4405 64.1737 66.1145 63.433C67.0772 63.0066 67.8346 62.3877 68.5027 61.8415L68.8907 61.5252C70.5343 60.2166 72.4686 59.2048 74.4874 58.5957C75.1623 58.3894 75.4551 58.4051 75.4885 58.3776C75.5042 58.4188 75.5248 58.4955 75.5229 58.5898C75.518 58.9572 75.3087 59.4307 75.1505 59.7569C74.2025 61.7197 72.6523 63.3996 71.0107 65.1758C70.5903 65.6316 70.1698 66.0855 69.7601 66.5452C67.7246 68.8263 65.3472 71.9346 65.0211 75.7542C64.8924 77.2455 65.2725 78.4008 66.1518 79.1867C66.8365 79.7958 68.3681 80.6328 70.9105 79.3439C73.8164 77.8683 76.3235 75.8583 78.7481 73.9151C79.6086 73.2235 80.4692 72.5339 81.3465 71.8698C83.7995 70.0111 87.5228 67.5119 91.5074 67.2859C91.7265 67.2742 91.8562 67.2761 91.8984 67.2565C91.9436 67.4078 91.977 67.7162 91.9082 68.0895C91.4888 70.3648 89.5937 72.2628 87.346 74.3297L74.2428 86.3798C73.4245 87.1323 73.3714 88.4055 74.123 89.2228C74.5198 89.6551 75.0611 89.8732 75.6054 89.8732C76.0917 89.8732 76.5799 89.6983 76.966 89.3427L90.0692 77.2926C92.2216 75.3121 95.1688 72.6027 95.8653 68.8185C96.2809 66.5609 95.4812 64.5529 93.8298 63.7022C92.9456 63.2463 92.0517 63.2188 91.2844 63.2679C86.1956 63.5568 81.7886 66.4863 78.9161 68.6633C78.0103 69.349 77.1212 70.0622 76.2312 70.7754C73.8616 72.6754 71.6237 74.4692 69.0901 75.7562C69.0823 75.7601 69.0744 75.764 69.0666 75.7679C69.4133 73.2589 71.2111 70.964 72.7623 69.2252C73.1573 68.7811 73.562 68.345 73.9667 67.9068C75.736 65.9911 77.5653 64.0106 78.7726 61.5075C79.0968 60.8395 79.5301 59.8138 79.5468 58.6448C79.5664 57.2085 78.9387 55.8921 77.8649 55.1259C76.1329 53.888 74.0149 54.5325 73.3213 54.7447C70.8221 55.4992 68.4241 56.7547 66.3846 58.3776L65.9533 58.7273C65.4376 59.1497 64.9503 59.5486 64.4856 59.7549C64.1497 59.9023 63.8569 59.8924 63.8186 59.8924C63.7656 59.804 63.74 59.4327 63.9296 59.1104C64.3206 58.4463 65.2333 57.8785 66.0388 57.3795Z" fill="#1E3137"/>
<rect x="13.4822" y="1.34881" width="122.687" height="122.687" rx="30.49" fill="white" fill-opacity="0.05"/>
<defs>
<filter id="filter0_f_1_1223" x="-0.000197628" y="0.000293563" width="150.999" height="150.999" filterUnits="userSpaceOnUse" color-interpolation-filters="sRGB">
<feFlood flood-opacity="0" result="BackgroundImageFix"/>
<feBlend mode="normal" in="SourceGraphic" in2="BackgroundImageFix" result="shape"/>
<feGaussianBlur stdDeviation="6.7011" result="effect1_foregroundBlur_1_1223"/>
</filter>
</defs>
</svg>
