<svg width="151" height="151" viewBox="0 0 151 151" fill="none" xmlns="http://www.w3.org/2000/svg">
<g filter="url(#filter0_f_1_1217)">
<circle cx="75.4999" cy="75.4999" r="48.5356" fill="#F6F5B3"/>
</g>
<circle cx="75.4999" cy="75.4999" r="48.5356" fill="#F6F5B3"/>
<path d="M73.835 66.1184C72.5656 66.1148 71.3081 66.3622 70.1347 66.8464C68.9613 67.3306 67.8952 68.042 66.9978 68.9398C66.1003 69.8375 65.3893 70.9038 64.9054 72.0773C64.4216 73.2509 64.1746 74.5085 64.1785 75.7779C64.175 77.0468 64.4223 78.304 64.9063 79.477C65.3904 80.65 66.1016 81.7158 66.999 82.6129C67.8965 83.5101 68.9624 84.221 70.1356 84.7046C71.3088 85.1883 72.566 85.4353 73.835 85.4313C75.1037 85.4349 76.3606 85.1876 77.5334 84.7038C78.7063 84.2199 79.7719 83.509 80.669 82.6119C81.5661 81.7147 82.277 80.6491 82.7609 79.4763C83.2448 78.3035 83.492 77.0466 83.4884 75.7779C83.4928 74.5086 83.2462 73.2511 82.7626 72.0775C82.2791 70.904 81.5683 69.8377 80.6711 68.9399C79.7739 68.0422 78.7081 67.3307 77.5348 66.8465C76.3616 66.3622 75.1042 66.1148 73.835 66.1184ZM73.835 81.961C72.1943 81.961 70.6208 81.3092 69.4607 80.1491C68.3006 78.989 67.6488 77.4155 67.6488 75.7748C67.6488 74.1342 68.3006 72.5607 69.4607 71.4006C70.6208 70.2404 72.1943 69.5887 73.835 69.5887C75.4757 69.5887 77.0491 70.2404 78.2093 71.4006C79.3694 72.5607 80.0212 74.1342 80.0212 75.7748C80.0212 77.4155 79.3694 78.989 78.2093 80.1491C77.0491 81.3092 75.4757 81.961 73.835 81.961ZM88.9232 60.6957C87.9817 59.7542 86.2586 59.9473 85.0817 61.1242C83.9049 62.3041 83.7148 64.0181 84.6563 64.9626C85.5978 65.9071 87.3178 65.717 88.4977 64.5371C89.6746 63.3603 89.8647 61.6372 88.9232 60.6957ZM59.1753 87.0367C57.9954 88.2136 57.8053 89.9306 58.7468 90.8721C59.6883 91.8136 61.4083 91.6265 62.5882 90.4466C63.7681 89.2667 63.9582 87.5467 63.0167 86.6052C62.0752 85.6636 60.3522 85.8568 59.1753 87.0367ZM58.7468 60.6957C57.8053 61.6372 57.9954 63.3603 59.1723 64.5371C60.3522 65.717 62.0722 65.9041 63.0137 64.9626C63.9552 64.0211 63.7651 62.298 62.5852 61.1212C61.4114 59.9473 59.6883 59.7542 58.7468 60.6957ZM85.0817 90.4406C86.2586 91.6205 87.9787 91.8136 88.9232 90.8721C89.8677 89.9306 89.6746 88.2075 88.4947 87.0276C87.3148 85.8477 85.5978 85.6606 84.6532 86.6021C83.7087 87.5436 83.9049 89.2637 85.0817 90.4406ZM73.835 60.6896C75.1658 60.6896 76.2491 59.3408 76.2491 57.672C76.2461 56.0032 75.1658 54.6604 73.835 54.6604C72.5012 54.6604 71.4179 56.0032 71.4179 57.672C71.4179 59.3408 72.4982 60.6896 73.835 60.6896ZM73.835 96.9074C75.1658 96.9074 76.2491 95.5585 76.2491 93.8897C76.2491 92.221 75.1688 90.8781 73.838 90.8781C72.5042 90.8781 71.4209 92.221 71.4209 93.8897C71.4179 95.5585 72.4982 96.9074 73.835 96.9074ZM58.7468 75.7839C58.7468 74.4531 57.3888 73.3698 55.7201 73.3698C54.0513 73.3698 52.7115 74.4531 52.7115 75.7839C52.7115 77.1177 54.0513 78.198 55.7201 78.198C57.3888 78.198 58.7468 77.1177 58.7468 75.7839ZM94.9585 75.7839C94.9585 74.4531 93.6066 73.3698 91.9378 73.3698C90.2691 73.3698 88.9232 74.4531 88.9232 75.7839C88.9232 77.1177 90.2691 78.198 91.9378 78.198C93.6066 78.198 94.9585 77.1177 94.9585 75.7839Z" fill="#1E3137"/>
<rect x="13.4821" y="1.34871" width="122.687" height="122.687" rx="30.4925" fill="white" fill-opacity="0.05"/>
<defs>
<filter id="filter0_f_1_1217" x="7.48241e-05" y="7.48241e-05" width="150.999" height="151" filterUnits="userSpaceOnUse" color-interpolation-filters="sRGB">
<feFlood flood-opacity="0" result="BackgroundImageFix"/>
<feBlend mode="normal" in="SourceGraphic" in2="BackgroundImageFix" result="shape"/>
<feGaussianBlur stdDeviation="6.70164" result="effect1_foregroundBlur_1_1217"/>
</filter>
</defs>
</svg>
