<svg width="76" height="76" viewBox="0 0 76 76" fill="none" xmlns="http://www.w3.org/2000/svg">
<g filter="url(#filter0_f_1_1211)">
<circle cx="37.9999" cy="37.9999" r="24.4285" fill="#B6F3B8"/>
</g>
<circle cx="37.9999" cy="37.9999" r="24.4285" fill="#B6F3B8"/>
<path d="M38.1745 32.0677C38.443 32.0679 38.7005 32.1746 38.8903 32.3644C39.0802 32.5543 39.1869 32.8117 39.1871 33.0802C39.1871 33.3488 39.2937 33.6063 39.4836 33.7962C39.6735 33.9861 39.9311 34.0928 40.1996 34.0928C40.4682 34.0928 40.7257 33.9861 40.9156 33.7962C41.1055 33.6063 41.2122 33.3488 41.2122 33.0802C41.2119 32.5747 41.0854 32.0773 40.8443 31.6331C40.6032 31.1888 40.255 30.8117 39.8313 30.5361C39.4076 30.2604 38.9218 30.0949 38.4179 30.0544C37.9141 30.014 37.4081 30.1 36.9459 30.3046C36.4836 30.5091 36.0798 30.8259 35.7709 31.226C35.462 31.6261 35.2579 32.097 35.177 32.596C35.0962 33.095 35.1411 33.6062 35.3078 34.0834C35.4745 34.5606 35.7577 34.9887 36.1316 35.3288C36.1418 35.338 36.2948 35.5008 36.3274 35.5463C36.4421 35.713 36.5034 35.9106 36.5034 36.1129C36.5034 36.3153 36.4421 36.5128 36.3274 36.6795C36.2522 36.7891 36.1994 36.9124 36.1719 37.0425C36.1443 37.1725 36.1427 37.3067 36.167 37.4373C36.1914 37.568 36.2412 37.6926 36.3137 37.804C36.3862 37.9154 36.4799 38.0114 36.5895 38.0866C36.6991 38.1618 36.8224 38.2147 36.9524 38.2422C37.0824 38.2697 37.2166 38.2713 37.3473 38.247C37.4779 38.2227 37.6025 38.1728 37.7139 38.1004C37.8253 38.0279 37.9214 37.9342 37.9965 37.8246C38.3439 37.3197 38.5294 36.721 38.5285 36.1082C38.5276 35.4954 38.3404 34.8973 37.9916 34.3934C37.8357 34.197 37.6697 34.0088 37.4942 33.8297C37.434 33.7747 37.3802 33.713 37.334 33.6458C37.2317 33.4934 37.1727 33.316 37.1633 33.1326C37.1539 32.9492 37.1946 32.7667 37.2809 32.6046C37.3672 32.4426 37.496 32.307 37.6534 32.2124C37.8108 32.1178 37.9909 32.0678 38.1745 32.0677ZM38.1745 25.9924C37.0874 25.9925 36.0148 26.2426 35.0398 26.7235C34.0648 27.2043 33.2135 27.903 32.5516 28.7655C31.8898 29.628 31.4352 30.6311 31.223 31.6973C31.0109 32.7636 31.0468 33.8643 31.328 34.9145C31.3983 35.1729 31.5682 35.393 31.8004 35.5264C32.0326 35.6599 32.3082 35.6959 32.5669 35.6266C32.8256 35.5573 33.0463 35.3883 33.1807 35.1566C33.3151 34.9249 33.3522 34.6494 33.2839 34.3905C33.0974 33.6943 33.0617 32.9664 33.1791 32.2554C33.2966 31.5444 33.5644 30.8666 33.9648 30.2674C34.3652 29.6683 34.8889 29.1615 35.5009 28.7809C36.1129 28.4004 36.7991 28.1549 37.5136 28.0608C38.2281 27.9668 38.9544 28.0263 39.644 28.2355C40.3336 28.4447 40.9707 28.7987 41.5125 29.2739C42.0543 29.749 42.4885 30.3344 42.7859 30.9908C43.0833 31.6472 43.2372 32.3596 43.2372 33.0802C43.233 33.9946 42.9866 34.8915 42.5233 35.6798L38.9151 43.2057C38.7371 43.5132 38.4815 43.7685 38.1738 43.9462C37.8662 44.1239 37.5173 44.2177 37.162 44.2183C36.6271 44.2112 36.1161 43.9956 35.7379 43.6173C35.3596 43.239 35.144 42.7281 35.1369 42.1932C35.1369 41.8379 35.2307 41.489 35.4088 41.1816C35.5434 40.949 35.58 40.6725 35.5106 40.4129C35.4413 40.1532 35.2716 39.9318 35.039 39.7973C34.8064 39.6627 34.5299 39.6261 34.2703 39.6954C34.0106 39.7648 33.7892 39.9344 33.6547 40.1671C33.3867 40.6303 33.2133 41.1421 33.1444 41.6728C33.0755 42.2035 33.1124 42.7426 33.2532 43.259C33.3939 43.7753 33.6356 44.2586 33.9643 44.681C34.2929 45.1033 34.7021 45.4563 35.168 45.7196C35.634 45.9828 36.1475 46.151 36.6789 46.2146C37.2103 46.2781 37.749 46.2357 38.2639 46.0897C38.7787 45.9438 39.2596 45.6972 39.6786 45.3643C40.0976 45.0313 40.4464 44.6186 40.7049 44.15L44.3131 36.6241C44.935 35.5466 45.2624 34.3244 45.2623 33.0802C45.2622 31.836 44.9347 30.6138 44.3126 29.5364C43.6905 28.4589 42.7958 27.5642 41.7183 26.9421C40.6409 26.32 39.4187 25.9925 38.1745 25.9924Z" fill="#1E3137"/>
<rect x="6.78571" y="0.678819" width="61.7498" height="61.7498" rx="30.4925" fill="white" fill-opacity="0.05"/>
<defs>
<filter id="filter0_f_1_1211" x="3.76598e-05" y="3.76598e-05" width="75.9997" height="75.9999" filterUnits="userSpaceOnUse" color-interpolation-filters="sRGB">
<feFlood flood-opacity="0" result="BackgroundImageFix"/>
<feBlend mode="normal" in="SourceGraphic" in2="BackgroundImageFix" result="shape"/>
<feGaussianBlur stdDeviation="6.70164" result="effect1_foregroundBlur_1_1211"/>
</filter>
</defs>
</svg>
