<svg width="151" height="151" viewBox="0 0 151 151" fill="none" xmlns="http://www.w3.org/2000/svg">
<g filter="url(#filter0_f_1_912)">
<circle cx="75.4999" cy="75.4997" r="48.5356" fill="#F2E07B"/>
</g>
<circle cx="75.4999" cy="75.4997" r="48.5356" fill="#F2E07B"/>
<path d="M74.8409 82.4925C82.9498 82.4925 89.2552 87.7276 89.2552 93.8892C89.2552 100.051 82.9498 105.286 74.8409 105.286C66.732 105.286 60.4265 100.051 60.4265 93.8892C60.4265 87.7276 66.732 82.4925 74.8409 82.4925Z" stroke="black" stroke-width="0.67"/>
<circle cx="62.0178" cy="74.1515" r="2.69642" fill="black"/>
<circle cx="87.6334" cy="74.1515" r="2.69642" fill="black"/>
<line x1="84.7238" y1="65.4229" x2="92.8131" y2="62.7264" stroke="black" stroke-width="0.670164"/>
<line y1="-0.335082" x2="4.23849" y2="-0.335082" transform="matrix(-1.90852 -0.636175 -0.636175 1.90852 64.7143 66.0624)" stroke="black" stroke-width="0.670164"/>
<rect x="13.4821" y="1.34821" width="122.687" height="122.687" rx="30.4925" fill="white" fill-opacity="0.05"/>
<defs>
<filter id="filter0_f_1_912" x="7.48241e-05" y="-4.79641e-05" width="151" height="151" filterUnits="userSpaceOnUse" color-interpolation-filters="sRGB">
<feFlood flood-opacity="0" result="BackgroundImageFix"/>
<feBlend mode="normal" in="SourceGraphic" in2="BackgroundImageFix" result="shape"/>
<feGaussianBlur stdDeviation="6.70164" result="effect1_foregroundBlur_1_912"/>
</filter>
</defs>
</svg>
