<svg width="151" height="151" viewBox="0 0 151 151" fill="none" xmlns="http://www.w3.org/2000/svg">
<g filter="url(#filter0_f_1_903)">
<circle cx="75.4999" cy="75.4997" r="48.5356" fill="#A2BAFF"/>
</g>
<circle cx="75.4999" cy="75.4997" r="48.5356" fill="#A2BAFF"/>
<path d="M91.6786 94.3747C91.6786 94.3747 86.7073 91.6783 83.2523 91.6783C79.7972 91.6783 78.281 94.3748 74.8259 94.3748C71.3709 94.3748 69.8547 91.6783 66.3996 91.6783C62.9446 91.6783 57.9733 94.3747 57.9733 94.3747" stroke="black" stroke-width="0.670164" stroke-linecap="round"/>
<path d="M104.011 78.469C104.272 78.469 104.59 78.6269 104.874 79.0525C105.154 79.4734 105.349 80.094 105.349 80.8128C105.349 81.5316 105.154 82.1522 104.874 82.5731C104.59 82.9987 104.272 83.1566 104.011 83.1566C103.751 83.1566 103.433 82.9987 103.149 82.5731C102.868 82.1522 102.674 81.5316 102.674 80.8128C102.674 80.094 102.868 79.4734 103.149 79.0525C103.433 78.6269 103.751 78.469 104.011 78.469Z" stroke="black" stroke-width="0.67"/>
<path d="M47.6821 78.469C47.9422 78.469 48.2608 78.6269 48.5446 79.0525C48.8251 79.4734 49.02 80.094 49.02 80.8128C49.02 81.5316 48.8251 82.1522 48.5446 82.5731C48.2608 82.9987 47.9422 83.1566 47.6821 83.1566C47.422 83.1566 47.1034 82.9987 46.8196 82.5731C46.5391 82.1522 46.3442 81.5316 46.3442 80.8128C46.3442 80.094 46.5391 79.4734 46.8196 79.0525C47.1034 78.6269 47.422 78.469 47.6821 78.469Z" stroke="black" stroke-width="0.67"/>
<path d="M45.6703 71.0901C45.6703 71.0901 50.7388 73.5491 57.188 71.2018C63.6371 68.8545 65.9391 63.7128 65.9391 63.7128" stroke="black" stroke-width="0.67011" stroke-linecap="round"/>
<path d="M84.8005 63.7129C84.8005 63.7129 87.1025 68.8547 93.5516 71.202C100.001 73.5493 105.069 71.0902 105.069 71.0902" stroke="black" stroke-width="0.67011" stroke-linecap="round"/>
<rect x="13.4821" y="1.34821" width="122.687" height="122.687" rx="30.4925" fill="white" fill-opacity="0.05"/>
<defs>
<filter id="filter0_f_1_903" x="7.48241e-05" y="-4.79641e-05" width="151" height="151" filterUnits="userSpaceOnUse" color-interpolation-filters="sRGB">
<feFlood flood-opacity="0" result="BackgroundImageFix"/>
<feBlend mode="normal" in="SourceGraphic" in2="BackgroundImageFix" result="shape"/>
<feGaussianBlur stdDeviation="6.70164" result="effect1_foregroundBlur_1_903"/>
</filter>
</defs>
</svg>
