<svg width="278" height="70" viewBox="0 0 278 70" fill="none" xmlns="http://www.w3.org/2000/svg">
<rect x="0.5" y="0.5" width="277" height="69" rx="17" fill="white" fill-opacity="0.5"/>
<rect x="0.5" y="0.5" width="277" height="69" rx="17" stroke="white"/>
<path d="M58.7656 32.5938C58.7656 27.2552 59.651 23.2188 61.4219 20.4844C63.1927 17.724 65.7448 16.3438 69.0781 16.3438C75.4844 16.3438 78.6875 21.526 78.6875 31.8906C78.6875 36.9948 77.7891 40.901 75.9922 43.6094C74.1953 46.2917 71.6693 47.6328 68.4141 47.6328C65.3411 47.6328 62.9583 46.3568 61.2656 43.8047C59.599 41.2266 58.7656 37.4896 58.7656 32.5938ZM62.6719 32.4375C62.6719 40.4583 64.7031 44.4688 68.7656 44.4688C72.776 44.4688 74.7812 40.3802 74.7812 32.2031C74.7812 23.7656 72.8151 19.5469 68.8828 19.5469C64.7422 19.5469 62.6719 23.8438 62.6719 32.4375ZM82.2031 32.5938C82.2031 27.2552 83.0885 23.2188 84.8594 20.4844C86.6302 17.724 89.1823 16.3438 92.5156 16.3438C98.9219 16.3438 102.125 21.526 102.125 31.8906C102.125 36.9948 101.227 40.901 99.4297 43.6094C97.6328 46.2917 95.1068 47.6328 91.8516 47.6328C88.7786 47.6328 86.3958 46.3568 84.7031 43.8047C83.0365 41.2266 82.2031 37.4896 82.2031 32.5938ZM86.1094 32.4375C86.1094 40.4583 88.1406 44.4688 92.2031 44.4688C96.2135 44.4688 98.2188 40.3802 98.2188 32.2031C98.2188 23.7656 96.2526 19.5469 92.3203 19.5469C88.1797 19.5469 86.1094 23.8438 86.1094 32.4375ZM106.188 26.1875C106.188 25.4583 106.435 24.8594 106.93 24.3906C107.424 23.9219 108.01 23.6875 108.688 23.6875C109.391 23.6875 109.99 23.9349 110.484 24.4297C110.979 24.8984 111.227 25.4844 111.227 26.1875C111.227 26.8646 110.979 27.4505 110.484 27.9453C110.016 28.4141 109.417 28.6484 108.688 28.6484C107.958 28.6484 107.359 28.4141 106.891 27.9453C106.422 27.4505 106.188 26.8646 106.188 26.1875ZM106.188 43.7656C106.188 43.0365 106.422 42.4375 106.891 41.9688C107.359 41.5 107.958 41.2656 108.688 41.2656C109.417 41.2656 110.016 41.513 110.484 42.0078C110.979 42.4766 111.227 43.0625 111.227 43.7656C111.227 44.4427 110.979 45.0156 110.484 45.4844C110.016 45.9792 109.417 46.2266 108.688 46.2266C107.958 46.2266 107.359 45.9792 106.891 45.4844C106.422 45.0156 106.188 44.4427 106.188 43.7656ZM119.156 42.8281C120.823 43.7917 122.62 44.2734 124.547 44.2734C127.255 44.2734 129.352 43.2057 130.836 41.0703C132.346 38.9349 133.102 35.901 133.102 31.9688C133.076 31.9948 133.049 31.9948 133.023 31.9688C131.695 34.4948 129.469 35.7578 126.344 35.7578C123.792 35.7578 121.682 34.8854 120.016 33.1406C118.349 31.3958 117.516 29.1302 117.516 26.3438C117.516 23.375 118.427 20.9401 120.25 19.0391C122.073 17.138 124.443 16.1875 127.359 16.1875C130.354 16.1875 132.698 17.3724 134.391 19.7422C136.083 22.0859 136.93 25.5104 136.93 30.0156C136.93 35.6146 135.836 39.9245 133.648 42.9453C131.461 45.9401 128.427 47.4375 124.547 47.4375C122.438 47.4375 120.641 47.099 119.156 46.4219V42.8281ZM121.383 25.875C121.383 27.9062 121.904 29.5208 122.945 30.7188C123.987 31.8906 125.432 32.4766 127.281 32.4766C128.844 32.4766 130.172 31.9427 131.266 30.875C132.359 29.7812 132.906 28.4531 132.906 26.8906C132.906 24.7031 132.359 22.9062 131.266 21.5C130.198 20.0677 128.792 19.3516 127.047 19.3516C125.406 19.3516 124.052 19.9766 122.984 21.2266C121.917 22.4505 121.383 24 121.383 25.875ZM140.797 32.5938C140.797 27.2552 141.682 23.2188 143.453 20.4844C145.224 17.724 147.776 16.3438 151.109 16.3438C157.516 16.3438 160.719 21.526 160.719 31.8906C160.719 36.9948 159.82 40.901 158.023 43.6094C156.227 46.2917 153.701 47.6328 150.445 47.6328C147.372 47.6328 144.99 46.3568 143.297 43.8047C141.63 41.2266 140.797 37.4896 140.797 32.5938ZM144.703 32.4375C144.703 40.4583 146.734 44.4688 150.797 44.4688C154.807 44.4688 156.812 40.3802 156.812 32.2031C156.812 23.7656 154.846 19.5469 150.914 19.5469C146.773 19.5469 144.703 23.8438 144.703 32.4375ZM164.781 26.1875C164.781 25.4583 165.029 24.8594 165.523 24.3906C166.018 23.9219 166.604 23.6875 167.281 23.6875C167.984 23.6875 168.583 23.9349 169.078 24.4297C169.573 24.8984 169.82 25.4844 169.82 26.1875C169.82 26.8646 169.573 27.4505 169.078 27.9453C168.609 28.4141 168.01 28.6484 167.281 28.6484C166.552 28.6484 165.953 28.4141 165.484 27.9453C165.016 27.4505 164.781 26.8646 164.781 26.1875ZM164.781 43.7656C164.781 43.0365 165.016 42.4375 165.484 41.9688C165.953 41.5 166.552 41.2656 167.281 41.2656C168.01 41.2656 168.609 41.513 169.078 42.0078C169.573 42.4766 169.82 43.0625 169.82 43.7656C169.82 44.4427 169.573 45.0156 169.078 45.4844C168.609 45.9792 168.01 46.2266 167.281 46.2266C166.552 46.2266 165.953 45.9792 165.484 45.4844C165.016 45.0156 164.781 44.4427 164.781 43.7656ZM175.953 32.5938C175.953 27.2552 176.839 23.2188 178.609 20.4844C180.38 17.724 182.932 16.3438 186.266 16.3438C192.672 16.3438 195.875 21.526 195.875 31.8906C195.875 36.9948 194.977 40.901 193.18 43.6094C191.383 46.2917 188.857 47.6328 185.602 47.6328C182.529 47.6328 180.146 46.3568 178.453 43.8047C176.786 41.2266 175.953 37.4896 175.953 32.5938ZM179.859 32.4375C179.859 40.4583 181.891 44.4688 185.953 44.4688C189.964 44.4688 191.969 40.3802 191.969 32.2031C191.969 23.7656 190.003 19.5469 186.07 19.5469C181.93 19.5469 179.859 23.8438 179.859 32.4375ZM199.391 32.5938C199.391 27.2552 200.276 23.2188 202.047 20.4844C203.818 17.724 206.37 16.3438 209.703 16.3438C216.109 16.3438 219.312 21.526 219.312 31.8906C219.312 36.9948 218.414 40.901 216.617 43.6094C214.82 46.2917 212.294 47.6328 209.039 47.6328C205.966 47.6328 203.583 46.3568 201.891 43.8047C200.224 41.2266 199.391 37.4896 199.391 32.5938ZM203.297 32.4375C203.297 40.4583 205.328 44.4688 209.391 44.4688C213.401 44.4688 215.406 40.3802 215.406 32.2031C215.406 23.7656 213.44 19.5469 209.508 19.5469C205.367 19.5469 203.297 23.8438 203.297 32.4375Z" fill="#1D2547"/>
</svg>
