<svg width="400" height="400" viewBox="0 0 400 400" fill="none" xmlns="http://www.w3.org/2000/svg">
<rect x="1.81818" y="1.81818" width="396.364" height="396.364" rx="98.1818" stroke="white" stroke-width="3.63636"/>
<g clip-path="url(#clip0_1_562)">
<path fill-rule="evenodd" clip-rule="evenodd" d="M226.21 142.078L184.253 116.551C177.225 112.265 168.485 117.675 168.485 126.279V177.353C168.485 185.967 177.225 191.356 184.242 187.091L226.21 161.564C233.28 157.257 233.28 146.385 226.21 142.078Z" fill="white"/>
</g>
<path d="M102.746 251.123C102.746 244.653 103.819 239.76 105.966 236.445C108.112 233.099 111.206 231.426 115.246 231.426C123.011 231.426 126.894 237.708 126.894 250.271C126.894 256.458 125.805 261.193 123.627 264.476C121.449 267.727 118.387 269.353 114.441 269.353C110.717 269.353 107.828 267.806 105.777 264.712C103.756 261.587 102.746 257.058 102.746 251.123ZM107.481 250.934C107.481 260.656 109.943 265.517 114.867 265.517C119.729 265.517 122.159 260.562 122.159 250.65C122.159 240.423 119.776 235.309 115.009 235.309C109.991 235.309 107.481 240.517 107.481 250.934ZM131.155 251.123C131.155 244.653 132.229 239.76 134.375 236.445C136.521 233.099 139.615 231.426 143.655 231.426C151.42 231.426 155.303 237.708 155.303 250.271C155.303 256.458 154.214 261.193 152.036 264.476C149.858 267.727 146.796 269.353 142.85 269.353C139.126 269.353 136.237 267.806 134.186 264.712C132.165 261.587 131.155 257.058 131.155 251.123ZM135.89 250.934C135.89 260.656 138.352 265.517 143.277 265.517C148.138 265.517 150.568 260.562 150.568 250.65C150.568 240.423 148.185 235.309 143.419 235.309C138.4 235.309 135.89 240.517 135.89 250.934ZM160.227 243.358C160.227 242.474 160.527 241.748 161.127 241.18C161.727 240.612 162.437 240.328 163.258 240.328C164.11 240.328 164.836 240.628 165.436 241.228C166.035 241.796 166.335 242.506 166.335 243.358C166.335 244.179 166.035 244.889 165.436 245.489C164.867 246.057 164.141 246.341 163.258 246.341C162.374 246.341 161.648 246.057 161.08 245.489C160.511 244.889 160.227 244.179 160.227 243.358ZM160.227 264.665C160.227 263.781 160.511 263.055 161.08 262.487C161.648 261.919 162.374 261.635 163.258 261.635C164.141 261.635 164.867 261.935 165.436 262.534C166.035 263.103 166.335 263.813 166.335 264.665C166.335 265.486 166.035 266.18 165.436 266.748C164.867 267.348 164.141 267.648 163.258 267.648C162.374 267.648 161.648 267.348 161.08 266.748C160.511 266.18 160.227 265.486 160.227 264.665ZM175.947 263.529C177.967 264.697 180.145 265.281 182.481 265.281C185.764 265.281 188.305 263.986 190.104 261.398C191.935 258.81 192.85 255.132 192.85 250.366C192.819 250.397 192.787 250.397 192.756 250.366C191.146 253.428 188.447 254.959 184.659 254.959C181.566 254.959 179.009 253.901 176.989 251.786C174.968 249.671 173.958 246.925 173.958 243.548C173.958 239.949 175.063 236.998 177.273 234.694C179.482 232.389 182.355 231.237 185.89 231.237C189.52 231.237 192.361 232.673 194.413 235.546C196.465 238.387 197.491 242.538 197.491 247.998C197.491 254.785 196.165 260.009 193.513 263.671C190.862 267.301 187.184 269.116 182.481 269.116C179.924 269.116 177.746 268.706 175.947 267.885V263.529ZM178.646 242.98C178.646 245.442 179.277 247.399 180.54 248.851C181.802 250.271 183.554 250.981 185.795 250.981C187.689 250.981 189.299 250.334 190.625 249.04C191.951 247.714 192.614 246.105 192.614 244.211C192.614 241.559 191.951 239.381 190.625 237.676C189.331 235.94 187.626 235.072 185.511 235.072C183.523 235.072 181.881 235.83 180.587 237.345C179.293 238.829 178.646 240.707 178.646 242.98ZM202.178 251.123C202.178 244.653 203.251 239.76 205.398 236.445C207.544 233.099 210.638 231.426 214.678 231.426C222.443 231.426 226.326 237.708 226.326 250.271C226.326 256.458 225.237 261.193 223.059 264.476C220.881 267.727 217.819 269.353 213.873 269.353C210.148 269.353 207.26 267.806 205.208 264.712C203.188 261.587 202.178 257.058 202.178 251.123ZM206.913 250.934C206.913 260.656 209.375 265.517 214.299 265.517C219.16 265.517 221.591 260.562 221.591 250.65C221.591 240.423 219.208 235.309 214.441 235.309C209.422 235.309 206.913 240.517 206.913 250.934ZM231.25 243.358C231.25 242.474 231.55 241.748 232.15 241.18C232.749 240.612 233.46 240.328 234.28 240.328C235.133 240.328 235.859 240.628 236.458 241.228C237.058 241.796 237.358 242.506 237.358 243.358C237.358 244.179 237.058 244.889 236.458 245.489C235.89 246.057 235.164 246.341 234.28 246.341C233.396 246.341 232.67 246.057 232.102 245.489C231.534 244.889 231.25 244.179 231.25 243.358ZM231.25 264.665C231.25 263.781 231.534 263.055 232.102 262.487C232.67 261.919 233.396 261.635 234.28 261.635C235.164 261.635 235.89 261.935 236.458 262.534C237.058 263.103 237.358 263.813 237.358 264.665C237.358 265.486 237.058 266.18 236.458 266.748C235.89 267.348 235.164 267.648 234.28 267.648C233.396 267.648 232.67 267.348 232.102 266.748C231.534 266.18 231.25 265.486 231.25 264.665ZM244.792 251.123C244.792 244.653 245.865 239.76 248.011 236.445C250.158 233.099 253.251 231.426 257.292 231.426C265.057 231.426 268.939 237.708 268.939 250.271C268.939 256.458 267.85 261.193 265.672 264.476C263.494 267.727 260.432 269.353 256.487 269.353C252.762 269.353 249.874 267.806 247.822 264.712C245.802 261.587 244.792 257.058 244.792 251.123ZM249.527 250.934C249.527 260.656 251.989 265.517 256.913 265.517C261.774 265.517 264.205 260.562 264.205 250.65C264.205 240.423 261.821 235.309 257.055 235.309C252.036 235.309 249.527 240.517 249.527 250.934ZM273.201 251.123C273.201 244.653 274.274 239.76 276.42 236.445C278.567 233.099 281.66 231.426 285.701 231.426C293.466 231.426 297.348 237.708 297.348 250.271C297.348 256.458 296.259 261.193 294.081 264.476C291.903 267.727 288.842 269.353 284.896 269.353C281.171 269.353 278.283 267.806 276.231 264.712C274.211 261.587 273.201 257.058 273.201 251.123ZM277.936 250.934C277.936 260.656 280.398 265.517 285.322 265.517C290.183 265.517 292.614 260.562 292.614 250.65C292.614 240.423 290.23 235.309 285.464 235.309C280.445 235.309 277.936 240.517 277.936 250.934Z" fill="white"/>
<defs>
<clipPath id="clip0_1_562">
<rect width="31.5152" height="36.7677" fill="white" transform="matrix(2 0 0 2 168.485 115.051)"/>
</clipPath>
</defs>
</svg>
