<svg width="322" height="322" viewBox="0 0 322 322" fill="none" xmlns="http://www.w3.org/2000/svg">
<rect width="322" height="322" rx="80.5" fill="white"/>
<path d="M64.7188 157.312C64.7188 150.906 65.7812 146.062 67.9062 142.781C70.0312 139.469 73.0938 137.812 77.0938 137.812C84.7812 137.812 88.625 144.031 88.625 156.469C88.625 162.594 87.5469 167.281 85.3906 170.531C83.2344 173.75 80.2031 175.359 76.2969 175.359C72.6094 175.359 69.75 173.828 67.7188 170.766C65.7188 167.672 64.7188 163.188 64.7188 157.312ZM69.4062 157.125C69.4062 166.75 71.8438 171.562 76.7188 171.562C81.5312 171.562 83.9375 166.656 83.9375 156.844C83.9375 146.719 81.5781 141.656 76.8594 141.656C71.8906 141.656 69.4062 146.812 69.4062 157.125ZM92.8438 157.312C92.8438 150.906 93.9062 146.062 96.0312 142.781C98.1562 139.469 101.219 137.812 105.219 137.812C112.906 137.812 116.75 144.031 116.75 156.469C116.75 162.594 115.672 167.281 113.516 170.531C111.359 173.75 108.328 175.359 104.422 175.359C100.734 175.359 97.875 173.828 95.8438 170.766C93.8438 167.672 92.8438 163.188 92.8438 157.312ZM97.5312 157.125C97.5312 166.75 99.9688 171.562 104.844 171.562C109.656 171.562 112.062 166.656 112.062 156.844C112.062 146.719 109.703 141.656 104.984 141.656C100.016 141.656 97.5312 146.812 97.5312 157.125ZM121.625 149.625C121.625 148.75 121.922 148.031 122.516 147.469C123.109 146.906 123.812 146.625 124.625 146.625C125.469 146.625 126.188 146.922 126.781 147.516C127.375 148.078 127.672 148.781 127.672 149.625C127.672 150.438 127.375 151.141 126.781 151.734C126.219 152.297 125.5 152.578 124.625 152.578C123.75 152.578 123.031 152.297 122.469 151.734C121.906 151.141 121.625 150.438 121.625 149.625ZM121.625 170.719C121.625 169.844 121.906 169.125 122.469 168.562C123.031 168 123.75 167.719 124.625 167.719C125.5 167.719 126.219 168.016 126.781 168.609C127.375 169.172 127.672 169.875 127.672 170.719C127.672 171.531 127.375 172.219 126.781 172.781C126.219 173.375 125.5 173.672 124.625 173.672C123.75 173.672 123.031 173.375 122.469 172.781C121.906 172.219 121.625 171.531 121.625 170.719ZM137.188 169.594C139.188 170.75 141.344 171.328 143.656 171.328C146.906 171.328 149.422 170.047 151.203 167.484C153.016 164.922 153.922 161.281 153.922 156.562C153.891 156.594 153.859 156.594 153.828 156.562C152.234 159.594 149.562 161.109 145.812 161.109C142.75 161.109 140.219 160.062 138.219 157.969C136.219 155.875 135.219 153.156 135.219 149.812C135.219 146.25 136.312 143.328 138.5 141.047C140.688 138.766 143.531 137.625 147.031 137.625C150.625 137.625 153.438 139.047 155.469 141.891C157.5 144.703 158.516 148.812 158.516 154.219C158.516 160.938 157.203 166.109 154.578 169.734C151.953 173.328 148.312 175.125 143.656 175.125C141.125 175.125 138.969 174.719 137.188 173.906V169.594ZM139.859 149.25C139.859 151.688 140.484 153.625 141.734 155.062C142.984 156.469 144.719 157.172 146.938 157.172C148.812 157.172 150.406 156.531 151.719 155.25C153.031 153.938 153.688 152.344 153.688 150.469C153.688 147.844 153.031 145.688 151.719 144C150.438 142.281 148.75 141.422 146.656 141.422C144.688 141.422 143.062 142.172 141.781 143.672C140.5 145.141 139.859 147 139.859 149.25ZM163.156 157.312C163.156 150.906 164.219 146.062 166.344 142.781C168.469 139.469 171.531 137.812 175.531 137.812C183.219 137.812 187.062 144.031 187.062 156.469C187.062 162.594 185.984 167.281 183.828 170.531C181.672 173.75 178.641 175.359 174.734 175.359C171.047 175.359 168.188 173.828 166.156 170.766C164.156 167.672 163.156 163.188 163.156 157.312ZM167.844 157.125C167.844 166.75 170.281 171.562 175.156 171.562C179.969 171.562 182.375 166.656 182.375 156.844C182.375 146.719 180.016 141.656 175.297 141.656C170.328 141.656 167.844 146.812 167.844 157.125ZM191.938 149.625C191.938 148.75 192.234 148.031 192.828 147.469C193.422 146.906 194.125 146.625 194.938 146.625C195.781 146.625 196.5 146.922 197.094 147.516C197.688 148.078 197.984 148.781 197.984 149.625C197.984 150.438 197.688 151.141 197.094 151.734C196.531 152.297 195.812 152.578 194.938 152.578C194.062 152.578 193.344 152.297 192.781 151.734C192.219 151.141 191.938 150.438 191.938 149.625ZM191.938 170.719C191.938 169.844 192.219 169.125 192.781 168.562C193.344 168 194.062 167.719 194.938 167.719C195.812 167.719 196.531 168.016 197.094 168.609C197.688 169.172 197.984 169.875 197.984 170.719C197.984 171.531 197.688 172.219 197.094 172.781C196.531 173.375 195.812 173.672 194.938 173.672C194.062 173.672 193.344 173.375 192.781 172.781C192.219 172.219 191.938 171.531 191.938 170.719ZM205.344 157.312C205.344 150.906 206.406 146.062 208.531 142.781C210.656 139.469 213.719 137.812 217.719 137.812C225.406 137.812 229.25 144.031 229.25 156.469C229.25 162.594 228.172 167.281 226.016 170.531C223.859 173.75 220.828 175.359 216.922 175.359C213.234 175.359 210.375 173.828 208.344 170.766C206.344 167.672 205.344 163.188 205.344 157.312ZM210.031 157.125C210.031 166.75 212.469 171.562 217.344 171.562C222.156 171.562 224.562 166.656 224.562 156.844C224.562 146.719 222.203 141.656 217.484 141.656C212.516 141.656 210.031 146.812 210.031 157.125ZM233.469 157.312C233.469 150.906 234.531 146.062 236.656 142.781C238.781 139.469 241.844 137.812 245.844 137.812C253.531 137.812 257.375 144.031 257.375 156.469C257.375 162.594 256.297 167.281 254.141 170.531C251.984 173.75 248.953 175.359 245.047 175.359C241.359 175.359 238.5 173.828 236.469 170.766C234.469 167.672 233.469 163.188 233.469 157.312ZM238.156 157.125C238.156 166.75 240.594 171.562 245.469 171.562C250.281 171.562 252.688 166.656 252.688 156.844C252.688 146.719 250.328 141.656 245.609 141.656C240.641 141.656 238.156 146.812 238.156 157.125Z" fill="#1D2547"/>
</svg>
