<svg width="93" height="30" viewBox="0 0 93 30" fill="none" xmlns="http://www.w3.org/2000/svg">
<path d="M0 2.51479H7.82728V25.698H6.14551V23.4975H1.66605V26.0123H0V2.51479ZM9.24185 15.3245H18.1851V3.31638C17.7764 3.33733 17.1634 3.37401 16.3461 3.4264C13.7999 3.59405 11.7933 3.71979 10.3263 3.80362C10.274 3.22731 10.1587 2.6772 9.98056 2.15329C15.9741 1.92276 21.69 1.52983 27.1283 0.97448L27.5526 2.57766C27.364 2.59861 27.0864 2.62481 26.7196 2.65624C23.8067 2.9182 21.5329 3.10681 19.8983 3.22207V15.3245H28.5743V16.9277H19.8983V25.3051C19.9716 27.9456 18.7037 29.2868 16.0946 29.3287C14.5753 29.3706 13.2865 29.3916 12.2282 29.3916C12.1339 28.7524 11.9819 28.129 11.7724 27.5212C12.2753 27.5631 12.8149 27.5893 13.3912 27.5998C13.6742 27.6103 13.9833 27.6155 14.3186 27.6155C14.6015 27.6155 15.0311 27.6155 15.6074 27.6155C16.6133 27.626 17.2892 27.4426 17.635 27.0654C18.0122 26.7091 18.1955 26.0281 18.1851 25.0221V16.9277H9.24185V15.3245ZM1.66605 4.11797V21.8629H6.14551V4.11797H1.66605ZM23.7176 13.2655L22.1773 12.5268C23.6128 10.2111 24.8231 7.98969 25.808 5.8626L27.3955 6.56988C25.9076 9.45141 24.6816 11.6833 23.7176 13.2655ZM10.625 6.69562L12.1653 6.05121C13.014 7.72773 14.0566 9.87578 15.2931 12.4954L13.6427 13.1712C12.8254 11.2851 11.8195 9.12658 10.625 6.69562ZM43.3958 28.4014C46.8641 26.3581 49.5204 24.3253 51.3645 22.303C49.0069 19.4005 47.1628 15.6598 45.832 11.0808C45.7482 18.6147 43.5477 24.7183 39.2307 29.3916C38.8849 29.0982 38.3715 28.7105 37.6904 28.2285C40.3728 25.2317 42.1279 22.2611 42.9557 19.3167C43.8569 16.4247 44.2917 11.9924 44.2603 6.01977V3.0649H41.4626V1.50887H56.457V3.22207L53.2664 10.2792H58.8775V11.8824C57.5467 16.0842 55.7969 19.5577 53.6279 22.303C55.3253 24.1262 57.7511 25.9652 60.905 27.8198C60.4754 28.3333 60.0877 28.8781 59.7419 29.4545C56.6718 27.4845 54.267 25.5513 52.5276 23.6547C50.5053 25.918 47.8753 28.0032 44.6375 29.9103C44.3231 29.4597 43.9092 28.9567 43.3958 28.4014ZM31.8592 2.54622H39.5922V22.4445H33.4781V24.9436H31.8592V2.54622ZM51.5374 10.0434L54.7124 3.0649H45.9263V5.9569V7.05712C47.7286 13.365 49.9185 18.0226 52.4962 21.0299C54.3404 18.7037 55.8754 15.6336 57.1014 11.8195H51.5374V10.0434ZM33.4781 4.02366V20.9513H37.9733V4.02366H33.4781ZM76.481 2.35761H93V4.02366H86.7759V25.085C86.8283 27.757 85.508 29.0982 82.8151 29.1087C81.4425 29.1506 80.0069 29.1715 78.5085 29.1715C78.3933 28.459 78.2518 27.8356 78.0842 27.3012C79.3939 27.364 80.7561 27.3955 82.1707 27.3955C84.172 27.5003 85.1203 26.5886 85.0155 24.6606V4.02366H76.481V2.35761ZM70.0997 16.9748C71.8182 19.3324 73.6309 21.9572 75.5379 24.8492L73.9662 25.8552C72.363 23.2565 70.6708 20.6789 68.8895 18.1222C68.1141 22.1982 66.4376 25.9338 63.8599 29.3287C63.3255 28.7838 62.854 28.3542 62.4453 28.0399C65.987 23.618 67.7997 18.2636 67.8836 11.9767C68.0093 9.1685 68.0722 5.17627 68.0722 0H69.8168C69.8168 4.11797 69.7435 8.02636 69.5968 11.7252C69.4815 14.0619 69.2667 16.058 68.9523 17.7135L70.0997 16.9748ZM73.7462 5.15532L75.3493 5.64256C74.4796 8.47169 73.5575 11.196 72.5831 13.8156L71.0428 13.2655C72.0801 10.4992 72.9812 7.79584 73.7462 5.15532ZM62.6339 5.40679L64.19 5.09245C64.8291 7.74345 65.4369 10.4783 66.0132 13.2969L64.3786 13.6899C63.8547 10.8817 63.2731 8.12067 62.6339 5.40679Z" fill="#F3F3F3"/>
</svg>
