<svg width="93" height="30" viewBox="0 0 93 30" fill="none" xmlns="http://www.w3.org/2000/svg">
<path d="M0 1.84268H8.55191V21.7499H1.65368V24.8367H0V1.84268ZM9.48112 29.2623C9.10313 28.9053 8.59915 28.5169 7.96918 28.0969C11.2555 24.296 12.8147 18.9412 12.6467 12.0325V1.35445C17.529 1.06046 22.1856 0.608975 26.6164 0L27.0259 1.68518C22.8261 2.14716 18.6 2.5409 14.3477 2.86638V10.7411H28.4906V12.3633H23.3563V29.2308H21.6396V12.3633H14.3477C14.4737 19.4085 12.8515 25.0415 9.48112 29.2623ZM1.65368 3.38611V20.1907H6.89822V3.38611H1.65368ZM30.3175 12.253H60.9028V14.1272H30.3175V12.253ZM64.5094 1.84268H73.0613V21.7499H66.1631V24.8367H64.5094V1.84268ZM73.9905 29.2623C73.6125 28.9053 73.1086 28.5169 72.4786 28.0969C75.7649 24.296 77.3241 18.9412 77.1561 12.0325V1.35445C82.0384 1.06046 86.695 0.608975 91.1258 0L91.5353 1.68518C87.3355 2.14716 83.1094 2.5409 78.8571 2.86638V10.7411H93V12.3633H87.8657V29.2308H86.149V12.3633H78.8571C78.9831 19.4085 77.3609 25.0415 73.9905 29.2623ZM66.1631 3.38611V20.1907H71.4076V3.38611H66.1631Z" fill="#F3F3F3"/>
</svg>
