<svg width="94" height="31" viewBox="0 0 94 31" fill="none" xmlns="http://www.w3.org/2000/svg">
<path d="M8.67332 16.6746H17.8936V11.9395H12.1114V10.408H25.0667V11.9395H19.5658V16.6746H28.4266V18.253H19.5658V26.8638C19.5553 28.8017 18.6489 29.8227 16.8466 29.9268C16.3986 29.9477 15.9141 29.9633 15.3932 29.9737C15.1327 29.9842 14.8566 29.9894 14.5649 29.9894C14.3045 29.9894 13.945 29.9894 13.4866 29.9894C13.4241 29.4789 13.3043 28.885 13.1272 28.2078C14.1482 28.2703 15.1171 28.3016 16.0339 28.3016C17.3258 28.3433 17.9457 27.8171 17.8936 26.7232V18.253H8.67332V16.6746ZM28.8798 11.877C24.577 9.48074 21.1702 6.42815 18.6594 2.7192C16.3256 6.17811 12.8823 9.39219 8.32951 12.3614C7.89194 11.7572 7.49604 11.2675 7.14181 10.8924C12.2677 8.01696 16.0548 4.38615 18.5031 0L20.2065 0.421945C20.1336 0.536548 20.0294 0.703242 19.8939 0.922028C19.7481 1.16165 19.6387 1.33876 19.5658 1.45337C22.212 5.3811 25.6866 8.33472 29.9894 10.3142C29.5414 10.8976 29.1715 11.4186 28.8798 11.877ZM0.546966 29.5205C1.70341 25.9991 2.8338 22.0922 3.93815 17.7998C4.65702 18.1124 5.24566 18.3468 5.70407 18.5031C4.74558 21.7119 3.66728 25.6188 2.46916 30.2238L0.546966 29.5205ZM12.1426 20.5503L13.6741 21.4098C12.028 23.8477 10.3507 26.1554 8.64206 28.3328C8.267 27.9994 7.79817 27.6556 7.23558 27.3014C9.1734 25.0302 10.8091 22.7798 12.1426 20.5503ZM27.9421 28.0359C26.2439 25.5459 24.6551 23.3528 23.1757 21.4567L24.4572 20.5815C26.3533 22.9361 28.0099 25.0823 29.4268 27.0201L27.9421 28.0359ZM6.53234 6.43857C4.83414 4.88623 3.15157 3.42244 1.48462 2.04722L2.65669 0.906401C4.1361 2.03159 5.86556 3.42765 7.84505 5.0946L6.53234 6.43857ZM5.12585 14.4399C3.3964 12.9188 1.68778 11.5227 0 10.2517L1.12519 9.03275C2.55251 10.085 4.31322 11.4394 6.40732 13.0959L5.12585 14.4399ZM31.9116 13.4085H62.2603V15.2682H31.9116V13.4085ZM72.684 16.6746H81.9042V11.9395H76.122V10.408H89.0773V11.9395H83.5764V16.6746H92.4372V18.253H83.5764V26.8638C83.566 28.8017 82.6596 29.8227 80.8572 29.9268C80.4092 29.9477 79.9247 29.9633 79.4038 29.9737C79.1434 29.9842 78.8673 29.9894 78.5756 29.9894C78.3151 29.9894 77.9557 29.9894 77.4973 29.9894C77.4347 29.4789 77.3149 28.885 77.1378 28.2078C78.1588 28.2703 79.1277 28.3016 80.0446 28.3016C81.3364 28.3433 81.9563 27.8171 81.9042 26.7232V18.253H72.684V16.6746ZM92.8904 11.877C88.5876 9.48074 85.1808 6.42815 82.67 2.7192C80.3363 6.17811 76.893 9.39219 72.3401 12.3614C71.9026 11.7572 71.5067 11.2675 71.1525 10.8924C76.2783 8.01696 80.0654 4.38615 82.5137 0L84.2171 0.421945C84.1442 0.536548 84.04 0.703242 83.9046 0.922028C83.7587 1.16165 83.6493 1.33876 83.5764 1.45337C86.2227 5.3811 89.6972 8.33472 94 10.3142C93.552 10.8976 93.1822 11.4186 92.8904 11.877ZM64.5576 29.5205C65.714 25.9991 66.8444 22.0922 67.9488 17.7998C68.6677 18.1124 69.2563 18.3468 69.7147 18.5031C68.7562 21.7119 67.6779 25.6188 66.4798 30.2238L64.5576 29.5205ZM76.1533 20.5503L77.6848 21.4098C76.0387 23.8477 74.3613 26.1554 72.6527 28.3328C72.2776 27.9994 71.8088 27.6556 71.2462 27.3014C73.184 25.0302 74.8197 22.7798 76.1533 20.5503ZM91.9528 28.0359C90.2546 25.5459 88.6658 23.3528 87.1864 21.4567L88.4678 20.5815C90.364 22.9361 92.0205 25.0823 93.4374 27.0201L91.9528 28.0359ZM70.543 6.43857C68.8448 4.88623 67.1622 3.42244 65.4953 2.04722L66.6673 0.906401C68.1467 2.03159 69.8762 3.42765 71.8557 5.0946L70.543 6.43857ZM69.1365 14.4399C67.407 12.9188 65.6984 11.5227 64.0106 10.2517L65.1358 9.03275C66.5631 10.085 68.3239 11.4394 70.418 13.0959L69.1365 14.4399Z" fill="#F3F3F3"/>
</svg>
