<svg width="215" height="23" viewBox="0 0 215 23" fill="none" xmlns="http://www.w3.org/2000/svg">
<path d="M0.340116 15.3756L0.0234563 14.0855C1.59503 13.8275 3.34252 13.5225 5.26593 13.1707V8.36215H0V7.16588H5.26593V3.13141C3.56926 3.34252 2.14234 3.5028 0.985163 3.61226C0.899156 3.08059 0.777966 2.6701 0.621591 2.38081C3.60835 2.13843 6.73194 1.73185 9.99236 1.16108L10.4028 2.35735C9.65225 2.49809 8.36997 2.68965 6.55602 2.93203V7.16588H13.2176C13.0847 5.2112 13.0182 2.8343 13.0182 0.0351844H14.3435C14.32 2.59192 14.367 4.96882 14.4842 7.16588H22.8698V8.36215H14.5546C14.6562 9.56624 14.7774 10.6726 14.9182 11.6812C15.1371 13.1902 15.3521 14.3904 15.5632 15.2817C17.1192 13.9213 18.6243 12.2324 20.0786 10.2152L21.181 10.9306C19.328 13.3544 17.5844 15.2544 15.9503 16.6305C16.2239 17.4202 16.521 18.1239 16.8416 18.7415C17.6469 20.3678 18.5422 21.1614 19.5273 21.1224C20.1997 21.1614 20.6728 20.6884 20.9464 19.7033C21.2123 18.6868 21.4195 17.6391 21.568 16.5601C21.9824 16.7634 22.3851 16.912 22.776 17.0058C22.604 18.2802 22.3616 19.4179 22.0489 20.4187C21.6579 21.7869 20.8096 22.4594 19.5039 22.4359C17.987 22.4594 16.6891 21.396 15.6101 19.2459C15.3521 18.722 15.1136 18.1434 14.8947 17.5101C13.4092 18.7142 11.4467 19.9339 9.0072 21.1693C8.71791 20.7314 8.43643 20.3718 8.16278 20.0903C10.6179 18.9018 12.7172 17.6117 14.4608 16.22C14.0933 14.9064 13.8118 13.4483 13.6164 11.8454C13.46 10.5631 13.3505 9.40205 13.288 8.36215H6.55602V12.9244C8.48725 12.5647 10.051 12.2598 11.2473 12.0096C11.2473 12.4553 11.2629 12.8658 11.2942 13.2411C10.1526 13.4365 8.57326 13.7415 6.55602 14.1558V19.6094C6.61857 21.3061 5.82888 22.1779 4.18694 22.2248C3.71782 22.2561 2.80302 22.2717 1.44256 22.2717C1.39565 21.8339 1.30964 21.3843 1.18454 20.923C1.55984 20.9621 2.40818 20.9855 3.72954 20.9933C4.80071 21.0324 5.31284 20.5633 5.26593 19.586V14.3904C3.48325 14.7266 1.84132 15.055 0.340116 15.3756ZM16.1379 2.31044L17.0762 1.46602C18.4757 2.63101 19.7658 3.74518 20.9464 4.80853L19.9378 5.72333C18.9136 4.69907 17.6469 3.56144 16.1379 2.31044ZM45.6107 19.152C45.6967 21.2944 44.6724 22.3577 42.5379 22.3421C42.147 22.3499 41.6818 22.3577 41.1423 22.3655C40.6419 22.3655 39.9929 22.3655 39.1954 22.3655C39.1172 21.8417 39.0312 21.3843 38.9374 20.9933C40.0085 21.0637 41.0797 21.0989 42.1509 21.0989C42.9797 21.1067 43.5504 20.9503 43.8632 20.6298C44.1916 20.3248 44.3519 19.7736 44.344 18.9761V3.41288H38.1868V2.1697H45.6107V19.152ZM24.5704 12.854C24.4062 12.3067 24.2225 11.7868 24.0192 11.2942C26.443 7.6741 28.1631 4.03057 29.1796 0.363572L30.4814 0.774056C29.895 2.47073 29.2148 4.18303 28.4407 5.91098V22.6587H27.1858V8.45598C26.4665 9.8399 25.5947 11.3059 24.5704 12.854ZM32.4283 22.389V5.60604H33.6949V22.389H32.4283ZM32.7449 1.13763L33.777 0.410484C34.6292 1.37219 35.5792 2.49418 36.6269 3.77646L35.5245 4.57397C34.7035 3.47934 33.777 2.3339 32.7449 1.13763ZM48.0853 9.99236H70.8613V11.388H48.0853V9.99236ZM77.1007 0.129009H78.3556V3.56535H82.2142V4.69125H78.3556V8.6319H82.8944V9.7578H79.0476V13.9096H82.6012V15.0472H79.0476V19.7971C80.1578 20.3444 81.8545 20.6337 84.1376 20.665C85.9672 20.6884 87.7655 20.7001 89.5325 20.7001C91.3074 20.7001 93.0509 20.6884 94.7633 20.665C94.5209 21.1575 94.3684 21.5798 94.3059 21.9316C89.0047 21.9316 85.4707 21.9003 83.7036 21.8378C79.2079 21.9003 76.2797 20.3014 74.9193 17.041C74.6769 18.8549 74.0201 20.7119 72.9489 22.6118C72.7457 22.3929 72.4094 22.1349 71.9403 21.8378C72.7926 20.3053 73.3555 18.8471 73.6292 17.4632C73.9185 16.1027 74.0592 14.1285 74.0514 11.5405H75.2242C75.2242 12.8931 75.1851 14.0855 75.1069 15.1176C75.9513 16.9862 76.8505 18.2998 77.8044 19.0582V9.7578H72.2218V8.6319H77.1007V4.69125H73.0662V3.56535H77.1007V0.129009ZM85.6505 14.5898C85.6427 15.2387 85.7873 15.6844 86.0844 15.9268C86.3659 16.177 86.8937 16.2982 87.6677 16.2904H90.5059C91.8977 16.3607 92.6835 15.8486 92.8633 14.754C93.0353 14.0268 93.1878 13.1472 93.3207 12.1152C93.61 12.2481 94.0009 12.3927 94.4935 12.5491C94.4075 13.3232 94.2707 14.1441 94.083 15.012C93.8172 16.7165 92.6717 17.5257 90.6467 17.4397H87.527C85.3768 17.5023 84.337 16.6383 84.4073 14.8478V7.99858H91.7257V2.69747H83.9968V1.54811H92.9806V9.15967H85.6505V14.5898ZM118.055 22.2717C116.398 20.7236 115.151 19.281 114.314 17.944C113.352 19.4531 111.918 21.0481 110.01 22.7291C109.681 22.3147 109.369 21.9707 109.072 21.697C111.136 19.8909 112.641 18.2255 113.587 16.7009C112.539 14.7149 111.843 12.0409 111.499 8.67881C111.093 9.53106 110.686 10.2895 110.28 10.9541C110.029 10.6648 109.74 10.3442 109.412 9.99236C111.163 7.10724 112.418 3.81946 113.176 0.129009L114.408 0.293203C114.025 1.8335 113.606 3.26824 113.153 4.59743H118.782V5.67641H117.551C117.184 10.6413 116.335 14.3318 115.006 16.7478C115.882 18.2333 117.203 19.6915 118.97 21.1224C118.61 21.5211 118.306 21.9042 118.055 22.2717ZM105.248 0.269747H106.456V5.05482H110.197V6.15727H106.456V11.13H109.189V19.2693H103.712V20.8526H102.516V11.13H105.248V6.15727H101.53V5.05482H105.248V0.269747ZM96.5811 12.3497C96.4638 11.9744 96.2488 11.5092 95.9361 10.9541C97.8829 7.89694 99.4193 4.30422 100.545 0.175922L101.741 0.457397C101.194 2.27135 100.651 3.85855 100.111 5.21902V22.6822H98.915V8.05722C98.094 9.76953 97.3161 11.2004 96.5811 12.3497ZM103.712 12.2324V18.1669H107.993V12.2324H103.712ZM114.314 15.3756C115.377 13.2567 116.05 10.0236 116.331 5.67641H112.778C112.746 5.76242 112.696 5.89925 112.625 6.0869C112.524 6.35273 112.445 6.55211 112.391 6.68503C112.766 10.5553 113.407 13.4522 114.314 15.3756ZM130.546 0H131.848V3.06104H142.462V4.25731H131.848V7.59983H140.245V15.141H123.145V7.59983H130.546V0ZM124.447 8.77264V13.9565H138.955V8.77264H124.447ZM120.213 21.697C121.245 20.2584 122.223 18.6634 123.145 16.912L124.33 17.4632C123.313 19.2928 122.328 20.9503 121.374 22.4359L120.213 21.697ZM141.277 22.0606C140.675 20.9191 139.795 19.3944 138.638 17.4866L139.764 16.9354C140.577 18.249 141.476 19.7463 142.462 21.4273L141.277 22.0606ZM134.557 21.8612C134.541 21.8221 134.518 21.7596 134.486 21.6736C133.681 19.7033 133.063 18.2607 132.633 17.3459L133.794 16.9354C134.185 17.7564 134.858 19.238 135.812 21.3804L134.557 21.8612ZM128.165 17.1582C128.618 18.3154 129.174 19.8205 129.83 21.6736L128.529 22.0841C128.138 20.7392 127.618 19.2146 126.969 17.5101L128.165 17.1582ZM145.828 1.4191H155.937V8.81955H145.828V1.4191ZM144.913 12.1386H148.806C148.838 11.4115 148.853 10.6022 148.853 9.71089H150.12C150.12 10.352 150.104 11.1613 150.073 12.1386H156.148C156.109 14.3435 156.023 16.5288 155.89 18.6946C155.836 21.0168 154.69 22.1544 152.454 22.1075C152.04 22.1153 151.617 22.1232 151.187 22.131C150.976 22.131 150.753 22.131 150.519 22.131C150.308 22.131 150.014 22.131 149.639 22.131C149.584 21.5993 149.506 21.1341 149.405 20.7353C150.14 20.7979 151.058 20.8292 152.161 20.8292C153.764 20.9386 154.581 20.1724 154.612 18.5304C154.737 16.5836 154.811 14.8361 154.835 13.288H150.003C149.971 17.2521 148.345 20.3757 145.124 22.6587C144.811 22.3147 144.459 22.002 144.068 21.7205C147.188 19.6094 148.74 16.7986 148.724 13.288H144.913V12.1386ZM147.094 2.60364V7.67019H154.659V2.60364H147.094ZM164.264 0.222834H165.566V19.3866C165.675 21.3178 164.659 22.2795 162.517 22.2717C162.102 22.2873 161.66 22.2991 161.191 22.3069C160.965 22.3147 160.718 22.3186 160.452 22.3186C160.226 22.3186 159.897 22.3186 159.467 22.3186C159.405 21.7948 159.323 21.3452 159.221 20.9699C159.886 21.0246 160.863 21.052 162.153 21.052C162.943 21.0598 163.49 20.9269 163.795 20.6532C164.116 20.3952 164.272 19.9417 164.264 19.2928V0.222834ZM159.373 2.60364H160.64V17.0644H159.373V2.60364ZM169.166 3.98756H171.618C172.079 2.53328 172.446 1.25491 172.72 0.152466L174.022 0.433941C173.928 0.715416 173.768 1.208 173.541 1.91168C173.236 2.87339 173.013 3.56535 172.873 3.98756H177.646V22.2013H176.403V20.2779H170.421V22.3655H169.166V3.98756ZM179.734 9.11275C179.468 8.90165 179.1 8.66708 178.631 8.40907C180.062 6.10253 181.262 3.35033 182.232 0.152466L183.51 0.480853C183.088 1.72403 182.654 2.8773 182.208 3.94065H189.972C189.878 9.41378 189.734 14.1793 189.538 18.2372C189.538 20.8643 188.201 22.1701 185.527 22.1544C185.05 22.1701 184.519 22.1818 183.932 22.1896C183.651 22.1974 183.342 22.2013 183.006 22.2013C182.709 22.2013 182.298 22.2013 181.774 22.2013C181.696 21.7479 181.594 21.3061 181.469 20.8761C182.697 20.923 183.975 20.9464 185.304 20.9464C187.283 21.0481 188.276 20.0981 188.283 18.0965C188.424 15.571 188.553 11.2551 188.67 5.14865H181.704C181.063 6.68112 180.406 8.00249 179.734 9.11275ZM170.421 12.6429V19.152H176.403V12.6429H170.421ZM170.421 5.14865V11.5053H176.403V5.14865H170.421ZM180.742 10.1683L181.704 9.48805C182.791 10.8251 184.057 12.467 185.504 14.4139L184.448 15.2114C183.158 13.3583 181.923 11.6773 180.742 10.1683ZM202.556 18.9527C202.502 20.1333 203.174 20.7041 204.574 20.665H210.672C212.236 20.6962 213.116 20.0942 213.311 18.8588C213.491 17.9284 213.636 16.7751 213.745 15.399C214.152 15.5476 214.57 15.6688 215 15.7626C214.836 17.2716 214.668 18.464 214.496 19.3397C214.152 21.0129 212.959 21.8534 210.919 21.8612H204.327C202.279 21.8847 201.27 20.9503 201.302 19.0582V1.27837H213.194V11.6812H202.556V18.9527ZM193.233 2.3339H198.686V18.2607H197.49V16.5367H194.441V18.9996H193.233V2.3339ZM194.441 3.4598V15.399H197.49V3.4598H194.441ZM202.556 2.42772V10.5319H206.661V2.42772H202.556ZM211.974 2.42772H207.869V10.5319H211.974V2.42772Z" fill="black" fill-opacity="0.7"/>
</svg>
