<svg width="191" height="23" viewBox="0 0 191 23" fill="none" xmlns="http://www.w3.org/2000/svg">
<path d="M11.7582 20.7704C11.9146 20.6844 12.1493 20.5592 12.4622 20.3949C13.9173 19.6282 15.0204 19.0337 15.7714 18.6112C15.7949 19.065 15.8575 19.4796 15.9592 19.8551C14.6605 20.5044 13.3541 21.1929 12.0398 21.9204C11.6173 22.1551 11.2027 22.4367 10.7959 22.7653L9.92755 21.7796C10.35 21.3493 10.5495 20.7704 10.526 20.0429V1.4199H20.7V11.9224H15.4546C15.877 13.5262 16.4207 14.8796 17.0857 15.9827C18.7364 14.9891 20.2189 14.0386 21.5332 13.1311L22.3077 14.1403C21.6974 14.5236 20.6257 15.1769 19.0923 16.1C18.4978 16.4599 18.048 16.7337 17.7429 16.9214C18.9007 18.4548 20.5592 19.7847 22.7184 20.9112C22.3507 21.3493 22.0534 21.717 21.8265 22.0143C17.5942 19.6282 15.0634 16.2643 14.2342 11.9224H11.7582V20.7704ZM1.30255 10.8429H2.47602V19.6439C2.92194 19.5656 3.59082 19.4483 4.48265 19.2918C4.61565 19.2684 4.71735 19.2488 4.78776 19.2332V8.24949H1.58418V1.44337H8.22602V8.24949H5.98469V12.427H8.75408V13.5066H5.98469V19.0102C6.04728 18.9946 6.14507 18.975 6.27806 18.9515C7.33418 18.7638 8.14388 18.6073 8.70714 18.4821C8.70714 18.8029 8.70714 19.0376 8.70714 19.1862C8.71497 19.3662 8.72279 19.5265 8.73061 19.6673C6.00816 20.1211 3.19575 20.657 0.293367 21.275L0 20.0194L1.30255 19.8316V10.8429ZM11.7582 2.52296V6.16071H19.4913V2.52296H11.7582ZM11.7582 10.8194H19.4913V7.24031H11.7582V10.8194ZM2.74592 2.52296V7.1699H7.06429V2.52296H2.74592ZM26.4148 5.72653H33.0918C33.3344 5.12415 33.5534 4.49048 33.749 3.82551H25.0653V2.76939H32.1531C31.3786 1.97925 30.6588 1.29864 29.9939 0.727551L30.9561 0C31.8088 0.704082 32.6107 1.41207 33.3617 2.12398L32.5403 2.76939H37.5862C38.3372 2.03401 39.2056 1.12653 40.1913 0.0469388L41.3179 0.704082C40.9736 1.05612 40.4612 1.56463 39.7806 2.22959C39.5381 2.46429 39.3543 2.64422 39.2291 2.76939H46.0704V3.82551H35.0398C34.9068 4.2949 34.6995 4.92857 34.4179 5.72653H44.2281V6.75918H34.0071C33.7255 7.42415 33.4126 8.07347 33.0684 8.70714H46.3638V9.76327H32.4699C32.0631 10.4282 31.6211 11.0776 31.1439 11.7112H43.9112V22.7653H42.6556V21.3923H30.3811V22.7653H29.1255V14.0816C28.0303 15.2316 26.6378 16.4912 24.948 17.8602C24.7211 17.5551 24.4238 17.2187 24.0561 16.851C27.1776 14.5432 29.501 12.1806 31.0265 9.76327H24.4434V8.70714H31.6837C32.1061 7.9483 32.4308 7.29898 32.6577 6.75918H26.4148V5.72653ZM30.3811 15.6306V17.473H42.6556V15.6306H30.3811ZM30.3811 12.7439V14.5862H42.6556V12.7439H30.3811ZM30.3811 18.5056V20.3362H42.6556V18.5056H30.3811ZM58.7908 0.17602H60.0816V10.0449H70.7015V11.277H62.9684V19.2566C62.9527 20.4223 63.5707 20.9973 64.8224 20.9816H67.3923C68.5189 20.9973 69.1604 20.524 69.3168 19.5617C69.4577 18.7403 69.5594 17.6842 69.6219 16.3934C70.0991 16.5733 70.5177 16.7102 70.8776 16.8041C70.7837 17.9306 70.6546 18.9711 70.4903 19.9255C70.2321 21.451 69.2543 22.2138 67.5566 22.2138H64.5526C62.6594 22.1825 61.6971 21.2515 61.6658 19.4209V11.277H56.4791C56.4947 11.5978 56.5026 11.8716 56.5026 12.0985C56.5026 17.3165 53.9718 20.8721 48.9102 22.7653C48.6129 22.3116 48.3156 21.9087 48.0184 21.5566C52.7983 20.0624 55.1883 16.8628 55.1883 11.9577C55.1883 11.6838 55.1844 11.457 55.1765 11.277H48.3117V10.0449H58.7908V0.17602ZM64.2474 8.02653L63.2617 7.14643C64.9359 5.48793 66.434 3.8216 67.7561 2.14745L68.8357 2.93367C67.4354 4.62347 65.906 6.32109 64.2474 8.02653ZM50.0837 2.86327L51.0929 2.12398C52.415 3.55561 53.8349 5.17109 55.3526 6.97041L54.1908 7.86224C52.8374 6.11769 51.4684 4.45136 50.0837 2.86327ZM82.1898 23H81.2041L83.1051 16.9801H84.3959L82.1898 23ZM104.591 1.1148H116.748V7.475H104.591V1.1148ZM103.394 9.18827H118.028V13.7296H103.394V9.18827ZM104.134 16.4403V15.4311H116.537V16.5811C115.239 17.9111 113.756 19.0024 112.09 19.8551C113.623 20.4418 115.802 20.9621 118.626 21.4158C118.352 21.8461 118.153 22.2216 118.028 22.5423C114.898 22.0182 112.461 21.3376 110.717 20.5005C108.714 21.3845 106.089 22.1629 102.843 22.8357C102.726 22.5384 102.506 22.1707 102.186 21.7327C105.065 21.185 107.47 20.5592 109.403 19.8551C107.987 19.0337 106.696 17.8954 105.53 16.4403H104.134ZM99.3342 0.152551H100.531V22.5423H99.3342V0.152551ZM105.8 2.06531V3.82551H115.552V2.06531H105.8ZM105.8 4.76429V6.51276H115.552V4.76429H105.8ZM115.141 16.4403H106.973C108.178 17.692 109.426 18.6464 110.717 19.3036C112.242 18.5917 113.717 17.6372 115.141 16.4403ZM116.878 10.127H113.486V12.7908H116.878V10.127ZM104.544 10.127V12.7908H107.889V10.127H104.544ZM109.015 10.127V12.7908H112.36V10.127H109.015ZM97.1398 5.43316L98.3015 5.63265C97.926 7.97959 97.5701 9.8767 97.2337 11.324C97.0616 11.2692 96.7291 11.191 96.2362 11.0893C96.1658 11.0736 96.115 11.0619 96.0837 11.0541C96.467 9.48163 96.819 7.60799 97.1398 5.43316ZM100.965 5.175L101.857 4.54133C102.397 5.15153 103.148 6.06684 104.11 7.28724L103.148 7.97959C102.42 7.0017 101.693 6.06684 100.965 5.175ZM128.624 1.1148H140.781V7.475H128.624V1.1148ZM127.427 9.18827H142.06V13.7296H127.427V9.18827ZM128.166 16.4403V15.4311H140.57V16.5811C139.271 17.9111 137.789 19.0024 136.122 19.8551C137.656 20.4418 139.835 20.9621 142.659 21.4158C142.385 21.8461 142.185 22.2216 142.06 22.5423C138.931 22.0182 136.494 21.3376 134.749 20.5005C132.747 21.3845 130.122 22.1629 126.876 22.8357C126.758 22.5384 126.539 22.1707 126.218 21.7327C129.097 21.185 131.503 20.5592 133.435 19.8551C132.019 19.0337 130.728 17.8954 129.563 16.4403H128.166ZM123.367 0.152551H124.564V22.5423H123.367V0.152551ZM129.833 2.06531V3.82551H139.584V2.06531H129.833ZM129.833 4.76429V6.51276H139.584V4.76429H129.833ZM139.173 16.4403H131.006C132.211 17.692 133.459 18.6464 134.749 19.3036C136.275 18.5917 137.75 17.6372 139.173 16.4403ZM140.91 10.127H137.519V12.7908H140.91V10.127ZM128.577 10.127V12.7908H131.921V10.127H128.577ZM133.048 10.127V12.7908H136.392V10.127H133.048ZM121.172 5.43316L122.334 5.63265C121.959 7.97959 121.603 9.8767 121.266 11.324C121.094 11.2692 120.762 11.191 120.269 11.0893C120.198 11.0736 120.148 11.0619 120.116 11.0541C120.5 9.48163 120.852 7.60799 121.172 5.43316ZM124.998 5.175L125.89 4.54133C126.43 5.15153 127.181 6.06684 128.143 7.28724L127.181 7.97959C126.453 7.0017 125.726 6.06684 124.998 5.175ZM145.498 2.31173H151.342V19.6204H150.087V17.9776H146.742V19.8551H145.498V2.31173ZM152.398 11.8755H159.076V2.9102C158.77 2.92585 158.313 2.95323 157.703 2.99235C155.802 3.11752 154.303 3.21139 153.208 3.27398C153.169 2.84371 153.083 2.43299 152.95 2.04184C157.425 1.86973 161.692 1.57636 165.753 1.16173L166.069 2.35867C165.929 2.37432 165.721 2.39388 165.447 2.41735C163.273 2.61293 161.575 2.75374 160.355 2.8398V11.8755H166.832V13.0724H160.355V19.327C160.409 21.2985 159.463 22.2998 157.515 22.3311C156.38 22.3624 155.418 22.3781 154.628 22.3781C154.558 21.9009 154.444 21.4354 154.288 20.9816C154.663 21.0129 155.066 21.0325 155.496 21.0403C155.708 21.0481 155.938 21.052 156.189 21.052C156.4 21.052 156.721 21.052 157.151 21.052C157.902 21.0599 158.407 20.923 158.665 20.6413C158.946 20.3753 159.083 19.8668 159.076 19.1158V13.0724H152.398V11.8755ZM146.742 3.50867V16.7571H150.087V3.50867H146.742ZM163.206 10.3383L162.056 9.78673C163.128 8.05782 164.031 6.39932 164.767 4.81122L165.952 5.33929C164.841 7.49065 163.926 9.15697 163.206 10.3383ZM153.431 5.43316L154.581 4.95204C155.215 6.20374 155.993 7.80748 156.916 9.76327L155.684 10.2679C155.074 8.85969 154.323 7.24813 153.431 5.43316ZM177.898 21.6388C180.487 20.1133 182.471 18.5956 183.847 17.0857C182.087 14.9187 180.71 12.1259 179.717 8.70714C179.654 14.332 178.011 18.8889 174.788 22.3781C174.53 22.159 174.147 21.8696 173.638 21.5097C175.641 19.2723 176.951 17.0544 177.569 14.8561C178.242 12.6969 178.567 9.38776 178.543 4.92857V2.72245H176.455V1.56071H187.649V2.8398L185.267 8.10867H189.457V9.30561C188.463 12.4427 187.157 15.0361 185.537 17.0857C186.805 18.4469 188.616 19.8199 190.97 21.2046C190.65 21.5879 190.36 21.9947 190.102 22.425C187.81 20.9543 186.014 19.5109 184.716 18.0949C183.206 19.7847 181.242 21.3415 178.825 22.7653C178.59 22.4289 178.281 22.0534 177.898 21.6388ZM169.285 2.3352H175.058V17.1913H170.493V19.0571H169.285V2.3352ZM183.977 7.93265L186.347 2.72245H179.787V4.88163V5.70306C181.133 10.4126 182.768 13.89 184.692 16.1352C186.069 14.3985 187.215 12.1063 188.131 9.25867H183.977V7.93265ZM170.493 3.43827V16.0765H173.849V3.43827H170.493Z" fill="black" fill-opacity="0.7"/>
</svg>
