<svg width="290" height="23" viewBox="0 0 290 23" fill="none" xmlns="http://www.w3.org/2000/svg">
<path d="M13.2352 0.199644H14.5505C14.5505 1.3427 14.5505 2.18042 14.5505 2.7128C14.5427 3.33914 14.5348 3.88718 14.527 4.35693H20.258V11.8142H22.5832V12.9886H14.8676C16.2612 16.7309 18.8644 19.4437 22.6772 21.127C22.3483 21.5341 22.0548 21.9412 21.7964 22.3483C17.6313 20.164 14.9772 17.1733 13.8341 13.3761C13.2548 16.7975 10.9608 19.9174 6.9523 22.7359C6.61564 22.3209 6.27899 21.9608 5.94233 21.6555C9.91172 19.1032 12.1743 16.2142 12.7302 12.9886H7.04625V11.8142H12.9416C13.106 10.4441 13.1961 8.34197 13.2117 5.50782H8.76083V4.35693H13.2117C13.2195 3.89501 13.2274 3.35088 13.2352 2.72455C13.2352 2.42704 13.2352 2.08647 13.2352 1.70284C13.2352 1.37402 13.2352 0.872952 13.2352 0.199644ZM3.53487 0.199644H4.79145V4.8854L5.5313 4.35693C6.50995 5.5313 7.41813 6.67045 8.25585 7.77436L7.24589 8.51421C6.48646 7.43379 5.66831 6.33771 4.79145 5.22597V22.7594H3.53487V0.199644ZM19.0014 5.50782H14.527C14.48 8.44375 14.4017 10.5459 14.2921 11.8142H19.0014V5.50782ZM0.986474 5.66048L2.17259 5.84838C1.89857 7.63343 1.56975 9.46154 1.18612 11.3327C0.833806 11.2309 0.438433 11.1526 0 11.0978C0.461921 8.94482 0.790745 7.13237 0.986474 5.66048ZM25.7071 19.6943V18.4142C26.6779 18.8683 27.5704 19.0953 28.3846 19.0953C30.3028 19.0953 31.7629 18.3281 32.765 16.7936C33.775 15.259 34.28 12.9964 34.28 10.0057H34.233C33.3953 11.9551 31.9078 12.9299 29.7704 12.9299C29.0188 12.9299 28.3337 12.7929 27.7152 12.5188C27.1046 12.237 26.5761 11.8494 26.1298 11.3562C25.6914 10.863 25.3508 10.2758 25.1081 9.59464C24.8654 8.9135 24.7441 8.16582 24.7441 7.35158C24.7441 6.45906 24.8811 5.64483 25.1551 4.90888C25.4291 4.17294 25.8127 3.5427 26.306 3.01814C26.7992 2.49359 27.3786 2.08647 28.0441 1.79679C28.7174 1.49928 29.4494 1.35053 30.2401 1.35053C31.0387 1.35053 31.7629 1.52277 32.4127 1.86726C33.0704 2.21174 33.6263 2.72846 34.0803 3.41743C34.5344 4.1064 34.8828 4.96369 35.1255 5.98931C35.3761 7.01493 35.5013 8.21279 35.5013 9.58289C35.5013 11.274 35.3448 12.7772 35.0316 14.0925C34.7262 15.4 34.2722 16.5039 33.6693 17.4042C33.0743 18.3046 32.3305 18.9896 31.438 19.4594C30.5533 19.9291 29.5277 20.164 28.3611 20.164C27.453 20.164 26.5683 20.0074 25.7071 19.6943ZM30.0757 2.41921C29.4807 2.41921 28.9327 2.54056 28.4316 2.78327C27.9305 3.01814 27.496 3.34305 27.128 3.758C26.7679 4.17294 26.4861 4.6701 26.2825 5.24945C26.0789 5.82098 25.9772 6.4434 25.9772 7.11671C25.9772 7.85265 26.075 8.51421 26.2708 9.1014C26.4743 9.68859 26.7522 10.1897 27.1046 10.6046C27.4569 11.0117 27.8836 11.3249 28.3846 11.5441C28.8857 11.7633 29.4416 11.8729 30.0522 11.8729C30.6081 11.8729 31.1327 11.7594 31.6259 11.5324C32.127 11.3053 32.5615 11.0039 32.9295 10.6281C33.2974 10.2523 33.5871 9.81385 33.7985 9.31279C34.0177 8.81172 34.1273 8.28325 34.1273 7.72738C34.1273 6.9523 34.0295 6.23984 33.8337 5.59002C33.638 4.9402 33.3601 4.38042 32.9999 3.91067C32.6398 3.44092 32.2092 3.07686 31.7081 2.8185C31.207 2.55231 30.6629 2.41921 30.0757 2.41921ZM43.3814 20.164C41.7059 20.164 40.3946 19.3967 39.4472 17.8622C38.5077 16.3199 38.038 14.0807 38.038 11.1448C38.038 7.90354 38.5312 5.46084 39.5177 3.81672C40.512 2.17259 41.933 1.35053 43.7807 1.35053C47.2803 1.35053 49.0301 4.45871 49.0301 10.6751C49.0301 13.7676 48.533 16.1242 47.5387 17.7448C46.5522 19.3576 45.1664 20.164 43.3814 20.164ZM43.675 2.41921C42.2814 2.41921 41.1931 3.13558 40.4102 4.56832C39.6351 5.99322 39.2476 8.1345 39.2476 10.9921C39.2476 13.5993 39.6195 15.6035 40.3632 17.0049C41.107 18.3985 42.164 19.0953 43.5341 19.0953C44.8807 19.0953 45.9259 18.3829 46.6696 16.958C47.4212 15.5331 47.797 13.4975 47.797 10.8512C47.797 5.22988 46.423 2.41921 43.675 2.41921ZM51.2145 7.12845H55.0664V2.74804C53.6415 2.84199 52.4554 2.90462 51.5081 2.93594C51.4376 2.48967 51.3554 2.09039 51.2614 1.73807C54.1034 1.63629 56.8554 1.42099 59.5173 1.09217L59.7991 2.31352C59.1023 2.39964 58.0493 2.50533 56.6401 2.6306C56.4991 2.63843 56.3895 2.64626 56.3112 2.65409V7.12845H59.6817V8.30283H56.3112V11.9082L57.0394 11.3092C58.2607 12.5227 59.3725 13.701 60.3746 14.8441L59.3881 15.6896C58.2607 14.3352 57.2351 13.1647 56.3112 12.1783V22.7829H55.0664V10.5576C54.2444 13.4936 53.0387 16.0694 51.4493 18.285C51.238 17.7213 51.0305 17.2398 50.8269 16.8405C52.6433 14.4526 54.033 11.6067 54.996 8.30283H51.2145V7.12845ZM58.4721 21.7024C64.2657 19.8156 68.4112 16.5352 70.9087 11.8612L72.0479 12.4836C69.3625 17.369 65.1347 20.8334 59.3646 22.8768C59.1297 22.5167 58.8322 22.1252 58.4721 21.7024ZM65.6945 0.176156H66.9628V14.7501H65.6945V0.176156ZM62.6176 4.42739L63.8155 4.83842C62.8212 7.46119 61.7408 9.93129 60.5742 12.2487L59.3411 11.6498C60.4607 9.70816 61.5529 7.30069 62.6176 4.42739ZM68.7244 4.83842L69.8048 4.216C71.1984 6.31422 72.498 8.3498 73.7037 10.3228L72.5528 11.0156C71.4568 9.13663 70.1806 7.07756 68.7244 4.83842ZM86.0934 8.71386L94.3375 3.2765H75.7941V1.97295H96.193V3.59359L87.4791 9.43023V18.3085C87.5809 20.9469 86.34 22.2387 83.7564 22.1839C83.1614 22.1918 82.6094 22.1996 82.1005 22.2074C81.85 22.2074 81.5799 22.2074 81.2902 22.2074C81.0397 22.2074 80.6521 22.2074 80.1276 22.2074C80.0649 21.6829 79.9749 21.1544 79.8575 20.622C80.9535 20.6846 82.1788 20.716 83.5332 20.716C84.5041 20.7238 85.1695 20.5476 85.5297 20.1875C85.9133 19.8508 86.1012 19.2245 86.0934 18.3085V8.71386ZM109.052 22.9942H108.066L109.968 16.9697H111.26L109.052 22.9942ZM123.579 13.0121C123.376 12.4484 123.184 11.9512 123.004 11.5206C125.423 8.20888 127.283 4.41173 128.582 0.129181L129.933 0.5637C129.322 2.34092 128.594 4.1338 127.748 5.94233V22.7594H126.468V8.46724C125.498 10.2601 124.535 11.7751 123.579 13.0121ZM142.487 8.94873L144.096 5.10853H133.761C132.986 6.61956 132.145 8.09144 131.236 9.52418C130.829 9.20318 130.457 8.94873 130.121 8.76083C131.874 6.16938 133.342 3.33914 134.525 0.270106L135.828 0.65765C135.351 1.76156 134.861 2.84199 134.36 3.89892H145.399V5.20248L143.767 9.33628C143.297 9.16403 142.87 9.03485 142.487 8.94873ZM137.343 7.38681H138.635V19.4359C138.698 21.4402 137.731 22.4345 135.734 22.4188C135.108 22.4345 134.266 22.4423 133.209 22.4423C133.123 21.9569 133.025 21.5106 132.916 21.1035C133.659 21.1505 134.509 21.174 135.464 21.174C136.764 21.2131 137.39 20.6103 137.343 19.3654V7.38681ZM130.05 18.379C131.483 15.7405 132.638 13.1843 133.515 10.7103L134.724 11.1448C133.746 13.7049 132.599 16.316 131.283 18.9779C130.798 18.7039 130.387 18.5042 130.05 18.379ZM144.554 18.7665C143.403 16.0576 142.225 13.5249 141.019 11.1683L142.146 10.6633C143.399 13.1295 144.612 15.6309 145.787 18.1676L144.554 18.7665ZM156.297 1.30356H167.936V14.9615H166.655V2.50142H157.566V15.1142H156.297V1.30356ZM147.513 10.0057H150.684V3.41743H147.231V2.29003H155.358V3.41743H151.964V10.0057H155.041V11.1213H151.964V17.6861C153.483 17.4355 154.653 17.2437 155.475 17.1106C155.483 17.5099 155.507 17.9249 155.546 18.3555C152.187 18.8487 149.423 19.2911 147.255 19.6825L146.961 18.379C147.212 18.3555 147.822 18.2733 148.793 18.1323C149.607 18.0227 150.238 17.9366 150.684 17.874V11.1213H147.513V10.0057ZM161.512 4.62703H162.768C162.76 6.45123 162.733 7.79785 162.686 8.66688C162.522 12.5893 161.884 15.4156 160.772 17.1459C159.754 18.9622 157.589 20.8256 154.278 22.7359C153.878 22.3053 153.549 21.9686 153.291 21.7259C158.725 19.2284 161.441 15.3021 161.441 9.94695C161.441 9.71208 161.433 9.43806 161.418 9.12489C161.48 7.68432 161.512 6.18504 161.512 4.62703ZM162.24 13.517H163.485V19.1306C163.477 19.7882 163.598 20.2345 163.849 20.4693C164.084 20.7199 164.53 20.8412 165.187 20.8334H166.374C167.532 20.8647 168.19 20.3754 168.347 19.3654C168.456 18.653 168.55 17.6978 168.628 16.5C169.098 16.68 169.509 16.8249 169.862 16.9345C169.807 17.9444 169.717 18.837 169.591 19.6121C169.411 21.2327 168.3 22.0156 166.256 21.9608H164.859C163.074 22.0078 162.201 21.08 162.24 19.1775V13.517ZM180.196 0.0822062L181.5 0.340569C181.092 1.44448 180.674 2.47793 180.243 3.44092H193.795V4.65052H179.715C178.759 6.65479 177.655 8.49073 176.403 10.1583V22.6654H175.099V11.7203C174.191 12.7459 173.165 13.7715 172.022 14.7971C171.819 14.4918 171.521 14.1473 171.13 13.7637C174.355 10.9295 176.739 7.8918 178.282 4.65052H172.163V3.44092H178.857C179.21 2.658 179.656 1.53843 180.196 0.0822062ZM184.917 6.49429H186.209V11.1918H192.445V12.3662H186.209V19.706H193.795V20.8804H177.507V19.706H184.917V12.3662H178.728V11.1918H184.917V6.49429ZM208.604 15.7131C208.401 15.4548 208.111 15.1416 207.735 14.7736C209.074 13.842 210.205 12.8868 211.129 11.9082C210.291 10.0213 209.739 7.51991 209.473 4.4039H199.103V6.90532C199.111 7.10888 199.115 7.39464 199.115 7.76261C199.115 11.1761 198.285 13.9124 196.625 15.9715C196.312 15.7053 195.976 15.4509 195.616 15.2081C196.532 13.9242 197.138 12.7224 197.436 11.6028C197.757 10.4832 197.913 8.91742 197.906 6.90532V3.34697H209.379C209.317 2.64234 209.258 1.58541 209.203 0.176156H210.413C210.46 1.32704 210.514 2.38398 210.577 3.34697H217.694V4.4039H210.671C210.937 7.05799 211.395 9.22275 212.045 10.8982C213.024 9.66119 213.971 8.04838 214.887 6.05977L216.014 6.51778C214.918 8.88218 213.771 10.7534 212.573 12.1313C213.278 13.5562 214.014 14.2686 214.781 14.2686C215.423 14.2843 215.873 13.9085 216.132 13.1412C216.367 12.4836 216.625 11.5911 216.907 10.4637C217.22 10.6281 217.588 10.7808 218.011 10.9217C217.831 11.7829 217.615 12.601 217.365 13.3761C216.88 14.8402 216.038 15.5526 214.84 15.5135C213.65 15.4978 212.605 14.6914 211.704 13.0943C210.914 13.9007 209.88 14.7736 208.604 15.7131ZM200.841 9.2893H207.712V14.1512H200.841V9.2893ZM201.006 16.2651H202.251V19.0484C202.243 19.8469 202.392 20.3676 202.697 20.6103C202.971 20.8765 203.57 21.0056 204.494 20.9978H208.581C210.186 21.0683 211.059 20.6064 211.199 19.6121C211.348 19.0327 211.493 18.2615 211.634 17.2985L212.808 17.78C212.683 18.6647 212.55 19.3615 212.409 19.8704C212.065 21.4911 210.933 22.2701 209.015 22.2074H204.106C201.93 22.317 200.896 21.3071 201.006 19.1775V16.2651ZM202.039 10.3228V13.1178H206.49V10.3228H202.039ZM200.231 6.30639H208.217V7.33984H200.231V6.30639ZM197.682 16.406L198.869 16.864C198.125 18.422 197.338 19.9526 196.508 21.4558L195.31 20.8804C196.218 19.4242 197.009 17.9327 197.682 16.406ZM214.041 17.0754L215.075 16.453C215.905 17.5804 216.844 18.8879 217.893 20.3754L216.778 21.0448C215.987 19.8156 215.075 18.4925 214.041 17.0754ZM204.752 15.8775L205.692 15.1612C206.584 16.038 207.485 16.9736 208.393 17.9679L207.383 18.8135C206.522 17.7722 205.645 16.7936 204.752 15.8775ZM212.233 1.30356L213.032 0.528468C213.627 0.990389 214.398 1.64804 215.345 2.50142L214.476 3.29999C213.764 2.61103 213.016 1.94555 212.233 1.30356ZM220.031 4.83842H241.216V9.35976H239.948V5.98931H221.299V9.35976H220.031V4.83842ZM231.023 15.443H232.291V19.0484C232.283 19.8 232.42 20.2971 232.702 20.5398C232.961 20.806 233.489 20.9352 234.288 20.9274H238.14C239.4 20.9665 240.113 20.4537 240.277 19.3889C240.426 18.7078 240.547 17.827 240.641 16.7466C240.962 16.8797 241.381 17.0167 241.898 17.1576C241.772 18.3633 241.643 19.2676 241.51 19.8704C241.213 21.3423 240.21 22.0704 238.504 22.0548H233.935C232.847 22.0626 232.092 21.8629 231.669 21.4558C231.23 21.0644 231.015 20.3676 231.023 19.3654V15.443ZM229.989 11.8847H231.258C231.273 12.1509 231.281 12.4014 231.281 12.6363C231.281 18.1167 227.547 21.5224 220.078 22.8533C219.929 22.5245 219.698 22.133 219.385 21.679C223.558 20.7316 226.318 19.5964 227.664 18.2733C229.105 17.0363 229.88 14.9067 229.989 11.8847ZM223.225 9.17186H237.928V17.4395H236.648V10.2993H224.505V17.4395H223.225V9.17186ZM222.074 1.37402L223.108 0.681137C224.047 1.76156 224.936 2.8185 225.773 3.85195L224.623 4.65052C224.02 3.80497 223.17 2.7128 222.074 1.37402ZM235.885 4.67401L234.793 3.87544C235.865 2.75587 236.91 1.55409 237.928 0.270106L239.032 1.00996C237.905 2.37224 236.856 3.59359 235.885 4.67401ZM228.909 0.528468L230.06 0C230.976 1.5032 231.704 2.74804 232.244 3.73451L230.999 4.33344C230.436 3.20604 229.739 1.93772 228.909 0.528468ZM244.704 8.80781C244.43 8.50247 244.109 8.1893 243.741 7.86831C246.098 5.58219 247.918 2.98683 249.202 0.0822062L250.529 0.293594C250.075 1.25658 249.672 2.04341 249.32 2.65409H265.15V3.78149H252.667V6.67045H263.447V7.77436H252.667V10.6633H263.541V11.7672H252.667V13.564H251.363V3.78149H248.65C247.625 5.45693 246.309 7.13237 244.704 8.80781ZM249.249 14.6092H250.529V18.9544C250.521 19.6903 250.678 20.2032 250.999 20.4928C251.312 20.7903 251.868 20.9352 252.667 20.9274H256.8C258.288 20.9508 259.145 20.438 259.372 19.3889C259.552 18.7078 259.713 17.8818 259.854 16.911C260.324 17.0989 260.758 17.2516 261.157 17.369C260.962 18.3711 260.754 19.2128 260.535 19.8939C260.112 21.4519 258.965 22.2074 257.094 22.1604H252.256C250.228 22.1839 249.226 21.1896 249.249 19.1775V14.6092ZM245.808 14.6797L247.018 15.0555C246.376 16.9815 245.62 18.9074 244.751 20.8334C244.336 20.5985 243.929 20.4067 243.53 20.258C244.399 18.6138 245.158 16.7544 245.808 14.6797ZM261.369 15.2786L262.379 14.574C263.663 16.1476 264.884 17.7135 266.043 19.2715L264.927 20.0583C263.643 18.2419 262.457 16.6487 261.369 15.2786ZM253.172 14.5035L254.135 13.8106C255.254 15.0711 256.233 16.2259 257.071 17.275L255.99 18.0854C255.16 16.9423 254.221 15.7484 253.172 14.5035ZM276.835 10.0057H281.885V5.84838H276.283V4.67401H283.306C284.496 2.95159 285.498 1.43665 286.312 0.129181L287.499 0.728112C287.029 1.39359 286.265 2.45053 285.209 3.89892C284.966 4.24341 284.782 4.50177 284.657 4.67401H289.248V5.84838H283.165V10.0057H288.579V11.1683H283.165V15.537H290V16.7231H283.165V22.7594H281.885V16.7231H275.038V15.537H281.885V11.1683H276.835V10.0057ZM267.816 16.1476C267.605 15.6466 267.366 15.1807 267.1 14.7501C268.799 12.4092 270.09 9.56332 270.975 6.21244H267.675V5.04981H271.046V0.199644H272.29V5.04981H275.062V6.21244H272.29V10.0879L272.995 9.50069C274.021 10.5107 274.972 11.4971 275.849 12.4601L274.909 13.2822C274.119 12.3192 273.246 11.3249 272.29 10.2993V22.7594H271.046V8.78432C270.341 11.4384 269.264 13.8928 267.816 16.1476ZM277.587 0.798575L278.573 0.129181C279.458 1.14697 280.331 2.20391 281.192 3.29999L280.088 4.07508C279.243 2.85373 278.409 1.76156 277.587 0.798575Z" fill="black" fill-opacity="0.7"/>
</svg>
