<svg width="184" height="23" viewBox="0 0 184 23" fill="none" xmlns="http://www.w3.org/2000/svg">
<path d="M9.32195 1.21947H20.9421V14.8565H19.664V2.4155H10.5883V15.0089H9.32195V1.21947ZM0.551109 9.90823H3.71705V3.3301H0.269692V2.20444H8.38389V3.3301H4.99516V9.90823H8.0673V11.0222H4.99516V17.5769C6.51168 17.3267 7.68035 17.1352 8.50115 17.0023C8.50896 17.401 8.53242 17.8153 8.5715 18.2452C5.21795 18.7377 2.45849 19.1794 0.293143 19.5702L0 18.2687C0.250149 18.2452 0.859886 18.1631 1.82921 18.0224C2.6422 17.913 3.27148 17.827 3.71705 17.7645V11.0222H0.551109V9.90823ZM14.5282 4.53785H15.7828C15.775 6.35925 15.7476 7.7038 15.7007 8.5715C15.5366 12.4879 14.8995 15.3099 13.7894 17.0375C12.7732 18.851 10.6118 20.7115 7.30512 22.6189C6.90645 22.189 6.57813 21.8528 6.32016 21.6105C11.7453 19.1168 14.4578 15.1965 14.4578 9.8496C14.4578 9.61509 14.45 9.34149 14.4344 9.0288C14.4969 7.59045 14.5282 6.09347 14.5282 4.53785ZM15.2552 13.4142H16.4981V19.0191C16.4903 19.6758 16.6114 20.1213 16.8616 20.3559C17.0961 20.606 17.5417 20.7272 18.1983 20.7193H19.3826C20.5396 20.7506 21.1962 20.262 21.3525 19.2536C21.462 18.5423 21.5558 17.5886 21.634 16.3926C22.103 16.5724 22.5134 16.717 22.8652 16.8264C22.8104 17.8348 22.7205 18.726 22.5955 19.4999C22.4157 21.118 21.3056 21.8997 19.2654 21.845H17.87C16.0877 21.8919 15.2161 20.9656 15.2552 19.066V13.4142ZM33.1838 0L34.4853 0.257966C34.0789 1.36018 33.6606 2.39205 33.2307 3.35356H46.7622V4.56131H32.703C31.7493 6.56249 30.6471 8.39562 29.3964 10.0607V22.5486H28.0948V11.6202C27.188 12.6442 26.164 13.6683 25.0227 14.6923C24.8194 14.3875 24.5224 14.0435 24.1315 13.6605C27.3522 10.8307 29.7325 7.7976 31.2725 4.56131H25.1634V3.35356H31.8471C32.1988 2.57184 32.6444 1.45399 33.1838 0ZM37.8975 6.40224H39.1874V11.0925H45.4137V12.2651H39.1874V19.5937H46.7622V20.7663H30.4986V19.5937H37.8975V12.2651H31.7181V11.0925H37.8975V6.40224ZM48.5328 21.2236L48.3451 20.0744C48.5406 20.0588 48.8415 20.0275 49.248 19.9806C49.8656 19.9103 50.3385 19.8595 50.6668 19.8282V10.5883H48.1693V9.53301H70.8468V10.5883H58.7693V18.937C58.9804 18.9058 59.297 18.8667 59.7191 18.8198C60.2116 18.7572 60.5751 18.7103 60.8096 18.6791C60.8096 19.1246 60.8174 19.4842 60.833 19.7578C60.0435 19.836 59.3556 19.9103 58.7693 19.9806V22.6424H57.5381V20.1213C55.5447 20.3324 52.543 20.6998 48.5328 21.2236ZM51.6518 1.07877H67.4815V7.72725H51.6518V1.07877ZM60.2819 13.4142V12.4527H69.1348V13.4963C68.3453 15.6929 67.29 17.4674 65.9689 18.8198C67.1727 19.7813 68.7401 20.5904 70.6709 21.247C70.3817 21.6926 70.1667 22.0522 70.026 22.3258C68.0248 21.5206 66.391 20.6177 65.1246 19.6171C63.9052 20.6724 62.3222 21.6652 60.3757 22.5955C60.1569 22.2515 59.9145 21.9154 59.6487 21.5871C61.5874 20.7272 63.1352 19.8204 64.2921 18.8667C62.9163 17.4909 61.9079 15.6734 61.2669 13.4142H60.2819ZM52.9064 2.08718V3.90466H66.2269V2.08718H52.9064ZM52.9064 4.88963V6.71884H66.2269V4.88963H52.9064ZM67.9623 13.4142H62.416C62.9945 15.2982 63.8974 16.8538 65.1246 18.0811C66.2581 16.9007 67.204 15.3451 67.9623 13.4142ZM51.898 19.7344C53.8132 19.5155 55.6933 19.3005 57.5381 19.0895V17.0257H51.898V19.7344ZM51.898 10.5883V12.7928H57.5381V10.5883H51.898ZM51.898 13.8012V16.0173H57.5381V13.8012H51.898ZM93.0084 13.6136H82.467V1.14912H93.0084V13.6136ZM72.934 12.5817C72.6838 12.1596 72.4415 11.8 72.207 11.5029C73.9815 9.619 75.4003 7.40675 76.4634 4.86617H72.6643V3.78741H76.5338V0.140709H77.7063V3.78741H81.2358V4.86617H77.7063V7.49274L78.363 6.85955C79.3245 7.60218 80.2586 8.39562 81.1654 9.23987L80.3329 10.0841C79.5434 9.31022 78.6679 8.51678 77.7063 7.7038V14.0943H76.5338V6.76574C75.6739 8.89982 74.474 10.8385 72.934 12.5817ZM83.663 2.20444V4.99516H91.8124V2.20444H83.663ZM83.663 9.76752V12.5582H91.8124V9.76752H83.663ZM78.2106 15.3841H79.4652V19.066C79.4183 20.2855 80.1531 20.8757 81.6696 20.8366H85.8088C87.1768 20.8835 87.9742 20.2933 88.2009 19.066C88.3338 18.5032 88.4549 17.8387 88.5644 17.0726C88.9083 17.2134 89.3265 17.3658 89.819 17.53C89.6392 18.4758 89.4633 19.2263 89.2914 19.7813C88.8849 21.3135 87.8178 22.06 86.0902 22.0209H81.4117C79.2698 22.0209 78.2027 21.0985 78.2106 19.2536V15.3841ZM83.663 6.02702V8.73566H91.8124V6.02702H83.663ZM74.6342 15.5835L75.7951 15.9939C75.0915 17.8622 74.345 19.5585 73.5554 21.0828C73.1959 20.864 72.8128 20.6724 72.4063 20.5083C73.2506 19.0934 73.9932 17.4518 74.6342 15.5835ZM90.8743 16.2753L91.8827 15.6304C92.9615 16.9828 93.9543 18.3038 94.8611 19.5937L93.8058 20.3089C92.813 18.8628 91.8358 17.5182 90.8743 16.2753ZM82.0566 15.3607L82.9712 14.5985C83.9093 15.5288 84.8278 16.4981 85.7267 17.5065L84.7418 18.3625C83.8663 17.2993 82.9712 16.2988 82.0566 15.3607ZM118.078 22.232C116.421 20.6842 115.174 19.2419 114.337 17.9052C113.376 19.4139 111.942 21.0086 110.034 22.6893C109.706 22.275 109.393 21.931 109.096 21.6574C111.16 19.8516 112.665 18.1866 113.611 16.6622C112.563 14.6767 111.867 12.0032 111.523 8.64186C111.117 9.49392 110.71 10.2522 110.304 10.9166C110.054 10.6274 109.764 10.3069 109.436 9.95514C111.187 7.07061 112.442 3.7835 113.2 0.0938058L114.431 0.257966C114.048 1.79794 113.63 3.23239 113.177 4.56131H118.805V5.64007H117.574C117.206 10.604 116.358 14.2937 115.029 16.7092C115.905 18.1944 117.226 19.6523 118.993 21.0828C118.633 21.4815 118.328 21.8646 118.078 22.232ZM105.274 0.234514H106.481V5.01861H110.222V6.12083H106.481V11.0925H109.213V19.2302H103.737V20.8132H102.541V11.0925H105.274V6.12083H101.556V5.01861H105.274V0.234514ZM96.6082 12.312C96.491 11.9368 96.276 11.4717 95.9633 10.9166C97.9098 7.86014 99.4458 4.26816 100.572 0.140709L101.768 0.422126C101.22 2.2357 100.677 3.82258 100.138 5.18277V22.6424H98.9416V8.02039C98.1208 9.73235 97.343 11.1629 96.6082 12.312ZM103.737 12.1947V18.128H108.017V12.1947H103.737ZM114.337 15.3372C115.401 13.2188 116.073 9.9864 116.354 5.64007H112.801C112.77 5.72606 112.719 5.86286 112.649 6.05047C112.547 6.31625 112.469 6.51559 112.414 6.64848C112.79 10.518 113.431 13.4142 114.337 15.3372ZM127.681 8.75911H134.74V0.304869H136.089V8.75911H142.96V10.0372H136.089V22.5955H134.74V10.0372H127.681V8.75911ZM120.869 12.9921C120.564 12.5934 120.267 12.2221 119.978 11.8782C122.8 8.64186 124.977 4.78409 126.509 0.304869L127.881 0.691817C127.036 2.80245 126.169 4.69811 125.278 6.37879V22.6189H123.964V8.71221C122.979 10.3147 121.947 11.7414 120.869 12.9921ZM149.151 19.8282C155.092 19.4842 159.622 19.2458 162.741 19.1129C161.592 17.4791 160.138 15.5483 158.379 13.3204L159.505 12.5817C161.834 15.5444 164.058 18.4563 166.177 21.3174L164.981 22.2085C164.95 22.1694 164.911 22.1108 164.864 22.0326C164.488 21.5089 164.094 20.95 163.679 20.3559C158.168 20.6138 153.54 20.8796 149.796 21.1532C148.749 21.2314 147.861 21.3525 147.134 21.5167L146.419 19.9454C147.271 19.5702 148.119 18.9488 148.964 18.0811C152.997 14.1256 156.687 9.64245 160.033 4.63166L161.381 5.39383C157.387 10.8737 153.31 15.6851 149.151 19.8282ZM145.164 13.3673C144.93 13.0468 144.602 12.6638 144.179 12.2182C148.416 9.0288 151.965 4.99516 154.826 0.117257L156.14 0.785623C152.833 6.05438 149.175 10.2483 145.164 13.3673ZM178.77 14.6923C178.684 14.4813 178.61 14.2077 178.548 13.8715C178.485 13.5276 178.454 13.1836 178.454 12.8397C178.454 12.4488 178.505 12.0931 178.606 11.7726C178.716 11.4443 178.864 11.1355 179.052 10.8463C179.247 10.5571 179.478 10.2795 179.744 10.0138C180.009 9.74016 180.302 9.46266 180.623 9.18124C180.889 8.93891 181.151 8.68485 181.409 8.41907C181.674 8.15328 181.909 7.86796 182.112 7.56309C182.315 7.25822 182.48 6.92599 182.605 6.5664C182.73 6.20681 182.792 5.81205 182.792 5.38211C182.792 4.92089 182.714 4.50659 182.558 4.13918C182.401 3.77177 182.183 3.45909 181.901 3.20112C181.62 2.94316 181.284 2.74773 180.893 2.61484C180.502 2.48194 180.068 2.4155 179.591 2.4155C178.802 2.4155 178.071 2.55621 177.398 2.83762C176.726 3.11122 176.097 3.48645 175.511 3.96329V2.61484C176.105 2.16144 176.734 1.8253 177.398 1.60642C178.063 1.37973 178.798 1.26638 179.603 1.26638C180.228 1.26638 180.811 1.35627 181.35 1.53607C181.889 1.71586 182.354 1.97774 182.745 2.32169C183.136 2.65783 183.441 3.07605 183.66 3.57634C183.887 4.06882 184 4.63166 184 5.26485C184 5.74169 183.934 6.17945 183.801 6.57813C183.668 6.9768 183.492 7.34421 183.273 7.68035C183.062 8.01648 182.816 8.33308 182.534 8.63013C182.253 8.92718 181.971 9.21251 181.69 9.48611C181.237 9.90823 180.869 10.2678 180.588 10.5649C180.306 10.8541 180.084 11.116 179.919 11.3505C179.763 11.585 179.654 11.8156 179.591 12.0423C179.529 12.269 179.497 12.5309 179.497 12.8279C179.497 13.2188 179.529 13.5745 179.591 13.895C179.661 14.2077 179.732 14.4734 179.802 14.6923H178.77ZM179.216 19.9572C178.927 19.9572 178.688 19.8595 178.501 19.664C178.313 19.4686 178.219 19.2263 178.219 18.937C178.219 18.64 178.313 18.3977 178.501 18.21C178.688 18.0224 178.927 17.9286 179.216 17.9286C179.513 17.9286 179.759 18.0224 179.955 18.21C180.158 18.3977 180.259 18.64 180.259 18.937C180.259 19.2263 180.158 19.4686 179.955 19.664C179.759 19.8595 179.513 19.9572 179.216 19.9572Z" fill="black" fill-opacity="0.7"/>
</svg>
