<svg width="159" height="31" viewBox="0 0 159 31" fill="none" xmlns="http://www.w3.org/2000/svg">
<path d="M2.22971 30.4936C1.92613 29.7922 1.62256 29.1798 1.31898 28.6564C6.61584 27.8504 10.981 26.3691 14.4146 24.2127C13.8493 23.951 12.97 23.548 11.7766 23.0037C9.2224 21.8417 7.15495 20.8943 5.57426 20.1616C6.75716 18.4134 7.78303 16.7961 8.65189 15.3096H0V13.6452H9.65682C10.7141 11.7714 11.719 9.87142 12.6716 7.94529L14.3518 8.65189C13.2107 10.7664 12.2791 12.4309 11.5568 13.6452H30.4308V15.3096H23.8673C22.5692 18.8059 20.5646 21.669 17.8533 23.8987C22.3756 25.8981 25.8039 27.4421 28.1383 28.5308L27.1176 30.1952C22.4698 27.9551 18.8583 26.254 16.2831 25.092C12.8391 27.416 8.15465 29.2165 2.22971 30.4936ZM7.94529 19.5963C8.39542 19.7952 9.09155 20.0935 10.0337 20.4913C12.6298 21.6114 14.6344 22.4802 16.0476 23.0979C18.8426 20.9728 20.8263 18.3768 21.9987 15.3096H10.5833C9.87142 16.5134 8.9921 17.9423 7.94529 19.5963ZM13.441 0.910725L14.9642 0.0942129C15.7388 1.23524 16.6076 2.56468 17.5707 4.08256L16.1732 4.86767H28.7192V10.2064H26.992V6.50069H3.51728V10.2064H1.77434V4.86767H15.8906C15.0531 3.4126 14.2366 2.09362 13.441 0.910725ZM46.8866 8.95023H53.2931L56.2451 4.56933H50.2626C49.4356 5.84643 48.3679 7.22822 47.0594 8.71469C46.6511 8.32738 46.2219 7.98716 45.7718 7.69405C47.9282 5.48529 49.6397 2.952 50.9064 0.0942129L52.5865 0.455362C52.5656 0.507703 52.5289 0.58098 52.4766 0.675193C51.9113 1.80575 51.4664 2.63273 51.1419 3.15613H58.0509V4.69494L55.1303 8.95023H60.3905V14.603H62.5574V16.0476H60.3905V23.616H58.8517V21.7161H54.0625V26.5994C54.1358 28.871 53.0523 30.0173 50.8122 30.0382C50.1108 30.0592 49.0692 30.0696 47.6874 30.0696C47.6037 29.5986 47.4676 29.0437 47.2792 28.4052C48.483 28.468 49.556 28.4994 50.4981 28.4994C51.8694 28.5413 52.5342 27.8766 52.4923 26.5052V21.7161H46.761V20.3029H52.4923V16.0476H45.8346V14.603H52.4923V10.3634H46.8866V8.95023ZM35.534 30.3994H34.0266V14.8542H44.0288V27.1176C44.0707 29.0752 43.1181 30.0801 41.171 30.1324C40.5848 30.1534 39.7893 30.1638 38.7843 30.1638C38.711 29.7242 38.5854 29.1903 38.4075 28.5622C39.3182 28.625 40.1295 28.6564 40.8413 28.6564C41.9928 28.6878 42.5528 28.1749 42.5214 27.1176V24.2441H35.534V30.3994ZM33.6026 7.2701H38.2347V4.86767H32.8332V3.47018H38.2347V0.266937H39.7893V3.47018H45.1594V4.86767H39.7893V7.2701H44.4214V8.62048H39.7893V11.227H45.6305V12.6088H32.2836V11.227H38.2347V8.62048H33.6026V7.2701ZM58.8517 10.3634H54.0625V14.603H58.8517V10.3634ZM54.0625 16.0476V20.3029H58.8517V16.0476H54.0625ZM35.534 16.2046V18.9211H42.5214V16.2046H35.534ZM35.534 20.2244V22.9408H42.5214V20.2244H35.534ZM75.6059 4.60073H83.4569V0.266937H85.1528V4.60073H93.3336V6.10814H85.1528V11.2898H94.7782V12.7973H74.1299V11.2898H83.4569V6.10814H75.6059V4.60073ZM87.7593 14.446H89.4709V17.4294H94.7782V18.9525H89.4709V26.5366C89.5337 28.8815 88.1833 30.0592 85.4197 30.0696C84.823 30.0801 84.2263 30.0906 83.6297 30.101C83.347 30.101 83.0382 30.101 82.7032 30.101C82.4206 30.101 81.9966 30.101 81.4314 30.101C81.4104 29.5881 81.29 28.9809 81.0702 28.2796C81.7611 28.3214 82.3787 28.3476 82.9231 28.3581C83.1952 28.3686 83.4883 28.3738 83.8024 28.3738C84.0641 28.3738 84.4933 28.3738 85.09 28.3738C86.1472 28.3843 86.8538 28.2115 87.2098 27.8556C87.5866 27.5311 87.7698 26.8873 87.7593 25.9243V18.9525H74.0671V17.4294H87.7593V14.446ZM65.2896 20.2244C64.986 19.6068 64.6719 19.0833 64.3474 18.6542C67.3518 16.079 69.9793 12.6612 72.2299 8.40065L73.7373 9.23287C72.7847 10.9496 71.8007 12.546 70.7853 14.022V30.4936H69.1052V16.2046C67.8699 17.733 66.5981 19.0729 65.2896 20.2244ZM65.8391 10.489C65.5565 9.98657 65.232 9.49457 64.8656 9.01304C67.6606 6.72052 70.1153 3.80516 72.2299 0.266937L73.7373 1.19336C71.4343 4.92001 68.8016 8.01857 65.8391 10.489ZM76.2497 21.5434L77.5058 20.4285C79.6832 22.4802 81.1644 23.9039 81.9495 24.6995L80.5992 25.8929C79.2174 24.4064 77.7675 22.9565 76.2497 21.5434ZM96.4426 13.5039H126.936V15.3724H96.4426V13.5039ZM154.525 30.4936C153.625 29.5515 152.939 28.8239 152.468 28.311C146.061 28.4889 140.581 28.7559 136.028 29.1118C134.97 29.1851 134.102 29.3002 133.421 29.4572L132.275 27.6044C133.029 27.2275 133.777 26.7408 134.52 26.1441C136.499 24.4378 138.556 22.229 140.691 19.5178H129.763V17.8533H157.901V19.5178H143.141C140.89 22.229 138.383 24.867 135.619 27.4317C139.053 27.2642 144.156 27.0391 150.929 26.7565C150.657 26.5052 150.243 26.1074 149.689 25.5631C148.642 24.5268 147.81 23.7155 147.192 23.1293L148.605 22.0929C151.107 24.4483 153.593 26.8507 156.064 29.3002L154.525 30.4936ZM157.744 12.8287C151.662 10.0651 147.093 6.66818 144.036 2.63796C140.424 6.8252 135.688 10.3948 129.825 13.3468C129.417 12.8339 128.977 12.3314 128.506 11.8394C135.216 8.68852 140.382 4.74205 144.004 0L146.03 0.298341C145.904 0.455362 145.711 0.690895 145.449 1.00494C145.302 1.17243 145.198 1.29804 145.135 1.38179C148.097 5.3492 152.719 8.63095 159 11.227C158.456 11.8237 158.037 12.3576 157.744 12.8287ZM135.494 11.4155H152.075V13.0642H135.494V11.4155Z" fill="black" fill-opacity="0.5"/>
</svg>
