<svg width="62" height="30" viewBox="0 0 62 30" fill="none" xmlns="http://www.w3.org/2000/svg">
<path d="M27.7397 17.9667H13.6822V1.34477H27.7397V17.9667ZM0.969483 16.5907C0.635897 16.0277 0.312736 15.5482 0 15.1521C2.36637 12.6398 4.25843 9.68962 5.67617 6.30164H0.609836V4.86305H5.76999V0H7.33367V4.86305H12.0404V6.30164H7.33367V9.80429L8.20933 8.9599C9.49155 9.95023 10.7373 11.0083 11.9465 12.1342L10.8363 13.26C9.78344 12.228 8.61589 11.1699 7.33367 10.0858V18.6078H5.76999V8.8348C4.62329 11.6807 3.02312 14.266 0.969483 16.5907ZM15.2772 2.75208V6.47364H26.1448V2.75208H15.2772ZM15.2772 12.8378V16.5594H26.1448V12.8378H15.2772ZM8.00605 20.3279H9.67919V25.2378C9.61665 26.8641 10.5966 27.6511 12.6189 27.599H18.1387C19.963 27.6615 21.0263 26.8745 21.3286 25.2378C21.5058 24.4873 21.6674 23.6012 21.8134 22.5796C22.272 22.7672 22.8298 22.9705 23.4865 23.1894C23.2467 24.4508 23.0122 25.4515 22.7828 26.1917C22.2408 28.2349 20.8178 29.2304 18.514 29.1783H12.2749C9.41858 29.1783 7.99563 27.9482 8.00605 25.488V20.3279ZM15.2772 7.84968V11.4618H26.1448V7.84968H15.2772ZM3.23682 20.5937L4.78487 21.141C3.84666 23.6325 2.85111 25.8946 1.79823 27.9274C1.31871 27.6355 0.807902 27.3801 0.265826 27.1612C1.39168 25.2743 2.38201 23.0852 3.23682 20.5937ZM24.8938 21.5163L26.2386 20.6562C27.6772 22.4597 29.0011 24.2214 30.2103 25.9415L28.803 26.8953C27.4791 24.9668 26.176 23.1738 24.8938 21.5163ZM13.1349 20.2966L14.3546 19.2802C15.6055 20.5207 16.8304 21.8134 18.0293 23.1581L16.7158 24.2996C15.5482 22.8819 14.3546 21.5475 13.1349 20.2966ZM46.4101 12.9942H48.1458C48.0832 14.2764 47.9425 15.6108 47.7236 16.9972H61.9062V18.6078H48.8494C50.8092 23.6116 55.1928 26.7077 62 27.8961C61.583 28.4694 61.2338 29.0219 60.9523 29.5536C53.6447 27.9065 49.1048 24.3622 47.3327 18.9206C46.3632 24.2996 41.6669 27.9639 33.2439 29.9132C33.0354 29.465 32.6862 28.9073 32.1962 28.2401C40.3795 26.4679 44.8829 23.2572 45.7064 18.6078H32.5402V16.9972H46.0504C46.2277 16.0277 46.3475 14.6934 46.4101 12.9942ZM34.1195 1.6575H44.909V11.368H34.1195V1.6575ZM49.1934 1.6575H59.9828V11.368H49.1934V1.6575ZM50.8353 3.20555V9.83556H58.3566V3.20555H50.8353ZM35.7458 3.20555V9.83556H43.2671V3.20555H35.7458ZM51.6641 13.1975L52.7743 12.1654C53.4831 12.6867 54.8748 13.7865 56.9493 15.4648L55.7609 16.6532C54.4683 15.4857 53.1026 14.3338 51.6641 13.1975Z" fill="black" fill-opacity="0.5"/>
</svg>
