<svg width="125" height="31" viewBox="0 0 125 31" fill="none" xmlns="http://www.w3.org/2000/svg">
<path d="M0 3.116H8.47113V24.4426H6.82701V22.0782H1.64412V24.834H0V3.116ZM26.8696 25.0846C27.0993 23.7588 27.2924 22.2087 27.449 20.434C28.1588 20.6846 28.7277 20.8673 29.1557 20.9821C28.9574 22.6732 28.7434 24.1712 28.5137 25.476C28.0648 28.0544 26.5042 29.3227 23.8319 29.281H15.8149C13.1634 29.2183 11.7855 28.2371 11.6811 26.3372C11.6706 25.3351 12.083 24.3069 12.9181 23.2525C15.2773 20.361 18.5812 16.984 22.8298 13.1216H12.7928V11.5245H25.1159V13.2469C20.5228 17.412 16.9736 20.9925 14.4682 23.9885C13.7688 24.8758 13.4139 25.6169 13.4035 26.212C13.3826 27.2245 14.39 27.7256 16.4255 27.7151H23.2525C25.4029 27.736 26.6086 26.8592 26.8696 25.0846ZM1.64412 4.69748V20.4967H6.82701V4.69748H1.64412ZM11.1017 11.7124C10.7259 11.3992 10.2562 11.0704 9.69247 10.7259C12.0308 7.59426 14.0037 4.03462 15.6113 0.0469748L17.2867 0.610673C16.6395 2.0408 16.0289 3.3039 15.4547 4.39997H28.7329V5.99712H14.6248C13.4139 8.22059 12.2396 10.1257 11.1017 11.7124ZM44.7044 0H46.4424V4.08681H60.6132V5.68395H46.4424V10.1466H57.6538V20.2148H34.824V10.1466H44.7044V0ZM36.5621 11.7124V18.6333H55.9314V11.7124H36.5621ZM30.9094 28.9678C32.2874 27.0471 33.5922 24.9175 34.824 22.5792L36.4055 23.3152C35.0484 25.7579 33.7331 27.9709 32.4596 29.9543L30.9094 28.9678ZM59.0317 29.4532C58.2279 27.9291 57.0535 25.8936 55.5086 23.3465L57.0118 22.6105C58.0974 24.3643 59.2979 26.3633 60.6132 28.6077L59.0317 29.4532ZM50.0595 29.187C50.0386 29.1348 50.0073 29.0513 49.9656 28.9365C48.8904 26.3059 48.0657 24.3799 47.4915 23.1586L49.0417 22.6105C49.5637 23.7066 50.4614 25.6848 51.7349 28.545L50.0595 29.187ZM41.5257 22.9081C42.1312 24.453 42.8724 26.4625 43.7492 28.9365L42.0111 29.4845C41.4892 27.689 40.795 25.6535 39.9286 23.3778L41.5257 22.9081ZM65.9057 16.6447V14.6561C67.5341 12.1404 69.1052 9.41584 70.6188 6.48253H63.3377V4.85406H71.4487C72.2212 3.29868 72.9571 1.70675 73.6565 0.0782914L75.5199 0.54804C74.8205 2.06167 74.1263 3.49701 73.4373 4.85406H92.8066V6.48253H72.6074C71.0207 9.56199 69.4288 12.4066 67.8316 15.0163H78.3383V8.65903H80.1077V15.0163H91.3034V16.6447H80.1077V25.476C80.2852 28.378 78.8655 29.8186 75.8487 29.7977C75.4624 29.8186 74.9353 29.8342 74.2672 29.8447C73.9436 29.8551 73.5782 29.8603 73.1711 29.8603C72.8058 29.8603 72.2943 29.8603 71.6366 29.8603C71.5844 29.1609 71.48 28.5398 71.3234 27.997C71.9498 28.0387 72.5552 28.0701 73.1398 28.0909C73.4216 28.1014 73.7348 28.1066 74.0793 28.1066C74.3611 28.1066 74.81 28.1066 75.4259 28.1066C76.522 28.117 77.2788 27.903 77.6964 27.4646C78.1348 27.0575 78.3488 26.3163 78.3383 25.2411V16.6447H65.9057ZM70.4622 19.5728L71.9967 20.5593C69.7106 23.2108 67.1322 25.9144 64.2616 28.6703C63.8022 28.1797 63.3429 27.7778 62.8836 27.4646C65.723 24.8653 68.2492 22.2347 70.4622 19.5728ZM83.897 20.7629L85.1184 19.6355C87.7072 21.7337 90.4109 24.0511 93.2294 26.5877L91.8828 27.903C89.3044 25.5021 86.6424 23.1221 83.897 20.7629ZM97.1439 8.8939H105.787V8.25191V3.66404H95.218V1.9886H125V3.66404H114.681V8.8939H123.528V30.2831H121.79V28.2945H98.8663V30.2831H97.1439V8.8939ZM116.372 20.6846C114.044 20.7263 112.901 19.6825 112.943 17.5529V10.491H107.494C107.588 15.4182 105.62 19.3641 101.591 22.3287C101.299 21.9738 100.839 21.5249 100.213 20.9821C104.044 18.4559 105.881 14.9589 105.725 10.491H98.8663V26.6817H121.79V10.491H114.681V17.3963C114.619 18.5029 115.334 19.0352 116.826 18.9935C117.735 18.9935 118.418 18.9883 118.878 18.9778C119.431 18.9674 120.031 18.9517 120.678 18.9309C120.522 19.5781 120.412 20.1522 120.349 20.6533C119.817 20.6637 119.264 20.6741 118.69 20.6846C118.418 20.6846 118.11 20.6846 117.766 20.6846C117.474 20.6846 117.009 20.6846 116.372 20.6846ZM107.525 8.22059V8.8939H112.943V3.66404H107.525V8.22059Z" fill="black" fill-opacity="0.5"/>
</svg>
