<svg width="255" height="31" viewBox="0 0 255 31" fill="none" xmlns="http://www.w3.org/2000/svg">
<path d="M27.5752 6.19579V17.9756H22.3676V25.442C22.2944 27.1883 23.063 28.0196 24.6734 27.936H26.0223C27.3504 27.9987 28.0928 27.4131 28.2497 26.1792C28.3856 25.2276 28.5111 23.9937 28.6261 22.4774C29.0653 22.6656 29.6143 22.8695 30.2731 23.0891C30.1685 24.5008 30.0274 25.7766 29.8496 26.9164C29.6195 28.6523 28.4327 29.5097 26.289 29.4888H24.1557C21.7925 29.5307 20.6265 28.2654 20.6579 25.6929V17.9756H16.6424C16.6215 21.4474 16.0777 23.9675 15.0111 25.5361C14.0386 27.1465 11.9681 28.7202 8.79959 30.2574C8.55908 29.881 8.18786 29.3895 7.68592 28.783C10.7812 27.3295 12.7367 25.9439 13.5523 24.6263C14.4934 23.3296 14.9692 21.1128 14.9797 17.9756H10.4152V6.19579H20.1089C21.6251 4.1253 23.0107 2.13323 24.2655 0.219598L25.8968 1.01956C24.3492 3.1528 23.063 4.87821 22.0382 6.19579H27.5752ZM12.1092 7.73298V16.4385H25.8655V7.73298H12.1092ZM5.17623 24.5008C6.21148 23.612 7.65978 22.4356 9.52113 20.9716C9.5525 21.7768 9.6257 22.4199 9.74073 22.9009C8.31857 23.9989 6.75524 25.259 5.05075 26.6811C4.83115 26.8589 4.49652 27.1883 4.04687 27.6693C3.96322 27.7634 3.90047 27.8314 3.85865 27.8732L2.57243 26.4929C2.93843 26.1269 3.17894 25.7348 3.29397 25.3165C3.41945 24.9191 3.48219 24.3178 3.48219 23.5126V12.0779H0V10.4309H5.17623V24.5008ZM5.91345 6.38402C4.61678 4.68998 3.21554 3.05345 1.70973 1.47444L3.02731 0.470567C4.53312 2.01821 5.98665 3.60245 7.38789 5.22329L5.91345 6.38402ZM11.7642 1.23916L13.1445 0.313711C14.6712 2.02866 15.947 3.55016 16.9718 4.87821L15.4816 5.8664C14.7183 4.82069 13.4791 3.27828 11.7642 1.23916ZM33.0338 2.72929H61.9422V4.42333H50.382C46.1573 11.2518 40.4687 17.0136 33.3161 21.7088C32.9815 21.2696 32.5632 20.799 32.0613 20.2971C39.3498 15.5182 44.7352 10.227 48.2174 4.42333H33.0338V2.72929ZM46.2253 10.525H48.0292V30.3515H46.2253V10.525ZM61.0795 20.8461C57.3255 18.2214 53.791 15.8738 50.4761 13.8033L51.5584 12.4857C54.7583 14.4725 58.3136 16.7783 62.2246 19.403L61.0795 20.8461ZM76.969 0.596051H78.8356V10.1172H91.8546V11.8426H78.8356V26.6184H94.3486V28.3908H64.4833V26.6184H76.969V0.596051ZM97.4386 28.1712C97.0099 27.502 96.6021 26.9321 96.2152 26.4615C101.601 24.025 106.128 20.7363 109.799 16.5953H96.7014V15.0268H110.709V6.07031H98.568V4.51744H110.709V0H112.403V4.51744H124.716V6.07031H112.403V15.0268H126.378V16.5953H113.25C116.742 20.7258 121.249 23.8316 126.771 25.9125C126.478 26.2576 126.08 26.838 125.579 27.6536C119.639 24.9662 115.247 21.6356 112.403 17.6619V30.3829H110.709V17.5992C107.551 21.6879 103.127 25.2119 97.4386 28.1712ZM117.61 13.6778L116.293 12.5171C117.778 11.074 119.189 9.46884 120.528 7.70161L121.955 8.76822C120.7 10.2427 119.252 11.8792 117.61 13.6778ZM101.329 8.62705L102.646 7.63886C103.953 9.10285 105.261 10.6453 106.568 12.2661L105.109 13.3641C103.885 11.7119 102.625 10.1329 101.329 8.62705ZM141.923 30.6025H140.605L143.146 22.5558H144.872L141.923 30.6025ZM172.165 1.75678H188.289V15.7012H179.553C180.274 18.0854 181.142 20.0461 182.156 21.5833C184.133 20.5062 186.454 19.0789 189.121 17.3012L190.219 18.6501C188.033 20.0514 185.665 21.4474 183.113 22.8382C184.608 24.6995 187.155 26.519 190.752 28.2967C190.731 28.3281 190.694 28.3752 190.642 28.4379C190.161 29.0026 189.827 29.4261 189.638 29.7084C183.103 26.6132 179.181 21.9441 177.874 15.7012H173.859V27.3556C175.71 26.3622 177.649 25.2851 179.678 24.1244C179.793 24.7727 179.929 25.3269 180.086 25.787C178.214 26.7491 176.238 27.8523 174.157 29.0967C173.54 29.4522 172.991 29.8287 172.51 30.2261L171.223 28.6418C171.589 28.2235 171.835 27.8053 171.961 27.387C172.097 26.9582 172.165 26.404 172.165 25.7243V1.75678ZM173.859 14.2268H186.58V9.41133H173.859V14.2268ZM173.859 3.23122V7.95257H186.58V3.23122H173.859ZM161.561 20.0304C161.258 19.4135 160.944 18.8906 160.62 18.4619C163.621 15.8895 166.246 12.4752 168.494 8.21923L170 9.05056C169.048 10.7655 168.065 12.3602 167.051 13.8347V30.2888H165.373V16.0149C164.139 17.5417 162.868 18.8802 161.561 20.0304ZM162.11 10.3054C161.828 9.80347 161.504 9.31199 161.138 8.83097C163.93 6.54087 166.382 3.62859 168.494 0.0941133L170 1.01956C167.699 4.74226 165.07 7.83755 162.11 10.3054ZM203.002 14.2268C202.992 14.2163 202.976 14.2007 202.955 14.1797C202.338 13.5 201.957 13.0974 201.81 12.972C204.78 9.29107 207.07 5.00892 208.681 0.125484L210.328 0.643108C209.501 2.72406 208.749 4.46515 208.069 5.8664H222.625V7.35652H215.943V12.721H222.264V14.1954H215.943V19.5913H222.264V21.0657H215.943V26.6184H223.017V28.1085H207.237V30.2888H205.559V10.525C204.733 11.853 203.881 13.087 203.002 14.2268ZM202.391 26.8223C201.816 25.7557 200.89 23.9884 199.614 21.5206C199.353 21.0082 199.154 20.6213 199.018 20.3598C197.805 23.2983 196.028 26.2106 193.685 29.0967C193.351 28.647 192.932 28.166 192.43 27.6536C194.93 24.757 196.791 21.6931 198.014 18.4619C195.672 14.0804 194.004 10.9851 193.011 9.17605L194.454 8.34471C195.803 10.8021 197.225 13.4582 198.72 16.313C199.609 13.4268 200.273 9.81915 200.712 5.48994H193.105V3.9057H202.391V5.58406C201.763 10.9799 200.895 15.2202 199.787 18.305C200.425 19.5076 201.324 21.2173 202.485 23.4342C203.102 24.6159 203.541 25.4524 203.802 25.9439L202.391 26.8223ZM207.237 21.0657V26.6184H214.28V21.0657H207.237ZM207.237 14.1954V19.5913H214.28V14.1954H207.237ZM207.363 7.35652C207.311 7.44018 207.269 7.52384 207.237 7.60749V12.721H214.28V7.35652H207.363ZM212.994 0.768592L214.5 0.125484C215.577 2.07049 216.387 3.60245 216.931 4.72135L215.394 5.45857C214.704 3.93184 213.904 2.36852 212.994 0.768592ZM229.731 17.5678V15.9836H248.961V17.7874C246.985 20.8304 244.611 23.2303 241.84 24.9871C244.778 26.4302 249.165 27.4915 255 28.1712C254.613 28.8928 254.315 29.4888 254.106 29.9594C247.894 29.0392 243.215 27.7216 240.067 26.0066C236.69 27.8157 232.042 29.2849 226.123 30.4143C225.841 29.8391 225.522 29.2745 225.166 28.7202C230.572 27.7896 234.959 26.5243 238.326 24.9243C235.89 23.3035 233.709 20.8513 231.785 17.5678H229.731ZM225.935 10.4623H244.883C246.462 8.25583 247.832 6.15919 248.992 4.17236L250.671 4.97232C249.625 6.54087 248.328 8.37086 246.781 10.4623H254.075V16.2189H252.333V12.0779H227.676V16.2189H225.935V10.4623ZM247.032 17.5678H233.809C235.702 20.454 237.788 22.5924 240.067 23.9832C242.828 22.4042 245.149 20.2657 247.032 17.5678ZM252.631 2.61949C244.716 3.12142 236.319 3.45605 227.44 3.62336C227.336 2.95411 227.221 2.37375 227.095 1.88227C236.203 1.86135 244.553 1.55287 252.145 0.956819L252.631 2.61949ZM238.044 4.94095L239.612 4.29784C240.407 5.81411 241.118 7.32515 241.746 8.83097L240.099 9.53681C239.461 7.90552 238.776 6.37356 238.044 4.94095ZM229.087 5.58406L230.562 4.78409C231.493 6.08077 232.402 7.46109 233.291 8.92508L231.785 9.75641C231.723 9.6623 231.634 9.52113 231.519 9.3329C230.389 7.54475 229.579 6.29513 229.087 5.58406Z" fill="black" fill-opacity="0.5"/>
</svg>
