<svg width="157" height="30" viewBox="0 0 157 30" fill="none" xmlns="http://www.w3.org/2000/svg">
<path d="M6.33963 26.5825H17.3241V14.8134H8.64638V13.1029H17.3241V6.10425H19.1287V13.1029H28.9206V14.8134H19.1287V26.5825H30.2074V28.2773H6.33963V26.5825ZM5.57071 12.334C5.59164 17.0521 5.33533 20.5201 4.8018 22.7379C4.33103 25.0081 3.27966 27.3462 1.64768 29.7523C0.999067 29.2397 0.449842 28.8579 0 28.6068C1.55875 26.3785 2.56828 24.2444 3.02859 22.2044C3.5412 20.2063 3.78704 17.1201 3.76612 12.946V2.14983H30.0505V3.82889H5.57071V12.334ZM22.5653 18.705L23.9148 17.7007C25.2016 18.9875 26.6244 20.541 28.1831 22.3613L26.6767 23.4912C25.4004 21.901 24.0299 20.3056 22.5653 18.705ZM44.2205 0.0313843H46.0251C46.0251 2.38521 45.9623 4.73903 45.8368 7.09285H60.0696C59.9336 13.0245 59.7505 18.0512 59.5203 22.173C59.5413 26.8807 57.4856 29.1508 53.3533 28.9834C52.5373 29.0043 51.7004 29.02 50.8426 29.0305C50.037 29.0409 49.1164 29.0462 48.0808 29.0462C48.0389 28.408 47.9343 27.7647 47.7669 27.116C47.8925 27.116 48.0808 27.1213 48.3318 27.1317C50.3718 27.1945 51.9933 27.2259 53.1964 27.2259C53.3219 27.2363 53.4998 27.2416 53.7299 27.2416C56.3767 27.2416 57.721 25.4004 57.7628 21.7179C57.993 17.0103 58.129 12.7054 58.1708 8.8033H45.7112C45.6799 8.90791 45.6642 9.0596 45.6642 9.25837C45.5177 18.6423 41.5999 25.5207 33.9107 29.8936C33.3354 29.2031 32.9064 28.7062 32.624 28.4028C40.0411 24.2287 43.7811 18.0251 43.8439 9.7919C43.8543 9.68729 43.8648 9.51991 43.8753 9.28976C43.8857 9.08053 43.8962 8.91837 43.9066 8.8033H33.5498V7.09285H44.0322C44.1577 4.79134 44.2205 2.43751 44.2205 0.0313843ZM93.3369 29.4699C85.5327 25.4108 80.914 19.4112 79.4808 11.471C78.6334 15.8543 77.0589 19.4635 74.7574 22.2986L76.0128 21.4355C77.2891 22.7536 79.078 24.7047 81.3795 27.2887L79.826 28.4342C78.6648 26.98 76.9439 24.9767 74.6633 22.4241C72.6861 24.9139 69.7621 27.4351 65.8914 29.9877C65.5461 29.5379 65.1067 29.0409 64.5732 28.497C72.5762 24.0927 77.1269 17.8158 78.2254 9.66637H64.7615V7.97161H78.4765C78.6648 6.29778 78.7537 3.64058 78.7432 0H80.5478C80.5478 1.98767 80.4694 4.64488 80.3124 7.97161H94.2V9.66637H80.4694C82.2269 18.4017 86.9084 24.4902 94.5138 27.932C94.4511 28.0053 94.3674 28.1099 94.2628 28.2459C93.7083 28.9154 93.3997 29.3234 93.3369 29.4699ZM98.123 29.9877C97.4744 29.2136 97.0246 28.6853 96.7735 28.4028C105.425 24.1136 110.007 18.0826 110.52 10.3097H96.8991V8.58361H110.661C110.745 7.4747 110.802 6.2664 110.834 4.95872C110.855 4.32057 110.865 3.62489 110.865 2.87166C110.876 2.21259 110.881 1.25537 110.881 0H112.717C112.717 2.25967 112.659 5.12087 112.544 8.58361H126.4V10.3097H112.576C113.8 18.4383 118.502 24.2548 126.683 27.7594C126.013 28.6068 125.6 29.1769 125.443 29.4699C117.555 25.6724 112.968 20.2167 111.681 13.1029C110.687 20.2063 106.168 25.8345 98.123 29.9877ZM143.505 11.3454L154.521 4.07996H129.743V2.33813H157V4.50365L145.356 12.3026V24.1659C145.492 27.6914 143.834 29.4176 140.382 29.3443C139.587 29.3548 138.849 29.3653 138.169 29.3757C137.835 29.3757 137.474 29.3757 137.087 29.3757C136.752 29.3757 136.234 29.3757 135.533 29.3757C135.449 28.6748 135.329 27.9686 135.172 27.2573C136.637 27.341 138.274 27.3828 140.084 27.3828C141.381 27.3933 142.27 27.1579 142.752 26.6767C143.264 26.2268 143.515 25.3899 143.505 24.1659V11.3454Z" fill="black" fill-opacity="0.5"/>
</svg>
