<svg width="159" height="31" viewBox="0 0 159 31" fill="none" xmlns="http://www.w3.org/2000/svg">
<path d="M29.5697 14.2837C23.7748 11.4332 19.0919 7.56994 15.521 2.69385C12.2529 7.08964 7.48641 11.0991 1.22163 14.7222C0.772656 14.1062 0.365445 13.5737 0 13.1247C6.68243 9.7104 11.7726 5.3355 15.2704 0L17.2595 0.328901C17.1759 0.443755 17.0506 0.616036 16.8836 0.845745C16.727 1.08589 16.6017 1.2634 16.5077 1.37825C20.0786 6.27522 24.819 10.0184 30.7287 12.6079C30.3946 13.0464 30.0083 13.605 29.5697 14.2837ZM3.85284 19.1859V17.51H25.8109V19.3425L17.2908 30.4781C16.8731 30.1231 16.3563 29.7472 15.7402 29.3505L23.6965 19.1859H3.85284ZM12.7958 10.1646L14.268 9.27187C15.4479 10.8381 16.6904 12.5818 17.9956 14.503L16.3824 15.4583C15.1086 13.464 13.913 11.6995 12.7958 10.1646ZM34.0334 30.3215C33.6784 29.8517 33.2503 29.3348 32.7491 28.771C40.9246 25.1792 45.4144 20.3031 46.2184 14.1427H32.7178V12.4512H46.469C46.6256 10.9059 46.7039 8.40002 46.7039 4.93351C46.7039 4.5263 46.7039 4.21828 46.7039 4.00946H34.4406V2.34929H60.8466V4.00946H48.5207C48.4789 7.49685 48.3954 10.3108 48.2701 12.4512H62.4441V14.1427H48.8183C50.28 21.2428 54.8742 25.9623 62.6008 28.3011C62.0787 28.9485 61.6872 29.5019 61.4261 29.9613C53.4907 27.1004 48.8705 22.2452 47.5653 15.3957C46.5107 21.6918 42.0001 26.6671 34.0334 30.3215ZM76.0544 1.95774H92.1548V15.8812H83.4311C84.1516 18.2618 85.0182 20.2196 86.031 21.7544C88.0044 20.679 90.3224 19.2537 92.9849 17.4787L94.0813 18.8257C91.899 20.2248 89.5341 21.6187 86.9864 23.0074C88.4795 24.8659 91.022 26.6827 94.6138 28.4577C94.5929 28.4891 94.5563 28.5361 94.5041 28.5987C94.0238 29.1625 93.6897 29.5854 93.5018 29.8673C86.976 26.7767 83.0605 22.1147 81.7553 15.8812H77.7459V27.518C79.594 26.5261 81.5308 25.4507 83.5564 24.2917C83.6713 24.939 83.807 25.4924 83.9637 25.9518C82.0947 26.9124 80.1213 28.014 78.0434 29.2565C77.4274 29.6115 76.8792 29.9874 76.3989 30.3842L75.1147 28.8023C75.4801 28.3847 75.7255 27.967 75.8508 27.5493C75.9865 27.1213 76.0544 26.5679 76.0544 25.8892V1.95774ZM77.7459 14.409H90.4477V9.60077H77.7459V14.409ZM77.7459 3.42996V8.14421H90.4477V3.42996H77.7459ZM65.4669 20.2039C65.1641 19.5879 64.8509 19.0658 64.5272 18.6377C67.5238 16.0691 70.1446 12.6601 72.3895 8.41046L73.893 9.24054C72.9429 10.9529 71.9614 12.5452 70.9486 14.0174V30.4468H69.2728V16.1944C68.0407 17.7189 66.7721 19.0554 65.4669 20.2039ZM66.0151 10.4935C65.7332 9.99232 65.4095 9.50158 65.044 9.02128C67.8319 6.73463 70.2803 3.82673 72.3895 0.297577L73.893 1.22163C71.5959 4.93873 68.97 8.02935 66.0151 10.4935ZM107.738 7.34545H113.158V4.5263H107.316V3.17937H113.158V0.391548H114.63V3.17937H118.577V0.391548H120.049V3.17937H126.408V4.5263H120.049V7.34545H125.515V17.1655H107.738V7.34545ZM108.694 19.5774H124.575V30.4781H123.04V29.2565H110.244V30.4781H108.694V19.5774ZM97.151 25.3723L96.3836 23.7435C98.5554 20.6007 100.148 17.0611 101.16 13.1247H96.8064V11.7151H101.223V0.203605H102.742V11.7151H106.517V13.1247H102.742V17.3534L103.729 16.492C104.982 17.7554 106.214 19.0501 107.425 20.3762L106.235 21.3942C104.773 19.7445 103.609 18.4393 102.742 17.4787V30.5408H101.223V15.9752C100.346 19.6296 98.9887 22.762 97.151 25.3723ZM110.244 25.0591V27.9096H123.04V25.0591H110.244ZM110.244 20.9243V23.7435H123.04V20.9243H110.244ZM120.049 12.9054V15.8499H124.027V12.9054H120.049ZM124.027 8.66105H120.049V11.6212H124.027V8.66105ZM109.211 12.9054V15.8499H113.158V12.9054H109.211ZM109.211 8.66105V11.6212H113.158V8.66105H109.211ZM114.63 12.9054V15.8499H118.577V12.9054H114.63ZM114.63 8.66105V11.6212H118.577V8.66105H114.63ZM114.63 4.5263V7.34545H118.577V4.5263H114.63ZM96.8064 4.10343L98.1847 3.66489C98.7381 5.09535 99.3907 6.94346 100.142 9.20922L98.6859 9.69474C98.1325 7.80487 97.506 5.9411 96.8064 4.10343ZM104.794 9.66342L103.447 9.14657C104.241 7.29846 104.945 5.4608 105.561 3.63357L106.877 4.10343C106.104 6.35875 105.41 8.21208 104.794 9.66342ZM140.848 5.65396H150.339C151.675 3.71188 152.85 1.91598 153.863 0.266253L155.366 1.12766C154.823 1.9212 153.91 3.20548 152.626 4.9805C152.406 5.27285 152.239 5.49734 152.124 5.65396H157.935V7.18883H150.041V12.4199H156.948V13.9235H150.041V19.2485H158.264V20.7834H140.488V19.2485H148.381V13.9235H141.474V12.4199H148.381V7.18883H140.848V5.65396ZM128.882 11.8404H133.502V0.48552H135.069V11.8404H139.423V13.2813H135.069V16.7113L136.165 15.9439C137.345 17.3221 138.499 18.7421 139.626 20.2039L138.311 21.1436C137.079 19.4104 135.998 18.0008 135.069 16.9149V30.2589H133.502V16.1318C132.584 19.6192 131.211 22.7098 129.383 25.4037C129.216 25.0278 128.929 24.5162 128.522 23.8688C130.537 21.0496 132.129 17.5205 133.299 13.2813H128.882V11.8404ZM141.553 23.1014L143.025 23.6495C142.273 25.696 141.333 27.8208 140.206 30.0239C139.715 29.7316 139.209 29.4758 138.686 29.2565C139.783 27.3144 140.738 25.2627 141.553 23.1014ZM154.568 23.7748L156.009 23.1327C157.168 25.2731 158.165 27.2413 159 29.0372L157.481 29.742C156.552 27.6329 155.58 25.6438 154.568 23.7748ZM149.728 23.6809L151.232 23.2267C151.994 25.2001 152.688 27.1474 153.315 29.0686L151.717 29.5541C151.132 27.5702 150.469 25.6125 149.728 23.6809ZM145.077 23.7435L146.58 23.4459C147.071 25.2209 147.53 27.1369 147.958 29.1939L146.361 29.5854C145.933 27.3405 145.505 25.3932 145.077 23.7435ZM137.434 9.78871L136.055 9.24054C136.943 7.36111 137.757 5.41381 138.499 3.39864L139.908 3.91548C139.125 5.92021 138.3 7.87796 137.434 9.78871ZM128.71 3.91548L130.057 3.42996C130.84 5.16322 131.633 7.10008 132.437 9.24054L130.996 9.75739C130.234 7.65869 129.472 5.71139 128.71 3.91548ZM143.056 1.12766L144.309 0.297577C145.28 1.42524 146.283 2.71474 147.316 4.16608L145.969 5.13712C144.862 3.55004 143.891 2.21355 143.056 1.12766Z" fill="black" fill-opacity="0.5"/>
</svg>
