<svg width="95" height="23" viewBox="0 0 95 23" fill="none" xmlns="http://www.w3.org/2000/svg">
<path d="M15.094 5.84361H16.4544V9.98381H21.9549V11.2495H16.4544V19.388C16.5096 21.4542 15.5001 22.4951 13.4261 22.5109C12.4324 22.5346 11.2771 22.5503 9.96015 22.5582C9.87341 22.085 9.75906 21.6158 9.61711 21.1505C10.6186 21.2057 11.7582 21.2333 13.0357 21.2333C13.8086 21.2412 14.3448 21.0835 14.6445 20.7602C14.9521 20.4526 15.1019 19.9045 15.094 19.1159V11.2495H0V9.98381H15.094V5.84361ZM0.8517 3.08741H10.5161C10.2795 2.22783 9.99958 1.31304 9.67625 0.343046L10.9538 0C11.0169 0.189267 11.1076 0.469223 11.2259 0.839871C11.5334 1.77832 11.7661 2.5275 11.9238 3.08741H21.0086V7.29859H19.6719V4.31764H2.18839V7.29859H0.8517V3.08741ZM3.25302 13.4498L4.22301 12.5744C5.75292 13.9781 7.31831 15.4804 8.91919 17.0813L7.85456 18.0986C6.40352 16.5135 4.86967 14.9639 3.25302 13.4498ZM37.4393 0.70975L38.5749 0.153779C39.1585 0.973934 39.813 1.9597 40.5385 3.11107L39.3675 3.71436H45.4003V13.8165H44.1228V12.6809H34.4347C34.3795 16.6712 33.3188 20.0465 31.2526 22.8066C31.0476 22.6095 30.6612 22.3256 30.0934 21.9549C31.4025 20.1411 32.2424 18.4377 32.613 16.8447C33.031 15.2833 33.2321 12.8425 33.2163 9.52248V3.71436H39.2965C38.6104 2.53144 37.9913 1.5299 37.4393 0.70975ZM34.5057 4.92093V9.60528C34.5057 9.82609 34.5017 10.1534 34.4938 10.5871C34.486 10.9814 34.482 11.2732 34.482 11.4625H44.1228V4.92093H34.5057ZM23.8239 14.0057L23.5992 12.6335C23.9777 12.5389 24.6125 12.3772 25.5037 12.1485C26.2292 11.9514 26.7812 11.8055 27.1598 11.7109V5.77263H24.0369V4.61337H27.1598V0.130121H28.4491V4.61337H31.4064V5.77263H28.4491V11.3442C28.6226 11.2968 28.8829 11.2219 29.2299 11.1194C30.2551 10.8355 31.0358 10.6108 31.572 10.4452C31.572 10.6817 31.576 10.8789 31.5839 11.0366C31.5917 11.218 31.6036 11.4427 31.6194 11.7109C31.225 11.8134 30.6375 11.979 29.8568 12.2077C29.2259 12.3812 28.7567 12.5113 28.4491 12.5981V19.944C28.5359 21.6789 27.7433 22.5267 26.0715 22.4872C25.7008 22.503 25.1133 22.5109 24.3089 22.5109C24.2222 21.8721 24.1394 21.4187 24.0605 21.1505C24.6677 21.19 25.2592 21.2097 25.8349 21.2097C26.3475 21.2176 26.6945 21.1229 26.8759 20.9258C27.073 20.7365 27.1676 20.3856 27.1598 19.873V12.9884C26.0005 13.3354 24.8886 13.6745 23.8239 14.0057ZM48.819 2.30669H56.3778V21.1269H55.1239V19.0686H50.0847V21.4226H48.819V2.30669ZM66.2433 0.0354875H67.5209V5.33495H70.7975V6.54153H67.5209V19.3407C67.5445 21.3911 66.5035 22.432 64.398 22.4636C63.2624 22.4951 62.1149 22.5109 60.9557 22.5109C60.8847 22.0141 60.7822 21.5448 60.6481 21.1032C61.6418 21.1505 62.7852 21.1742 64.0786 21.1742C64.8908 21.1821 65.4508 21.0244 65.7583 20.701C66.0895 20.3935 66.2512 19.8414 66.2433 19.045V6.54153H57.7381V5.33495H66.2433V0.0354875ZM50.0847 11.2495V17.9094H55.1239V11.2495H50.0847ZM50.0847 3.46594V10.1139H55.1239V3.46594H50.0847ZM61.3934 15.1768C60.4549 13.2526 59.5756 11.5374 58.7554 10.0311L59.8437 9.47516C60.861 11.2574 61.764 12.945 62.5526 14.538L61.3934 15.1768ZM82.3783 12.2668V11.0721H93.0127V12.3142C91.814 14.9875 90.3906 17.0537 88.7424 18.5126C90.0751 19.5851 92.161 20.5315 95 21.3516C94.7161 21.7302 94.4559 22.1402 94.2193 22.5819C91.4039 21.5961 89.2471 20.5157 87.7487 19.3407C85.9822 20.6655 83.6164 21.8761 80.6512 22.9722C80.5645 22.8224 80.2924 22.436 79.835 21.813C82.9421 20.7247 85.2567 19.6009 86.7787 18.4417C85.3277 16.9906 84.2 14.9323 83.3956 12.2668H82.3783ZM72.2762 18.7374L72.0514 17.4717C72.2722 17.4559 72.6468 17.4244 73.1752 17.377C73.6484 17.3376 74.0111 17.3061 74.2635 17.2824V1.82169C77.1419 1.64031 79.6418 1.31698 81.7632 0.8517L82.2718 2.04645C79.6457 2.47229 77.3943 2.75225 75.5174 2.88632V6.57701H81.4793V7.71261H75.5174V11.6399H81.3846V12.7755H75.5174V17.1286C78.522 16.8211 80.8168 16.5648 82.4019 16.3597C82.3941 16.4859 82.3901 16.6752 82.3901 16.9275C82.3901 17.1957 82.3941 17.4007 82.4019 17.5426C80.3358 17.7556 78.0409 18.0158 75.5174 18.3234V22.8776H74.2635V18.489C74.1136 18.5048 73.8928 18.5324 73.601 18.5718C72.9544 18.6428 72.5128 18.698 72.2762 18.7374ZM93.3676 8.10298C93.8013 8.10298 94.1207 8.09903 94.3257 8.09115C94.5702 8.09115 94.7871 8.08326 94.9763 8.06749C94.8738 8.46968 94.8068 8.87581 94.7752 9.28589C94.5544 9.29378 94.306 9.30166 94.03 9.30955C93.8959 9.30955 93.7461 9.30955 93.5805 9.30955C93.4307 9.30955 93.2059 9.30955 92.9062 9.30955C91.3842 9.36475 90.6429 8.49334 90.6824 6.69531V2.60242H85.7851V3.37131C85.8009 5.30341 85.5682 6.71108 85.0872 7.59432C84.6455 8.517 83.6913 9.43573 82.2245 10.3505C82.0352 10.0982 81.7395 9.7906 81.3373 9.42784C82.7016 8.63923 83.5651 7.86639 83.9279 7.10933C84.3459 6.3838 84.547 5.14569 84.5312 3.39497V1.43133H91.9481V6.49421C91.9402 7.11721 92.0427 7.53912 92.2556 7.75993C92.4449 7.99651 92.8155 8.11086 93.3676 8.10298ZM91.6523 12.2668H84.6731C85.5327 14.6406 86.5658 16.4307 87.7724 17.6373C89.2629 16.3834 90.5562 14.5932 91.6523 12.2668Z" fill="black"/>
</svg>
