<svg width="110" height="19" viewBox="0 0 110 19" fill="none" xmlns="http://www.w3.org/2000/svg">
<path d="M0.9645 18.4666V17.1846C1.93684 17.6394 2.83077 17.8668 3.64628 17.8668C5.56744 17.8668 7.02987 17.0983 8.03358 15.5614C9.04512 14.0245 9.5509 11.7583 9.5509 8.76283H9.50385C8.66481 10.7154 7.17494 11.6916 5.03422 11.6916C4.28144 11.6916 3.59531 11.5544 2.97583 11.2799C2.3642 10.9976 1.8349 10.6095 1.38794 10.1155C0.948817 9.62147 0.607713 9.03336 0.364628 8.35115C0.121543 7.66895 0 6.92009 0 6.10458C0 5.21065 0.137226 4.39514 0.411677 3.65804C0.686128 2.92094 1.07036 2.28971 1.56437 1.76433C2.05838 1.23895 2.63865 0.831195 3.30518 0.541061C3.97954 0.243085 4.71272 0.0940975 5.5047 0.0940975C6.30453 0.0940975 7.02987 0.26661 7.68071 0.611634C8.33939 0.956658 8.89614 1.47419 9.35094 2.16424C9.80575 2.85429 10.1547 3.71293 10.3978 4.74016C10.6487 5.76739 10.7742 6.96714 10.7742 8.33939C10.7742 10.0331 10.6173 11.5387 10.3037 12.8561C9.99786 14.1656 9.54306 15.2712 8.93926 16.173C8.34331 17.0748 7.59837 17.7609 6.70445 18.2314C5.81836 18.7019 4.79113 18.9371 3.62275 18.9371C2.71315 18.9371 1.82706 18.7803 0.9645 18.4666ZM5.34003 1.16446C4.74408 1.16446 4.19518 1.286 3.69333 1.52908C3.19147 1.76433 2.75627 2.08975 2.38772 2.50535C2.02702 2.92094 1.74472 3.41888 1.54085 3.99914C1.33697 4.57157 1.23503 5.19497 1.23503 5.86933C1.23503 6.60643 1.33305 7.26903 1.52908 7.85714C1.73296 8.44525 2.01133 8.94711 2.3642 9.3627C2.71707 9.77046 3.14443 10.0841 3.64628 10.3037C4.14813 10.5232 4.70488 10.633 5.31651 10.633C5.87325 10.633 6.39863 10.5193 6.89264 10.2919C7.3945 10.0645 7.8297 9.76262 8.19825 9.38623C8.56679 9.00984 8.85693 8.57072 9.06865 8.06886C9.28821 7.56701 9.39799 7.03771 9.39799 6.48097C9.39799 5.70466 9.29997 4.99109 9.10393 4.34025C8.9079 3.68941 8.62953 3.12874 8.26882 2.65825C7.90811 2.18777 7.47683 1.82314 6.97498 1.56437C6.47313 1.29776 5.92814 1.16446 5.34003 1.16446ZM14.9968 7.4337C14.7067 7.4337 14.4636 7.33177 14.2675 7.12789C14.0793 6.92401 13.9852 6.677 13.9852 6.38687C13.9852 6.09674 14.0793 5.85757 14.2675 5.66938C14.4636 5.48118 14.7067 5.38708 14.9968 5.38708C15.2869 5.38708 15.5339 5.48118 15.7378 5.66938C15.9417 5.85757 16.0436 6.09674 16.0436 6.38687C16.0436 6.677 15.9417 6.92401 15.7378 7.12789C15.5339 7.33177 15.2869 7.4337 14.9968 7.4337ZM14.9968 18.843C14.7067 18.843 14.4636 18.745 14.2675 18.549C14.0793 18.3529 13.9852 18.1099 13.9852 17.8197C13.9852 17.5217 14.0793 17.2787 14.2675 17.0905C14.4636 16.9023 14.7067 16.8082 14.9968 16.8082C15.2869 16.8082 15.5339 16.9023 15.7378 17.0905C15.9417 17.2787 16.0436 17.5217 16.0436 17.8197C16.0436 18.1099 15.9417 18.3529 15.7378 18.549C15.5339 18.745 15.2869 18.843 14.9968 18.843ZM19.3606 17.9726V16.6435C20.7485 17.459 22.058 17.8668 23.2891 17.8668C24.7555 17.8668 25.9003 17.4943 26.7237 16.7494C27.5549 15.9966 27.9705 15.0164 27.9705 13.8088C27.9705 12.4601 27.4922 11.4407 26.5355 10.7506C25.5867 10.0528 24.234 9.70381 22.4775 9.70381H21.0778V8.63345H22.3246C23.9478 8.63345 25.1828 8.28842 26.0297 7.59837C26.8844 6.90833 27.3118 5.93206 27.3118 4.66959C27.3118 3.57963 27.0021 2.72491 26.3826 2.10543C25.771 1.47812 24.8692 1.16446 23.6773 1.16446C22.5403 1.16446 21.3445 1.56437 20.0898 2.3642V1.11741C21.4621 0.435201 22.7206 0.0940975 23.8655 0.0940975C25.3005 0.0940975 26.4375 0.486171 27.2765 1.27032C28.1234 2.04662 28.5468 3.07777 28.5468 4.36377C28.5468 6.83383 27.3667 8.40212 25.0064 9.06865V9.1157C26.2767 9.24116 27.2922 9.71557 28.0528 10.5389C28.8134 11.3544 29.1938 12.3856 29.1938 13.6324C29.1938 15.2242 28.6409 16.5063 27.5353 17.4786C26.4375 18.451 25.0143 18.9371 23.2656 18.9371C21.909 18.9371 20.6074 18.6156 19.3606 17.9726ZM37.8625 18.9371C36.1844 18.9371 34.871 18.1687 33.9222 16.6317C32.9812 15.087 32.5107 12.8443 32.5107 9.90376C32.5107 6.6574 33.0047 4.21086 33.9927 2.56416C34.9886 0.917451 36.4118 0.0940975 38.2624 0.0940975C41.7675 0.0940975 43.5201 3.20716 43.5201 9.43328C43.5201 12.5307 43.0222 14.8909 42.0263 16.5141C41.0383 18.1295 39.6503 18.9371 37.8625 18.9371ZM38.1565 1.16446C36.7608 1.16446 35.6708 1.88195 34.8867 3.31694C34.1104 4.74408 33.7222 6.88872 33.7222 9.75086C33.7222 12.3621 34.0947 14.3695 34.8396 15.7731C35.5845 17.1689 36.6431 17.8668 38.0154 17.8668C39.3641 17.8668 40.411 17.1532 41.1559 15.726C41.9087 14.2989 42.2851 12.2601 42.2851 9.60971C42.2851 3.97954 40.9089 1.16446 38.1565 1.16446ZM53.6944 11.574V10.4213H60.6341V11.574H53.6944ZM76.0073 0V18.6195H74.8428V1.8349C74.2547 2.39949 73.5843 2.88566 72.8315 3.29341C72.0865 3.69333 71.271 4.05011 70.3849 4.36377V3.30518C70.9182 3.12482 71.4122 2.92486 71.867 2.7053C72.3218 2.4779 72.757 2.22697 73.1726 1.95252C73.596 1.67807 74.0038 1.3801 74.3959 1.0586C74.7958 0.729256 75.1996 0.37639 75.6074 0H76.0073ZM81.4767 7.4337C81.1866 7.4337 80.9435 7.33177 80.7474 7.12789C80.5592 6.92401 80.4651 6.677 80.4651 6.38687C80.4651 6.09674 80.5592 5.85757 80.7474 5.66938C80.9435 5.48118 81.1866 5.38708 81.4767 5.38708C81.7668 5.38708 82.0138 5.48118 82.2177 5.66938C82.4216 5.85757 82.5235 6.09674 82.5235 6.38687C82.5235 6.677 82.4216 6.92401 82.2177 7.12789C82.0138 7.33177 81.7668 7.4337 81.4767 7.4337ZM81.4767 18.843C81.1866 18.843 80.9435 18.745 80.7474 18.549C80.5592 18.3529 80.4651 18.1099 80.4651 17.8197C80.4651 17.5217 80.5592 17.2787 80.7474 17.0905C80.9435 16.9023 81.1866 16.8082 81.4767 16.8082C81.7668 16.8082 82.0138 16.9023 82.2177 17.0905C82.4216 17.2787 82.5235 17.5217 82.5235 17.8197C82.5235 18.1099 82.4216 18.3529 82.2177 18.549C82.0138 18.745 81.7668 18.843 81.4767 18.843ZM85.8405 17.9726V16.6435C87.2284 17.459 88.5379 17.8668 89.769 17.8668C91.2354 17.8668 92.3802 17.4943 93.2036 16.7494C94.0348 15.9966 94.4504 15.0164 94.4504 13.8088C94.4504 12.4601 93.9721 11.4407 93.0154 10.7506C92.0666 10.0528 90.7139 9.70381 88.9574 9.70381H87.5577V8.63345H88.8045C90.4277 8.63345 91.6627 8.28842 92.5096 7.59837C93.3643 6.90833 93.7917 5.93206 93.7917 4.66959C93.7917 3.57963 93.482 2.72491 92.8625 2.10543C92.2509 1.47812 91.3491 1.16446 90.1572 1.16446C89.0202 1.16446 87.8244 1.56437 86.5697 2.3642V1.11741C87.942 0.435201 89.2005 0.0940975 90.3454 0.0940975C91.7804 0.0940975 92.9174 0.486171 93.7564 1.27032C94.6033 2.04662 95.0267 3.07777 95.0267 4.36377C95.0267 6.83383 93.8466 8.40212 91.4863 9.06865V9.1157C92.7566 9.24116 93.7721 9.71557 94.5327 10.5389C95.2933 11.3544 95.6737 12.3856 95.6737 13.6324C95.6737 15.2242 95.1208 16.5063 94.0152 17.4786C92.9174 18.451 91.4942 18.9371 89.7455 18.9371C88.3889 18.9371 87.0873 18.6156 85.8405 17.9726ZM104.342 18.9371C102.664 18.9371 101.351 18.1687 100.402 16.6317C99.4611 15.087 98.9906 12.8443 98.9906 9.90376C98.9906 6.6574 99.4846 4.21086 100.473 2.56416C101.468 0.917451 102.892 0.0940975 104.742 0.0940975C108.247 0.0940975 110 3.20716 110 9.43328C110 12.5307 109.502 14.8909 108.506 16.5141C107.518 18.1295 106.13 18.9371 104.342 18.9371ZM104.636 1.16446C103.241 1.16446 102.151 1.88195 101.367 3.31694C100.59 4.74408 100.202 6.88872 100.202 9.75086C100.202 12.3621 100.575 14.3695 101.32 15.7731C102.064 17.1689 103.123 17.8668 104.495 17.8668C105.844 17.8668 106.891 17.1532 107.636 15.726C108.389 14.2989 108.765 12.2601 108.765 9.60971C108.765 3.97954 107.389 1.16446 104.636 1.16446Z" fill="black"/>
</svg>
