<svg width="137" height="26" viewBox="0 0 137 26" fill="none" xmlns="http://www.w3.org/2000/svg">
<path d="M0.802066 1.28567H22.0804V2.3944H14.9562V5.20164H20.9009V10.8751H2.00517V5.20164H7.87912V2.3944H0.802066V1.28567ZM21.0189 22.6112C20.5942 22.4697 19.9652 22.2613 19.1316 21.9861C16.1829 21.0189 13.9457 20.3033 12.4202 19.8393C9.82531 21.2312 6.04695 22.222 1.08515 22.8117C0.935744 22.3242 0.766681 21.8956 0.57796 21.526C4.95001 21.0621 8.31554 20.3151 10.6746 19.285C8.55144 18.6009 6.43619 17.9325 4.3288 17.2798C5.20164 16.289 5.9172 15.4437 6.47551 14.7439H0V13.6351H7.34834C7.82015 13.0139 8.35093 12.2472 8.94068 11.3351L10.2028 11.8423C9.82531 12.377 9.38103 12.9746 8.86991 13.6351H22.8825V14.7439H17.7044C16.6586 16.521 15.3493 17.9521 13.7767 19.0373C13.8868 19.0687 14.048 19.1159 14.2603 19.1788C17.4135 20.1303 19.8826 20.8891 21.6676 21.4553L21.0189 22.6112ZM12.1489 18.5301C13.7531 17.6337 15.1056 16.3716 16.2065 14.7439H8.02066C7.6039 15.2943 7.04167 15.9863 6.33396 16.8198C6.72713 16.9378 7.32868 17.1147 8.13861 17.3506C9.85283 17.8538 11.1896 18.247 12.1489 18.5301ZM19.6624 6.28678H14.9562V9.78993H19.6624V6.28678ZM3.24365 6.28678V9.78993H7.87912V6.28678H3.24365ZM9.10581 6.28678V9.78993H13.7295V6.28678H9.10581ZM9.10581 2.3944V5.20164H13.7295V2.3944H9.10581ZM39.7848 5.82678H41.1413V9.95506H46.626V11.2171H41.1413V19.3322C41.1963 21.3924 40.1898 22.4303 38.1217 22.4461C37.131 22.4697 35.979 22.4854 34.6658 22.4932C34.5793 22.0214 34.4653 21.5536 34.3237 21.0896C35.3224 21.1447 36.4586 21.1722 37.7325 21.1722C38.5031 21.1801 39.0378 21.0228 39.3366 20.7004C39.6433 20.3937 39.7927 19.8472 39.7848 19.0609V11.2171H24.7343V9.95506H39.7848V5.82678ZM25.5836 3.07852H35.2201C34.9842 2.22141 34.7051 1.30926 34.3827 0.342058L35.6566 0C35.7195 0.188721 35.8099 0.467872 35.9279 0.837452C36.2345 1.7732 36.4665 2.52022 36.6238 3.07852H45.6824V7.27757H44.3495V4.30521H26.9164V7.27757H25.5836V3.07852ZM27.978 13.411L28.9452 12.5382C30.4707 13.9379 32.0315 15.4358 33.6278 17.0321L32.5663 18.0465C31.1194 16.4659 29.59 14.9208 27.978 13.411ZM62.0658 0.707706L63.1981 0.153336C63.78 0.971129 64.4327 1.95405 65.1561 3.10211L63.9884 3.70366H70.0039V13.7767H68.73V12.6443H59.0698C59.0148 16.6232 57.9572 19.9888 55.8969 22.7409C55.6925 22.5444 55.3072 22.2613 54.741 21.8917C56.0463 20.0831 56.8838 18.3846 57.2534 16.7962C57.6701 15.2393 57.8707 12.8055 57.8549 9.49505V3.70366H63.9176C63.2335 2.52415 62.6162 1.5255 62.0658 0.707706ZM59.1406 4.90676V9.57762C59.1406 9.79779 59.1367 10.1241 59.1288 10.5566C59.1209 10.9498 59.117 11.2407 59.117 11.4294H68.73V4.90676H59.1406ZM48.4896 13.9654L48.2655 12.5972C48.643 12.5028 49.276 12.3416 50.1645 12.1136C50.888 11.917 51.4384 11.7715 51.8158 11.6771V5.75601H48.7019V4.60009H51.8158V0.129746H53.1015V4.60009H56.0503V5.75601H53.1015V11.3115C53.2745 11.2643 53.534 11.1896 53.88 11.0874C54.9022 10.8043 55.6807 10.5802 56.2154 10.4151C56.2154 10.651 56.2193 10.8476 56.2272 11.0048C56.2351 11.1857 56.2469 11.4098 56.2626 11.6771C55.8694 11.7794 55.2836 11.9445 54.5051 12.1725C53.8761 12.3455 53.4082 12.4753 53.1015 12.5618V19.8865C53.188 21.6165 52.3977 22.4618 50.7307 22.4225C50.3611 22.4382 49.7753 22.4461 48.9732 22.4461C48.8867 21.8091 48.8042 21.357 48.7255 21.0896C49.331 21.1289 49.9208 21.1486 50.4948 21.1486C51.0059 21.1565 51.3519 21.0621 51.5328 20.8655C51.7293 20.6768 51.8237 20.3269 51.8158 19.8158V12.951C50.6599 13.297 49.5512 13.6351 48.4896 13.9654ZM73.4598 4.01033H75.925C76.389 2.54774 76.7585 1.26207 77.0337 0.153336L78.343 0.436418C78.2486 0.719501 78.0874 1.21489 77.8594 1.9226C77.5527 2.8898 77.3286 3.58571 77.1871 4.01033H81.9877V22.3281H80.7374V20.3937H74.7219V22.4932H73.4598V4.01033ZM84.0872 9.16479C83.8199 8.95248 83.4503 8.71657 82.9785 8.45708C84.4175 6.13738 85.6245 3.36946 86.5996 0.153336L87.8852 0.483599C87.4606 1.73388 87.0242 2.89373 86.576 3.96315H94.3843C94.29 9.46753 94.1445 14.2603 93.9479 18.3414C93.9479 20.9835 92.6033 22.2967 89.914 22.2809C89.4343 22.2967 88.8996 22.3085 88.3099 22.3163C88.0268 22.3242 87.7162 22.3281 87.378 22.3281C87.0792 22.3281 86.6664 22.3281 86.1396 22.3281C86.0609 21.872 85.9587 21.4278 85.8329 20.9953C87.0674 21.0424 88.3531 21.066 89.6899 21.066C91.6793 21.1683 92.678 20.2129 92.6858 18.1998C92.8274 15.66 92.9571 11.3194 93.0751 5.17805H86.0688C85.424 6.71927 84.7635 8.04818 84.0872 9.16479ZM74.7219 12.7151V19.2614H80.7374V12.7151H74.7219ZM74.7219 5.17805V11.571H80.7374V5.17805H74.7219ZM85.1016 10.2263L86.0688 9.54223C87.1618 10.8869 88.4357 12.5382 89.8904 14.4962L88.8288 15.2982C87.5314 13.4346 86.289 11.744 85.1016 10.2263ZM105.885 19.8865V17.2798H105.837C105.421 18.1684 104.815 18.88 104.021 19.4147C103.227 19.9416 102.346 20.205 101.379 20.205C100.136 20.205 99.1535 19.859 98.43 19.167C97.7066 18.4672 97.3449 17.5865 97.3449 16.5249C97.3449 14.2445 98.8547 12.8684 101.874 12.3966L105.885 11.7951C105.885 8.99572 104.831 7.59604 102.723 7.59604C101.292 7.59604 99.8966 8.174 98.5362 9.32992V7.91451C99.0159 7.5292 99.6685 7.20287 100.494 6.93551C101.328 6.6603 102.11 6.52269 102.841 6.52269C104.186 6.52269 105.224 6.93945 105.955 7.77297C106.687 8.60649 107.052 9.81745 107.052 11.4059V19.8865H105.885ZM102.299 13.3874C100.931 13.584 99.9673 13.9025 99.409 14.3428C98.8586 14.7753 98.5834 15.487 98.5834 16.4777C98.5834 17.2484 98.8389 17.8853 99.3501 18.3885C99.869 18.8839 100.589 19.1316 101.509 19.1316C102.759 19.1316 103.801 18.6677 104.634 17.7398C105.468 16.8119 105.885 15.6128 105.885 14.1423V12.8684L102.299 13.3874ZM112.219 17.5629H112.16V25.8902H110.992V6.84115H112.16V9.53043H112.219C112.682 8.5711 113.351 7.83194 114.224 7.31296C115.097 6.78611 116.052 6.52269 117.09 6.52269C118.749 6.52269 120.043 7.09671 120.97 8.24477C121.906 9.38496 122.374 10.9341 122.374 12.892C122.374 15.0781 121.839 16.8434 120.77 18.188C119.701 19.5327 118.293 20.205 116.547 20.205C114.597 20.205 113.154 19.3243 112.219 17.5629ZM112.16 12.7151V14.3546C112.16 15.6678 112.572 16.7923 113.398 17.728C114.224 18.6638 115.309 19.1316 116.653 19.1316C117.982 19.1316 119.064 18.5615 119.897 17.4214C120.731 16.2812 121.147 14.7793 121.147 12.9156C121.147 11.2879 120.762 9.99438 119.991 9.03504C119.229 8.07571 118.21 7.59604 116.937 7.59604C115.419 7.59604 114.243 8.10716 113.41 9.1294C112.576 10.1438 112.16 11.339 112.16 12.7151ZM126.844 17.5629H126.785V25.8902H125.618V6.84115H126.785V9.53043H126.844C127.308 8.5711 127.977 7.83194 128.85 7.31296C129.722 6.78611 130.678 6.52269 131.716 6.52269C133.375 6.52269 134.669 7.09671 135.596 8.24477C136.532 9.38496 137 10.9341 137 12.892C137 15.0781 136.465 16.8434 135.396 18.188C134.326 19.5327 132.919 20.205 131.173 20.205C129.223 20.205 127.78 19.3243 126.844 17.5629ZM126.785 12.7151V14.3546C126.785 15.6678 127.198 16.7923 128.024 17.728C128.85 18.6638 129.935 19.1316 131.279 19.1316C132.608 19.1316 133.69 18.5615 134.523 17.4214C135.357 16.2812 135.773 14.7793 135.773 12.9156C135.773 11.2879 135.388 9.99438 134.617 9.03504C133.855 8.07571 132.836 7.59604 131.562 7.59604C130.045 7.59604 128.869 8.10716 128.036 9.1294C127.202 10.1438 126.785 11.339 126.785 12.7151Z" fill="black"/>
</svg>
