<svg width="300" height="23" viewBox="0 0 300 23" fill="none" xmlns="http://www.w3.org/2000/svg">
<path d="M0.363381 21.2167L0.175829 20.068C0.371195 20.0524 0.672059 20.0211 1.07842 19.9742C1.69578 19.9039 2.16856 19.8531 2.49678 19.8218V10.5849H0V9.52995H22.6703V10.5849H10.5966V18.931C10.8076 18.8997 11.1241 18.8606 11.5461 18.8137C12.0384 18.7512 12.4018 18.7043 12.6363 18.6731C12.6363 19.1185 12.6441 19.478 12.6597 19.7515C11.8704 19.8296 11.1827 19.9039 10.5966 19.9742V22.6351H9.36584V20.1149C7.37311 20.3259 4.37229 20.6932 0.363381 21.2167ZM3.48142 1.07842H19.3061V7.72477H3.48142V1.07842ZM12.1088 13.4099V12.4487H20.9589V13.492C20.1696 15.6879 19.1146 17.4618 17.7939 18.8137C18.9974 19.7749 20.5642 20.5838 22.4944 21.2402C22.2053 21.6856 21.9904 22.0451 21.8497 22.3186C19.8492 21.5137 18.2159 20.6111 16.9499 19.6108C15.7309 20.6658 14.1484 21.6583 12.2026 22.5882C11.9837 22.2444 11.7415 21.9083 11.4758 21.5801C13.4138 20.7205 14.9611 19.814 16.1177 18.8606C14.7423 17.4852 13.7342 15.6683 13.0934 13.4099H12.1088ZM4.73567 2.08651V3.90341H18.0518V2.08651H4.73567ZM4.73567 4.88806V6.71668H18.0518V4.88806H4.73567ZM19.7867 13.4099H14.2422C14.8205 15.2932 15.723 16.8484 16.9499 18.0753C18.0831 16.8952 19.0286 15.3401 19.7867 13.4099ZM3.72758 19.7281C5.64217 19.5092 7.52159 19.2943 9.36584 19.0833V17.0203H3.72758V19.7281ZM3.72758 10.5849V12.7887H9.36584V10.5849H3.72758ZM3.72758 13.7967V16.0122H9.36584V13.7967H3.72758ZM34.6032 3.30559V8.13504H46.1962V9.30723H41.7536V18.9544H40.4759V9.30723H34.6032C34.7048 13.1677 33.7123 16.3443 31.6258 18.8372C31.3601 18.5949 30.9811 18.3058 30.4888 17.9698C31.6844 16.4693 32.4503 15.094 32.7863 13.8436C33.1614 12.6089 33.3411 10.6904 33.3255 8.08815V2.15684C37.4829 2.03962 41.3004 1.73485 44.7779 1.24253L45.2116 2.46161C41.5778 2.86016 38.0417 3.14148 34.6032 3.30559ZM35.0252 20.5017C35.9942 20.5095 37.0609 20.5134 38.2253 20.5134C39.3584 20.5134 40.4525 20.5095 41.5074 20.5017C43.5783 20.4861 45.278 20.4587 46.6065 20.4196C46.3721 20.8338 46.1923 21.2832 46.0673 21.7677C41.4957 21.7599 37.7447 21.7364 34.8142 21.6973C31.8915 21.7364 29.5628 20.6971 27.8279 18.5793C26.7964 19.7984 25.8117 21.0839 24.874 22.4358L23.819 21.5098C24.874 20.1891 26.0032 18.8763 27.2067 17.5712V9.4479H24.1589V8.22881H28.4726V17.4657C30.059 19.5444 32.2432 20.5564 35.0252 20.5017ZM28.5664 5.20455C27.488 3.64162 26.4799 2.25062 25.5421 1.03153L26.6088 0.351659C27.6873 1.69578 28.7344 3.06334 29.7503 4.45434L28.5664 5.20455ZM47.9662 9.95194H70.7303V11.3469H47.9662V9.95194ZM85.1131 9.4479C85.1756 8.85398 85.2069 8.04126 85.2069 7.00973H86.5666C86.551 7.68179 86.5119 8.4867 86.4494 9.42445C87.4575 14.8634 90.1692 18.7629 94.5845 21.123C94.2328 21.5059 93.8968 21.9122 93.5764 22.342C89.208 19.5131 86.6565 15.8989 85.9219 11.4992C85.328 15.9145 82.5108 19.6499 77.4704 22.7054C77.2829 22.4241 76.9546 22.0256 76.4858 21.5098C81.8153 18.6262 84.6911 14.6056 85.1131 9.4479ZM91.4664 10.456C91.021 10.2762 90.6068 10.1356 90.2239 10.034L92.2635 5.4976H82.6163C81.9834 6.8886 81.1511 8.43199 80.1196 10.1278C79.7835 9.88552 79.3811 9.64326 78.9122 9.40101C80.8268 6.59555 82.2295 3.5244 83.1204 0.187551L84.4332 0.527488C84.0347 1.80909 83.5971 3.04771 83.1204 4.24335H93.5529V5.59137L91.4664 10.456ZM72.0431 19.2475C73.7077 16.5436 75.3253 13.4959 76.896 10.1043C77.3415 10.4325 77.74 10.7021 78.0917 10.9131C76.7163 13.4842 75.126 16.5436 73.3208 20.0914L72.0431 19.2475ZM76.7554 7.49033C75.3644 5.59137 74.0281 3.86043 72.7465 2.2975L73.7545 1.55902C75.0674 3.12195 76.435 4.81772 77.8572 6.64635L76.7554 7.49033ZM97.3274 1.79346H117.829V3.07115H113.023V10.4325H118.837V11.7337H113.023V22.5413H111.687V11.7337H103.739C103.755 12.0228 103.763 12.3198 103.763 12.6245C103.763 17.2821 101.715 20.6424 97.6204 22.7054C97.3235 22.2913 97.0031 21.8927 96.6592 21.5098C98.9724 20.2204 100.488 18.9271 101.207 17.6298C102.004 16.3482 102.407 14.3828 102.415 11.7337H96.2959V10.4325H102.415V3.07115H97.3274V1.79346ZM103.763 3.07115V10.4325H111.687V3.07115H103.763ZM130.36 12.5777H140.992V22.6585H139.749V21.0526H131.602V22.6585H130.36V12.5777ZM129.082 19.0365L128.156 20.0445C127.078 19.0443 126.148 18.1964 125.366 17.5009C124.397 18.9857 122.877 20.5916 120.806 22.3186C120.619 22.0763 120.314 21.7403 119.892 21.3105C121.932 19.6694 123.436 18.1104 124.405 16.6335C123.835 16.1255 122.94 15.3519 121.721 14.3125C121.369 14.0077 121.103 13.7811 120.924 13.6326C121.494 11.5227 122.022 9.08061 122.506 6.30641H119.986V5.13422H122.705C122.987 3.29778 123.225 1.63326 123.42 0.140663L124.745 0.281327C124.44 2.26624 124.175 3.88387 123.948 5.13422H128.391V6.3533C128.015 10.9639 127.23 14.3086 126.034 16.3873C126.792 17.0203 127.808 17.9033 129.082 19.0365ZM131.602 13.703V19.9156H139.749V13.703H131.602ZM131.18 8.18192C131.806 8.15848 132.81 8.1155 134.193 8.05298C135.975 7.97484 137.85 7.90451 139.819 7.84199C139.085 6.60728 138.323 5.37647 137.534 4.14957L138.565 3.50486C139.902 5.44289 141.265 7.64271 142.656 10.1043L141.472 10.7725C141.121 10.116 140.792 9.52604 140.488 9.00246C138.159 9.04935 135.279 9.15875 131.849 9.33068C131.778 9.33849 131.669 9.34631 131.52 9.35412C130.739 9.39319 130.184 9.45962 129.856 9.55339L129.164 8.2757C129.727 7.90841 130.254 7.37311 130.747 6.66979C132.2 4.63017 133.497 2.41472 134.638 0.0234439L135.951 0.504044C134.31 3.37983 132.72 5.93912 131.18 8.18192ZM127.148 6.30641H123.76C123.26 9.00246 122.756 11.3234 122.248 13.2693C122.381 13.3787 122.576 13.5389 122.834 13.7499C123.788 14.5235 124.518 15.1252 125.026 15.555C126.136 13.5467 126.843 10.4638 127.148 6.30641ZM144.086 14.1132L143.946 12.7183C145.212 12.4292 146.395 12.14 147.497 11.8509V6.02508H144.332V4.88806H147.497V0.281327H148.798V4.88806H151.659V6.02508H148.798V11.4992C149.713 11.257 150.737 10.9757 151.87 10.6553C151.87 10.9288 151.877 11.2296 151.893 11.5578C151.901 11.6985 151.909 11.8118 151.917 11.8978C151.659 11.9681 151.28 12.0697 150.78 12.2026C149.904 12.4292 149.244 12.6089 148.798 12.7418V19.7515C148.869 21.502 148.068 22.3733 146.395 22.3655C145.981 22.3811 145.348 22.3889 144.497 22.3889C144.418 21.8341 144.332 21.3808 144.239 21.0292C144.497 21.0526 144.774 21.0722 145.071 21.0878C145.212 21.0956 145.368 21.0995 145.54 21.0995C145.68 21.0995 145.888 21.0995 146.161 21.0995C147.107 21.162 147.552 20.7049 147.497 19.7281V13.1051C146.638 13.3396 145.501 13.6756 144.086 14.1132ZM152.69 5.25144H160.298C161.431 3.60255 162.525 1.87551 163.58 0.0703317L164.834 0.668151C163.724 2.35611 162.693 3.88387 161.74 5.25144H166.393V6.44708H152.69V5.25144ZM151.706 19.939H166.827V21.1464H151.706V19.939ZM153.476 12.2377H165.455V13.4334H153.476V12.2377ZM154.39 0.785371L155.421 0.164107C156.359 1.37538 157.273 2.62181 158.164 3.90341L156.98 4.60673C156.308 3.52831 155.445 2.25452 154.39 0.785371ZM175.642 8.43981L176.791 8.13504C176.97 8.6508 177.181 9.34631 177.424 10.2215C177.439 10.2841 177.451 10.3309 177.459 10.3622H181.21V11.3469H176.931V13.6561H180.87V14.6407H176.931V16.9382H180.94V17.9229H176.931V20.2087H181.491V21.1933H171.621V22.5413H170.449V12.9293C170.035 13.4842 169.453 14.1836 168.702 15.0275C168.507 14.7618 168.241 14.4649 167.905 14.1367C169.703 12.2534 171.113 10.2137 172.137 8.01782L173.239 8.41636C172.95 8.97902 172.582 9.62763 172.137 10.3622H176.263C176.224 10.2372 176.165 10.0457 176.087 9.78783C175.907 9.20173 175.759 8.75239 175.642 8.43981ZM182.194 20.1149C181.921 19.7788 181.624 19.4741 181.303 19.2006C182.491 18.2706 183.445 17.4227 184.164 16.6569C183.507 14.1406 183.089 10.9796 182.909 7.17384H168.222V6.11886H174.575V3.59864H169.605V2.56711H174.575V0.187551H175.782V2.56711H180.295V3.59864H175.782V6.11886H182.863C182.769 3.86043 182.714 1.83644 182.698 0.0468878H183.941C183.964 2.34439 184.011 4.36838 184.082 6.11886H190.47V7.17384H184.14C184.281 10.3622 184.617 13.1403 185.148 15.5081C186.266 14.125 187.329 12.2026 188.337 9.74094L189.485 10.2215C188.133 13.2302 186.797 15.4769 185.476 16.9617C186.18 19.603 187.028 20.9432 188.02 20.9823C188.505 20.9667 188.817 20.6189 188.958 19.939C189.185 18.8294 189.36 17.622 189.485 16.317C189.868 16.5045 190.255 16.6569 190.646 16.7741C190.458 18.4074 190.271 19.6421 190.083 20.4783C189.818 21.6583 189.173 22.2561 188.149 22.2717C186.594 22.3811 185.383 20.9667 184.515 18.0284C183.968 18.6145 183.195 19.31 182.194 20.1149ZM171.621 14.6407V16.9382H175.759V14.6407H171.621ZM171.621 11.3469V13.6561H175.759V11.3469H171.621ZM171.621 17.9229V20.2087H175.759V17.9229H171.621ZM185.43 1.91068L186.297 1.1722C187.61 2.41472 188.634 3.42281 189.368 4.19646L188.454 5.017C187.586 4.06361 186.578 3.02817 185.43 1.91068ZM203.376 8.58047C203.087 8.58047 202.845 8.47888 202.649 8.2757C202.462 8.07252 202.368 7.82636 202.368 7.53722C202.368 7.24808 202.462 7.00973 202.649 6.82218C202.845 6.63463 203.087 6.54085 203.376 6.54085C203.665 6.54085 203.911 6.63463 204.114 6.82218C204.318 7.00973 204.419 7.24808 204.419 7.53722C204.419 7.82636 204.318 8.07252 204.114 8.2757C203.911 8.47888 203.665 8.58047 203.376 8.58047ZM203.376 19.9508C203.087 19.9508 202.845 19.8531 202.649 19.6577C202.462 19.4624 202.368 19.2201 202.368 18.931C202.368 18.634 202.462 18.3917 202.649 18.2042C202.845 18.0166 203.087 17.9229 203.376 17.9229C203.665 17.9229 203.911 18.0166 204.114 18.2042C204.318 18.3917 204.419 18.634 204.419 18.931C204.419 19.2201 204.318 19.4624 204.114 19.6577C203.911 19.8531 203.665 19.9508 203.376 19.9508ZM216.61 19.7281V18.8841C216.61 18.3136 216.653 17.8056 216.739 17.3602C216.833 16.907 216.973 16.4928 217.161 16.1177C217.356 15.7348 217.595 15.3753 217.876 15.0393C218.157 14.7032 218.486 14.3711 218.861 14.0429C219.244 13.7069 219.673 13.363 220.15 13.0114C220.627 12.6597 221.146 12.2768 221.709 11.8626C222.256 11.4719 222.768 11.0812 223.245 10.6904C223.721 10.2997 224.136 9.88161 224.487 9.43617C224.847 8.99074 225.128 8.50232 225.331 7.97093C225.542 7.43172 225.648 6.81436 225.648 6.11886C225.648 4.92322 225.316 3.99328 224.651 3.32904C223.987 2.66479 223.057 2.33267 221.861 2.33267C221.049 2.33267 220.267 2.51241 219.517 2.87188C218.767 3.22354 218.032 3.71586 217.313 4.34885V2.97738C218.009 2.44598 218.755 2.0279 219.552 1.72313C220.357 1.41836 221.193 1.26597 222.061 1.26597C222.787 1.26597 223.444 1.37928 224.03 1.60591C224.624 1.82472 225.128 2.1373 225.542 2.54366C225.964 2.94221 226.288 3.43063 226.515 4.00891C226.742 4.57938 226.855 5.22018 226.855 5.93131C226.855 6.76748 226.734 7.50987 226.492 8.15848C226.257 8.79928 225.933 9.38538 225.519 9.91677C225.105 10.4404 224.62 10.9249 224.065 11.3703C223.518 11.8079 222.936 12.2494 222.319 12.6949C221.498 13.2732 220.803 13.7889 220.232 14.2422C219.669 14.6954 219.212 15.137 218.861 15.5668C218.509 15.9966 218.255 16.4381 218.099 16.8913C217.942 17.3446 217.864 17.8721 217.864 18.4738V18.6614H226.89V19.7281H216.61ZM234.662 5.4976L236.033 5.89614C234.478 10.2255 232.771 14.125 230.911 17.5947C230.497 17.3211 230.036 17.0711 229.528 16.8444C231.591 13.4138 233.302 9.63154 234.662 5.4976ZM245.27 6.09542L246.524 5.61482C248.337 9.06889 250.193 12.7105 252.092 16.5397L250.721 17.1844C248.955 13.4021 247.138 9.70578 245.27 6.09542ZM240.324 0.304771H241.695V19.3178C241.765 21.334 240.788 22.3342 238.765 22.3186C237.647 22.3499 236.584 22.3655 235.576 22.3655C235.514 21.9279 235.408 21.4316 235.26 20.8768C236.018 20.9081 236.545 20.9276 236.842 20.9354C237.233 20.9432 237.69 20.9471 238.214 20.9471C239.081 20.9549 239.648 20.8221 239.913 20.5486C240.195 20.3063 240.331 19.7749 240.324 18.9544V0.304771ZM254.32 2.25062H261.81V20.9002H260.567V18.8606H255.574V21.1933H254.32V2.25062ZM271.586 0H272.852V5.25144H276.099V6.44708H272.852V19.1302C272.875 21.162 271.844 22.1936 269.757 22.2248C268.632 22.2561 267.495 22.2717 266.346 22.2717C266.276 21.7794 266.174 21.3144 266.041 20.8768C267.026 20.9237 268.159 20.9471 269.441 20.9471C270.246 20.9549 270.801 20.7987 271.105 20.4783C271.434 20.1735 271.594 19.6265 271.586 18.8372V6.44708H263.158V5.25144H271.586V0ZM255.574 11.1124V17.7119H260.567V11.1124H255.574ZM255.574 3.39937V9.98711H260.567V3.39937H255.574ZM266.78 15.0041C265.85 13.0973 264.979 11.3976 264.166 9.90505L265.244 9.35412C266.252 11.1202 267.147 12.7926 267.929 14.3711L266.78 15.0041ZM280.413 22.682H279.17V7.53722H288.653V19.9156C288.731 21.4082 287.915 22.1545 286.203 22.1545C285.93 22.1623 285.578 22.1701 285.148 22.1779C284.758 22.1779 284.222 22.1779 283.542 22.1779C283.464 21.584 283.39 21.1738 283.32 20.9471C284.062 20.9784 284.976 20.9979 286.063 21.0057C286.578 21.0136 286.93 20.9198 287.118 20.7244C287.313 20.5447 287.407 20.2047 287.399 19.7046V16.8679H280.413V22.682ZM282.499 0.785371L283.437 0.0468878C284.164 0.74239 285.07 1.69187 286.156 2.89532L285.125 3.64553H291.103C292.267 2.39519 293.276 1.21908 294.127 0.11722L295.276 0.808815C294.338 1.88723 293.483 2.83281 292.709 3.64553H300V4.77084H277.564V3.64553H285.031C284.422 2.90314 283.578 1.94975 282.499 0.785371ZM297.081 6.78701H298.324V19.2709C298.41 21.1777 297.515 22.1311 295.639 22.1311C295.296 22.1467 294.897 22.1584 294.444 22.1662C294.03 22.174 293.49 22.1779 292.826 22.1779C292.764 21.7169 292.685 21.2675 292.592 20.8299C293.248 20.8768 294.104 20.9002 295.159 20.9002C295.901 20.9081 296.405 20.7752 296.671 20.5017C296.952 20.236 297.089 19.7398 297.081 19.013V6.78701ZM280.413 12.7418V15.766H287.399V12.7418H280.413ZM280.413 8.63908V11.6399H287.399V8.63908H280.413ZM292.064 7.91232H293.283V17.9698H292.064V7.91232Z" fill="#B3B3B3"/>
</svg>
