<svg width="565" height="53" viewBox="0 0 565 53" fill="none" xmlns="http://www.w3.org/2000/svg">
<path d="M14.9576 5.79078H16.3056V9.89357H21.7565V11.1478H16.3056V19.2127C16.3603 21.2602 15.36 22.2918 13.3047 22.3074C12.3201 22.3309 11.1752 22.3465 9.87012 22.3543C9.78416 21.8854 9.67084 21.4204 9.53018 20.9594C10.5227 21.0141 11.6519 21.0414 12.9179 21.0414C13.6838 21.0492 14.2152 20.8929 14.5121 20.5725C14.8169 20.2677 14.9654 19.7246 14.9576 18.9431V11.1478H0V9.89357H14.9576V5.79078ZM0.844001 3.0595H10.4211C10.1866 2.20769 9.9092 1.30117 9.58879 0.339945L10.8548 0C10.9173 0.187556 11.0072 0.464982 11.1244 0.832279C11.4292 1.76224 11.6597 2.50465 11.816 3.0595H20.8187V7.23262H19.4941V4.27862H2.16861V7.23262H0.844001V3.0595ZM3.22361 13.3282L4.18484 12.4607C5.70091 13.8518 7.25216 15.3405 8.83857 16.9269L7.78356 17.935C6.34564 16.3642 4.82565 14.8286 3.22361 13.3282ZM37.1009 0.703334L38.2262 0.152389C38.8045 0.965131 39.4531 1.94198 40.1721 3.08295L39.0116 3.68078H44.9899V13.6916H43.7239V12.5662H34.1234C34.0687 16.5205 33.0176 19.8653 30.9701 22.6005C30.767 22.4051 30.384 22.1238 29.8214 21.7565C31.1186 19.9591 31.9509 18.2711 32.3182 16.6925C32.7324 15.1451 32.9317 12.7264 32.916 9.4364V3.68078H38.9413C38.2614 2.50856 37.6479 1.51608 37.1009 0.703334ZM34.1938 4.87645V9.51845C34.1938 9.73727 34.1899 10.0616 34.182 10.4914C34.1742 10.8821 34.1703 11.1713 34.1703 11.3588H43.7239V4.87645H34.1938ZM23.6086 13.8791L23.3859 12.5193C23.761 12.4256 24.3901 12.2654 25.2731 12.0387C25.9921 11.8434 26.5391 11.6988 26.9143 11.605V5.72045H23.8196V4.57167H26.9143V0.128945H28.192V4.57167H31.1225V5.72045H28.192V11.2416C28.3639 11.1947 28.6218 11.1205 28.9656 11.0189C29.9816 10.7376 30.7552 10.5148 31.2866 10.3507C31.2866 10.5852 31.2906 10.7805 31.2984 10.9368C31.3062 11.1166 31.3179 11.3393 31.3335 11.605C30.9428 11.7066 30.3606 11.8707 29.5869 12.0973C28.9617 12.2693 28.4968 12.3982 28.192 12.4842V19.7637C28.2779 21.4829 27.4925 22.323 25.8358 22.284C25.4685 22.2996 24.8863 22.3074 24.0892 22.3074C24.0032 21.6744 23.9212 21.2251 23.843 20.9594C24.4448 20.9984 25.0309 21.018 25.6014 21.018C26.1093 21.0258 26.4532 20.932 26.6329 20.7366C26.8283 20.5491 26.9221 20.2013 26.9143 19.6934V12.871C25.7655 13.2149 24.6636 13.5509 23.6086 13.8791ZM49.7726 14.3832H66.9809V9.77634H49.0224V8.62756H58.154V0.128945H59.4903V8.62756H68.3289V22.7646H66.9809V21.3931H48.3542V20.2443H66.9809V15.5202H49.7726V14.3832ZM62.3271 6.22451C63.9995 4.70843 65.5038 3.12202 66.8402 1.46528L67.9186 2.26239C66.5901 3.85662 65.0545 5.47428 63.3118 7.1154L62.3271 6.22451ZM49.9133 2.12172L50.8745 1.3715C52.2499 2.73128 53.6996 4.27471 55.2234 6.00178L54.1216 6.86923C52.6836 5.11871 51.2809 3.53621 49.9133 2.12172ZM74.4714 22.7177H73.2288V7.57256H82.7121V19.9512C82.7902 21.4439 81.9736 22.1902 80.2621 22.1902C79.9886 22.198 79.637 22.2058 79.2071 22.2136C78.8164 22.2136 78.2811 22.2136 77.6012 22.2136C77.523 21.6197 77.4488 21.2094 77.3785 20.9828C78.1209 21.0141 79.0352 21.0336 80.1215 21.0414C80.6373 21.0492 80.9889 20.9554 81.1765 20.7601C81.3718 20.5803 81.4656 20.2404 81.4578 19.7402V16.9035H74.4714V22.7177ZM76.5579 0.820556L77.4957 0.0820556C78.2225 0.777575 79.129 1.72708 80.2153 2.93056L79.1837 3.68078H85.162C86.3264 2.43041 87.3346 1.25428 88.1864 0.152389L89.3352 0.844001C88.3974 1.92245 87.5417 2.86804 86.768 3.68078H94.0592V4.80612H71.6229V3.68078H79.0899C78.4804 2.93837 77.6364 1.98497 76.5579 0.820556ZM91.1404 6.82234H92.3829V19.3065C92.4689 21.2133 91.5741 22.1667 89.6985 22.1667C89.3547 22.1824 88.9561 22.1941 88.5029 22.2019C88.0887 22.2097 87.5495 22.2136 86.8852 22.2136C86.8227 21.7526 86.7445 21.3032 86.6508 20.8656C87.3072 20.9125 88.1629 20.9359 89.2179 20.9359C89.9603 20.9437 90.4644 20.8109 90.7301 20.5374C91.0114 20.2717 91.1482 19.7754 91.1404 19.0486V6.82234ZM74.4714 12.7772V15.8016H81.4578V12.7772H74.4714ZM74.4714 8.67445V11.6753H81.4578V8.67445H74.4714ZM86.1233 7.94768H87.3424V18.0054H86.1233V7.94768ZM96.1809 2.07484H117.785V3.34084H109.146C105.989 8.44392 101.737 12.7499 96.3919 16.2587C96.1419 15.9305 95.8293 15.5789 95.4542 15.2037C100.901 11.6324 104.926 7.67806 107.528 3.34084H96.1809V2.07484ZM106.039 7.90079H107.387V22.7177H106.039V7.90079ZM117.14 15.614C114.335 13.6525 111.693 11.8981 109.216 10.3507L110.025 9.36607C112.416 10.8509 115.073 12.5741 117.996 14.5356L117.14 15.614ZM128.534 0.0351667L129.835 0.293056C129.429 1.39495 129.011 2.4265 128.581 3.38773H142.109V4.59512H128.054C127.1 6.59571 125.998 8.42829 124.748 10.0928V22.577H123.447V11.6519C122.54 12.6756 121.517 13.6994 120.376 14.7231C120.172 14.4183 119.875 14.0745 119.485 13.6916C122.704 10.8626 125.084 7.83045 126.624 4.59512H120.516V3.38773H127.198C127.55 2.60624 127.995 1.48872 128.534 0.0351667ZM133.247 6.43551H134.536V11.1244H140.761V12.2966H134.536V19.623H142.109V20.7952H125.85V19.623H133.247V12.2966H127.069V11.1244H133.247V6.43551ZM144.406 2.28584H151.897V20.9359H150.654V18.8962H145.66V21.229H144.406V2.28584ZM161.673 0.0351667H162.939V5.28673H166.186V6.4824H162.939V19.1659C162.963 21.1977 161.931 22.2293 159.844 22.2605C158.719 22.2918 157.582 22.3074 156.433 22.3074C156.363 21.8151 156.261 21.3501 156.128 20.9125C157.113 20.9594 158.246 20.9828 159.528 20.9828C160.333 20.9906 160.888 20.8343 161.192 20.5139C161.521 20.2091 161.681 19.6621 161.673 18.8728V6.4824H153.245V5.28673H161.673V0.0351667ZM145.66 11.1478V17.7475H150.654V11.1478H145.66ZM145.66 3.43461V10.0225H150.654V3.43461H145.66ZM156.867 15.0396C155.937 13.1328 155.066 11.4331 154.253 9.94046L155.331 9.38951C156.339 11.1557 157.234 12.828 158.016 14.4066L156.867 15.0396ZM174.099 6.29484H183.488V17.724H174.099V6.29484ZM176.068 2.71956V1.52389H189.138V19.1659C189.146 21.3462 188.103 22.4598 186.008 22.5067C185.555 22.5145 185.086 22.5223 184.602 22.5301C184.367 22.5301 184.109 22.5301 183.828 22.5301C183.586 22.5301 183.226 22.5301 182.75 22.5301C182.711 22.1316 182.621 21.6744 182.48 21.1586C183.473 21.2055 184.547 21.229 185.704 21.229C187.181 21.268 187.9 20.5413 187.861 19.0486V2.71956H176.068ZM175.353 12.5897V16.5518H182.246V12.5897H175.353ZM175.353 7.46706V11.4292H182.246V7.46706H175.353ZM168.66 4.64201H169.926V22.6005H168.66V4.64201ZM169.949 0.937779L170.957 0.1055C171.95 1.02765 172.989 2.04358 174.075 3.15328L172.95 4.13795C171.864 2.91884 170.863 1.85211 169.949 0.937779ZM201.669 12.156V10.972H212.208V12.2028C211.02 14.8521 209.609 16.8996 207.976 18.3453C209.297 19.4081 211.364 20.3459 214.177 21.1586C213.896 21.5337 213.638 21.9401 213.403 22.3777C210.613 21.4009 208.476 20.3303 206.991 19.1659C205.241 20.4787 202.896 21.6783 199.958 22.7646C199.872 22.6161 199.602 22.2332 199.149 21.6158C202.228 20.5374 204.522 19.4237 206.03 18.275C204.592 16.837 203.475 14.7974 202.677 12.156H201.669ZM191.659 18.568L191.436 17.3137C191.655 17.2981 192.026 17.2669 192.549 17.22C193.018 17.1809 193.378 17.1496 193.628 17.1262V1.80522C196.48 1.62548 198.958 1.30508 201.06 0.844001L201.564 2.02795C198.961 2.44995 196.73 2.72737 194.87 2.86023V6.51756H200.778V7.6429H194.87V11.5347H200.685V12.66H194.87V16.9738C197.848 16.669 200.122 16.415 201.693 16.2119C201.685 16.3369 201.681 16.5244 201.681 16.7745C201.681 17.0402 201.685 17.2434 201.693 17.3841C199.645 17.5951 197.371 17.853 194.87 18.1577V22.6708H193.628V18.3219C193.479 18.3375 193.261 18.3648 192.971 18.4039C192.331 18.4742 191.893 18.5289 191.659 18.568ZM212.559 8.02973C212.989 8.02973 213.306 8.02582 213.509 8.01801C213.751 8.01801 213.966 8.01019 214.154 7.99456C214.052 8.39312 213.985 8.79558 213.954 9.20195C213.735 9.20977 213.489 9.21758 213.216 9.2254C213.083 9.2254 212.934 9.2254 212.77 9.2254C212.622 9.2254 212.399 9.2254 212.102 9.2254C210.594 9.2801 209.859 8.41656 209.898 6.63478V2.57889H205.045V3.34084C205.061 5.25547 204.83 6.65041 204.354 7.52567C203.916 8.44001 202.97 9.35044 201.517 10.257C201.329 10.0069 201.036 9.7021 200.638 9.34262C201.99 8.56114 202.845 7.79529 203.205 7.04506C203.619 6.3261 203.818 5.09917 203.803 3.36428V1.41839H211.153V6.43551C211.145 7.05288 211.246 7.47097 211.457 7.68979C211.645 7.92423 212.012 8.03755 212.559 8.02973ZM210.86 12.156H203.943C204.795 14.5082 205.819 16.2822 207.015 17.4779C208.492 16.2353 209.773 14.4613 210.86 12.156ZM226.298 0.175834H227.646C227.646 1.30898 227.642 2.13345 227.634 2.64923C227.634 3.25878 227.626 3.7941 227.611 4.25517H236.168V19.3534C236.191 21.1821 235.246 22.1199 233.331 22.1667C232.901 22.1824 232.421 22.1941 231.889 22.2019C231.631 22.2097 231.35 22.2136 231.045 22.2136C230.78 22.2136 230.412 22.2136 229.943 22.2136C229.896 21.7682 229.811 21.2798 229.685 20.7484C230.795 20.8109 231.905 20.8421 233.015 20.8421C234.296 20.8812 234.914 20.299 234.867 19.0955V5.49773H227.564C227.564 5.59932 227.56 5.7478 227.552 5.94317C227.544 6.12291 227.54 6.25577 227.54 6.34173C227.454 8.21729 227.193 9.69038 226.755 10.761L227.47 10.0928C229.471 11.7652 231.51 13.5822 233.589 15.5437L232.557 16.5518C230.315 14.3246 228.349 12.4725 226.661 10.9955C225.934 13.0039 223.949 14.981 220.706 16.9269C220.417 16.5049 220.12 16.1298 219.815 15.8016C224.098 13.6994 226.239 10.7454 226.239 6.93956C226.239 6.67386 226.235 6.47458 226.227 6.34173C226.227 6.24795 226.231 6.11119 226.239 5.93145C226.247 5.7439 226.251 5.59932 226.251 5.49773H218.831V22.4246H217.53V4.25517H226.274C226.282 3.77847 226.29 3.23924 226.298 2.6375C226.298 2.34835 226.298 2.01622 226.298 1.64111C226.298 1.32852 226.298 0.840094 226.298 0.175834ZM252.954 23.8899C250.399 20.9047 249.121 17.2278 249.121 12.8593C249.121 8.30325 250.418 4.55213 253.013 1.60595H254.244C251.602 4.64591 250.281 8.38921 250.281 12.8358C250.281 17.0324 251.587 20.7171 254.197 23.8899H252.954ZM264.102 19.7637V18.9197C264.102 18.3492 264.145 17.8412 264.231 17.3958C264.325 16.9425 264.465 16.5284 264.653 16.1532C264.848 15.7703 265.087 15.4108 265.368 15.0748C265.649 14.7388 265.978 14.4066 266.353 14.0784C266.736 13.7424 267.165 13.3985 267.642 13.0468C268.119 12.6952 268.638 12.3123 269.201 11.8981C269.748 11.5073 270.26 11.1166 270.737 10.7258C271.213 10.3351 271.628 9.91701 271.979 9.47157C272.339 9.02612 272.62 8.53769 272.823 8.00629C273.034 7.46706 273.14 6.84969 273.14 6.15417C273.14 4.95851 272.808 4.02854 272.143 3.36428C271.479 2.70002 270.549 2.36789 269.354 2.36789C268.541 2.36789 267.759 2.54763 267.009 2.90711C266.259 3.25878 265.524 3.75112 264.805 4.38412V3.01261C265.501 2.48121 266.247 2.06311 267.044 1.75834C267.849 1.45356 268.685 1.30117 269.553 1.30117C270.28 1.30117 270.936 1.41448 271.522 1.64111C272.116 1.85993 272.62 2.17252 273.034 2.57889C273.456 2.97745 273.781 3.46587 274.007 4.04417C274.234 4.61465 274.347 5.25547 274.347 5.96662C274.347 6.8028 274.226 7.54521 273.984 8.19384C273.749 8.83466 273.425 9.42077 273.011 9.95218C272.597 10.4758 272.112 10.9603 271.557 11.4057C271.01 11.8434 270.428 12.2849 269.811 12.7303C268.99 13.3086 268.295 13.8244 267.724 14.2777C267.161 14.7309 266.704 15.1725 266.353 15.6023C266.001 16.0321 265.747 16.4736 265.591 16.9269C265.434 17.3802 265.356 17.9077 265.356 18.5094V18.697H274.382V19.7637H264.102ZM282.904 1.20739V19.7637H281.744V3.03606C281.158 3.59873 280.49 4.08325 279.739 4.48962C278.997 4.88817 278.184 5.24375 277.301 5.55634V4.50134C277.833 4.3216 278.325 4.12232 278.778 3.9035C279.231 3.67687 279.665 3.4268 280.079 3.15328C280.501 2.87976 280.908 2.5828 281.298 2.26239C281.697 1.93417 282.099 1.5825 282.506 1.20739H282.904ZM288.355 8.61584C288.066 8.61584 287.824 8.51425 287.628 8.31106C287.441 8.10788 287.347 7.86171 287.347 7.57256C287.347 7.28342 287.441 7.04506 287.628 6.85751C287.824 6.66995 288.066 6.57617 288.355 6.57617C288.644 6.57617 288.891 6.66995 289.094 6.85751C289.297 7.04506 289.399 7.28342 289.399 7.57256C289.399 7.86171 289.297 8.10788 289.094 8.31106C288.891 8.51425 288.644 8.61584 288.355 8.61584ZM288.355 19.9864C288.066 19.9864 287.824 19.8887 287.628 19.6934C287.441 19.498 287.347 19.2557 287.347 18.9666C287.347 18.6696 287.441 18.4274 287.628 18.2398C287.824 18.0522 288.066 17.9585 288.355 17.9585C288.644 17.9585 288.891 18.0522 289.094 18.2398C289.297 18.4274 289.399 18.6696 289.399 18.9666C289.399 19.2557 289.297 19.498 289.094 19.6934C288.891 19.8887 288.644 19.9864 288.355 19.9864ZM292.704 19.119V17.7944C294.087 18.6071 295.393 19.0135 296.619 19.0135C298.081 19.0135 299.222 18.6423 300.042 17.8999C300.871 17.1496 301.285 16.1728 301.285 14.9693C301.285 13.6251 300.808 12.6092 299.855 11.9215C298.909 11.226 297.561 10.8782 295.811 10.8782H294.416V9.81151H295.658C297.276 9.81151 298.507 9.46766 299.351 8.77995C300.203 8.09225 300.628 7.1193 300.628 5.86112C300.628 4.77486 300.32 3.92304 299.702 3.30567C299.093 2.68048 298.194 2.36789 297.006 2.36789C295.873 2.36789 294.681 2.76645 293.431 3.56356V2.321C294.799 1.64111 296.053 1.30117 297.194 1.30117C298.624 1.30117 299.757 1.69191 300.593 2.47339C301.437 3.24706 301.859 4.27471 301.859 5.55634C301.859 8.01801 300.683 9.58097 298.331 10.2452V10.2921C299.597 10.4172 300.609 10.89 301.367 11.7105C302.125 12.5233 302.504 13.5509 302.504 14.7935C302.504 16.3799 301.953 17.6576 300.851 18.6266C299.757 19.5957 298.339 20.0802 296.596 20.0802C295.244 20.0802 293.947 19.7598 292.704 19.119ZM311.143 20.0802C309.471 20.0802 308.162 19.3143 307.216 17.7826C306.279 16.2431 305.81 14.0081 305.81 11.0775C305.81 7.84218 306.302 5.40395 307.287 3.76284C308.279 2.12172 309.698 1.30117 311.542 1.30117C315.035 1.30117 316.782 4.40365 316.782 10.6086C316.782 13.6955 316.285 16.0477 315.293 17.6654C314.308 19.2753 312.925 20.0802 311.143 20.0802ZM311.436 2.36789C310.045 2.36789 308.959 3.08295 308.178 4.51306C307.404 5.93536 307.017 8.07271 307.017 10.9251C307.017 13.5275 307.388 15.5281 308.131 16.9269C308.873 18.3179 309.928 19.0135 311.296 19.0135C312.64 19.0135 313.683 18.3023 314.426 16.88C315.176 15.4577 315.551 13.4259 315.551 10.7845C315.551 5.17341 314.179 2.36789 311.436 2.36789ZM326.921 12.7421V11.5933H333.838V12.7421H326.921ZM349.03 20.0802C347.357 20.0802 346.048 19.3143 345.103 17.7826C344.165 16.2431 343.696 14.0081 343.696 11.0775C343.696 7.84218 344.188 5.40395 345.173 3.76284C346.165 2.12172 347.584 1.30117 349.428 1.30117C352.921 1.30117 354.668 4.40365 354.668 10.6086C354.668 13.6955 354.172 16.0477 353.179 17.6654C352.195 19.2753 350.811 20.0802 349.03 20.0802ZM349.323 2.36789C347.932 2.36789 346.845 3.08295 346.064 4.51306C345.29 5.93536 344.903 8.07271 344.903 10.9251C344.903 13.5275 345.275 15.5281 346.017 16.9269C346.759 18.3179 347.814 19.0135 349.182 19.0135C350.526 19.0135 351.569 18.3023 352.312 16.88C353.062 15.4577 353.437 13.4259 353.437 10.7845C353.437 5.17341 352.066 2.36789 349.323 2.36789ZM362.522 1.20739V19.7637H361.361V3.03606C360.775 3.59873 360.107 4.08325 359.357 4.48962C358.614 4.88817 357.802 5.24375 356.919 5.55634V4.50134C357.45 4.3216 357.942 4.12232 358.396 3.9035C358.849 3.67687 359.283 3.4268 359.697 3.15328C360.119 2.87976 360.525 2.5828 360.916 2.26239C361.314 1.93417 361.717 1.5825 362.123 1.20739H362.522ZM367.973 8.61584C367.684 8.61584 367.441 8.51425 367.246 8.31106C367.058 8.10788 366.965 7.86171 366.965 7.57256C366.965 7.28342 367.058 7.04506 367.246 6.85751C367.441 6.66995 367.684 6.57617 367.973 6.57617C368.262 6.57617 368.508 6.66995 368.711 6.85751C368.914 7.04506 369.016 7.28342 369.016 7.57256C369.016 7.86171 368.914 8.10788 368.711 8.31106C368.508 8.51425 368.262 8.61584 367.973 8.61584ZM367.973 19.9864C367.684 19.9864 367.441 19.8887 367.246 19.6934C367.058 19.498 366.965 19.2557 366.965 18.9666C366.965 18.6696 367.058 18.4274 367.246 18.2398C367.441 18.0522 367.684 17.9585 367.973 17.9585C368.262 17.9585 368.508 18.0522 368.711 18.2398C368.914 18.4274 369.016 18.6696 369.016 18.9666C369.016 19.2557 368.914 19.498 368.711 19.6934C368.508 19.8887 368.262 19.9864 367.973 19.9864ZM372.322 19.119V17.7944C373.705 18.6071 375.01 19.0135 376.237 19.0135C377.698 19.0135 378.839 18.6423 379.66 17.8999C380.488 17.1496 380.902 16.1728 380.902 14.9693C380.902 13.6251 380.426 12.6092 379.472 11.9215C378.527 11.226 377.179 10.8782 375.428 10.8782H374.033V9.81151H375.276C376.893 9.81151 378.124 9.46766 378.968 8.77995C379.82 8.09225 380.246 7.1193 380.246 5.86112C380.246 4.77486 379.937 3.92304 379.32 3.30567C378.71 2.68048 377.812 2.36789 376.624 2.36789C375.491 2.36789 374.299 2.76645 373.048 3.56356V2.321C374.416 1.64111 375.67 1.30117 376.811 1.30117C378.241 1.30117 379.375 1.69191 380.211 2.47339C381.055 3.24706 381.477 4.27471 381.477 5.55634C381.477 8.01801 380.301 9.58097 377.948 10.2452V10.2921C379.214 10.4172 380.226 10.89 380.984 11.7105C381.742 12.5233 382.121 13.5509 382.121 14.7935C382.121 16.3799 381.57 17.6576 380.469 18.6266C379.375 19.5957 377.956 20.0802 376.213 20.0802C374.861 20.0802 373.564 19.7598 372.322 19.119ZM390.761 20.0802C389.088 20.0802 387.779 19.3143 386.834 17.7826C385.896 16.2431 385.427 14.0081 385.427 11.0775C385.427 7.84218 385.919 5.40395 386.904 3.76284C387.897 2.12172 389.315 1.30117 391.159 1.30117C394.652 1.30117 396.399 4.40365 396.399 10.6086C396.399 13.6955 395.903 16.0477 394.91 17.6654C393.926 19.2753 392.542 20.0802 390.761 20.0802ZM391.054 2.36789C389.663 2.36789 388.576 3.08295 387.795 4.51306C387.021 5.93536 386.634 8.07271 386.634 10.9251C386.634 13.5275 387.006 15.5281 387.748 16.9269C388.49 18.3179 389.545 19.0135 390.913 19.0135C392.257 19.0135 393.301 18.3023 394.043 16.88C394.793 15.4577 395.168 13.4259 395.168 10.7845C395.168 5.17341 393.797 2.36789 391.054 2.36789ZM407.523 23.8899H406.281C408.891 20.7171 410.196 17.0324 410.196 12.8358C410.196 8.38921 408.875 4.64591 406.234 1.60595H407.477C410.063 4.56776 411.357 8.31888 411.357 12.8593C411.357 17.2434 410.079 20.9203 407.523 23.8899ZM432.304 22.9052H431.32L433.219 16.8917H434.508L432.304 22.9052ZM446.805 12.9413C446.602 12.3787 446.41 11.8824 446.23 11.4526C448.645 8.14695 450.501 4.35676 451.798 0.0820556L453.146 0.515778C452.537 2.28974 451.81 4.07934 450.966 5.88456V22.6708H449.688V8.40484C448.719 10.1944 447.758 11.7066 446.805 12.9413ZM465.678 8.88545L467.283 5.05228H456.968C456.194 6.56054 455.354 8.02973 454.448 9.45984C454.041 9.13944 453.67 8.88545 453.334 8.6979C455.085 6.11119 456.55 3.28613 457.73 0.222722L459.031 0.609556C458.554 1.71145 458.066 2.78989 457.566 3.84489H468.585V5.14606L466.955 9.27229C466.486 9.10036 466.06 8.97142 465.678 8.88545ZM460.543 7.3264H461.833V19.3534C461.895 21.354 460.93 22.3465 458.937 22.3309C458.312 22.3465 457.472 22.3543 456.417 22.3543C456.331 21.8698 456.233 21.4243 456.124 21.018C456.866 21.0649 457.714 21.0883 458.668 21.0883C459.965 21.1274 460.59 20.5256 460.543 19.2831V7.3264ZM453.264 18.2984C454.694 15.6648 455.846 13.1133 456.722 10.6438L457.929 11.0775C456.952 13.633 455.807 16.2392 454.494 18.8962C454.01 18.6227 453.6 18.4234 453.264 18.2984ZM467.741 18.6852C466.592 15.9813 465.416 13.4532 464.212 11.101L465.338 10.5969C466.588 13.0586 467.799 15.5554 468.971 18.0874L467.741 18.6852ZM472.934 7.16229H482.675V16.3994H474.2V18.275H472.934V7.16229ZM470.355 1.96934H492.955V3.20017H489.016V19.2596C489.087 21.2055 488.071 22.1824 485.969 22.1902C485.57 22.2058 485.101 22.2175 484.562 22.2254C484.296 22.2332 483.995 22.2371 483.659 22.2371C483.378 22.2371 482.937 22.2371 482.335 22.2371C482.288 21.7604 482.218 21.3032 482.124 20.8656C482.585 20.889 483.093 20.9086 483.648 20.9242C483.913 20.9242 484.199 20.9281 484.503 20.9359C484.777 20.9359 485.136 20.9359 485.582 20.9359C486.41 20.9437 486.969 20.7992 487.258 20.5022C487.571 20.213 487.723 19.6699 487.715 18.8728V3.20017H470.355V1.96934ZM474.2 8.35795V15.2037H481.409V8.35795H474.2ZM515.907 21.944C514.274 19.9903 512.602 18.0405 510.89 16.0946C509.515 18.486 506.858 20.7093 502.919 22.7646C502.606 22.3035 502.302 21.8893 502.005 21.522C508.679 18.7712 511.976 13.8088 511.898 6.63478C512.008 4.94678 512.062 2.94619 512.062 0.633001H513.387C513.387 2.29756 513.328 4.29034 513.211 6.61134C513.039 10.0811 512.473 12.8398 511.511 14.8872C513.489 16.9425 515.345 18.9509 517.08 20.9125L515.907 21.944ZM497.468 18.1109C499.672 16.7354 501.895 15.3171 504.138 13.8557C504.208 14.4105 504.322 14.9224 504.478 15.3913C502.642 16.4776 500.336 17.9194 497.562 19.7168C497.171 19.9512 496.761 20.2717 496.331 20.678L495.323 19.4941C495.643 19.1346 495.858 18.8064 495.968 18.5094C496.085 18.2124 496.144 17.8295 496.144 17.3606V0.961223H497.468V18.1109ZM505.24 6.38862C504.193 4.30206 503.161 2.4226 502.145 0.750223L503.271 0.175834C504.271 1.76224 505.353 3.60263 506.518 5.69701L505.24 6.38862ZM527.043 2.532V11.5581C527.059 14.4183 526.86 16.5635 526.446 17.9936C526.07 19.4394 525.262 20.9594 524.019 22.5536C523.761 22.2801 523.41 21.9909 522.964 21.6861C524.16 20.2013 524.922 18.8181 525.25 17.5365C525.641 16.247 525.828 14.2699 525.813 11.605V1.41839H539.879V19.7637C539.926 21.4595 539.121 22.3152 537.464 22.3309C536.519 22.3621 535.495 22.3777 534.393 22.3777C534.292 21.9323 534.171 21.4947 534.03 21.0649C535.155 21.1117 536.148 21.1352 537.007 21.1352C538.156 21.1743 538.707 20.6624 538.66 19.5996V2.532H527.043ZM529.224 12.871H536.21V18.5211H529.224V12.871ZM532.248 3.4815H533.455V5.7439H536.785V6.82234H533.455V9.38951H537.488V10.468H528.145V9.38951H532.248V6.82234H528.86V5.7439H532.248V3.4815ZM522.026 17.3606C522.315 17.009 522.777 16.4189 523.41 15.5906C523.675 15.2389 523.871 14.981 523.996 14.8169C524.238 15.3639 524.437 15.7469 524.593 15.9657C523.632 17.0832 522.761 18.1577 521.979 19.1893C521.636 19.6191 521.37 20.002 521.182 20.3381L520.198 19.6699C520.62 19.0838 520.819 18.4274 520.795 17.7006V8.42829H518.322V7.25606H522.026V17.3606ZM530.431 13.9495V17.431H535.015V13.9495H530.431ZM522.718 4.80612C521.749 3.54011 520.702 2.3171 519.576 1.13706L520.514 0.386834C521.522 1.41839 522.608 2.60234 523.773 3.93867L522.718 4.80612ZM543.748 4.48962H548.073V2.76645H542.833V1.80522H548.073V0.0820556H549.175V1.80522H554.216V2.76645H549.175V4.48962H553.5V8.72134H549.175V10.1397L549.609 9.45984C551.305 10.1788 552.656 10.7884 553.665 11.2885L553.09 12.2732C551.582 11.4995 550.277 10.8665 549.175 10.3742V12.9179H548.073V9.63568C546.729 11.1283 544.99 12.2966 542.857 13.1406C542.7 12.8124 542.478 12.4764 542.189 12.1325C544.517 11.2963 546.412 10.1593 547.874 8.72134H543.748V4.48962ZM543.337 13.9495H563.945V15.0045H554.438V17.3841H562.234V18.4391H554.438V20.8187H565V21.8737H542.376V20.8187H546.631V16.5987H547.803V20.8187H553.254V15.0045H543.337V13.9495ZM554.837 12.871C554.587 12.4099 554.348 12.0505 554.122 11.7926C556.068 11.1361 557.595 10.3664 558.705 9.48329C557.713 8.46736 556.919 7.02943 556.326 5.16951C555.99 5.75562 555.485 6.52928 554.813 7.49051C554.462 7.19354 554.126 6.95519 553.805 6.77545C555.493 4.64982 556.705 2.39134 557.439 0L558.588 0.3165C558.338 1.06672 558.01 1.88337 557.603 2.76645H564.66V3.77456H563.417C562.628 6.38471 561.651 8.29934 560.487 9.51845C561.511 10.2921 562.999 10.972 564.953 11.5581C564.633 11.9958 564.406 12.3865 564.273 12.7303C562.249 11.9879 560.698 11.1791 559.619 10.3038C558.541 11.226 556.947 12.0817 554.837 12.871ZM559.596 8.72134C560.69 7.60382 561.546 5.9549 562.163 3.77456H557.099C557.099 3.81363 557.084 3.84489 557.052 3.86834C557.701 6.04086 558.549 7.65853 559.596 8.72134ZM544.849 5.42739V7.78356H548.073V5.42739H544.849ZM552.399 7.78356V5.42739H549.175V7.78356H552.399ZM0.363389 32.2948H7.8539V50.9448H6.61134V48.9052H1.61767V51.2379H0.363389V32.2948ZM17.6302 30.0441H18.8962V35.2956H22.1433V36.4913H18.8962V49.1748C18.9197 51.2066 17.8881 52.2382 15.8016 52.2694C14.6762 52.3007 13.5392 52.3163 12.3904 52.3163C12.3201 51.824 12.2185 51.359 12.0856 50.9214C13.0703 50.9683 14.2034 50.9917 15.4851 50.9917C16.29 50.9995 16.8449 50.8432 17.1496 50.5228C17.4779 50.2181 17.6381 49.671 17.6302 48.8817V36.4913H9.20195V35.2956H17.6302V30.0441ZM1.61767 41.1568V47.7564H6.61134V41.1568H1.61767ZM1.61767 33.4435V40.0314H6.61134V33.4435H1.61767ZM12.8241 45.0485C11.8942 43.1417 11.0228 41.442 10.2101 39.9494L11.2885 39.3984C12.2966 41.1646 13.1914 42.837 13.9729 44.4155L12.8241 45.0485ZM33.6194 42.1649V40.9809H44.1577V42.2118C42.9698 44.861 41.5592 46.9085 39.9259 48.3542C41.2466 49.417 43.3137 50.3548 46.127 51.1676C45.8457 51.5427 45.5878 51.949 45.3533 52.3867C42.5634 51.4098 40.4261 50.3392 38.9413 49.1748C37.1907 50.4877 34.8463 51.6872 31.9079 52.7735C31.822 52.625 31.5523 52.2421 31.0991 51.6247C34.1781 50.5463 36.4718 49.4327 37.98 48.2839C36.5421 46.846 35.4246 44.8063 34.6275 42.1649H33.6194ZM23.6086 48.5769L23.3859 47.3227C23.6047 47.307 23.9759 47.2758 24.4995 47.2289C24.9684 47.1898 25.3278 47.1586 25.5779 47.1351V31.8141C28.4303 31.6344 30.9076 31.314 33.0098 30.8529L33.5139 32.0369C30.9115 32.4589 28.6804 32.7363 26.8205 32.8691V36.5265H32.7285V37.6518H26.8205V41.5436H32.6347V42.6689H26.8205V46.9827C29.7979 46.6779 32.072 46.424 33.6428 46.2208C33.635 46.3458 33.6311 46.5334 33.6311 46.7834C33.6311 47.0491 33.635 47.2523 33.6428 47.393C31.5953 47.604 29.3212 47.8619 26.8205 48.1667V52.6797H25.5779V48.3308C25.4294 48.3464 25.2106 48.3738 24.9215 48.4128C24.2807 48.4832 23.843 48.5379 23.6086 48.5769ZM44.5093 38.0387C44.9391 38.0387 45.2556 38.0347 45.4588 38.0269C45.7011 38.0269 45.916 38.0191 46.1035 38.0035C46.002 38.402 45.9355 38.8045 45.9043 39.2109C45.6855 39.2187 45.4393 39.2265 45.1658 39.2343C45.0329 39.2343 44.8844 39.2343 44.7203 39.2343C44.5718 39.2343 44.3491 39.2343 44.0522 39.2343C42.5439 39.289 41.8093 38.4255 41.8484 36.6437V32.5878H36.9954V33.3498C37.011 35.2644 36.7805 36.6593 36.3038 37.5346C35.8661 38.4489 34.9205 39.3594 33.467 40.2659C33.2794 40.0158 32.9864 39.711 32.5878 39.3515C33.9398 38.5701 34.7955 37.8042 35.155 37.054C35.5692 36.335 35.7684 35.1081 35.7528 33.3732V31.4273H43.1027V36.4444C43.0948 37.0618 43.1964 37.4799 43.4074 37.6987C43.595 37.9332 43.9623 38.0465 44.5093 38.0387ZM42.8096 42.1649H35.8935C36.7453 44.5171 37.769 46.2911 38.9647 47.4868C40.4417 46.2442 41.7233 44.4703 42.8096 42.1649ZM47.8033 34.2875H60.4516C60.4281 33.7171 60.4086 33.1036 60.393 32.4471C60.393 32.1346 60.389 31.7985 60.3812 31.439C60.3812 31.1186 60.3812 30.6927 60.3812 30.1613H61.659C61.659 31.0756 61.6629 31.822 61.6707 32.4003C61.6863 33.0411 61.7058 33.6702 61.7293 34.2875H70.0052V35.4832H61.7762C61.8074 36.3507 61.8387 37.0344 61.87 37.5346C62.0575 40.9028 62.5225 43.6927 63.2649 45.9043C64.7653 43.8724 66.047 41.4186 67.1098 38.5427L68.3524 39.0116C67.0238 42.3173 65.5038 45.0798 63.7924 47.2992C64.3004 48.4793 64.9334 49.4405 65.6914 50.1829C66.3322 50.8315 66.9222 51.1519 67.4615 51.1441C68.0163 51.1363 68.3953 50.6948 68.5985 49.8195C68.8095 48.8661 68.9932 47.7603 69.1495 46.5021C69.5558 46.6897 69.9544 46.8421 70.3451 46.9593C70.1185 48.5613 69.8723 49.8429 69.6066 50.8042C69.2393 51.9373 68.5829 52.5234 67.6373 52.5625C66.6292 52.5625 65.707 52.1444 64.8708 51.3082C64.0737 50.4877 63.4017 49.5264 62.8546 48.4246C61.6277 49.8156 60.0921 51.234 58.2478 52.6797C57.9117 52.2577 57.6148 51.9217 57.3569 51.6716C59.3106 50.2649 60.9673 48.745 62.3271 47.1117C61.4284 44.7594 60.8618 41.6217 60.6274 37.6987C60.6196 37.5659 60.6079 37.3627 60.5922 37.0892C60.5375 36.3936 60.5063 35.8583 60.4985 35.4832H47.8033V34.2875ZM49.503 38.2965H57.4038V45.7636H49.503V38.2965ZM50.7573 39.4453V44.6148H56.1612V39.4453H50.7573ZM47.8267 51.0503L47.5102 49.7492C50.8706 49.2646 54.5709 48.6785 58.6112 47.9908C58.6112 48.3269 58.6268 48.7371 58.6581 49.2217C54.4302 49.8547 50.8198 50.4642 47.8267 51.0503ZM63.9565 31.1929L64.6833 30.2785C65.7539 30.9037 66.8793 31.6305 68.0593 32.4589L67.2739 33.467C66.172 32.6308 65.0662 31.8728 63.9565 31.1929ZM79.594 31.357H92.1016V38.7772H79.594V31.357ZM77.8356 51.191C77.6012 50.8315 77.3042 50.4799 76.9447 50.136C80.2192 48.4636 82.6378 46.2442 84.2008 43.4778H77.4254V42.3055H85.1855V39.668H86.428V42.3055H94.1413V43.4778H87.3893C88.8975 46.2208 91.1716 48.2956 94.2116 49.7023C93.9928 49.9211 93.7115 50.2962 93.3676 50.8276C90.0385 49.0927 87.7253 46.7483 86.428 43.7943V52.6797H85.1855V43.8177C83.56 47.0687 81.1101 49.5264 77.8356 51.191ZM80.86 32.5409V37.6049H90.8239V32.5409H80.86ZM72.0683 42.5752C71.9198 42.286 71.6893 41.8835 71.3767 41.3678C73.6117 38.1402 75.2919 34.436 76.4172 30.2551L77.6715 30.595C76.9916 32.7363 76.3352 34.5532 75.7022 36.0459V52.6563H74.4479V38.6599C73.7524 39.9572 72.9592 41.2623 72.0683 42.5752ZM95.4542 42.622C95.6105 42.5908 95.8488 42.54 96.1692 42.4697C97.3571 42.2196 98.2714 42.0125 98.9122 41.8484V36.2334H95.7003V35.0846H98.9122V30.0675H100.166V35.0846H102.968V36.2334H100.166V41.567C100.409 41.5045 100.776 41.4107 101.268 41.2857C102.026 41.0982 102.601 40.9497 102.992 40.8403C102.984 41.02 102.98 41.2076 102.98 41.4029C102.98 41.6921 102.992 41.9304 103.015 42.118C102.624 42.2118 102.058 42.3446 101.315 42.5165C100.799 42.6416 100.417 42.7315 100.166 42.7862V49.9836C100.198 51.5622 99.4593 52.3476 97.951 52.3398C97.2945 52.3554 96.6537 52.3632 96.0285 52.3632C95.9895 51.91 95.9113 51.4372 95.7941 50.9448C96.1458 50.9761 96.771 50.9917 97.6697 50.9917C98.5293 51.023 98.9435 50.6088 98.9122 49.7492V43.1027C98.5449 43.1886 97.9627 43.3371 97.1656 43.5481C96.5092 43.72 96.0051 43.849 95.6534 43.9349L95.4542 42.622ZM104.433 33.3498H110.154V30.0675H111.42V33.3498H117.187V34.4751H111.42V38.3434H118.219V39.4688H103.378V38.3434H110.154V34.4751H104.433V33.3498ZM113.202 40.6527H114.468V42.9268H118.219V44.0639H114.468V49.6788C114.515 51.4294 113.506 52.3085 111.443 52.3163C110.998 52.3241 110.552 52.332 110.107 52.3398C109.896 52.3398 109.665 52.3398 109.415 52.3398C109.204 52.3398 108.888 52.3398 108.466 52.3398C108.45 51.9725 108.364 51.5153 108.208 50.9683C108.724 50.9995 109.185 51.023 109.591 51.0386C109.787 51.0464 110.005 51.0503 110.248 51.0503C110.443 51.0503 110.763 51.0503 111.209 51.0503C111.998 51.0581 112.526 50.9292 112.791 50.6635C113.073 50.4212 113.209 49.9406 113.202 49.2217V44.0639H103.332V42.9268H113.202V40.6527ZM104.574 45.998L105.512 45.1658C107.083 46.635 108.188 47.6978 108.829 48.3542L107.821 49.2451C106.79 48.1354 105.707 47.0531 104.574 45.998ZM120.188 32.0838H141.792V33.3498H133.153C129.996 38.4528 125.744 42.7588 120.399 46.2677C120.149 45.9394 119.836 45.5878 119.461 45.2127C124.908 41.6413 128.933 37.687 131.535 33.3498H120.188V32.0838ZM130.046 37.9097H131.395V52.7266H130.046V37.9097ZM141.147 45.6229C138.342 43.6614 135.7 41.907 133.223 40.3597L134.032 39.375C136.423 40.8598 139.08 42.583 142.003 44.5445L141.147 45.6229ZM146.258 43.5012V42.3055H161.79V43.6536C160.204 45.7714 158.332 47.4907 156.175 48.8114C158.543 49.9367 161.798 50.7299 165.94 51.191C165.706 51.6052 165.491 52.035 165.295 52.4804C160.669 51.8162 157.172 50.8432 154.804 49.5616C152.272 50.8276 148.845 51.8904 144.523 52.7501C144.352 52.3984 144.113 51.992 143.808 51.5309C147.864 50.8042 151.096 49.8898 153.503 48.7879C151.705 47.5845 150.064 45.8222 148.579 43.5012H146.258ZM153.772 30.3723L154.991 29.9855C155.382 30.8295 155.785 31.7829 156.199 32.8457L155.144 33.2091H165.776V34.4048H158.238V40.6996H156.984V34.4048H152.694V40.7465H151.44V34.4048H143.879V33.2091H154.921C154.562 32.201 154.179 31.2554 153.772 30.3723ZM160.278 43.5012H150.127C151.494 45.4705 153.069 47.0023 154.851 48.0963C156.922 46.9554 158.731 45.4237 160.278 43.5012ZM160.348 37.1478L161.31 36.3038C162.904 37.7573 164.44 39.246 165.917 40.7699L164.885 41.6843C163.455 40.1604 161.943 38.6482 160.348 37.1478ZM148.005 36.2334L149.06 37.0774C147.739 38.6248 146.286 40.1291 144.699 41.5905C144.379 41.2466 144.051 40.9419 143.715 40.6762C145.262 39.3633 146.692 37.8824 148.005 36.2334ZM171.32 46.4435C171.727 46.4435 172.11 46.5256 172.469 46.6897C172.837 46.846 173.157 47.0609 173.43 47.3344C173.712 47.6079 173.935 47.9322 174.099 48.3073C174.263 48.6824 174.345 49.081 174.345 49.503C174.345 49.8937 174.271 50.2728 174.122 50.6401C173.974 51.0074 173.763 51.3317 173.489 51.613C173.223 51.8943 172.907 52.121 172.54 52.2929C172.172 52.4648 171.774 52.5508 171.344 52.5508C170.922 52.5508 170.527 52.4687 170.16 52.3046C169.8 52.1483 169.484 51.9295 169.21 51.6482C168.937 51.3746 168.722 51.0503 168.566 50.6752C168.409 50.3079 168.331 49.9133 168.331 49.4913C168.331 49.0771 168.409 48.6863 168.566 48.3191C168.722 47.9518 168.933 47.6313 169.199 47.3578C169.472 47.0765 169.789 46.8538 170.148 46.6897C170.516 46.5256 170.906 46.4435 171.32 46.4435ZM171.32 51.4606C171.547 51.4606 171.774 51.4137 172 51.3199C172.235 51.2262 172.442 51.0933 172.622 50.9214C172.809 50.7573 172.962 50.5619 173.079 50.3353C173.196 50.1086 173.255 49.8625 173.255 49.5968C173.255 49.2764 173.2 48.9872 173.091 48.7293C172.981 48.4714 172.833 48.2565 172.645 48.0846C172.465 47.9049 172.254 47.7681 172.012 47.6743C171.778 47.5806 171.535 47.5337 171.285 47.5337C171.027 47.5337 170.785 47.5962 170.559 47.7212C170.332 47.8384 170.133 47.9908 169.961 48.1784C169.797 48.3659 169.664 48.5769 169.562 48.8114C169.468 49.038 169.421 49.2568 169.421 49.4678C169.421 49.7023 169.472 49.9367 169.574 50.1712C169.675 50.4134 169.812 50.6283 169.984 50.8159C170.156 51.0034 170.355 51.1558 170.582 51.2731C170.816 51.3981 171.063 51.4606 171.32 51.4606Z" fill="#757575"/>
</svg>
