<svg width="47" height="23" viewBox="0 0 47 23" fill="none" xmlns="http://www.w3.org/2000/svg">
<path d="M0.717467 15.9725C0.474391 15.3922 0.235235 14.9257 0 14.5728C1.70153 12.2362 2.98749 9.38589 3.85786 6.02202H0.529279V4.85761H3.85786V0H5.1046V4.85761H8.11562V6.02202H5.1046V9.97397L5.77503 9.42117C6.72381 10.3307 7.68043 11.3148 8.64489 12.3734L7.70395 13.1967C6.98257 12.3028 6.11612 11.3148 5.1046 10.2327V22.5943H3.85786V8.83308C3.19136 11.3344 2.14456 13.7142 0.717467 15.9725ZM8.64489 8.40966H22.8061V9.56231H16.3018V19.5833C16.3488 21.3711 15.4667 22.2689 13.6554 22.2768C13.2241 22.2846 12.8242 22.2925 12.4557 22.3003C12.2754 22.3003 12.0793 22.3003 11.8676 22.3003C11.6951 22.3003 11.4246 22.3003 11.0561 22.3003C11.0169 21.9474 10.9267 21.4927 10.7855 20.9359C11.6794 20.983 12.5341 21.0065 13.3496 21.0065C14.0004 21.0143 14.4395 20.8928 14.6669 20.6419C14.9178 20.4145 15.0394 19.9793 15.0315 19.3363V9.56231H8.64489V8.40966ZM9.72698 1.79955H21.6299V2.96396H9.72698V1.79955ZM10.9855 12.3028L12.2087 12.785C11.1894 15.0041 9.95437 17.4074 8.50375 19.995C8.26068 19.8146 7.86862 19.5873 7.32758 19.3128C8.73115 17.0075 9.95045 14.6708 10.9855 12.3028ZM18.5483 12.8556L19.6774 12.3028C20.7125 14.3101 21.8612 16.6625 23.1236 19.3599L21.8651 19.9715C20.8458 17.5878 19.7402 15.2158 18.5483 12.8556ZM29.8161 10.3033C29.5416 10.0132 29.2123 9.69953 28.8281 9.36236C31.2196 6.69636 33.1486 3.57558 34.6149 0L35.8146 0.411662C35.1559 1.87796 34.5129 3.16783 33.8856 4.28128H46.7295V5.42217H40.6369V9.39765H46.4942V10.5268H40.6369V14.5023H46.4942V15.6314H40.6369V19.6774H47V20.783H33.3328V22.5943H32.0626V7.26877C31.3647 8.28028 30.6159 9.29179 29.8161 10.3033ZM33.3328 15.6314V19.6774H39.3549V15.6314H33.3328ZM33.3328 10.5268V14.5023H39.3549V10.5268H33.3328ZM33.3328 5.42217V9.39765H39.3549V5.42217H33.3328ZM24.6879 21.03C25.9504 17.7838 26.9932 14.7061 27.8166 11.797C28.2949 11.9931 28.7457 12.1538 29.1692 12.2793C28.0087 15.6118 26.9815 18.7365 26.0876 21.6534L24.6879 21.03ZM27.8166 7.05706C27.0403 5.45746 26.1111 3.74808 25.029 1.92893L26.1111 1.34084C27.2167 3.17568 28.189 4.87329 29.028 6.43368L27.8166 7.05706ZM38.3198 0.67042L39.4019 0.047047C40.1703 1.23106 40.8721 2.34059 41.5073 3.37563L40.3428 4.04605C39.8567 3.12079 39.1823 1.99558 38.3198 0.67042Z" fill="black"/>
</svg>
