<svg width="157" height="39" viewBox="0 0 157 39" fill="none" xmlns="http://www.w3.org/2000/svg">
<path d="M1.2163 10.5151H6.59155V5.33602H0V2.78571H20.7948V5.33602H14.2817V10.5151H19.9708V38.4899H17.3421V35.9789H3.84507V38.5292H1.2163V10.5151ZM22.835 15.4195H33.2324V5.17907H22.168V2.47183H36.0573V19.6569H33.2324V18.1268H25.66V31.7414C25.66 33.8078 26.5493 34.841 28.328 34.841H32.0553C33.5986 34.841 34.4748 34.0694 34.6841 32.5262C35.0241 30.7475 35.2596 28.6288 35.3903 26.17C36.1227 26.5362 37.1036 26.9678 38.333 27.4648C38.1499 29.5835 37.8753 31.5845 37.5091 33.4678C37.0644 36.2404 35.4165 37.6268 32.5654 37.6268H27.504C24.3913 37.6268 22.835 35.7958 22.835 32.1338V15.4195ZM11.7706 19.3431V12.9869H9.10262V14.5563C9.10262 18.7414 8.0171 22.2072 5.84608 24.9537C5.21831 24.3521 4.55131 23.7113 3.84507 23.0312V26.327H17.3421V22.5211H14.5563C12.6992 22.5211 11.7706 21.4618 11.7706 19.3431ZM3.84507 33.507H17.3421V28.7596H3.84507V33.507ZM17.3421 12.9869H14.2817V18.4799C14.2294 19.6569 14.7133 20.2062 15.7334 20.1278H17.3421V12.9869ZM3.84507 22.7958C5.67606 20.7294 6.59155 17.9306 6.59155 14.3994V12.9869H3.84507V22.7958ZM9.10262 10.5151H11.7706V5.33602H9.10262V10.5151ZM39.5493 35.508H45.3954V17.3421H57.4014V14.7525H40.4909V12.5946H57.4014V10.5151H60.2264V12.5946H77.5684V14.7525H60.2264V17.3421H73.0563V35.508H78.4708V37.7445H39.5493V35.508ZM42.9628 2.11871H75.0966V10.829H72.4286V9.92656H45.67V10.829H42.9628V2.11871ZM48.1419 35.508H70.3099V32.9577H48.1419V35.508ZM48.1419 30.9567H70.3099V28.4457H48.1419V30.9567ZM48.1419 26.4447H70.3099V23.9336H48.1419V26.4447ZM70.3099 19.4215H48.1419V21.9326H70.3099V19.4215ZM72.4286 4.19819H65.2093V7.84708H72.4286V4.19819ZM55.4396 7.84708H62.6197V4.19819H55.4396V7.84708ZM45.67 7.84708H52.8501V4.19819H45.67V7.84708ZM80.7072 16.7143H104.837V9.88732H108.054V16.7143H117.981V19.5H108.054V32.997C108.054 36.3974 106.354 38.163 102.954 38.2938C101.097 38.2938 98.9517 38.2938 96.5191 38.2938C96.3622 37.1952 96.166 36.1489 95.9306 35.1549C98.494 35.3119 100.351 35.3903 101.502 35.3903C103.725 35.3903 104.837 34.3048 104.837 32.1338V19.5H80.7072V16.7143ZM82.1197 4.82596H98.2847C97.7093 3.62274 97.0815 2.44567 96.4014 1.29477L99.3048 0C100.168 1.5171 100.992 3.12575 101.777 4.82596H116.451V12.5946H113.312V7.61167H85.2586V12.5946H82.1197V4.82596ZM85.8078 23.5805L88.0835 21.501C91.1177 24.1167 93.7857 26.6408 96.0875 29.0734L93.6157 31.506C91.5755 29.0734 88.9728 26.4316 85.8078 23.5805ZM142.699 1.84406L145.249 0.196177C146.322 1.45171 147.486 2.96881 148.741 4.74748L146.191 6.39537H156.902V23.8159H153.881V21.9326H138.776C138.409 28.838 136.539 34.5272 133.165 39C132.511 38.2938 131.661 37.5483 130.615 36.7636C134.067 32.5523 135.794 26.4839 135.794 18.5584V6.39537H145.838C144.687 4.66901 143.641 3.15191 142.699 1.84406ZM119.864 21.1871C121.695 20.6901 123.631 20.1539 125.671 19.5785V10.5151H120.413V7.84708H125.671V0.470825H128.692V7.84708H133.675V10.5151H128.692V18.7153C130.288 18.2445 131.936 17.7606 133.636 17.2636C133.662 18.5453 133.688 19.5654 133.714 20.3239C132.066 20.7948 130.392 21.2787 128.692 21.7757V33.9386C128.692 36.7636 127.319 38.1761 124.572 38.1761C123.683 38.2284 122.48 38.2284 120.963 38.1761C120.806 37.0775 120.623 36.0181 120.413 34.998C121.957 35.1288 123.147 35.1942 123.984 35.1942C125.109 35.1942 125.671 34.5664 125.671 33.3109V22.7173C123.892 23.2928 122.088 23.8813 120.257 24.4829L119.864 21.1871ZM138.854 9.18109V19.1469H153.881V9.18109H138.854Z" fill="black"/>
</svg>
