<svg width="95" height="23" viewBox="0 0 95 23" fill="none" xmlns="http://www.w3.org/2000/svg">
<path d="M0.141352 14.2176L0 12.8159C1.27216 12.5253 2.46187 12.2348 3.56913 11.9442V6.08989H0.388717V4.9473H3.56913V0.318041H4.87663V4.9473H7.75077V6.08989H4.87663V11.5908C5.79541 11.3474 6.82414 11.0647 7.9628 10.7427C7.9628 11.0176 7.97066 11.3199 7.98636 11.6497C7.99421 11.7911 8.00207 11.9049 8.00992 11.9913C7.75077 12.062 7.36991 12.1641 6.86733 12.2976C5.98781 12.5253 5.32424 12.7059 4.87663 12.8394V19.8834C4.9473 21.6425 4.14238 22.5181 2.46187 22.5102C2.04567 22.5259 1.40959 22.5338 0.553627 22.5338C0.475098 21.9762 0.388717 21.5208 0.294482 21.1674C0.553627 21.1909 0.832403 21.2106 1.13081 21.2263C1.27216 21.2341 1.42922 21.2381 1.60198 21.2381C1.74334 21.2381 1.95144 21.2381 2.22629 21.2381C3.17648 21.3009 3.6241 20.8415 3.56913 19.8599V13.2046C2.70531 13.4402 1.56272 13.7778 0.141352 14.2176ZM8.78735 5.31246H16.4321C17.5708 3.65551 18.6702 1.92002 19.7303 0.106014L20.9907 0.706758C19.8756 2.40298 18.839 3.93821 17.881 5.31246H22.5573V6.51395H8.78735V5.31246ZM7.79789 20.0719H22.9932V21.2852H7.79789V20.0719ZM9.57657 12.3329H21.615V13.5344H9.57657V12.3329ZM10.4954 0.824551L11.5319 0.200248C12.4743 1.41744 13.3931 2.66997 14.2883 3.95784L13.0986 4.6646C12.4232 3.58091 11.5555 2.30089 10.4954 0.824551ZM31.8512 8.51643L33.0056 8.21017C33.1862 8.72846 33.3982 9.42736 33.6417 10.3069C33.6574 10.3697 33.6691 10.4168 33.677 10.4482H37.4464V11.4377H33.1469V13.7582H37.1048V14.7477H33.1469V17.0564H37.1754V18.0459H33.1469V20.3428H37.7291V21.3323H27.8109V22.6869H26.633V13.0279C26.2168 13.5855 25.6317 14.2883 24.8779 15.1364C24.6815 14.8694 24.4145 14.571 24.0769 14.2412C25.883 12.3486 27.3005 10.299 28.3292 8.09237L29.4365 8.49287C29.1459 9.05828 28.7768 9.71006 28.3292 10.4482H32.4755C32.4362 10.3226 32.3774 10.1302 32.2988 9.87105C32.1182 9.28208 31.969 8.83054 31.8512 8.51643ZM38.4358 20.2486C38.161 19.9109 37.8626 19.6047 37.5406 19.3298C38.7342 18.3953 39.6923 17.5433 40.4148 16.7737C39.7551 14.2451 39.335 11.0686 39.1544 7.24427H24.3949V6.18413H30.7793V3.65158H25.7849V2.615H30.7793V0.223807H31.9926V2.615H36.5276V3.65158H31.9926V6.18413H39.1073C39.013 3.91465 38.958 1.88076 38.9423 0.0824551H40.1909C40.2145 2.3912 40.2616 4.42509 40.3323 6.18413H46.752V7.24427H40.3912C40.5325 10.4482 40.8702 13.2399 41.4042 15.6193C42.5272 14.2294 43.5952 12.2976 44.6082 9.82393L45.7626 10.3069C44.404 13.3302 43.0612 15.5879 41.734 17.08C42.4408 19.7342 43.2928 21.081 44.2901 21.1203C44.777 21.1046 45.0911 20.7551 45.2325 20.0719C45.4602 18.9568 45.6369 17.7435 45.7626 16.4321C46.1473 16.6206 46.5361 16.7737 46.9287 16.8915C46.7402 18.5328 46.5518 19.7735 46.3633 20.6138C46.0963 21.7995 45.4484 22.4003 44.4197 22.416C42.857 22.5259 41.6398 21.1046 40.7681 18.1519C40.2184 18.7409 39.441 19.4398 38.4358 20.2486ZM27.8109 14.7477V17.0564H31.969V14.7477H27.8109ZM27.8109 11.4377V13.7582H31.969V11.4377H27.8109ZM27.8109 18.0459V20.3428H31.969V18.0459H27.8109ZM41.6869 1.95536L42.5586 1.21327C43.8779 2.46187 44.9066 3.47489 45.6448 4.25232L44.726 5.07688C43.8543 4.11883 42.8413 3.07832 41.6869 1.95536ZM57.3652 0.200248H58.7198C58.7198 1.96714 58.6727 3.73404 58.5784 5.50093H69.2622C69.1602 9.9535 69.0227 13.7268 68.85 16.8208C68.8657 20.3546 67.3226 22.0587 64.2207 21.933C63.6082 21.9487 62.98 21.9605 62.336 21.9684C61.7313 21.9762 61.0403 21.9802 60.2629 21.9802C60.2315 21.5011 60.1529 21.0182 60.0273 20.5313C60.1215 20.5313 60.2629 20.5352 60.4513 20.5431C61.9826 20.5902 63.1998 20.6138 64.1029 20.6138C64.1971 20.6216 64.3306 20.6255 64.5034 20.6255C66.4902 20.6255 67.4993 19.2434 67.5307 16.4792C67.7035 12.9454 67.8055 9.71399 67.8369 6.78487H58.4842C58.4606 6.8634 58.4489 6.97727 58.4489 7.12647C58.3389 14.1705 55.398 19.3337 49.6262 22.6162C49.1943 22.098 48.8723 21.7249 48.6603 21.4972C54.2279 18.3639 57.0353 13.7072 57.0825 7.52697C57.0903 7.44844 57.0982 7.32279 57.106 7.15003C57.1139 6.99297 57.1217 6.87125 57.1296 6.78487H49.3552V5.50093H57.2238C57.318 3.7733 57.3652 2.00641 57.3652 0.200248ZM94.3757 22.5573C90.6927 21.9291 87.7243 21.0535 85.4706 19.9306C83.3817 21.0143 80.4486 21.9802 76.6714 22.8283C76.4201 22.3335 76.1845 21.9252 75.9647 21.6032C79.1294 21.03 81.8582 20.2408 84.1513 19.2356C82.3765 18.1833 80.806 16.7187 79.4396 14.8419H77.8729V13.7111H92.0081V14.9597C90.3275 16.813 88.5921 18.2461 86.8016 19.2591C88.8591 20.1465 91.5919 20.8219 95 21.2852C94.7644 21.7014 94.5563 22.1254 94.3757 22.5573ZM89.1104 4.71172H90.3472V6.73776H94.7173V7.86857H90.3472V11.5084H80.6764V7.86857H77.2015V6.73776H80.6764V4.71172H81.9014V6.73776H89.1104V4.71172ZM84.1277 0.223807L85.3999 0C85.6747 1.02872 85.8907 1.92395 86.0477 2.68568H94.9529V3.84005H76.0942V10.6249C76.1021 13.7268 75.9215 16.0787 75.5524 17.6807C75.2147 19.2906 74.5001 20.9907 73.4086 22.7812C73.1023 22.467 72.7646 22.1765 72.3955 21.9095C73.4714 20.1583 74.1389 18.6034 74.398 17.2449C74.7043 15.9178 74.8496 13.6601 74.8338 10.4718V2.68568H84.7285C84.6421 2.30874 84.5164 1.7826 84.3515 1.10725C84.2494 0.722463 84.1748 0.427981 84.1277 0.223807ZM90.4414 14.8419H80.9591C82.3412 16.4517 83.8372 17.6964 85.447 18.5759C87.316 17.6022 88.9808 16.3575 90.4414 14.8419ZM81.9014 7.86857V10.4011H89.1104V7.86857H81.9014Z" fill="black"/>
</svg>
