<svg width="64" height="31" viewBox="0 0 64 31" fill="none" xmlns="http://www.w3.org/2000/svg">
<path d="M11.5859 18.2556V16.0949H27.9939V18.2242C26.637 21.0842 24.7269 23.5057 22.2636 25.4889C24.7478 26.9293 27.8061 27.8687 31.4384 28.3071C30.7495 29.2047 30.1545 30.0397 29.6535 30.8121C25.8751 30.0606 22.6916 28.7872 20.103 26.9919C17.2013 28.829 13.6734 30.165 9.51919 31C9.10168 30.2902 8.60067 29.5387 8.01616 28.7455C12.0451 28.0774 15.4478 26.971 18.2242 25.4263C16.1367 23.5057 14.571 21.1155 13.5273 18.2556H11.5859ZM0 17.1283C1.25253 16.6064 2.58855 16.001 4.00808 15.3121V8.23535H0.250505V6.07475H4.00808V0H6.29394V6.07475H9.86364V8.23535H6.29394V14.2162C7.29596 13.6943 8.33973 13.1515 9.42525 12.5879C9.48788 13.6316 9.57138 14.4562 9.67576 15.0616C8.61111 15.5835 7.48384 16.1576 6.29394 16.7838V27.1798C6.29394 29.3717 5.27104 30.4781 3.22525 30.499C2.55724 30.5199 1.7431 30.5199 0.782828 30.499C0.699327 29.664 0.574074 28.8081 0.407071 27.9313C1.40909 28.0148 2.20236 28.0566 2.78687 28.0566C3.60101 28.0566 4.00808 27.6599 4.00808 26.8667V17.9424C2.83906 18.5478 1.60741 19.1845 0.313131 19.8525L0 17.1283ZM10.396 10.3333H23.8606C24.9879 8.37104 26.0212 6.38788 26.9606 4.38384L29.3717 5.41717C28.4323 7.06633 27.4303 8.70505 26.3657 10.3333H30.499V15.1242H28.1192V12.4939H12.7758V15.1242H10.396V10.3333ZM11.0535 4.47778C10.9283 3.74714 10.7822 2.99562 10.6152 2.22323C17.6502 2.05623 24.0485 1.68047 29.8101 1.09596L30.2485 3.31919C23.7562 3.84108 17.3579 4.22727 11.0535 4.47778ZM25.2384 18.2556H15.9071C16.9091 20.6145 18.3599 22.5663 20.2596 24.1111C22.4306 22.5246 24.0902 20.5727 25.2384 18.2556ZM18.1616 5.32323L20.1343 4.44646C21.032 5.99125 21.7939 7.40034 22.4202 8.67374L20.2909 9.64444C19.6438 8.12054 18.934 6.68013 18.1616 5.32323ZM11.9616 5.88687L13.903 4.91616C14.7589 6.21044 15.5731 7.56734 16.3455 8.98687L14.3101 10.0828C13.6003 8.5798 12.8175 7.18114 11.9616 5.88687ZM43.3687 4.47778V2.16061H61.1545V4.44646C60.1734 11.6902 57.9502 17.5354 54.4848 21.9818C56.7603 24.2781 59.7455 26.1569 63.4404 27.6182C62.5636 28.5993 61.8747 29.4657 61.3737 30.2172C57.7832 28.3593 54.9232 26.2926 52.7939 24.0172C50.4141 26.5013 47.0949 28.8185 42.8364 30.9687C42.3771 30.2172 41.7926 29.4343 41.0828 28.6202C45.4875 26.5535 48.8485 24.3616 51.1657 22.0444C48.0135 18.0572 46.0616 12.2017 45.3101 4.47778H43.3687ZM32.002 19.8525C34.1313 16.6168 35.7283 12.9741 36.7929 8.92424H32.3152V6.76364H37.2V0.125253H39.5798V6.76364H43.9949V8.92424H39.5798V13.0889L40.9263 11.8364C42.8051 13.6108 44.3185 15.1764 45.4667 16.5333L43.5879 18.2869C42.1892 16.5125 40.8532 14.9572 39.5798 13.6212V30.8747H37.2V13.7152C36.0727 17.2222 34.6949 20.1865 33.0667 22.6081C32.7744 21.7104 32.4195 20.7919 32.002 19.8525ZM58.4929 4.47778H47.8152C48.4414 11.2414 50.1219 16.4394 52.8566 20.0717C55.7374 16.2098 57.6162 11.0118 58.4929 4.47778Z" fill="black"/>
</svg>
