<svg width="95" height="23" viewBox="0 0 95 23" fill="none" xmlns="http://www.w3.org/2000/svg">
<path d="M2.22012 7.41216H10.666V4.76915H1.06895V3.66496H13.3325C14.7969 2.14573 15.8619 0.955397 16.5276 0.0939734L17.714 0.775281C16.6725 1.92646 15.764 2.88968 14.9888 3.66496H21.5317V4.76915H11.9346V7.41216H20.404V8.51634H11.9346V11.2416H22.2365V12.3458H0.364147V11.2416H10.666V8.51634H2.22012V7.41216ZM10.76 13.356H12.0521C11.9425 14.1704 11.8328 14.8047 11.7232 15.2589H21.9193V16.3866H12.4867C13.8102 19.0649 17.1227 20.7486 22.4244 21.4377C22.1503 21.8136 21.9036 22.2326 21.6844 22.6946C15.9911 21.7157 12.5337 19.7266 11.3121 16.7273C10.482 19.7736 6.96187 21.8645 0.751788 23C0.391556 22.3735 0.14096 21.9663 0 21.7783C5.9125 20.7916 9.27596 18.9944 10.0904 16.3866H0.704801V15.2589H10.4428C10.5759 14.7421 10.6816 14.1078 10.76 13.356ZM5.06282 0.728294L6.03779 0C7.43173 1.29213 8.36364 2.18488 8.8335 2.67824L7.75281 3.46527C7.12632 2.7683 6.22966 1.85598 5.06282 0.728294ZM25.3611 1.42135H45.4009V22.859H44.1558V21.7314H26.618V22.8825H25.3611V1.42135ZM26.618 2.59602V20.5449H44.1558V2.59602H26.618ZM28.2978 7.20072H37.4602V3.80592H38.6936V7.20072H42.8049V8.35189H38.6936V16.1164C38.764 17.9333 37.793 18.8417 35.7804 18.8417C35.1617 18.8573 34.3121 18.8652 33.2314 18.8652C33.1609 18.4266 33.063 17.992 32.9377 17.5613C33.8226 17.6083 34.6958 17.6318 35.5572 17.6318C36.8963 17.6866 37.5306 17.1502 37.4602 16.0225V8.63381C35.6903 11.8289 32.6988 14.6951 28.4857 17.2324C28.2978 16.9113 28.0276 16.5393 27.6752 16.1164C31.5124 13.9785 34.4374 11.3904 36.4499 8.35189H28.2978V7.20072ZM48.7252 13.4499C48.506 13.1289 48.2162 12.7608 47.856 12.3458C50.1583 9.04103 51.9791 5.008 53.3182 0.24668L54.716 0.575587C54.301 1.92254 53.8585 3.18335 53.3887 4.35802H59.7906V5.70889C59.031 13.1641 55.5892 18.8338 49.4653 22.7181C49.1755 22.3109 48.8466 21.9232 48.4785 21.5552C54.391 18.039 57.7193 12.7295 58.4632 5.62666H52.8836C52.4372 6.69169 51.8929 7.85461 51.2508 9.11542C52.8953 10.3136 54.2657 11.3512 55.3621 12.2283L54.4694 13.2855C52.9501 11.9385 51.7011 10.8853 50.7222 10.1256C50.08 11.3003 49.4144 12.4084 48.7252 13.4499ZM62.7273 0.293667H64.0429V8.39888L64.7712 7.6236C66.8151 9.02537 68.8277 10.478 70.809 11.9816L69.8458 13.1093C67.9663 11.5666 66.032 10.0943 64.0429 8.69254V22.859H62.7273V0.293667ZM85.3161 9.3856H86.5848C86.53 12.1735 86.2324 14.2487 85.692 15.6113H94.3846V16.7743H85.1399C84.999 17.0562 84.8384 17.3185 84.6583 17.5613C85.0029 17.6944 85.5041 17.8902 86.1619 18.1486C89.6076 19.4799 92.3407 20.5841 94.3611 21.4612L93.6328 22.6593C90.4534 21.2106 87.2074 19.8166 83.8948 18.4775C82.2189 20.2865 78.5853 21.7392 72.9939 22.8355C72.8921 22.5928 72.7002 22.2443 72.4183 21.7901C72.3556 21.6883 72.3086 21.61 72.2773 21.5552C78.6675 20.3962 82.4578 18.8025 83.6481 16.7743H72.5827V15.6113H84.3059C84.9637 14.3114 85.3005 12.2361 85.3161 9.3856ZM82.7671 0.223187H84.0358V2.61951H92.74V3.78243H84.0358V6.78958H93.7268V7.98774L92.047 11.1946C91.6868 11.0223 91.3109 10.8774 90.9193 10.76L92.4581 7.94076H72.9469V6.78958H82.7671V3.78243H74.3447V2.61951H82.7671V0.223187ZM80.359 14.6246C78.4169 13.9746 76.4356 13.3756 74.4152 12.8274L74.8498 11.8641C76.8938 12.428 78.8829 13.0271 80.8172 13.6614L80.359 14.6246ZM81.9683 11.9581C80.4961 11.4648 78.5618 10.8461 76.1655 10.1021L76.6001 9.19765C78.7537 9.80065 80.6879 10.3841 82.403 10.9479L81.9683 11.9581Z" fill="black"/>
</svg>
