<svg width="63" height="29" viewBox="0 0 63 29" fill="none" xmlns="http://www.w3.org/2000/svg">
<path d="M0.96875 6.6875H5.25V2.5625H0V0.53125H16.5625V2.5625H11.375V6.6875H15.9062V28.9688H13.8125V26.9688H3.0625V29H0.96875V6.6875ZM18.1875 10.5938H26.4688V2.4375H17.6562V0.28125H28.7188V13.9688H26.4688V12.75H20.4375V23.5938C20.4375 25.2396 21.1458 26.0625 22.5625 26.0625H25.5312C26.7604 26.0625 27.4583 25.4479 27.625 24.2188C27.8958 22.8021 28.0833 21.1146 28.1875 19.1562C28.7708 19.4479 29.5521 19.7917 30.5312 20.1875C30.3854 21.875 30.1667 23.4688 29.875 24.9688C29.5208 27.1771 28.2083 28.2812 25.9375 28.2812H21.9062C19.4271 28.2812 18.1875 26.8229 18.1875 23.9062V10.5938ZM9.375 13.7188V8.65625H7.25V9.90625C7.25 13.2396 6.38542 16 4.65625 18.1875C4.15625 17.7083 3.625 17.1979 3.0625 16.6562V19.2812H13.8125V16.25H11.5938C10.1146 16.25 9.375 15.4062 9.375 13.7188ZM3.0625 25H13.8125V21.2188H3.0625V25ZM13.8125 8.65625H11.375V13.0312C11.3333 13.9688 11.7188 14.4062 12.5312 14.3438H13.8125V8.65625ZM3.0625 16.4688C4.52083 14.8229 5.25 12.5938 5.25 9.78125V8.65625H3.0625V16.4688ZM7.25 6.6875H9.375V2.5625H7.25V6.6875ZM31.5 26.5938H36.1562V12.125H45.7188V10.0625H32.25V8.34375H45.7188V6.6875H47.9688V8.34375H61.7812V10.0625H47.9688V12.125H58.1875V26.5938H62.5V28.375H31.5V26.5938ZM34.2188 0H59.8125V6.9375H57.6875V6.21875H36.375V6.9375H34.2188V0ZM38.3438 26.5938H56V24.5625H38.3438V26.5938ZM38.3438 22.9688H56V20.9688H38.3438V22.9688ZM38.3438 19.375H56V17.375H38.3438V19.375ZM56 13.7812H38.3438V15.7812H56V13.7812ZM57.6875 1.65625H51.9375V4.5625H57.6875V1.65625ZM44.1562 4.5625H49.875V1.65625H44.1562V4.5625ZM36.375 4.5625H42.0938V1.65625H36.375V4.5625Z" fill="black"/>
</svg>
