<svg width="287" height="23" viewBox="0 0 287 23" fill="none" xmlns="http://www.w3.org/2000/svg">
<path d="M13.5616 0.0704496H14.8649V4.6849H21.0879V15.8394H19.8081V14.7122H14.8649V22.6965H13.5616V14.7122H8.60659V15.8394H7.3385V4.6849H13.5616V0.0704496ZM8.60659 5.90603V13.4794H13.5616V5.90603H8.60659ZM19.8081 5.90603H14.8649V13.4794H19.8081V5.90603ZM0 21.041C1.27592 17.8316 2.42268 14.5439 3.44029 11.178C3.96475 11.4363 4.41093 11.6359 4.77883 11.7768C3.65164 14.9471 2.52444 18.2582 1.39725 21.7102L0 21.041ZM3.51074 6.84535C2.3131 4.89625 1.22895 3.26025 0.258315 1.93736L1.35028 1.26809C2.48531 2.77885 3.60467 4.3757 4.70838 6.05867L3.51074 6.84535ZM38.2776 0.0704496H39.5809C39.5809 1.57337 39.5575 3.20546 39.5105 4.9667H45.757C45.6318 11.362 45.5026 15.8277 45.3696 18.3639C45.2521 20.8296 44.1249 22.0586 41.988 22.0507C41.5888 22.0586 41.1778 22.0664 40.7551 22.0742C40.5516 22.0742 40.3246 22.0742 40.0741 22.0742C39.8549 22.0742 39.5222 22.0742 39.0761 22.0742C38.9586 21.5732 38.8138 21.0683 38.6416 20.5595C39.8079 20.6378 40.8569 20.677 41.7884 20.677C43.2522 20.7239 44.0075 19.9372 44.0545 18.3169C44.2815 13.4011 44.4107 9.36197 44.442 6.19957H39.4635C39.44 7.02148 39.4126 7.80817 39.3813 8.55963C39.3422 14.4148 37.6436 19.1271 34.2855 22.6965C34.0428 22.4382 33.6749 22.1251 33.1818 21.7572C36.3911 18.6261 38.0271 14.1917 38.0898 8.45395C38.0976 8.23478 38.1132 7.89818 38.1367 7.44418C38.1602 6.90406 38.1759 6.48919 38.1837 6.19957H34.5555V4.9667H38.2072C38.2541 3.43246 38.2776 1.80038 38.2776 0.0704496ZM33.2053 19.8081C33.1739 19.7376 33.1231 19.628 33.0526 19.4793C32.9195 19.1506 32.81 18.9001 32.7238 18.7279C30.579 18.8922 28.3051 19.0918 25.902 19.3267C25.3462 19.3893 24.8648 19.4793 24.4578 19.5967L23.8824 18.4343C24.3521 18.0821 24.7591 17.5302 25.1035 16.7788C26.0507 14.8296 27.0057 12.5518 27.9685 9.94514H23.8824V8.72401H34.6964V9.94514H29.4362C28.1446 13.0762 26.9 15.8199 25.7024 18.176C27.7689 18.0351 29.9489 17.859 32.2424 17.6476C31.6397 16.2934 30.9978 14.9471 30.3168 13.6085L31.5027 13.1036C32.5125 15.0997 33.4988 17.1506 34.4616 19.2562L33.2053 19.8081ZM24.8922 2.09001H33.7571V3.28765H24.8922V2.09001ZM56.4654 1.31506H68.5357V11.7533H61.9957C62.5358 13.5381 63.1855 15.0058 63.9448 16.1564C65.4242 15.3502 67.162 14.2817 69.158 12.951L69.98 13.9608C68.344 15.0097 66.571 16.0547 64.661 17.0958C65.7804 18.4891 67.6864 19.8511 70.3792 21.1819C70.3635 21.2053 70.3361 21.2406 70.297 21.2875C69.9369 21.7102 69.6864 22.0272 69.5455 22.2386C64.6532 19.9216 61.7178 16.4265 60.7393 11.7533H57.7335V20.4774C59.119 19.7337 60.571 18.9275 62.0896 18.0586C62.1757 18.5439 62.2775 18.9588 62.3949 19.3032C60.9937 20.0233 59.5143 20.8492 57.9566 21.7807C57.4947 22.0468 57.0838 22.3286 56.7237 22.6261L55.7609 21.4402C56.0348 21.1271 56.2188 20.8139 56.3127 20.5008C56.4145 20.1799 56.4654 19.765 56.4654 19.2562V1.31506ZM57.7335 10.6496H67.2559V7.04496H57.7335V10.6496ZM57.7335 2.41877V5.95299H67.2559V2.41877H57.7335ZM48.528 14.994C48.301 14.5322 48.0662 14.1408 47.8235 13.8199C50.0701 11.8942 52.0349 9.33849 53.7178 6.1526L54.845 6.7749C54.1327 8.05865 53.3969 9.25238 52.6376 10.3561V22.673H51.3813V11.9882C50.4576 13.131 49.5065 14.133 48.528 14.994ZM48.939 7.71423C48.7277 7.3385 48.485 6.9706 48.211 6.61052C50.301 4.89625 52.1366 2.71622 53.7178 0.0704496L54.845 0.763204C53.1229 3.54988 51.1543 5.86689 48.939 7.71423ZM75.6042 7.20934H76.9192V19.8551H83.6824V3.31113H72.8566V2.06652H93.7097V3.31113H85.0092V10.4735H92.9113V11.7064H85.0092V19.8551H94.6256V21.1114H71.7999V19.8551H75.6042V7.20934ZM100.226 7.44418H114.363V12.3287H107.917V14.7122H116.5V18.5165C116.563 20.1368 115.706 20.9431 113.929 20.9353C113.451 20.9509 112.625 20.9588 111.451 20.9588C111.365 20.356 111.271 19.9333 111.169 19.6907C112.07 19.722 112.845 19.7376 113.494 19.7376C114.16 19.7455 114.61 19.6398 114.845 19.4206C115.095 19.2171 115.216 18.8257 115.209 18.2465V15.8159H107.917V22.7435H106.602V15.8159H99.4044V20.9588H98.1128V14.7122H106.602V12.3287H100.226V7.44418ZM106.649 0.0704496H107.941V4.20349H117.733V7.83165H116.43V5.3072H98.1363V7.83165H96.833V4.20349H106.649V0.0704496ZM101.53 8.53615V11.2485H113.072V8.53615H101.53ZM111.886 3.90995L111.076 2.92366C112.688 1.96085 113.874 1.20156 114.633 0.645788L115.514 1.56163C114.77 2.08609 113.639 2.8219 112.121 3.76905C112.019 3.83168 111.941 3.87864 111.886 3.90995ZM99.0522 1.43248L99.8858 0.598822C101.162 1.43639 102.324 2.21916 103.373 2.94714L102.434 3.88647C101.635 3.26025 100.508 2.44225 99.0522 1.43248ZM130.015 22.9079H129.028L130.931 16.8844H132.222L130.015 22.9079ZM144.257 15.358L143.94 14.0664C145.514 13.8081 147.263 13.5028 149.189 13.1506V8.33654H143.917V7.13889H149.189V3.09978C147.49 3.31113 146.062 3.4716 144.903 3.58119C144.817 3.0489 144.696 2.63795 144.539 2.34832C147.529 2.10566 150.657 1.69862 153.921 1.12719L154.332 2.32484C153.58 2.46574 152.296 2.65752 150.48 2.90018V7.13889H157.15C157.017 5.18196 156.95 2.80233 156.95 0H158.277C158.253 2.55967 158.3 4.9393 158.418 7.13889H166.813V8.33654H158.488C158.59 9.54201 158.711 10.6496 158.852 11.6594C159.071 13.1702 159.287 14.3717 159.498 15.2641C161.056 13.9021 162.562 12.2113 164.018 10.1917L165.122 10.9079C163.267 13.3345 161.521 15.2367 159.885 16.6144C160.159 17.405 160.457 18.1095 160.778 18.7279C161.584 20.356 162.48 21.1505 163.467 21.1114C164.14 21.1505 164.613 20.677 164.887 19.6907C165.153 18.6731 165.361 17.6241 165.51 16.5439C165.925 16.7474 166.328 16.8962 166.719 16.9901C166.547 18.266 166.304 19.405 165.991 20.4069C165.6 21.7768 164.75 22.4499 163.443 22.4265C161.925 22.4499 160.625 21.3854 159.545 19.2327C159.287 18.7083 159.048 18.129 158.829 17.495C157.341 18.7005 155.377 19.9216 152.934 21.1584C152.645 20.72 152.363 20.3599 152.089 20.0781C154.547 18.8883 156.649 17.5967 158.394 16.2034C158.026 14.8884 157.745 13.4285 157.549 11.8238C157.392 10.54 157.283 9.37763 157.22 8.33654H150.48V12.904C152.414 12.5439 153.979 12.2387 155.177 11.9882C155.177 12.4344 155.193 12.8453 155.224 13.221C154.081 13.4167 152.5 13.722 150.48 14.1369V19.5967C150.543 21.2954 149.752 22.1681 148.109 22.2151C147.639 22.2464 146.723 22.2621 145.361 22.2621C145.314 21.8237 145.228 21.3736 145.103 20.9118C145.478 20.9509 146.328 20.9744 147.651 20.9822C148.723 21.0214 149.236 20.5517 149.189 19.5733V14.3717C147.404 14.7083 145.76 15.0371 144.257 15.358ZM160.073 2.27787L161.013 1.43248C162.414 2.59881 163.705 3.71426 164.887 4.77883L163.878 5.69468C162.852 4.66924 161.584 3.53031 160.073 2.27787ZM189.58 19.1388C189.666 21.2836 188.641 22.3482 186.504 22.3325C186.112 22.3404 185.646 22.3482 185.106 22.356C184.605 22.356 183.956 22.356 183.157 22.356C183.079 21.8316 182.993 21.3736 182.899 20.9822C183.971 21.0527 185.044 21.0879 186.116 21.0879C186.946 21.0957 187.517 20.9392 187.83 20.6183C188.159 20.313 188.32 19.7611 188.312 18.9627V3.38158H182.147V2.13697H189.58V19.1388ZM168.515 12.8336C168.351 12.2856 168.167 11.7651 167.964 11.2719C170.39 7.6477 172.112 3.99997 173.13 0.328765L174.433 0.739721C173.846 2.43834 173.165 4.15261 172.39 5.88254V22.6496H171.134V8.43047C170.414 9.81598 169.541 11.2837 168.515 12.8336ZM176.382 22.3795V5.57726H177.65V22.3795H176.382ZM176.699 1.10371L177.733 0.375731C178.586 1.33854 179.537 2.46182 180.586 3.74557L179.482 4.544C178.66 3.44812 177.733 2.30135 176.699 1.10371ZM203.458 0.0704496H204.762V4.66142H213.145V5.85906H204.762V10.861H214.543V12.0939H206.969V19.1388C206.914 20.2973 207.482 20.8492 208.672 20.7944H211.372C212.523 20.8022 213.196 20.313 213.392 19.3267C213.556 18.4578 213.678 17.4324 213.756 16.2504C214.241 16.4226 214.656 16.5439 215 16.6144C214.852 18.0782 214.707 19.1036 214.566 19.6907C214.237 21.2249 213.22 22.0038 211.513 22.0272H208.413C206.566 22.0586 205.658 21.1584 205.689 19.3267V12.0939H200.5C200.507 12.2739 200.511 12.4931 200.511 12.7514C200.511 17.675 197.967 20.9901 192.879 22.6965C192.582 22.1564 192.324 21.7376 192.104 21.4402C196.864 20.0938 199.243 17.1936 199.243 12.7396C199.243 12.4735 199.239 12.2582 199.232 12.0939H192.539V10.861H203.458V5.85906H196.942C196.339 6.97843 195.611 8.13302 194.758 9.32283C194.288 8.97841 193.909 8.72401 193.619 8.55963C195.38 6.32872 196.778 3.71426 197.811 0.716238L199.102 1.10371C198.547 2.52836 198.026 3.71426 197.541 4.66142H203.458V0.0704496ZM224.57 1.00978H236.734V7.37373H224.57V1.00978ZM223.372 9.088H238.014V13.632H223.372V9.088ZM224.112 16.3443V15.3345H236.523V16.4852C235.223 17.8159 233.74 18.9079 232.073 19.7611C233.607 20.3482 235.787 20.8687 238.613 21.3228C238.339 21.7533 238.139 22.129 238.014 22.4499C234.883 21.9255 232.445 21.2445 230.699 20.4069C228.695 21.2914 226.069 22.0703 222.82 22.7435C222.703 22.446 222.484 22.0781 222.163 21.6398C225.043 21.0918 227.451 20.4656 229.384 19.7611C227.967 18.9392 226.676 17.8003 225.509 16.3443H224.112ZM219.31 0.0469664H220.507V22.4499H219.31V0.0469664ZM225.779 1.96085V3.72209H235.537V1.96085H225.779ZM225.779 4.66142V6.41092H235.537V4.66142H225.779ZM235.126 16.3443H226.953C228.159 17.5967 229.407 18.5517 230.699 19.2093C232.225 18.4969 233.701 17.542 235.126 16.3443ZM236.863 10.0273H233.47V12.6927H236.863V10.0273ZM224.523 10.0273V12.6927H227.869V10.0273H224.523ZM228.996 10.0273V12.6927H232.343V10.0273H228.996ZM217.114 5.33069L218.276 5.53029C217.901 7.87862 217.545 9.77684 217.208 11.225C217.036 11.1702 216.703 11.0919 216.21 10.9901C216.139 10.9745 216.089 10.9627 216.057 10.9549C216.441 9.38154 216.793 7.5068 217.114 5.33069ZM220.942 5.07237L221.834 4.43833C222.374 5.04889 223.126 5.96473 224.088 7.18586L223.126 7.87862C222.398 6.90015 221.67 5.96473 220.942 5.07237ZM240.374 1.91388H262.707V3.2172H251.141V22.4734H249.744V3.2172H240.374V1.91388ZM260.335 14.3717C257.212 12.4931 254.3 10.8414 251.599 9.41677L252.397 8.24261C255.638 9.90991 258.585 11.4794 261.239 12.951L260.335 14.3717ZM265.043 21.0879C264.722 20.5869 264.417 20.1603 264.127 19.8081C268.159 17.9842 271.548 15.5224 274.296 12.4226H264.491V11.2485H274.977V4.544H265.889V3.38158H274.977V0H276.245V3.38158H285.462V4.544H276.245V11.2485H286.706V12.4226H276.879C279.493 15.5146 282.867 17.8394 287 19.3971C286.781 19.6554 286.483 20.0899 286.108 20.7004C281.661 18.6887 278.374 16.1956 276.245 13.221V22.7435H274.977V13.1741C272.613 16.2347 269.301 18.8727 265.043 21.0879ZM280.143 10.2387L279.157 9.3698C280.268 8.28957 281.325 7.08801 282.327 5.76513L283.395 6.56356C282.456 7.66727 281.372 8.89231 280.143 10.2387ZM267.955 6.45788L268.941 5.71816C269.92 6.81404 270.898 7.96863 271.877 9.18193L270.785 10.0038C269.869 8.76706 268.926 7.58508 267.955 6.45788Z" fill="black" fill-opacity="0.7"/>
</svg>
