<svg width="159" height="39" viewBox="0 0 159 39" fill="none" xmlns="http://www.w3.org/2000/svg">
<path d="M38.645 28.4753C37.9931 29.1272 37.1196 30.0268 36.0244 31.1742C29.7139 26.2979 24.6812 20.0787 20.9262 12.5166V28.0059H29.8834V30.7048H20.9262V38.7232H17.8753V30.7048H8.60517V28.0059H17.8753V12.5166C14.5636 19.1139 9.46568 25.4895 2.58155 31.6435C1.56458 30.6787 0.704059 29.9095 0 29.3358C7.40566 23.2339 12.9599 16.7801 16.6627 9.97417H0.860517V7.11882H17.8753V0.0782288H20.9262V7.11882H37.941V9.97417H22.0214C26.1675 17.797 31.7087 23.9641 38.645 28.4753ZM46.7808 16.2716C46.7808 22.895 46.494 27.4322 45.9203 29.8834C45.2945 32.9082 43.9907 35.8157 42.0089 38.6059C41.2526 37.6411 40.5095 36.7675 39.7793 35.9852C41.4221 33.508 42.5043 31.0047 43.0258 28.4753C43.4431 26.2849 43.6517 22.4517 43.6517 16.9756V1.83838H76.8598V33.0125C76.8598 36.3764 75.2431 38.0713 72.0096 38.0974C70.1582 38.1496 68.0982 38.1235 65.8295 38.0192C65.7252 37.263 65.5166 36.233 65.2037 34.9292C67.7331 35.0856 69.6758 35.1638 71.0317 35.1638C72.8831 35.1638 73.8089 34.2903 73.8089 32.5432V4.6155H46.7808V16.2716ZM51.8657 21.6303H68.6066V32.152H54.8384V34.6554H51.8657V21.6303ZM48.6583 15.724H58.7107V11.7343H50.4576V9.11365H58.7107V5.67159H61.7616V9.11365H70.0148V11.7343H61.7616V15.724H71.8531V18.3446H48.6583V15.724ZM65.6339 29.5314V24.2509H54.8384V29.5314H65.6339ZM79.9889 35.7897C82.049 32.2172 83.1702 26.7803 83.3528 19.479L86.2472 19.6354C86.169 22.1648 85.9734 24.5117 85.6605 26.676C86.5471 28.6057 87.7336 30.1833 89.2199 31.4089V17.0539H80.3801V14.2768H87.7336V8.60517H81.3579V5.82804H87.7336V0.273801H90.6672V5.82804H96.417V8.60517H90.6672V14.2768H97.3948V17.0539H92.1144V23.1948H97.5122V25.972H92.1144V33.169C94.0962 34.0556 96.417 34.5119 99.0768 34.538C104.866 34.6162 111.502 34.5641 118.986 34.3815C118.595 35.2421 118.23 36.246 117.891 37.3934C110.381 37.4716 103.705 37.4455 97.8642 37.3151C91.5538 37.1587 87.2772 34.89 85.0347 30.5092C84.3046 33.7948 83.2745 36.5589 81.9446 38.8015C81.397 37.7063 80.7451 36.7023 79.9889 35.7897ZM97.8251 27.693H112.962V22.2561H99.155V19.6354H112.962V14.3159H98.803V11.6561C98.464 12.1255 98.125 12.5557 97.786 12.9469C97.2645 12.295 96.6125 11.5779 95.8303 10.7956C98.4118 7.7968 100.602 4.19828 102.401 0L105.218 0.97786C104.8 1.83838 104.357 2.71193 103.888 3.59852H114.058V6.2583L110.928 11.6952H115.896V31.7218H112.962V30.3137H97.8251V27.693ZM98.803 11.6952H107.643L110.772 6.21919H102.441C101.267 8.22706 100.055 10.0524 98.803 11.6952ZM122.858 24.29H135.336C135.414 23.5338 135.453 22.7255 135.453 21.8649H138.504C138.478 22.6994 138.426 23.5077 138.348 24.29H154.267C154.085 27.4453 153.876 30.2485 153.641 32.6996C153.328 35.9852 151.294 37.6411 147.539 37.6672C145.636 37.6932 143.12 37.6541 139.99 37.5498C139.834 36.4807 139.612 35.3724 139.325 34.2251C142.429 34.4859 145.14 34.6162 147.461 34.6162C149.391 34.6162 150.447 33.7688 150.63 32.0738C150.786 30.8743 150.929 29.1533 151.06 26.9107H137.917C137.292 29.6748 136.17 31.8 134.554 33.2863C132.076 35.6593 128.047 37.4977 122.467 38.8015C121.946 37.941 121.333 36.9761 120.629 35.907C126.235 34.7857 130.108 33.2081 132.246 31.1742C133.419 30.1311 134.267 28.71 134.788 26.9107H122.858V24.29ZM136.196 12.5166L137.565 10.3653C138.661 10.9129 139.717 11.4475 140.734 11.969C141.099 10.8477 141.333 9.46568 141.438 7.82288H137.174V5.20221H141.516V0.0391144H144.332V5.20221H152.624C152.624 10.2871 152.755 13.7683 153.015 15.6458C153.302 17.7579 153.876 18.814 154.737 18.814C155.232 18.814 155.597 18.2012 155.832 16.9756C156.04 15.7761 156.184 14.355 156.262 12.7122C157.175 13.1033 158.087 13.4554 159 13.7683C158.87 15.3328 158.7 16.6627 158.492 17.7579C157.97 20.6524 156.692 22.0996 154.658 22.0996C152.338 22.0996 150.89 20.4959 150.317 17.2886C149.978 15.3068 149.808 12.1515 149.808 7.82288H144.254C144.15 10.0133 143.85 11.8647 143.354 13.3771C145.206 14.4202 146.862 15.4111 148.322 16.3498L146.679 18.9314C145.271 17.9405 143.758 16.9496 142.142 15.9587C140.786 18.0969 138.139 20.2352 134.201 22.3734C133.628 21.5129 132.963 20.6785 132.207 19.8701C135.805 18.0969 138.256 16.2716 139.56 14.3941C138.465 13.7683 137.344 13.1424 136.196 12.5166ZM121.098 13.5727C122.611 13.338 124.827 12.9338 127.748 12.3601V8.17491H121.489V5.55424H127.748V0H130.564V5.55424H135.258V8.17491H130.564V11.8125C132.024 11.4996 133.615 11.1737 135.336 10.8347C135.388 12.2167 135.427 13.1294 135.453 13.5727C133.81 13.9117 132.181 14.2376 130.564 14.5506V18.5402C130.564 21.1218 129.312 22.4256 126.809 22.4517C125.688 22.4777 124.306 22.4647 122.663 22.4125C122.558 21.3956 122.402 20.4568 122.193 19.5963C123.888 19.7267 125.244 19.7919 126.261 19.7919C127.252 19.7919 127.748 19.2704 127.748 18.2273V15.1764C125.714 15.5936 123.732 16.0369 121.802 16.5063L121.098 13.5727Z" fill="black"/>
</svg>
