<svg width="126" height="32" viewBox="0 0 126 32" fill="none" xmlns="http://www.w3.org/2000/svg">
<path d="M0.125436 15.8676H4.73519L6.14634 8.02787H26.8746C26.77 10.8293 26.6551 13.4425 26.5296 15.8676H31.108V18.0941H26.4669C26.3624 20.1638 26.2683 22.0767 26.1847 23.8328H29.9791V25.9965H26.0279C25.8188 27.5226 25.3902 28.6202 24.7422 29.2892C23.9268 30.2091 22.5052 30.669 20.4774 30.669C19.3066 30.669 17.8118 30.6272 15.993 30.5436C15.8885 29.8328 15.7317 28.9965 15.5226 28.0348C17.676 28.223 19.223 28.3171 20.1638 28.3171C21.4808 28.3171 22.3484 28.0662 22.7666 27.5645C23.0592 27.2509 23.2683 26.7282 23.3937 25.9965H3.32404V23.6446L4.32753 18.0941H0.125436V15.8676ZM23.8955 18.0941H6.89895L5.89547 23.8328H23.6446C23.7491 21.9512 23.8328 20.0383 23.8955 18.0941ZM24.2091 10.1916H8.27875L7.27526 15.8676H24.0209C24.0836 14.0279 24.1463 12.1359 24.2091 10.1916ZM0 9.21951C3.09408 6.60627 5.51916 3.54355 7.27526 0.0313589H10.0976C9.59582 0.972125 9.07317 1.90244 8.52962 2.8223H30.3868V5.04878H7.08711C5.45645 7.36934 3.61672 9.40767 1.56794 11.1638C1.12892 10.5575 0.606272 9.90941 0 9.21951ZM12.669 11.9791L14.1115 10.3484C15.7003 11.5819 17.101 12.7108 18.3136 13.7352L16.6202 15.6167C15.324 14.3415 14.007 13.1289 12.669 11.9791ZM12.4181 19.9443L13.8606 18.3136C15.4495 19.547 16.8502 20.676 18.0627 21.7003L16.4007 23.5505C14.7909 22.0453 13.4634 20.8432 12.4181 19.9443ZM36.5017 2.2892H58.8606V30.7317H56.1951V28.5052H39.1672V30.7317H36.5017V2.2892ZM39.1672 16.338V26.2474H56.1951V16.338H39.1672ZM39.1672 4.60976V14.0174H56.1951V4.60976H39.1672ZM75.5122 31.2648C74.9686 30.6585 74.2997 30.0209 73.5052 29.3519C76.0348 27.0732 77.7073 24.8362 78.5226 22.6411C79.3171 20.5505 79.7143 17.2683 79.7143 12.7944V1.7561H93.4808V27.1568C93.4808 29.6237 92.2787 30.8571 89.8746 30.8571C88.3902 30.8571 86.6132 30.8153 84.5436 30.7317C84.4181 29.9164 84.2613 29.0801 84.0732 28.223C86.1429 28.3484 87.8153 28.4111 89.0906 28.4111C90.3659 28.4111 91.0035 27.784 91.0035 26.5296V20.446H81.6585C81.0732 24.3554 79.0244 27.9617 75.5122 31.2648ZM66.1045 2.75958H75.9199V24.0523H68.4564V26.3415H66.1045V2.75958ZM81.9721 18.2195H91.0035V12.23H82.1916C82.2125 14.4042 82.1394 16.4007 81.9721 18.2195ZM91.0035 4.07666H82.1916V10.0035H91.0035V4.07666ZM73.5679 21.7944V14.3937H68.4564V21.7944H73.5679ZM73.5679 5.01742H68.4564V12.1986H73.5679V5.01742ZM108.094 2.88502H126V30.6376H123.554V28.0348H110.54V30.7003H108.094V2.88502ZM100.286 19.0348C102.439 18.7213 104.634 18.3763 106.871 18C106.746 18.7944 106.652 19.5889 106.589 20.3833C103.808 20.8014 100.756 21.2927 97.4321 21.8571L96.9303 19.5052C98.331 18.0836 99.9408 15.8676 101.76 12.8571C100.066 12.9826 98.4564 13.108 96.9303 13.2334L96.3345 11.101C98.2578 8.55052 100.254 4.85017 102.324 0L104.676 0.940767C102.439 5.35192 100.599 8.68641 99.1568 10.9443C100.286 10.9233 101.561 10.892 102.983 10.8502C103.693 9.63763 104.425 8.3101 105.178 6.8676L107.498 8.02787C105.575 11.3101 103.171 14.9791 100.286 19.0348ZM118.223 25.7143H123.554V16.4007H118.223V25.7143ZM110.54 25.7143H115.84V16.4007H110.54V25.7143ZM123.554 5.20557H118.223V14.1742H123.554V5.20557ZM110.54 14.1742H115.84V5.20557H110.54V14.1742ZM96.2404 26.4983C99.8153 25.8293 103.39 25.0871 106.965 24.2718C106.902 25.108 106.871 25.892 106.871 26.6237C103.84 27.1882 100.526 27.9408 96.9303 28.8815L96.2404 26.4983Z" fill="black"/>
</svg>
