<svg width="302" height="62" viewBox="0 0 302 62" fill="none" xmlns="http://www.w3.org/2000/svg">
<rect x="0.5" y="0.5" width="301" height="61" rx="15" stroke="#1D2547"/>
<path d="M101.762 24.3379L101.498 23.2637C102.807 23.0488 104.262 22.7949 105.863 22.502V18.498H101.479V17.502H105.863V14.1426C104.451 14.3184 103.262 14.4518 102.299 14.543C102.227 14.1003 102.126 13.7585 101.996 13.5176C104.483 13.3158 107.084 12.9772 109.799 12.502L110.141 13.498C109.516 13.6152 108.448 13.7747 106.938 13.9766V17.502H112.484C112.374 15.8743 112.318 13.8952 112.318 11.5645H113.422C113.402 13.6934 113.441 15.6725 113.539 17.502H120.521V18.498H113.598C113.682 19.5007 113.783 20.4219 113.9 21.2617C114.083 22.5182 114.262 23.5176 114.438 24.2598C115.733 23.127 116.986 21.7207 118.197 20.041L119.115 20.6367C117.572 22.6549 116.12 24.237 114.76 25.3828C114.988 26.0404 115.235 26.6263 115.502 27.1406C116.173 28.4948 116.918 29.1556 117.738 29.123C118.298 29.1556 118.692 28.7617 118.92 27.9414C119.141 27.0951 119.314 26.2227 119.438 25.3242C119.783 25.4935 120.118 25.6172 120.443 25.6953C120.3 26.7565 120.098 27.7038 119.838 28.5371C119.512 29.6764 118.806 30.2363 117.719 30.2168C116.456 30.2363 115.375 29.3509 114.477 27.5605C114.262 27.1243 114.063 26.6426 113.881 26.1152C112.644 27.1178 111.01 28.1335 108.979 29.1621C108.738 28.7975 108.503 28.498 108.275 28.2637C110.32 27.2741 112.068 26.1999 113.52 25.041C113.214 23.9473 112.979 22.7331 112.816 21.3984C112.686 20.3307 112.595 19.3639 112.543 18.498H106.938V22.2969C108.546 21.9974 109.848 21.7435 110.844 21.5352C110.844 21.9062 110.857 22.248 110.883 22.5605C109.932 22.7233 108.617 22.9772 106.938 23.3223V27.8633C106.99 29.276 106.332 30.002 104.965 30.041C104.574 30.0671 103.812 30.0801 102.68 30.0801C102.641 29.7155 102.569 29.3411 102.465 28.957C102.777 28.9896 103.484 29.0091 104.584 29.0156C105.476 29.0482 105.902 28.6576 105.863 27.8438V23.5176C104.379 23.7975 103.012 24.071 101.762 24.3379ZM114.916 13.459L115.697 12.7559C116.863 13.7259 117.937 14.6536 118.92 15.5391L118.08 16.3008C117.227 15.4479 116.173 14.5007 114.916 13.459ZM122.201 15.5195H139.818V19.2793H138.764V16.4766H123.256V19.2793H122.201V15.5195ZM131.342 24.3379H132.396V27.3359C132.39 27.9609 132.504 28.3743 132.738 28.5762C132.953 28.7975 133.393 28.9049 134.057 28.8984H137.26C138.308 28.931 138.9 28.5046 139.037 27.6191C139.161 27.0527 139.262 26.3203 139.34 25.4219C139.607 25.5326 139.955 25.6465 140.385 25.7637C140.281 26.7663 140.173 27.5182 140.062 28.0195C139.815 29.2435 138.982 29.849 137.562 29.8359H133.764C132.859 29.8424 132.23 29.6764 131.879 29.3379C131.514 29.0124 131.335 28.4329 131.342 27.5996V24.3379ZM130.482 21.3789H131.537C131.55 21.6003 131.557 21.8086 131.557 22.0039C131.557 26.5612 128.451 29.3932 122.24 30.5C122.117 30.2266 121.924 29.901 121.664 29.5234C125.134 28.7357 127.429 27.7917 128.549 26.6914C129.747 25.6628 130.391 23.8919 130.482 21.3789ZM124.857 19.123H137.084V25.998H136.02V20.0605H125.922V25.998H124.857V19.123ZM123.9 12.6387L124.76 12.0625C125.541 12.9609 126.28 13.8398 126.977 14.6992L126.02 15.3633C125.518 14.6602 124.812 13.752 123.9 12.6387ZM135.385 15.3828L134.477 14.7188C135.368 13.7878 136.238 12.7884 137.084 11.7207L138.002 12.3359C137.064 13.4688 136.192 14.4844 135.385 15.3828ZM129.584 11.9355L130.541 11.4961C131.303 12.7461 131.908 13.7812 132.357 14.6016L131.322 15.0996C130.854 14.1621 130.274 13.1074 129.584 11.9355ZM149.145 12.4824H158.861V19.3184H149.145V12.4824ZM148.061 21.2031H160.043V22.1211H157.66V24.084H160.463V25.0215H157.66V27.9219C157.745 29.4128 156.993 30.1387 155.404 30.0996C154.545 30.1257 153.682 30.1387 152.816 30.1387C152.738 29.7546 152.634 29.3965 152.504 29.0645C153.493 29.1035 154.366 29.123 155.121 29.123C155.707 29.1296 156.101 29.0449 156.303 28.8691C156.518 28.7129 156.622 28.4036 156.615 27.9414V25.0215H147.221V24.084H156.615V22.1211H148.061V21.2031ZM142.016 23.8594C141.846 23.4427 141.687 23.0977 141.537 22.8242C143.354 21.1055 144.955 18.9896 146.342 16.4766L147.279 16.9844C146.719 17.9284 146.078 18.9147 145.355 19.9434V30.4219H144.34V21.3008C143.598 22.2188 142.823 23.0716 142.016 23.8594ZM150.16 13.3809V15.4609H157.836V13.3809H150.16ZM150.16 16.3398V18.4199H157.836V16.3398H150.16ZM142.436 17.6387C142.279 17.3457 142.081 17.0397 141.84 16.7207C143.559 15.3926 145.105 13.6868 146.479 11.6035L147.416 12.1406C146.055 14.1328 144.395 15.9655 142.436 17.6387ZM148.939 26.2031L149.721 25.5391C150.587 26.3594 151.326 27.1146 151.938 27.8047L151.098 28.5176C150.427 27.7103 149.708 26.9388 148.939 26.2031ZM162.182 12.5996H179.799V13.5176H173.9V15.8418H178.822V20.5391H163.178V15.8418H168.041V13.5176H162.182V12.5996ZM178.92 30.2559C178.568 30.1387 178.048 29.9661 177.357 29.7383C174.916 28.9375 173.064 28.3451 171.801 27.9609C169.652 29.1133 166.524 29.9336 162.416 30.4219C162.292 30.0182 162.152 29.6634 161.996 29.3574C165.616 28.9733 168.402 28.3548 170.355 27.502C168.598 26.9355 166.846 26.3822 165.102 25.8418C165.824 25.0215 166.417 24.3216 166.879 23.7422H161.518V22.8242H167.602C167.992 22.3099 168.432 21.6751 168.92 20.9199L169.965 21.3398C169.652 21.7826 169.285 22.2773 168.861 22.8242H180.463V23.7422H176.176C175.31 25.2135 174.226 26.3984 172.924 27.2969C173.015 27.3229 173.148 27.362 173.324 27.4141C175.935 28.2018 177.979 28.8301 179.457 29.2988L178.92 30.2559ZM171.576 26.877C172.904 26.1348 174.024 25.0898 174.936 23.7422H168.158C167.813 24.1979 167.348 24.7708 166.762 25.4609C167.087 25.5586 167.585 25.7051 168.256 25.9004C169.675 26.3171 170.782 26.6426 171.576 26.877ZM177.797 16.7402H173.9V19.6406H177.797V16.7402ZM164.203 16.7402V19.6406H168.041V16.7402H164.203ZM169.057 16.7402V19.6406H172.885V16.7402H169.057ZM169.057 13.5176V15.8418H172.885V13.5176H169.057ZM182.299 13.4785H187.582V26.7793H186.557V25.3047H183.324V27.0234H182.299V13.4785ZM199.057 27.1797C199.2 26.3529 199.32 25.3861 199.418 24.2793C199.861 24.4355 200.215 24.5495 200.482 24.6211C200.359 25.6758 200.225 26.61 200.082 27.4238C199.802 29.0319 198.829 29.8229 197.162 29.7969H192.162C190.508 29.7578 189.649 29.1458 189.584 27.9609C189.577 27.3359 189.835 26.6947 190.355 26.0371C191.827 24.2337 193.887 22.1276 196.537 19.7188H190.277V18.7227H197.963V19.7969C195.098 22.3945 192.885 24.6276 191.322 26.4961C190.886 27.0495 190.665 27.5117 190.658 27.8828C190.645 28.5143 191.273 28.8268 192.543 28.8203H196.801C198.142 28.8333 198.894 28.2865 199.057 27.1797ZM183.324 14.4648V24.3184H186.557V14.4648H183.324ZM189.223 18.8398C188.988 18.6445 188.695 18.4395 188.344 18.2246C189.802 16.2715 191.033 14.0514 192.035 11.5645L193.08 11.916C192.676 12.8079 192.296 13.5957 191.938 14.2793H200.219V15.2754H191.42C190.665 16.6621 189.932 17.8503 189.223 18.8398ZM120.383 50.75C118.68 48.7604 117.828 46.3099 117.828 43.3984C117.828 40.362 118.693 37.862 120.422 35.8984H121.242C119.482 37.9245 118.602 40.4193 118.602 43.3828C118.602 46.1797 119.471 48.6354 121.211 50.75H120.383ZM127.898 36.2109H142.297V37.0547H136.539C134.435 40.4557 131.602 43.3255 128.039 45.6641C127.872 45.4453 127.664 45.2109 127.414 44.9609C131.044 42.5807 133.727 39.9453 135.461 37.0547H127.898V36.2109ZM134.469 40.0938H135.367V49.9688H134.469V40.0938ZM141.867 45.2344C139.997 43.9271 138.237 42.7578 136.586 41.7266L137.125 41.0703C138.719 42.0599 140.49 43.2083 142.438 44.5156L141.867 45.2344ZM150.633 43.2656H151.492C151.44 43.7708 151.383 44.1641 151.32 44.4453H158.328V45.2188H151.641C152.714 47.2812 154.964 48.5391 158.391 48.9922C158.203 49.2214 158.034 49.5 157.883 49.8281C154.289 49.1875 151.995 47.7995 151 45.6641C150.438 47.7109 148.091 49.1615 143.961 50.0156C143.831 49.7552 143.669 49.4844 143.477 49.2031C147.581 48.4115 149.849 47.0833 150.281 45.2188H143.719V44.4453H150.469C150.547 44.1224 150.602 43.7292 150.633 43.2656ZM149.867 39.7109C149.732 39.5651 149.513 39.3672 149.211 39.1172C150.773 37.8672 151.977 36.4505 152.82 34.8672L153.672 35.1172C153.339 35.6953 152.982 36.2292 152.602 36.7188H157.641V37.4844C156.271 40.2135 153.711 42.0286 149.961 42.9297C149.841 42.6745 149.693 42.4167 149.516 42.1562C153.078 41.3229 155.482 39.7604 156.727 37.4688H152.023C151.951 37.5677 151.831 37.7135 151.664 37.9062C151.596 37.9844 151.547 38.0417 151.516 38.0781C152.068 38.5 152.727 39.0339 153.492 39.6797L152.82 40.2734C152.424 39.8724 151.818 39.3229 151 38.625C150.521 39.1094 150.143 39.4714 149.867 39.7109ZM143.477 41.25C144.971 40.6198 146.318 40.0052 147.516 39.4062V34.9297H148.359V43.5234H147.516V40.2734C146.396 40.7943 145.156 41.4115 143.797 42.125L143.477 41.25ZM143.992 36.7969L144.602 36.2891C145.643 37.2734 146.422 38.0365 146.938 38.5781L146.266 39.1484C145.682 38.5026 144.924 37.7188 143.992 36.7969ZM169.914 34.9141H170.758C170.758 35.4505 170.747 36.5443 170.727 38.1953H173.898C173.846 40.862 173.766 43.7891 173.656 46.9766C173.625 47.9505 173.464 48.612 173.172 48.9609C172.901 49.3359 172.396 49.5339 171.656 49.5547C171.49 49.5599 171.297 49.5651 171.078 49.5703C170.974 49.5703 170.859 49.5703 170.734 49.5703C170.62 49.5703 170.469 49.5703 170.281 49.5703C170.26 49.2734 170.201 48.9688 170.102 48.6562C170.487 48.6875 170.969 48.7031 171.547 48.7031C172.026 48.7083 172.354 48.5938 172.531 48.3594C172.719 48.1302 172.823 47.6953 172.844 47.0547C172.932 44.3255 172.995 41.638 173.031 38.9922H170.711C170.706 39.3255 170.693 39.8047 170.672 40.4297C170.661 40.7786 170.654 41.0312 170.648 41.1875C170.654 45.099 169.784 48.0156 168.039 49.9375C167.857 49.7708 167.622 49.5781 167.336 49.3594C169.008 47.5833 169.828 44.9427 169.797 41.4375C169.802 41.3073 169.81 41.0807 169.82 40.7578C169.846 40.013 169.862 39.4245 169.867 38.9922H168.57V38.1953H169.883C169.904 36.7109 169.914 35.6172 169.914 34.9141ZM162.234 38.8516H167.734V39.6172H164.438C164.427 40.6224 164.406 41.5078 164.375 42.2734H167.352C167.326 43.612 167.26 45.2552 167.156 47.2031C167.115 48.0469 166.956 48.6224 166.68 48.9297C166.424 49.2526 165.951 49.4219 165.258 49.4375C165.117 49.4427 164.974 49.4479 164.828 49.4531C164.76 49.4531 164.685 49.4531 164.602 49.4531C164.534 49.4531 164.427 49.4531 164.281 49.4531C164.25 49.1146 164.201 48.8333 164.133 48.6094C164.43 48.6302 164.76 48.6406 165.125 48.6406C165.578 48.6458 165.883 48.5547 166.039 48.3672C166.206 48.1849 166.307 47.8177 166.344 47.2656C166.432 45.8646 166.487 44.4505 166.508 43.0234H164.344C164.271 45.9193 163.583 48.1797 162.281 49.8047C162.078 49.6172 161.859 49.4427 161.625 49.2812C162.484 48.0312 163.018 46.8333 163.227 45.6875C163.482 44.5885 163.615 42.5651 163.625 39.6172H162.234V38.8516ZM161.477 36.6875V41.6172C161.482 43.8307 161.391 45.4583 161.203 46.5C161.026 47.5781 160.648 48.6641 160.07 49.7578C159.732 49.4922 159.497 49.3177 159.367 49.2344C159.935 48.1562 160.284 47.1641 160.414 46.2578C160.581 45.3724 160.659 43.8099 160.648 41.5703V35.8906H167.977V36.6875H161.477ZM181.617 50.75H180.789C182.529 48.6354 183.398 46.1797 183.398 43.3828C183.398 40.4193 182.518 37.9245 180.758 35.8984H181.586C183.31 37.8724 184.172 40.3724 184.172 43.3984C184.172 46.3203 183.32 48.7708 181.617 50.75Z" fill="#1D2547"/>
</svg>
