<svg width="302" height="62" viewBox="0 0 302 62" fill="none" xmlns="http://www.w3.org/2000/svg">
<rect width="302" height="62" rx="15.5" fill="#1D2547" fill-opacity="0.8"/>
<path d="M112.123 23.2637H130.121V24.3184H122.924C120.294 28.5697 116.752 32.1569 112.299 35.0801C112.09 34.8066 111.83 34.5137 111.518 34.2012C116.055 31.2259 119.408 27.9316 121.576 24.3184H112.123V23.2637ZM120.336 28.1172H121.459V40.4609H120.336V28.1172ZM129.584 34.543C127.247 32.9089 125.046 31.4473 122.982 30.1582L123.656 29.3379C125.648 30.5749 127.862 32.0104 130.297 33.6445L129.584 34.543ZM148.9 32.9023H140.121V22.5215H148.9V32.9023ZM132.182 32.043C131.973 31.6914 131.771 31.3919 131.576 31.1445C133.054 29.5755 134.236 27.7331 135.121 25.6172H131.957V24.7188H135.18V21.6816H136.156V24.7188H139.096V25.6172H136.156V27.8047L136.703 27.2773C137.504 27.8958 138.282 28.5566 139.037 29.2598L138.344 29.9629C137.686 29.3184 136.957 28.6576 136.156 27.9805V33.3027H135.18V27.1992C134.464 28.9766 133.464 30.5911 132.182 32.043ZM141.117 23.4004V25.7246H147.904V23.4004H141.117ZM141.117 29.6992V32.0234H147.904V29.6992H141.117ZM136.576 34.377H137.621V37.4434C137.582 38.459 138.194 38.9505 139.457 38.918H142.904C144.044 38.957 144.708 38.4655 144.896 37.4434C145.007 36.9746 145.108 36.4212 145.199 35.7832C145.486 35.9004 145.834 36.0273 146.244 36.1641C146.094 36.9518 145.948 37.5768 145.805 38.0391C145.466 39.3151 144.577 39.9368 143.139 39.9043H139.242C137.458 39.9043 136.57 39.1361 136.576 37.5996V34.377ZM141.117 26.584V28.8398H147.904V26.584H141.117ZM133.598 34.543L134.564 34.8848C133.979 36.4408 133.357 37.8535 132.699 39.123C132.4 38.9408 132.081 38.7812 131.742 38.6445C132.445 37.4661 133.064 36.099 133.598 34.543ZM147.123 35.1191L147.963 34.582C148.861 35.7083 149.688 36.8086 150.443 37.8828L149.564 38.4785C148.738 37.2741 147.924 36.1543 147.123 35.1191ZM139.779 34.3574L140.541 33.7227C141.322 34.4974 142.087 35.3047 142.836 36.1445L142.016 36.8574C141.286 35.972 140.541 35.1387 139.779 34.3574ZM152.299 23.4785H157.582V36.7793H156.557V35.3047H153.324V37.0234H152.299V23.4785ZM169.057 37.1797C169.2 36.3529 169.32 35.3861 169.418 34.2793C169.861 34.4355 170.215 34.5495 170.482 34.6211C170.359 35.6758 170.225 36.61 170.082 37.4238C169.802 39.0319 168.829 39.8229 167.162 39.7969H162.162C160.508 39.7578 159.649 39.1458 159.584 37.9609C159.577 37.3359 159.835 36.6947 160.355 36.0371C161.827 34.2337 163.887 32.1276 166.537 29.7188H160.277V28.7227H167.963V29.7969C165.098 32.3945 162.885 34.6276 161.322 36.4961C160.886 37.0495 160.665 37.5117 160.658 37.8828C160.645 38.5143 161.273 38.8268 162.543 38.8203H166.801C168.142 38.8333 168.894 38.2865 169.057 37.1797ZM153.324 24.4648V34.3184H156.557V24.4648H153.324ZM159.223 28.8398C158.988 28.6445 158.695 28.4395 158.344 28.2246C159.802 26.2715 161.033 24.0514 162.035 21.5645L163.08 21.916C162.676 22.8079 162.296 23.5957 161.938 24.2793H170.219V25.2754H161.42C160.665 26.6621 159.932 27.8503 159.223 28.8398ZM180.824 28.7422L187.68 24.2207H172.26V23.1367H189.223V24.4844L181.977 29.3379V36.7207C182.061 38.9147 181.029 39.9889 178.881 39.9434C178.386 39.9499 177.927 39.9564 177.504 39.9629C177.296 39.9629 177.071 39.9629 176.83 39.9629C176.622 39.9629 176.299 39.9629 175.863 39.9629C175.811 39.5267 175.736 39.0872 175.639 38.6445C176.55 38.6966 177.569 38.7227 178.695 38.7227C179.503 38.7292 180.056 38.5827 180.355 38.2832C180.674 38.0033 180.831 37.4824 180.824 36.7207V28.7422Z" fill="white"/>
</svg>
