<svg width="302" height="62" viewBox="0 0 302 62" fill="none" xmlns="http://www.w3.org/2000/svg">
<rect x="0.5" y="0.5" width="301" height="61" rx="15" stroke="#1D2547"/>
<path d="M116.791 29.6016C113.594 29.4909 111.208 28.7227 109.633 27.2969C108.962 28.2214 108.002 29.2565 106.752 30.4023C106.589 30.181 106.335 29.8945 105.99 29.543C107.318 28.3971 108.279 27.388 108.871 26.5156C107.921 25.4219 107.094 23.8887 106.391 21.916L107.357 21.5352C107.982 23.2539 108.682 24.6016 109.457 25.5781C110.199 24.3086 110.691 22.541 110.932 20.2754H106.391V19.2012L110.951 14.2402H106.332V13.2637H112.113V14.377L107.611 19.2988H112.016V20.3633C111.69 22.9284 111.088 24.9401 110.209 26.3984C111.537 27.7396 113.78 28.4655 116.938 28.5762C117.914 28.6217 119.057 28.6445 120.365 28.6445C121.68 28.6445 123.165 28.6217 124.818 28.5762C124.61 29.0645 124.49 29.4323 124.457 29.6797C124.255 29.6797 123.939 29.6797 123.51 29.6797C120.652 29.6862 118.412 29.6602 116.791 29.6016ZM114.438 17.1406H115.492V24.6797H118.676V13.9766C117.068 14.0872 115.434 14.1816 113.773 14.2598C113.721 13.8887 113.64 13.5501 113.529 13.2441C117.279 13.0749 120.714 12.847 123.832 12.5605L124.076 13.5566C123.38 13.6283 122.139 13.7259 120.355 13.8496C120.082 13.8691 119.874 13.8854 119.73 13.8984V18.459H123.91V19.4355H119.73V24.6797H124.252V25.6562H114.438V17.1406ZM133.529 12.8242H143.051V19.8359H134.535C134.49 22.6419 133.689 25.0508 132.133 27.0625C131.866 26.7891 131.579 26.5417 131.273 26.3203C132.23 25.0312 132.839 23.8236 133.1 22.6973C133.399 21.584 133.542 19.8034 133.529 17.3555V12.8242ZM134.594 17.3848C134.594 17.5736 134.59 17.8438 134.584 18.1953C134.577 18.5013 134.574 18.7292 134.574 18.8789H141.996V13.7812H134.594V17.3848ZM135.17 28.625C135.86 28.6315 136.667 28.6348 137.592 28.6348C138.503 28.6348 139.418 28.6348 140.336 28.6348C142.139 28.6283 143.633 28.6152 144.818 28.5957C144.623 28.9473 144.473 29.3151 144.369 29.6992C140.827 29.6862 137.702 29.6536 134.994 29.6016C132.533 29.6406 130.593 28.7878 129.174 27.043C128.314 28.0586 127.494 29.1296 126.713 30.2559L125.834 29.4844C126.713 28.3841 127.654 27.2904 128.656 26.2031V19.4355H126.117V18.4199H129.711V26.1152C131.013 27.8275 132.833 28.6641 135.17 28.625ZM136.811 22.043L137.494 21.2617C139.512 22.6549 141.726 24.2402 144.135 26.0176L143.412 26.877C141.16 25.1582 138.959 23.5469 136.811 22.043ZM129.838 15.9199C128.887 14.5592 128.048 13.4004 127.318 12.4434L128.158 11.8574C129.057 12.9772 129.929 14.1165 130.775 15.2754L129.838 15.9199ZM146.449 28V27.2969C146.449 26.8216 146.485 26.3984 146.557 26.0273C146.635 25.6497 146.752 25.3047 146.908 24.9922C147.071 24.6732 147.27 24.3737 147.504 24.0938C147.738 23.8138 148.012 23.5371 148.324 23.2637C148.643 22.9837 149.001 22.6973 149.398 22.4043C149.796 22.1113 150.229 21.7923 150.697 21.4473C151.153 21.1217 151.579 20.7962 151.977 20.4707C152.374 20.1452 152.719 19.7969 153.012 19.4258C153.311 19.0547 153.546 18.6478 153.715 18.2051C153.891 17.7559 153.979 17.2415 153.979 16.6621C153.979 15.666 153.702 14.8913 153.148 14.3379C152.595 13.7845 151.82 13.5078 150.824 13.5078C150.147 13.5078 149.496 13.6576 148.871 13.957C148.246 14.25 147.634 14.6602 147.035 15.1875V14.0449C147.615 13.6022 148.236 13.2539 148.9 13C149.571 12.7461 150.268 12.6191 150.99 12.6191C151.596 12.6191 152.143 12.7135 152.631 12.9023C153.126 13.0846 153.546 13.3451 153.891 13.6836C154.242 14.0156 154.512 14.4225 154.701 14.9043C154.89 15.3796 154.984 15.9134 154.984 16.5059C154.984 17.2025 154.883 17.821 154.682 18.3613C154.486 18.8952 154.216 19.3835 153.871 19.8262C153.526 20.2624 153.122 20.666 152.66 21.0371C152.204 21.4017 151.719 21.7695 151.205 22.1406C150.521 22.6224 149.942 23.0521 149.467 23.4297C148.998 23.8073 148.617 24.1751 148.324 24.5332C148.031 24.8913 147.82 25.2591 147.689 25.6367C147.559 26.0143 147.494 26.4538 147.494 26.9551V27.1113H155.014V28H146.449ZM159.584 20.2363H172.182C172.11 22.6387 172.012 24.7318 171.889 26.5156C171.811 28.7617 170.648 29.8848 168.402 29.8848C167.96 29.8978 167.51 29.9076 167.055 29.9141C166.833 29.9206 166.602 29.9238 166.361 29.9238C166.146 29.9238 165.86 29.9238 165.502 29.9238C165.469 29.5658 165.404 29.1719 165.307 28.7422C166.231 28.7943 167.243 28.8203 168.344 28.8203C169.939 28.9115 170.759 28.0977 170.805 26.3789C170.928 24.5885 171.003 22.8763 171.029 21.2422H164.447C164.408 25.6302 162.387 28.7161 158.383 30.5C158.188 30.1875 157.956 29.875 157.689 29.5625C161.452 28 163.331 25.2266 163.324 21.2422H159.584V20.2363ZM168.109 12.0039L169.145 11.623C170.531 15.0866 172.79 17.6582 175.922 19.3379C175.596 19.722 175.316 20.0573 175.082 20.3438C171.898 18.306 169.574 15.526 168.109 12.0039ZM157.865 20.3828C157.611 20.0378 157.351 19.7318 157.084 19.4648C159.994 17.5117 162.309 14.9824 164.027 11.877L165.023 12.3848C163.096 15.6855 160.71 18.3516 157.865 20.3828ZM189.584 11.6426H190.648V15.4609H195.082V24.4355H194.047V23.5176H190.648V30.4414H189.584V23.5176H186.166V24.4355H185.131V15.4609H189.584V11.6426ZM177.23 21.9844H179.887V18.8984H178.549V17.9609H183.344V18.8984H180.922V21.9844H183.93V22.9414H180.922V28.0977C181.872 27.5703 182.862 26.9779 183.891 26.3203C183.93 26.7044 184.008 27.0592 184.125 27.3848C183.09 27.9316 182.032 28.5436 180.951 29.2207C180.665 29.3965 180.391 29.6113 180.131 29.8652L179.389 28.9961C179.734 28.6771 179.9 28.2799 179.887 27.8047V22.9414H177.23V21.9844ZM186.166 16.457V22.5215H189.584V16.457H186.166ZM194.047 16.457H190.648V22.5215H194.047V16.457ZM177.67 18.459C177.494 18.2637 177.24 18.0098 176.908 17.6973C178.256 15.7702 179.268 13.7389 179.945 11.6035L180.971 11.916C180.665 12.7884 180.303 13.6706 179.887 14.5625H183.988V15.5195H179.408C179.024 16.2943 178.445 17.2741 177.67 18.459ZM96.3828 50.75C94.6797 48.7604 93.8281 46.3099 93.8281 43.3984C93.8281 40.362 94.6927 37.862 96.4219 35.8984H97.2422C95.4818 37.9245 94.6016 40.4193 94.6016 43.3828C94.6016 46.1797 95.4714 48.6354 97.2109 50.75H96.3828ZM103.609 49.1719C105.474 48.5417 106.685 47.8958 107.242 47.2344C107.852 46.6094 108.177 45.5521 108.219 44.0625H103.867V43.2969H118.203V44.0625H113.078V47.3438C113.073 47.8438 113.167 48.1771 113.359 48.3438C113.536 48.526 113.891 48.6146 114.422 48.6094H115.977C116.893 48.6562 117.383 48.3411 117.445 47.6641C117.555 47.1745 117.641 46.6042 117.703 45.9531C117.969 46.0625 118.242 46.1536 118.523 46.2266C118.44 46.9193 118.354 47.4948 118.266 47.9531C118.12 48.9948 117.367 49.4896 116.008 49.4375H114.359C112.865 49.5 112.151 48.8672 112.219 47.5391V44.0625H109.078C109.089 44.2135 109.094 44.3646 109.094 44.5156C109.094 47.1458 107.445 48.9479 104.148 49.9219C104.023 49.724 103.844 49.474 103.609 49.1719ZM110.203 35.0547L111 34.7812C111.297 35.4115 111.568 36.026 111.812 36.625L111.211 36.8281H117.719V39.3906H116.859V37.6016H105.125V39.3906H104.266V36.8281H110.953C110.786 36.4062 110.536 35.8151 110.203 35.0547ZM105.719 40.0625H116.359V40.8281H105.719V40.0625ZM128.055 34.8516H128.906C128.938 36.0182 128.974 37.0677 129.016 38H134.422V38.7812H129.047C129.203 41.4375 129.508 43.5677 129.961 45.1719C130.878 43.9688 131.747 42.4219 132.57 40.5312L133.383 40.8516C132.383 43.0286 131.344 44.7917 130.266 46.1406C130.901 48.0156 131.609 48.9557 132.391 48.9609C132.828 48.9974 133.148 48.6615 133.352 47.9531C133.529 47.2917 133.661 46.6146 133.75 45.9219C134.016 46.0521 134.284 46.1536 134.555 46.2266C134.43 47.1172 134.284 47.8099 134.117 48.3047C133.805 49.3307 133.224 49.8307 132.375 49.8047C131.266 49.862 130.344 48.8932 129.609 46.8984C128.802 47.8099 127.805 48.7109 126.617 49.6016C126.451 49.4036 126.242 49.1797 125.992 48.9297C127.284 48.013 128.388 47.026 129.305 45.9688C128.727 44.2135 128.359 41.8177 128.203 38.7812H121.914V41.4531H126.391C126.375 42.651 126.318 44.0755 126.219 45.7266C126.188 47.2422 125.497 47.9896 124.148 47.9688C123.815 47.9792 123.346 47.9844 122.742 47.9844C122.695 47.6615 122.633 47.362 122.555 47.0859C122.742 47.1016 122.951 47.1146 123.18 47.125C123.289 47.125 123.411 47.1276 123.547 47.1328C123.661 47.1328 123.82 47.1328 124.023 47.1328C124.904 47.1849 125.352 46.737 125.367 45.7891C125.466 44.5026 125.521 43.3203 125.531 42.2422H121.914C121.909 44.2161 121.781 45.6901 121.531 46.6641C121.312 47.638 120.826 48.7292 120.07 49.9375C119.893 49.7708 119.659 49.5729 119.367 49.3438C120.112 48.1667 120.576 47.1042 120.758 46.1562C120.971 45.2448 121.073 43.651 121.062 41.375V38H128.148C128.102 37.0365 128.07 35.987 128.055 34.8516ZM130.234 35.9062L130.727 35.3281C131.56 35.8281 132.349 36.3464 133.094 36.8828L132.586 37.5078C131.862 36.9661 131.078 36.4323 130.234 35.9062ZM139.945 43.1719H148.984V49.8047H148.117V48.8125H140.805V49.8281H139.945V43.1719ZM138.172 40.8281C138.182 43.0156 138.049 44.6953 137.773 45.8672C137.534 47.0391 137.005 48.3594 136.188 49.8281C135.922 49.599 135.664 49.3958 135.414 49.2188C136.164 48.0521 136.661 46.8958 136.906 45.75C137.167 44.6198 137.294 42.9792 137.289 40.8281V36.2734C141.555 36.1484 145.523 35.849 149.195 35.375L149.547 36.2734C145.26 36.7057 141.469 36.9818 138.172 37.1016V39.5547H150.422V40.3828H138.172V40.8281ZM140.805 43.9844V48H148.117V43.9844H140.805ZM153.398 38.8984H164.633V45.1484H153.398V38.8984ZM161.812 45.6328H162.633V46.6406H166.57V47.3125H162.633V49.8047H161.812V47.3125H156.508C156.289 48.5781 155.115 49.4896 152.984 50.0469C152.865 49.8385 152.706 49.5938 152.508 49.3125C154.352 48.8385 155.391 48.1719 155.625 47.3125H151.531V46.6406H155.781C155.781 46.6302 155.784 46.6146 155.789 46.5938C155.831 46.2083 155.852 45.888 155.852 45.6328H156.664C156.664 45.9974 156.648 46.3333 156.617 46.6406H161.812V45.6328ZM154.219 43.25V44.5156H163.812V43.25H154.219ZM154.219 41.3906V42.625H163.812V41.3906H154.219ZM154.219 39.5391V40.7656H163.812V39.5391H154.219ZM154.469 34.7812L155.258 34.9766C155.086 35.3411 154.862 35.7526 154.586 36.2109H159.125V36.8828H154.148C153.591 37.6901 152.883 38.474 152.023 39.2344C151.81 39.0052 151.602 38.8073 151.398 38.6406C152.737 37.5885 153.76 36.3021 154.469 34.7812ZM160.953 34.7969L161.75 34.9609C161.635 35.237 161.464 35.6146 161.234 36.0938C161.208 36.1458 161.19 36.1849 161.18 36.2109H166.391V36.8828H160.789C160.424 37.4557 159.977 38.0312 159.445 38.6094C159.232 38.4375 159.003 38.276 158.758 38.125C159.742 37.1615 160.474 36.0521 160.953 34.7969ZM156.484 38.7031C156.089 38.224 155.701 37.7917 155.32 37.4062L155.883 36.9766C156.279 37.3568 156.682 37.7786 157.094 38.2422L156.484 38.7031ZM163.656 38.2266L163.047 38.6875C162.635 38.1719 162.263 37.7396 161.93 37.3906L162.484 36.9609C162.885 37.3568 163.276 37.7786 163.656 38.2266ZM167.414 41.4844H182.586V42.4141H167.414V41.4844ZM192.172 41.1484C192.214 40.7526 192.234 40.2109 192.234 39.5234H193.141C193.13 39.9714 193.104 40.5078 193.062 41.1328C193.734 44.7578 195.542 47.3568 198.484 48.9297C198.25 49.1849 198.026 49.4557 197.812 49.7422C194.901 47.8568 193.201 45.4479 192.711 42.5156C192.315 45.4583 190.438 47.9479 187.078 49.9844C186.953 49.7969 186.734 49.5312 186.422 49.1875C189.974 47.2656 191.891 44.5859 192.172 41.1484ZM196.406 41.8203C196.109 41.7005 195.833 41.6068 195.578 41.5391L196.938 38.5156H190.508C190.086 39.4427 189.531 40.4714 188.844 41.6016C188.62 41.4401 188.352 41.2786 188.039 41.1172C189.315 39.2474 190.25 37.2005 190.844 34.9766L191.719 35.2031C191.453 36.0573 191.161 36.8828 190.844 37.6797H197.797V38.5781L196.406 41.8203ZM183.461 47.6797C184.57 45.8776 185.648 43.8464 186.695 41.5859C186.992 41.8047 187.258 41.9844 187.492 42.125C186.576 43.8385 185.516 45.8776 184.312 48.2422L183.461 47.6797ZM186.602 39.8438C185.674 38.5781 184.784 37.4245 183.93 36.3828L184.602 35.8906C185.477 36.9323 186.388 38.0625 187.336 39.2812L186.602 39.8438ZM205.617 50.75H204.789C206.529 48.6354 207.398 46.1797 207.398 43.3828C207.398 40.4193 206.518 37.9245 204.758 35.8984H205.586C207.31 37.8724 208.172 40.3724 208.172 43.3984C208.172 46.3203 207.32 48.7708 205.617 50.75Z" fill="#1D2547"/>
</svg>
