<svg width="522" height="80" viewBox="0 0 522 80" fill="none" xmlns="http://www.w3.org/2000/svg">
<rect width="522" height="80" rx="20" fill="#D9D9D9"/>
<path d="M217.219 42.4258H232.828V51.9297H231.574V50.7344H218.449V51.9297H217.219V42.4258ZM213.797 40.0469L213.668 38.9688C215.754 38.8906 217.699 38.793 219.504 38.6758V36.543H214.652V35.418C215.191 34.668 215.777 33.7383 216.41 32.6289H213.984V31.6211H216.961C217.422 30.7617 217.836 29.9141 218.203 29.0781L219.457 29.418C219.254 29.8164 218.93 30.4297 218.484 31.2578C218.398 31.4219 218.332 31.543 218.285 31.6211H224.859V32.6289H217.723C217.387 33.2305 216.906 34.0469 216.281 35.0781C216.156 35.2812 216.062 35.4336 216 35.5352H219.504V33.707H220.699V35.5352H224.355V36.543H220.699V38.6055C221.184 38.582 221.902 38.5391 222.855 38.4766C223.59 38.4297 224.137 38.3945 224.496 38.3711C224.465 38.668 224.449 39.0117 224.449 39.4023C223.176 39.4883 221.926 39.5664 220.699 39.6367V41.4648H219.504V39.707C218.676 39.7617 217.426 39.8359 215.754 39.9297C214.887 39.9844 214.234 40.0234 213.797 40.0469ZM224.109 40.7734C225.086 39.6328 225.703 38.5977 225.961 37.668C226.266 36.7383 226.41 35.2422 226.395 33.1797V31.0469C229.441 30.9375 232.391 30.6836 235.242 30.2852L235.605 31.4336C232.699 31.7305 230.027 31.9453 227.59 32.0781V33.1797C227.59 34.0469 227.566 34.8008 227.52 35.4414H236.109V36.4727H232.805V41.3008H231.598V36.4727H227.426C227.254 38.3008 226.492 39.9805 225.141 41.5117C224.719 41.1758 224.375 40.9297 224.109 40.7734ZM218.449 47.0781V49.6445H231.574V47.0781H218.449ZM218.449 43.5039V46.0234H231.574V43.5039H218.449ZM246.047 34.8203H257.496V39.0391H246.047V34.8203ZM238.102 41.8516C237.961 41.4219 237.785 40.957 237.574 40.457C239.73 37.0195 241.301 33.332 242.285 29.3945L243.48 29.6992C242.957 31.5039 242.383 33.1836 241.758 34.7383V51.8828H240.527V37.5039C239.77 39.082 238.961 40.5312 238.102 41.8516ZM245.836 44.3477H257.66V45.4258H253.102V49.1641C253.18 50.7578 252.406 51.5508 250.781 51.543C249.984 51.5742 249.086 51.5898 248.086 51.5898C248.047 51.2461 247.969 50.8242 247.852 50.3242C248.594 50.3633 249.418 50.3867 250.324 50.3945C251.418 50.4492 251.93 50.0312 251.859 49.1406V45.4258H245.836V44.3477ZM243.504 40.9141H260.039V44.1016H258.844V42.0156H244.699V44.1016H243.504V40.9141ZM250.992 29.6289L252.117 29.3945C252.352 30.2305 252.57 31.0703 252.773 31.9141H259.805V33.0156H244.102V31.9141H251.613C251.527 31.5703 251.387 31.0547 251.191 30.3672C251.105 30.0391 251.039 29.793 250.992 29.6289ZM247.277 35.8984V37.9609H256.277V35.8984H247.277ZM277.148 35.0312H278.496V39.1328H283.945V40.3867H278.496V48.4492C278.551 50.4961 277.551 51.5273 275.496 51.543C274.512 51.5664 273.367 51.582 272.062 51.5898C271.977 51.1211 271.863 50.6562 271.723 50.1953C272.715 50.25 273.844 50.2773 275.109 50.2773C275.875 50.2852 276.406 50.1289 276.703 49.8086C277.008 49.5039 277.156 48.9609 277.148 48.1797V40.3867H262.195V39.1328H277.148V35.0312ZM263.039 32.3008H272.613C272.379 31.4492 272.102 30.543 271.781 29.582L273.047 29.2422C273.109 29.4297 273.199 29.707 273.316 30.0742C273.621 31.0039 273.852 31.7461 274.008 32.3008H283.008V36.4727H281.684V33.5195H264.363V36.4727H263.039V32.3008ZM265.418 42.5664L266.379 41.6992C267.895 43.0898 269.445 44.5781 271.031 46.1641L269.977 47.1719C268.539 45.6016 267.02 44.0664 265.418 42.5664ZM299.285 29.9453L300.41 29.3945C300.988 30.207 301.637 31.1836 302.355 32.3242L301.195 32.9219H307.172V42.9297H305.906V41.8047H296.309C296.254 45.7578 295.203 49.1016 293.156 51.8359C292.953 51.6406 292.57 51.3594 292.008 50.9922C293.305 49.1953 294.137 47.5078 294.504 45.9297C294.918 44.3828 295.117 41.9648 295.102 38.6758V32.9219H301.125C300.445 31.75 299.832 30.7578 299.285 29.9453ZM296.379 34.1172V38.7578C296.379 38.9766 296.375 39.3008 296.367 39.7305C296.359 40.1211 296.355 40.4102 296.355 40.5977H305.906V34.1172H296.379ZM285.797 43.1172L285.574 41.7578C285.949 41.6641 286.578 41.5039 287.461 41.2773C288.18 41.082 288.727 40.9375 289.102 40.8438V34.9609H286.008V33.8125H289.102V29.3711H290.379V33.8125H293.309V34.9609H290.379V40.4805C290.551 40.4336 290.809 40.3594 291.152 40.2578C292.168 39.9766 292.941 39.7539 293.473 39.5898C293.473 39.8242 293.477 40.0195 293.484 40.1758C293.492 40.3555 293.504 40.5781 293.52 40.8438C293.129 40.9453 292.547 41.1094 291.773 41.3359C291.148 41.5078 290.684 41.6367 290.379 41.7227V49C290.465 50.7188 289.68 51.5586 288.023 51.5195C287.656 51.5352 287.074 51.543 286.277 51.543C286.191 50.9102 286.109 50.4609 286.031 50.1953C286.633 50.2344 287.219 50.2539 287.789 50.2539C288.297 50.2617 288.641 50.168 288.82 49.9727C289.016 49.7852 289.109 49.4375 289.102 48.9297V42.1094C287.953 42.4531 286.852 42.7891 285.797 43.1172Z" fill="black"/>
</svg>
