<svg width="40" height="40" viewBox="0 0 40 40" fill="none" xmlns="http://www.w3.org/2000/svg">
<path d="M34.1797 30.2031L23.9766 20L34.1797 9.79688C35.2813 8.69531 35.2813 6.92188 34.1797 5.82031C33.0781 4.71875 31.3047 4.71875 30.2031 5.82031L20 16.0234L9.79688 5.82031C8.69531 4.71875 6.92188 4.71875 5.82031 5.82031C4.71875 6.92188 4.71875 8.69531 5.82031 9.79688L16.0234 20L5.82031 30.2031C4.71875 31.3047 4.71875 33.0781 5.82031 34.1797C6.92188 35.2813 8.69531 35.2813 9.79688 34.1797L20 23.9766L30.2031 34.1797C31.3047 35.2813 33.0781 35.2813 34.1797 34.1797C35.2734 33.0781 35.2734 31.2969 34.1797 30.2031Z" fill="#B3B3B3"/>
</svg>
