<svg width="522" height="80" viewBox="0 0 522 80" fill="none" xmlns="http://www.w3.org/2000/svg">
<rect width="522" height="80" rx="20" fill="#1D2547"/>
<path d="M213.305 39.5156C214.758 39.0625 216.164 38.6016 217.523 38.1328V32.625H213.68V30.8672H217.523V26.3672H219.398V30.8672H222.891V32.625H219.398V37.4766C220.695 37.0391 221.961 36.5938 223.195 36.1406C223.242 36.9375 223.305 37.5547 223.383 37.9922C222.039 38.4609 220.711 38.9297 219.398 39.3984V46.3359C219.398 48.0234 218.586 48.8672 216.961 48.8672C216.258 48.8672 215.359 48.8516 214.266 48.8203C214.188 48.1797 214.094 47.5391 213.984 46.8984C214.766 47.0078 215.602 47.0625 216.492 47.0625C217.18 47.0625 217.523 46.6797 217.523 45.9141V40.0781C216.289 40.5312 215.062 40.9844 213.844 41.4375L213.305 39.5156ZM223.148 28.125H236.672V29.8828H232.641V45.7734C232.641 47.7422 231.664 48.7266 229.711 48.7266C228.695 48.7578 227.336 48.7578 225.633 48.7266C225.555 48.0078 225.43 47.3047 225.258 46.6172C227.023 46.7422 228.344 46.8047 229.219 46.8047C230.188 46.8047 230.672 46.2578 230.672 45.1641V29.8828H223.148V28.125ZM237.469 36.4922H243.586V29.6484H238.5V27.8203H259.523V29.6484H254.742V36.4922H260.531V38.3203H254.742V49.0078H252.82V38.3203H245.484C245.438 41.1953 245.031 43.3203 244.266 44.6953C243.5 46.2266 241.742 47.7656 238.992 49.3125C238.586 48.7344 238.141 48.1953 237.656 47.6953C240.047 46.4766 241.641 45.2031 242.438 43.875C243.156 42.7969 243.531 40.9453 243.562 38.3203H237.469V36.4922ZM245.508 36.4922H252.82V29.6484H245.508V36.4922ZM262.453 32.2031H265.664V29.1094H261.727V27.5859H274.148V29.1094H270.258V32.2031H273.656V48.9141H272.086V47.4141H264.023V48.9375H262.453V32.2031ZM275.367 35.1328H281.578V29.0156H274.969V27.3984H283.266V37.6641H281.578V36.75H277.055V44.8828C277.055 46.1172 277.586 46.7344 278.648 46.7344H280.875C281.797 46.7344 282.32 46.2734 282.445 45.3516C282.648 44.2891 282.789 43.0234 282.867 41.5547C283.305 41.7734 283.891 42.0312 284.625 42.3281C284.516 43.5938 284.352 44.7891 284.133 45.9141C283.867 47.5703 282.883 48.3984 281.18 48.3984H278.156C276.297 48.3984 275.367 47.3047 275.367 45.1172V35.1328ZM268.758 37.4766V33.6797H267.164V34.6172C267.164 37.1172 266.516 39.1875 265.219 40.8281C264.844 40.4688 264.445 40.0859 264.023 39.6797V41.6484H272.086V39.375H270.422C269.312 39.375 268.758 38.7422 268.758 37.4766ZM264.023 45.9375H272.086V43.1016H264.023V45.9375ZM272.086 33.6797H270.258V36.9609C270.227 37.6641 270.516 37.9922 271.125 37.9453H272.086V33.6797ZM264.023 39.5391C265.117 38.3047 265.664 36.6328 265.664 34.5234V33.6797H264.023V39.5391ZM267.164 32.2031H268.758V29.1094H267.164V32.2031ZM285.352 47.1328H288.844V36.2812H296.016V34.7344H285.914V33.4453H296.016V32.2031H297.703V33.4453H308.062V34.7344H297.703V36.2812H305.367V47.1328H308.602V48.4688H285.352V47.1328ZM287.391 27.1875H306.586V32.3906H304.992V31.8516H289.008V32.3906H287.391V27.1875ZM290.484 47.1328H303.727V45.6094H290.484V47.1328ZM290.484 44.4141H303.727V42.9141H290.484V44.4141ZM290.484 41.7188H303.727V40.2188H290.484V41.7188ZM303.727 37.5234H290.484V39.0234H303.727V37.5234ZM304.992 28.4297H300.68V30.6094H304.992V28.4297ZM294.844 30.6094H299.133V28.4297H294.844V30.6094ZM289.008 30.6094H293.297V28.4297H289.008V30.6094Z" fill="white"/>
</svg>
