<svg width="979" height="979" viewBox="0 0 979 979" fill="none" xmlns="http://www.w3.org/2000/svg">
<g filter="url(#filter0_dddddd_1_1729)">
<circle cx="489.5" cy="489.5" r="81.043" fill="#FFF8FC"/>
</g>
<path d="M454.081 508.99C451.552 508.99 449.31 508.718 447.357 508.174C445.436 507.598 443.739 506.797 442.267 505.773C440.826 504.748 439.529 503.547 438.377 502.171L444.38 495.447C445.981 497.496 447.646 498.857 449.374 499.529C451.135 500.17 452.784 500.49 454.321 500.49C454.929 500.49 455.474 500.442 455.954 500.346C456.434 500.218 456.802 500.026 457.059 499.769C457.315 499.513 457.443 499.161 457.443 498.713C457.443 498.297 457.299 497.944 457.011 497.656C456.754 497.368 456.402 497.128 455.954 496.936C455.506 496.712 455.009 496.536 454.465 496.408C453.953 496.248 453.441 496.12 452.928 496.023C452.448 495.927 452.016 495.831 451.632 495.735C449.711 495.287 448.03 494.743 446.589 494.102C445.148 493.462 443.948 492.694 442.987 491.797C442.027 490.901 441.306 489.876 440.826 488.724C440.378 487.571 440.154 486.274 440.154 484.834C440.154 483.201 440.522 481.712 441.258 480.367C442.027 479.022 443.035 477.87 444.284 476.909C445.564 475.949 447.005 475.212 448.606 474.7C450.239 474.188 451.92 473.932 453.649 473.932C456.178 473.932 458.291 474.172 459.988 474.652C461.685 475.1 463.11 475.757 464.262 476.621C465.415 477.486 466.408 478.494 467.24 479.647L461.189 485.458C460.484 484.785 459.748 484.241 458.98 483.825C458.211 483.377 457.411 483.057 456.578 482.864C455.778 482.64 454.977 482.528 454.177 482.528C453.441 482.528 452.816 482.592 452.304 482.72C451.792 482.816 451.392 482.993 451.103 483.249C450.815 483.473 450.671 483.793 450.671 484.209C450.671 484.625 450.847 484.978 451.199 485.266C451.584 485.522 452.048 485.746 452.592 485.938C453.168 486.13 453.729 486.29 454.273 486.418C454.849 486.514 455.33 486.594 455.714 486.658C457.475 486.979 459.092 487.427 460.564 488.003C462.037 488.547 463.318 489.252 464.406 490.116C465.527 490.949 466.375 492.005 466.952 493.286C467.56 494.535 467.864 496.023 467.864 497.752C467.864 500.218 467.24 502.283 465.991 503.948C464.775 505.613 463.126 506.877 461.045 507.742C458.964 508.574 456.642 508.99 454.081 508.99ZM489.314 508.99C486.656 508.99 484.223 508.558 482.014 507.694C479.805 506.829 477.884 505.613 476.251 504.044C474.618 502.475 473.353 500.618 472.457 498.473C471.592 496.328 471.16 493.99 471.16 491.461C471.16 488.9 471.592 486.562 472.457 484.449C473.353 482.304 474.618 480.447 476.251 478.878C477.884 477.31 479.805 476.093 482.014 475.228C484.223 474.364 486.64 473.932 489.266 473.932C491.923 473.932 494.34 474.364 496.517 475.228C498.727 476.093 500.648 477.31 502.281 478.878C503.913 480.447 505.162 482.304 506.027 484.449C506.923 486.562 507.371 488.884 507.371 491.413C507.371 493.974 506.923 496.328 506.027 498.473C505.162 500.618 503.913 502.475 502.281 504.044C500.648 505.613 498.727 506.829 496.517 507.694C494.34 508.558 491.939 508.99 489.314 508.99ZM489.266 499.385C490.354 499.385 491.347 499.193 492.243 498.809C493.172 498.425 493.972 497.88 494.644 497.176C495.349 496.44 495.877 495.591 496.229 494.631C496.614 493.67 496.806 492.614 496.806 491.461C496.806 490.308 496.614 489.252 496.229 488.291C495.877 487.331 495.349 486.498 494.644 485.794C493.972 485.058 493.172 484.497 492.243 484.113C491.347 483.729 490.354 483.537 489.266 483.537C488.177 483.537 487.169 483.729 486.24 484.113C485.344 484.497 484.543 485.058 483.839 485.794C483.166 486.498 482.638 487.331 482.254 488.291C481.902 489.252 481.726 490.308 481.726 491.461C481.726 492.614 481.902 493.67 482.254 494.631C482.638 495.591 483.166 496.44 483.839 497.176C484.543 497.88 485.344 498.425 486.24 498.809C487.169 499.193 488.177 499.385 489.266 499.385ZM524.9 508.99C522.37 508.99 520.129 508.718 518.176 508.174C516.255 507.598 514.558 506.797 513.086 505.773C511.645 504.748 510.348 503.547 509.195 502.171L515.199 495.447C516.799 497.496 518.464 498.857 520.193 499.529C521.954 500.17 523.603 500.49 525.14 500.49C525.748 500.49 526.293 500.442 526.773 500.346C527.253 500.218 527.621 500.026 527.877 499.769C528.134 499.513 528.262 499.161 528.262 498.713C528.262 498.297 528.117 497.944 527.829 497.656C527.573 497.368 527.221 497.128 526.773 496.936C526.325 496.712 525.828 496.536 525.284 496.408C524.772 496.248 524.259 496.12 523.747 496.023C523.267 495.927 522.835 495.831 522.45 495.735C520.529 495.287 518.849 494.743 517.408 494.102C515.967 493.462 514.766 492.694 513.806 491.797C512.845 490.901 512.125 489.876 511.645 488.724C511.197 487.571 510.972 486.274 510.972 484.834C510.972 483.201 511.341 481.712 512.077 480.367C512.845 479.022 513.854 477.87 515.103 476.909C516.383 475.949 517.824 475.212 519.425 474.7C521.058 474.188 522.739 473.932 524.468 473.932C526.997 473.932 529.11 474.172 530.807 474.652C532.504 475.1 533.929 475.757 535.081 476.621C536.234 477.486 537.226 478.494 538.059 479.647L532.008 485.458C531.303 484.785 530.567 484.241 529.798 483.825C529.03 483.377 528.23 483.057 527.397 482.864C526.597 482.64 525.796 482.528 524.996 482.528C524.259 482.528 523.635 482.592 523.123 482.72C522.611 482.816 522.21 482.993 521.922 483.249C521.634 483.473 521.49 483.793 521.49 484.209C521.49 484.625 521.666 484.978 522.018 485.266C522.402 485.522 522.867 485.746 523.411 485.938C523.987 486.13 524.548 486.29 525.092 486.418C525.668 486.514 526.148 486.594 526.533 486.658C528.294 486.979 529.91 487.427 531.383 488.003C532.856 488.547 534.137 489.252 535.225 490.116C536.346 490.949 537.194 492.005 537.771 493.286C538.379 494.535 538.683 496.023 538.683 497.752C538.683 500.218 538.059 502.283 536.81 503.948C535.593 505.613 533.945 506.877 531.863 507.742C529.782 508.574 527.461 508.99 524.9 508.99Z" fill="#FEA6D5" fill-opacity="0.5"/>
<defs>
<filter id="filter0_dddddd_1_1729" x="0" y="0.00024427" width="979" height="979" filterUnits="userSpaceOnUse" color-interpolation-filters="sRGB">
<feFlood flood-opacity="0" result="BackgroundImageFix"/>
<feColorMatrix in="SourceAlpha" type="matrix" values="0 0 0 0 0 0 0 0 0 0 0 0 0 0 0 0 0 0 127 0" result="hardAlpha"/>
<feOffset/>
<feGaussianBlur stdDeviation="2.43"/>
<feColorMatrix type="matrix" values="0 0 0 0 1 0 0 0 0 1 0 0 0 0 1 0 0 0 1 0"/>
<feBlend mode="normal" in2="BackgroundImageFix" result="effect1_dropShadow_1_1729"/>
<feColorMatrix in="SourceAlpha" type="matrix" values="0 0 0 0 0 0 0 0 0 0 0 0 0 0 0 0 0 0 127 0" result="hardAlpha"/>
<feOffset/>
<feGaussianBlur stdDeviation="4.86"/>
<feColorMatrix type="matrix" values="0 0 0 0 1 0 0 0 0 1 0 0 0 0 1 0 0 0 1 0"/>
<feBlend mode="normal" in2="effect1_dropShadow_1_1729" result="effect2_dropShadow_1_1729"/>
<feColorMatrix in="SourceAlpha" type="matrix" values="0 0 0 0 0 0 0 0 0 0 0 0 0 0 0 0 0 0 127 0" result="hardAlpha"/>
<feOffset/>
<feGaussianBlur stdDeviation="17.01"/>
<feColorMatrix type="matrix" values="0 0 0 0 1 0 0 0 0 1 0 0 0 0 1 0 0 0 1 0"/>
<feBlend mode="normal" in2="effect2_dropShadow_1_1729" result="effect3_dropShadow_1_1729"/>
<feColorMatrix in="SourceAlpha" type="matrix" values="0 0 0 0 0 0 0 0 0 0 0 0 0 0 0 0 0 0 127 0" result="hardAlpha"/>
<feOffset/>
<feGaussianBlur stdDeviation="34.02"/>
<feColorMatrix type="matrix" values="0 0 0 0 1 0 0 0 0 1 0 0 0 0 1 0 0 0 1 0"/>
<feBlend mode="normal" in2="effect3_dropShadow_1_1729" result="effect4_dropShadow_1_1729"/>
<feColorMatrix in="SourceAlpha" type="matrix" values="0 0 0 0 0 0 0 0 0 0 0 0 0 0 0 0 0 0 127 0" result="hardAlpha"/>
<feOffset/>
<feGaussianBlur stdDeviation="58.32"/>
<feColorMatrix type="matrix" values="0 0 0 0 1 0 0 0 0 1 0 0 0 0 1 0 0 0 1 0"/>
<feBlend mode="normal" in2="effect4_dropShadow_1_1729" result="effect5_dropShadow_1_1729"/>
<feColorMatrix in="SourceAlpha" type="matrix" values="0 0 0 0 0 0 0 0 0 0 0 0 0 0 0 0 0 0 127 0" result="hardAlpha"/>
<feOffset/>
<feGaussianBlur stdDeviation="102.06"/>
<feColorMatrix type="matrix" values="0 0 0 0 1 0 0 0 0 1 0 0 0 0 1 0 0 0 1 0"/>
<feBlend mode="normal" in2="effect5_dropShadow_1_1729" result="effect6_dropShadow_1_1729"/>
<feBlend mode="normal" in="SourceGraphic" in2="effect6_dropShadow_1_1729" result="shape"/>
</filter>
</defs>
</svg>
