<svg width="21" height="20" viewBox="0 0 21 20" fill="none" xmlns="http://www.w3.org/2000/svg">
<path d="M20.5644 9.75757L11.6141 0.81193L11.0142 0.212002C10.8775 0.0762111 10.6927 0 10.5 0C10.3073 0 10.1225 0.0762111 9.98576 0.212002L0.435565 9.75757C0.295499 9.89709 0.184803 10.0633 0.11001 10.2463C0.0352178 10.4293 -0.00215563 10.6254 9.60108e-05 10.8231C0.0093613 11.6384 0.688044 12.2893 1.50339 12.2893H2.48783V19.8336H18.5121V12.2893H19.5174C19.9135 12.2893 20.2865 12.1341 20.5667 11.8538C20.7047 11.7163 20.8141 11.5527 20.8884 11.3726C20.9628 11.1925 21.0007 10.9994 20.9999 10.8045C20.9999 10.4108 20.8447 10.0378 20.5644 9.75757ZM11.7971 18.1658H9.20285V13.4405H11.7971V18.1658ZM16.8444 10.6216V18.1658H13.2796V12.8846C13.2796 12.3727 12.865 11.9581 12.353 11.9581H8.64693C8.13502 11.9581 7.7204 12.3727 7.7204 12.8846V18.1658H4.15558V10.6216H1.93191L10.5023 2.05811L11.0374 2.59318L19.0704 10.6216H16.8444Z" fill="#757575"/>
</svg>
