<svg width="54" height="54" viewBox="0 0 54 54" fill="none" xmlns="http://www.w3.org/2000/svg">
<rect width="54" height="54" rx="27" fill="url(#paint0_linear_1_410)"/>
<path d="M34.5454 22.4727L33.4418 21.5644V18.5653C33.451 18.455 33.4375 18.3439 33.402 18.2392C33.3665 18.1344 33.3099 18.0382 33.2357 17.9567C33.1615 17.8751 33.0713 17.8101 32.9709 17.7655C32.8704 17.721 32.7619 17.698 32.6522 17.698C32.5425 17.698 32.434 17.721 32.3336 17.7655C32.2332 17.8101 32.143 17.8751 32.0687 17.9567C31.9945 18.0382 31.9379 18.1344 31.9024 18.2392C31.8669 18.3439 31.8534 18.455 31.8627 18.5653V20.2391L29.0045 17.9027C28.2969 17.3189 27.4111 17 26.4972 17C25.5833 17 24.6975 17.3189 23.9899 17.9027L18.4489 22.4727C17.9959 22.8437 17.6307 23.3122 17.38 23.8439C17.1293 24.3756 16.9995 24.9572 17 25.546V32.0012C17 33.0618 17.4174 34.0789 18.1604 34.8288C18.9034 35.5787 19.9111 36 20.9619 36H32.0381C33.0889 36 34.0966 35.5787 34.8396 34.8288C35.5826 34.0789 36 33.0618 36 32.0012V25.5232C35.9965 24.9377 35.8642 24.3604 35.6126 23.8328C35.3611 23.3053 34.9966 22.8407 34.5454 22.4727ZM24.1257 34.3719V28.8422C24.1555 28.2268 24.4186 27.6467 24.8606 27.2218C25.3026 26.7969 25.8896 26.5599 26.5 26.5599C27.1104 26.5599 27.6974 26.7969 28.1394 27.2218C28.5814 27.6467 28.8445 28.2268 28.8743 28.8422V34.3719H24.1257ZM34.4209 31.9784C34.4194 32.6127 34.1691 33.2206 33.7247 33.6692C33.2803 34.1178 32.6779 34.3704 32.0494 34.3719H30.459V28.8422C30.459 27.7816 30.0416 26.7645 29.2986 26.0146C28.5556 25.2647 27.5479 24.8434 26.4972 24.8434C25.4464 24.8434 24.4387 25.2647 23.6957 26.0146C22.9527 26.7645 22.5353 27.7816 22.5353 28.8422V34.3719H20.9506C20.3211 34.3719 19.7173 34.1199 19.2717 33.6712C18.826 33.2225 18.5749 32.6137 18.5734 31.9784V25.5232C18.5731 25.1678 18.6511 24.8168 18.8018 24.4957C18.9526 24.1746 19.1723 23.8914 19.445 23.6666L24.986 19.0966C25.4103 18.7497 25.9398 18.5604 26.4859 18.5604C27.0319 18.5604 27.5614 18.7497 27.9857 19.0966L33.5267 23.6666C33.8035 23.8891 34.0275 24.1713 34.1823 24.4926C34.337 24.8138 34.4186 25.166 34.4209 25.5232V31.9784Z" fill="#1D2547"/>
<defs>
<linearGradient id="paint0_linear_1_410" x1="54" y1="27" x2="0" y2="27" gradientUnits="userSpaceOnUse">
<stop stop-color="#FEDCFF"/>
<stop offset="1" stop-color="#D8F8DE"/>
</linearGradient>
</defs>
</svg>
