<svg width="20" height="20" viewBox="0 0 20 20" fill="none" xmlns="http://www.w3.org/2000/svg">
<path d="M4.46046 19.0001H2.61488C2.18734 18.9977 1.77799 18.8268 1.47566 18.5245C1.17334 18.2222 1.00242 17.8128 1 17.3853V13.6941C1.00242 13.2666 1.17334 12.8572 1.47566 12.5549C1.77799 12.2526 2.18734 12.0816 2.61488 12.0792H4.46046C4.88801 12.0816 5.29736 12.2526 5.59968 12.5549C5.90201 12.8572 6.07292 13.2666 6.07535 13.6941V17.3853C6.07292 17.8128 5.90201 18.2222 5.59968 18.5245C5.29736 18.8268 4.88801 18.9977 4.46046 19.0001ZM2.61488 13.4634C2.5537 13.4634 2.49502 13.4877 2.45175 13.531C2.40849 13.5742 2.38419 13.6329 2.38419 13.6941V17.3853C2.38419 17.4464 2.40849 17.5051 2.45175 17.5484C2.49502 17.5917 2.5537 17.616 2.61488 17.616H4.46046C4.52165 17.616 4.58033 17.5917 4.62359 17.5484C4.66686 17.5051 4.69116 17.4464 4.69116 17.3853V13.6941C4.69116 13.6329 4.66686 13.5742 4.62359 13.531C4.58033 13.4877 4.52165 13.4634 4.46046 13.4634H2.61488ZM10.92 19.0001H9.07441C8.64687 18.9977 8.23752 18.8268 7.9352 18.5245C7.63287 18.2222 7.46195 17.8128 7.45953 17.3853V10.9257C7.46195 10.4982 7.63287 10.0888 7.9352 9.78652C8.23752 9.48419 8.64687 9.31327 9.07441 9.31085H10.92C11.3475 9.31327 11.7569 9.48419 12.0592 9.78652C12.3615 10.0888 12.5325 10.4982 12.5349 10.9257V17.3853C12.5325 17.8128 12.3615 18.2222 12.0592 18.5245C11.7569 18.8268 11.3475 18.9977 10.92 19.0001ZM9.07441 10.695C9.01323 10.695 8.95455 10.7193 8.91129 10.7626C8.86802 10.8059 8.84372 10.8645 8.84372 10.9257V17.3853C8.84372 17.4464 8.86802 17.5051 8.91129 17.5484C8.95455 17.5917 9.01323 17.616 9.07441 17.616H10.92C10.9812 17.616 11.0399 17.5917 11.0831 17.5484C11.1264 17.5051 11.1507 17.4464 11.1507 17.3853V10.9257C11.1507 10.8645 11.1264 10.8059 11.0831 10.7626C11.0399 10.7193 10.9812 10.695 10.92 10.695H9.07441ZM17.3795 19.0001H15.5339C15.1064 18.9977 14.6971 18.8268 14.3947 18.5245C14.0924 18.2222 13.9215 17.8128 13.9191 17.3853V8.15736C13.9215 7.72982 14.0924 7.32047 14.3947 7.01815C14.6971 6.71582 15.1064 6.5449 15.5339 6.54248H17.3795C17.8071 6.5449 18.2164 6.71582 18.5187 7.01815C18.8211 7.32047 18.992 7.72982 18.9944 8.15736V17.3853C18.992 17.8128 18.8211 18.2222 18.5187 18.5245C18.2164 18.8268 17.8071 18.9977 17.3795 19.0001ZM15.5339 7.92667C15.4728 7.92667 15.4141 7.95097 15.3708 7.99424C15.3276 8.0375 15.3032 8.09618 15.3032 8.15736V17.3853C15.3032 17.4464 15.3276 17.5051 15.3708 17.5484C15.4141 17.5917 15.4728 17.616 15.5339 17.616H17.3795C17.4407 17.616 17.4994 17.5917 17.5427 17.5484C17.5859 17.5051 17.6102 17.4464 17.6102 17.3853V8.15736C17.6102 8.09618 17.5859 8.0375 17.5427 7.99424C17.4994 7.95097 17.4407 7.92667 17.3795 7.92667H15.5339Z" fill="#D9D9D9"/>
<path d="M18.2101 2.50974C18.2153 2.46066 18.2153 2.41117 18.2101 2.36209C18.2142 2.32839 18.2142 2.29429 18.2101 2.26059C18.1879 2.21137 18.16 2.16491 18.127 2.12217L18.0624 2.03912C18.03 2.0155 17.9961 1.99393 17.9609 1.97452L17.8317 1.9007L15.3679 1.0425C15.2826 1.01068 15.1917 0.996473 15.1008 1.00074C15.0099 1.00501 14.9207 1.02766 14.8388 1.06734C14.7569 1.10701 14.6838 1.16288 14.6241 1.23157C14.5643 1.30026 14.5191 1.38034 14.4912 1.46699C14.4533 1.55494 14.4342 1.6499 14.4354 1.74569C14.4365 1.84148 14.4578 1.93596 14.4978 2.02299C14.5378 2.11002 14.5957 2.18766 14.6677 2.25085C14.7397 2.31404 14.8242 2.36137 14.9157 2.38978L15.6816 2.65739L1.48911 8.5817C1.34263 8.64409 1.22214 8.75508 1.14795 8.89596C1.07377 9.03684 1.05043 9.19899 1.08186 9.35507C1.11329 9.51115 1.19758 9.65162 1.32051 9.7528C1.44345 9.85398 1.5975 9.90969 1.75672 9.91052C1.8517 9.91004 1.9457 9.89124 2.03356 9.85515L16.3553 3.78319L16.0046 4.77058C15.9683 4.85928 15.9508 4.95457 15.9532 5.0504C15.9556 5.14623 15.9779 5.24051 16.0187 5.32727C16.0595 5.41402 16.1178 5.49136 16.1901 5.55438C16.2623 5.6174 16.3468 5.66473 16.4383 5.69337C16.5116 5.7063 16.5865 5.7063 16.6598 5.69337C16.8041 5.6919 16.9445 5.64591 17.0618 5.56168C17.1791 5.47745 17.2675 5.35909 17.315 5.22274L18.1732 2.75889C18.1732 2.75889 18.1732 2.6943 18.1732 2.66661C18.19 2.6155 18.2024 2.56301 18.2101 2.50974Z" fill="#D9D9D9"/>
</svg>
