<svg width="20" height="20" viewBox="0 0 20 20" fill="none" xmlns="http://www.w3.org/2000/svg">
<path d="M12.0033 1.09597e-05C11.8826 -0.000594423 11.7631 0.0238865 11.6527 0.0718417L5.52983 2.66383C5.36754 2.73281 5.23017 2.84859 5.13572 2.99598C5.04127 3.14337 4.99417 3.31556 5.00058 3.48983V12.0952C5.00058 14.0278 5.98962 15.4316 7.26645 16.4044C8.54328 17.3773 10.098 18.0498 11.5667 18.8855C11.699 18.9606 11.849 19 12.0016 19C12.1543 19 12.3043 18.9606 12.4366 18.8855C13.902 18.0498 15.4534 17.3773 16.7302 16.4044C18.0103 15.4316 18.9994 14.0278 18.9994 12.0952V3.74448C19.006 3.22868 18.9663 2.87278 18.4701 2.66711L12.344 0.0718417C12.2365 0.0255597 12.1206 0.0011232 12.0033 1.09597e-05ZM12.0033 1.80524L17.2495 4.02522V12.0952C17.2495 13.4989 16.6938 14.2498 15.6651 15.0333C14.7488 15.7351 13.386 16.3848 12.0033 17.1455C10.6173 16.3848 9.25447 15.7351 8.33158 15.0333C7.30615 14.2498 6.75043 13.4989 6.75043 12.0952V4.02841L12.0033 1.80524ZM11.9901 4.30916C11.8748 4.31001 11.7609 4.33339 11.6548 4.3779C11.5488 4.42241 11.4527 4.48726 11.3721 4.56859C11.2916 4.64992 11.2281 4.74618 11.1854 4.85183C11.1427 4.95748 11.1217 5.07036 11.1234 5.18408V9.66309C10.6142 9.84277 10.173 10.1723 9.85951 10.6073C9.546 11.0422 9.37523 11.5615 9.37025 12.0952C9.37025 13.5153 10.5611 14.684 12.0033 14.684C12.6982 14.6814 13.3639 14.4079 13.8552 13.9229C14.3466 13.438 14.6238 12.781 14.6264 12.0952C14.6226 11.5608 14.4523 11.0405 14.1387 10.6049C13.8251 10.1692 13.3833 9.83927 12.8733 9.65981V6.91111H13.7531C14.9473 6.93722 14.9473 5.15804 13.7531 5.18089H12.8766C12.8775 5.06591 12.8551 4.95181 12.8108 4.84545C12.7665 4.73909 12.7012 4.64257 12.6187 4.56141C12.5361 4.48026 12.438 4.41612 12.3301 4.37282C12.2222 4.32952 12.1066 4.30786 11.9901 4.30916ZM11.9967 11.2301C12.1127 11.2275 12.228 11.2479 12.3358 11.2904C12.4435 11.3329 12.5415 11.3965 12.6237 11.4773C12.7059 11.5581 12.7707 11.6545 12.8141 11.7607C12.8576 11.8669 12.8788 11.9807 12.8766 12.0952C12.8766 12.5849 12.4962 12.957 12.0033 12.957C11.8877 12.9592 11.7728 12.9385 11.6655 12.8961C11.5582 12.8536 11.4606 12.7903 11.3785 12.7099C11.2965 12.6295 11.2316 12.5337 11.1878 12.4281C11.1439 12.3225 11.1221 12.2093 11.1234 12.0952C11.1234 11.612 11.5071 11.2334 11.9967 11.2301Z" fill="#D9D9D9"/>
</svg>
