<svg width="17" height="18" viewBox="0 0 17 18" fill="none" xmlns="http://www.w3.org/2000/svg">
<path d="M16.3332 14.6852C15.9068 13.675 15.2879 12.7575 14.5112 11.9837C13.7367 11.2076 12.8194 10.5889 11.8097 10.1616C11.8006 10.1571 11.7916 10.1548 11.7826 10.1503C13.1909 9.13302 14.1065 7.47596 14.1065 5.60641C14.1065 2.50932 11.5972 0 8.50009 0C5.403 0 2.89369 2.50932 2.89369 5.60641C2.89369 7.47596 3.80925 9.13302 5.21763 10.1526C5.20859 10.1571 5.19955 10.1594 5.1905 10.1639C4.17773 10.5911 3.26895 11.2038 2.48903 11.986C1.71297 12.7604 1.09422 13.6778 0.666948 14.6874C0.247195 15.6759 0.0208136 16.7357 5.65298e-05 17.8094C-0.000546849 17.8335 0.00368515 17.8575 0.0125033 17.88C0.0213214 17.9024 0.0345472 17.9229 0.0514013 17.9402C0.0682554 17.9575 0.0883968 17.9712 0.110639 17.9806C0.132881 17.9899 0.156773 17.9948 0.180908 17.9948H1.5373C1.63677 17.9948 1.71589 17.9156 1.71815 17.8184C1.76336 16.0732 2.46416 14.4388 3.703 13.1999C4.98478 11.9181 6.68705 11.2128 8.50009 11.2128C10.3131 11.2128 12.0154 11.9181 13.2972 13.1999C14.536 14.4388 15.2368 16.0732 15.282 17.8184C15.2843 17.9179 15.3634 17.9948 15.4629 17.9948H16.8193C16.8434 17.9948 16.8673 17.9899 16.8895 17.9806C16.9118 17.9712 16.9319 17.9575 16.9488 17.9402C16.9656 17.9229 16.9789 17.9024 16.9877 17.88C16.9965 17.8575 17.0007 17.8335 17.0001 17.8094C16.9775 16.7288 16.7537 15.6776 16.3332 14.6852ZM8.50009 9.49472C7.46245 9.49472 6.48585 9.09007 5.75114 8.35535C5.01643 7.62064 4.61178 6.64404 4.61178 5.60641C4.61178 4.56877 5.01643 3.59217 5.75114 2.85746C6.48585 2.12275 7.46245 1.71809 8.50009 1.71809C9.53773 1.71809 10.5143 2.12275 11.249 2.85746C11.9837 3.59217 12.3884 4.56877 12.3884 5.60641C12.3884 6.64404 11.9837 7.62064 11.249 8.35535C10.5143 9.09007 9.53773 9.49472 8.50009 9.49472Z" fill="#757575"/>
</svg>
