<svg width="730" height="268" viewBox="0 0 730 268" fill="none" xmlns="http://www.w3.org/2000/svg">
<rect width="730" height="268" rx="20" fill="white" fill-opacity="0.7"/>
<path d="M66.2188 45.9531H74.7031C75.099 44.7135 75.4948 43.2969 75.8906 41.7031L77.7812 41.9844C77.4062 43.276 76.9688 44.599 76.4688 45.9531H89.75V71.875H88.0156V69.8594H67.9531V71.875H66.2188V45.9531ZM67.9531 55.0156V60.8281H88.0156V55.0156H67.9531ZM67.9531 47.5781V53.4062H88.0156V47.5781H67.9531ZM67.9531 62.4375V68.2188H88.0156V62.4375H67.9531ZM95.1562 68.6094L94.8594 66.9062C95.4635 66.8333 96.3385 66.7396 97.4844 66.625V43.9375H107.734V65.2812C107.984 65.2396 108.344 65.1823 108.812 65.1094C109.25 65.0365 109.573 64.9844 109.781 64.9531C109.76 65.3802 109.75 65.9271 109.75 66.5938C105.615 67.1146 100.75 67.7865 95.1562 68.6094ZM114.156 42.0469H115.828C115.797 43.8281 115.74 45.9948 115.656 48.5469H123.438C123.302 55.7656 123.109 61.9323 122.859 67.0469C122.818 69.8594 121.474 71.2552 118.828 71.2344C117.599 71.276 116.286 71.2969 114.891 71.2969C114.797 70.7552 114.651 70.1771 114.453 69.5625C116.13 69.6354 117.443 69.6719 118.391 69.6719C120.203 69.6823 121.151 68.8073 121.234 67.0469C121.516 61.0573 121.698 55.401 121.781 50.0781H115.625C115.615 50.5052 115.594 51.1302 115.562 51.9531C115.531 52.651 115.51 53.1667 115.5 53.5C115.385 61.8333 113.125 67.9583 108.719 71.875C108.375 71.4792 107.927 71.0625 107.375 70.625C111.604 67.2083 113.771 61.4792 113.875 53.4375C113.885 53.1875 113.901 52.7865 113.922 52.2344C113.964 51.3073 113.99 50.5885 114 50.0781H110.125V48.5469H114.031C114.073 47.2656 114.109 45.2917 114.141 42.625C114.151 42.3646 114.156 42.1719 114.156 42.0469ZM99.0938 66.4375C100.073 66.3125 101.578 66.1146 103.609 65.8438C104.745 65.6875 105.583 65.5729 106.125 65.5V59.875H99.0938V66.4375ZM99.0938 45.4062V51.2344H106.125V45.4062H99.0938ZM99.0938 52.6406V58.4688H106.125V52.6406H99.0938ZM144.766 73.5C141.359 69.5208 139.656 64.6198 139.656 58.7969C139.656 52.724 141.385 47.724 144.844 43.7969H146.484C142.964 47.849 141.203 52.8385 141.203 58.7656C141.203 64.3594 142.943 69.2708 146.422 73.5H144.766ZM176.812 41.9531H178.547V46.8125H188.266V48.4219H178.547V55.0469H187.828V56.6094H178.547V63.2969H188.969V64.8906H178.547V71.8125H176.812V41.9531ZM159.734 46.8125H169.391V41.9531H171.125V71.8125H169.391V64.8906H159.094V63.2969H169.391V56.6094H160.203V55.0469H169.391V48.4219H159.734V46.8125ZM190.953 60.5156L190.766 58.6562C192.453 58.2708 194.031 57.8854 195.5 57.5V49.7344H191.281V48.2188H195.5V42.0781H197.234V48.2188H201.047V49.7344H197.234V57.0312C198.453 56.7083 199.818 56.3333 201.328 55.9062C201.328 56.2708 201.339 56.6719 201.359 57.1094C201.37 57.2969 201.38 57.4479 201.391 57.5625C201.047 57.6562 200.542 57.7917 199.875 57.9688C198.708 58.2708 197.828 58.5104 197.234 58.6875V68.0312C197.328 70.3646 196.26 71.526 194.031 71.5156C193.479 71.5365 192.635 71.5469 191.5 71.5469C191.396 70.8073 191.281 70.2031 191.156 69.7344C191.5 69.7656 191.87 69.7917 192.266 69.8125C192.453 69.8229 192.661 69.8281 192.891 69.8281C193.078 69.8281 193.354 69.8281 193.719 69.8281C194.979 69.9115 195.573 69.3021 195.5 68V59.1719C194.354 59.4844 192.839 59.9323 190.953 60.5156ZM202.422 48.7031H212.562C214.073 46.5052 215.531 44.2031 216.938 41.7969L218.609 42.5938C217.13 44.8438 215.755 46.8802 214.484 48.7031H220.688V50.2969H202.422V48.7031ZM201.109 68.2812H221.266V69.8906H201.109V68.2812ZM203.469 58.0156H219.438V59.6094H203.469V58.0156ZM204.688 42.75L206.062 41.9219C207.312 43.5365 208.531 45.1979 209.719 46.9062L208.141 47.8438C207.245 46.4062 206.094 44.7083 204.688 42.75ZM233.016 52.9531L234.547 52.5469C234.786 53.2344 235.068 54.1615 235.391 55.3281C235.411 55.4115 235.427 55.474 235.438 55.5156H240.438V56.8281H234.734V59.9062H239.984V61.2188H234.734V64.2812H240.078V65.5938H234.734V68.6406H240.812V69.9531H227.656V71.75H226.094V58.9375C225.542 59.6771 224.766 60.6094 223.766 61.7344C223.505 61.3802 223.151 60.9844 222.703 60.5469C225.099 58.0365 226.979 55.3177 228.344 52.3906L229.812 52.9219C229.427 53.6719 228.938 54.5365 228.344 55.5156H233.844C233.792 55.349 233.714 55.0938 233.609 54.75C233.37 53.9688 233.172 53.3698 233.016 52.9531ZM241.75 68.5156C241.385 68.0677 240.99 67.6615 240.562 67.2969C242.146 66.0573 243.417 64.9271 244.375 63.9062C243.5 60.5521 242.943 56.3385 242.703 51.2656H223.125V49.8594H231.594V46.5H224.969V45.125H231.594V41.9531H233.203V45.125H239.219V46.5H233.203V49.8594H242.641C242.516 46.849 242.443 44.151 242.422 41.7656H244.078C244.109 44.8281 244.172 47.526 244.266 49.8594H252.781V51.2656H244.344C244.531 55.5156 244.979 59.2188 245.688 62.375C247.177 60.5312 248.594 57.9688 249.938 54.6875L251.469 55.3281C249.667 59.3385 247.885 62.3333 246.125 64.3125C247.062 67.8333 248.193 69.6198 249.516 69.6719C250.161 69.651 250.578 69.1875 250.766 68.2812C251.068 66.8021 251.302 65.1927 251.469 63.4531C251.979 63.7031 252.495 63.9062 253.016 64.0625C252.766 66.2396 252.516 67.8854 252.266 69C251.911 70.5729 251.052 71.3698 249.688 71.3906C247.615 71.5365 246 69.651 244.844 65.7344C244.115 66.5156 243.083 67.4427 241.75 68.5156ZM227.656 61.2188V64.2812H233.172V61.2188H227.656ZM227.656 56.8281V59.9062H233.172V56.8281H227.656ZM227.656 65.5938V68.6406H233.172V65.5938H227.656ZM246.062 44.25L247.219 43.2656C248.969 44.9219 250.333 46.2656 251.312 47.2969L250.094 48.3906C248.938 47.1198 247.594 45.7396 246.062 44.25ZM267.234 73.5H265.578C269.057 69.2708 270.797 64.3594 270.797 58.7656C270.797 52.8385 269.036 47.849 265.516 43.7969H267.172C270.62 47.7448 272.344 52.7448 272.344 58.7969C272.344 64.6406 270.641 69.5417 267.234 73.5Z" fill="black"/>
</svg>
