<svg width="730" height="512" viewBox="0 0 730 512" fill="none" xmlns="http://www.w3.org/2000/svg">
<rect width="730" height="512" rx="20" fill="white" fill-opacity="0.7"/>
<path d="M64.2969 86.2344C63.849 85.6823 63.4115 85.2031 62.9844 84.7969C68.7344 80.776 72.9271 75.4844 75.5625 68.9219H64.1094V67.3281H77.1406V61.7031H78.8281V67.3281H91.9219V68.9219H80.375C83.0312 75.3073 87.2656 80.3854 93.0781 84.1562C92.526 84.7812 92.099 85.3073 91.7969 85.7344C85.7135 81.5156 81.4583 75.9115 79.0312 68.9219H78.8281V83.9375H86.0312V85.5312H78.8281V91.8438H77.1406V85.5312H69.7188V83.9375H77.1406V68.9219H77.0469C74.526 76.1823 70.276 81.9531 64.2969 86.2344ZM99.4688 75.0156C99.4792 79.5052 99.2604 82.8594 98.8125 85.0781C98.4062 87.349 97.5469 89.625 96.2344 91.9062C95.8281 91.5729 95.3177 91.2396 94.7031 90.9062C95.974 88.8125 96.7969 86.7188 97.1719 84.625C97.5885 82.5521 97.7917 79.3229 97.7812 74.9375V63.0781H123.5V87.2344C123.635 89.9844 122.292 91.3698 119.469 91.3906C118.938 91.4115 118.349 91.4271 117.703 91.4375C117.391 91.4479 117.047 91.4531 116.672 91.4531C116.349 91.4531 115.875 91.4531 115.25 91.4531C115.156 90.9427 114.984 90.3125 114.734 89.5625C116.797 89.6562 118.281 89.7031 119.188 89.7031C120.177 89.7135 120.859 89.526 121.234 89.1406C121.63 88.7865 121.823 88.1406 121.812 87.2031V64.5781H99.4688V75.0156ZM104.016 78.8438H117.109V86.75H104.016V78.8438ZM103.094 68.8906H109.781V65.8594H111.438V68.8906H118.188V70.375H111.438V74.1719H119.625V75.6406H101.641V74.1719H109.781V70.375H103.094V68.8906ZM105.688 80.3125V85.2812H115.438V80.3125H105.688ZM126.953 80.5156L126.766 78.6562C128.453 78.2708 130.031 77.8854 131.5 77.5V69.7344H127.281V68.2188H131.5V62.0781H133.234V68.2188H137.047V69.7344H133.234V77.0312C134.453 76.7083 135.818 76.3333 137.328 75.9062C137.328 76.2708 137.339 76.6719 137.359 77.1094C137.37 77.2969 137.38 77.4479 137.391 77.5625C137.047 77.6562 136.542 77.7917 135.875 77.9688C134.708 78.2708 133.828 78.5104 133.234 78.6875V88.0312C133.328 90.3646 132.26 91.526 130.031 91.5156C129.479 91.5365 128.635 91.5469 127.5 91.5469C127.396 90.8073 127.281 90.2031 127.156 89.7344C127.5 89.7656 127.87 89.7917 128.266 89.8125C128.453 89.8229 128.661 89.8281 128.891 89.8281C129.078 89.8281 129.354 89.8281 129.719 89.8281C130.979 89.9115 131.573 89.3021 131.5 88V79.1719C130.354 79.4844 128.839 79.9323 126.953 80.5156ZM138.422 68.7031H148.562C150.073 66.5052 151.531 64.2031 152.938 61.7969L154.609 62.5938C153.13 64.8438 151.755 66.8802 150.484 68.7031H156.688V70.2969H138.422V68.7031ZM137.109 88.2812H157.266V89.8906H137.109V88.2812ZM139.469 78.0156H155.438V79.6094H139.469V78.0156ZM140.688 62.75L142.062 61.9219C143.312 63.5365 144.531 65.1979 145.719 66.9062L144.141 67.8438C143.245 66.4062 142.094 64.7083 140.688 62.75ZM169.016 72.9531L170.547 72.5469C170.786 73.2344 171.068 74.1615 171.391 75.3281C171.411 75.4115 171.427 75.474 171.438 75.5156H176.438V76.8281H170.734V79.9062H175.984V81.2188H170.734V84.2812H176.078V85.5938H170.734V88.6406H176.812V89.9531H163.656V91.75H162.094V78.9375C161.542 79.6771 160.766 80.6094 159.766 81.7344C159.505 81.3802 159.151 80.9844 158.703 80.5469C161.099 78.0365 162.979 75.3177 164.344 72.3906L165.812 72.9219C165.427 73.6719 164.938 74.5365 164.344 75.5156H169.844C169.792 75.349 169.714 75.0938 169.609 74.75C169.37 73.9688 169.172 73.3698 169.016 72.9531ZM177.75 88.5156C177.385 88.0677 176.99 87.6615 176.562 87.2969C178.146 86.0573 179.417 84.9271 180.375 83.9062C179.5 80.5521 178.943 76.3385 178.703 71.2656H159.125V69.8594H167.594V66.5H160.969V65.125H167.594V61.9531H169.203V65.125H175.219V66.5H169.203V69.8594H178.641C178.516 66.849 178.443 64.151 178.422 61.7656H180.078C180.109 64.8281 180.172 67.526 180.266 69.8594H188.781V71.2656H180.344C180.531 75.5156 180.979 79.2188 181.688 82.375C183.177 80.5312 184.594 77.9688 185.938 74.6875L187.469 75.3281C185.667 79.3385 183.885 82.3333 182.125 84.3125C183.062 87.8333 184.193 89.6198 185.516 89.6719C186.161 89.651 186.578 89.1875 186.766 88.2812C187.068 86.8021 187.302 85.1927 187.469 83.4531C187.979 83.7031 188.495 83.9062 189.016 84.0625C188.766 86.2396 188.516 87.8854 188.266 89C187.911 90.5729 187.052 91.3698 185.688 91.3906C183.615 91.5365 182 89.651 180.844 85.7344C180.115 86.5156 179.083 87.4427 177.75 88.5156ZM163.656 81.2188V84.2812H169.172V81.2188H163.656ZM163.656 76.8281V79.9062H169.172V76.8281H163.656ZM163.656 85.5938V88.6406H169.172V85.5938H163.656ZM182.062 64.25L183.219 63.2656C184.969 64.9219 186.333 66.2656 187.312 67.2969L186.094 68.3906C184.938 67.1198 183.594 65.7396 182.062 64.25ZM192.75 63.5781H219.281V91.6875H217.609V89.625H194.422V91.6875H192.75V63.5781ZM194.422 65.125V88.0938H217.609V65.125H194.422ZM199.766 70.75H212.234V82.1094H199.766V70.75ZM201.391 72.25V80.6094H210.609V72.25H201.391ZM223.094 78.75H239.031C239.604 75.5729 239.911 69.9323 239.953 61.8281H241.75C241.708 69.8594 241.417 75.5 240.875 78.75H252.875V80.4219H240.562C240.49 80.776 240.328 81.2656 240.078 81.8906C240.036 81.9844 240.005 82.0573 239.984 82.1094C244.005 84.5156 248.068 87 252.172 89.5625L250.891 91.1719C248.161 89.276 244.516 86.8854 239.953 84C239.641 83.8021 239.406 83.651 239.25 83.5469C237.406 86.7344 232.438 89.5208 224.344 91.9062C224.042 91.3646 223.667 90.7865 223.219 90.1719C232.802 87.6406 237.953 84.3906 238.672 80.4219H223.094V78.75ZM232.344 76.0625C229.844 74.2396 227.385 72.5573 224.969 71.0156L226.031 69.7344C228.604 71.349 231.109 72.9792 233.547 74.625L232.344 76.0625ZM236.016 69.5312C233.432 67.6458 231.052 65.9844 228.875 64.5469L229.938 63.2969C232.781 65.1094 235.203 66.6979 237.203 68.0625L236.016 69.5312ZM268.406 62.1406L270.062 61.625C270.427 62.5 270.875 63.7188 271.406 65.2812H284.531V66.7812H269.547L270.641 67.4531C269.068 69.1094 267.542 70.5417 266.062 71.75C266.281 71.75 266.656 71.7448 267.188 71.7344C269.219 71.6927 270.755 71.651 271.797 71.6094C272.734 70.7031 273.651 69.7656 274.547 68.7969L276.016 69.9531C273.078 72.7656 269.88 75.4531 266.422 78.0156C268.495 77.9844 271 77.901 273.938 77.7656C273.479 77.1406 272.911 76.401 272.234 75.5469L273.578 74.6875C274.87 76.25 276.172 77.9167 277.484 79.6875L276.047 80.6719C275.964 80.5573 275.849 80.3958 275.703 80.1875C275.37 79.7083 275.109 79.349 274.922 79.1094C271.505 79.2344 268.458 79.3698 265.781 79.5156C264.958 79.5573 264.24 79.6354 263.625 79.75L263.062 78.2969C263.865 78.0052 264.557 77.6458 265.141 77.2188C266.714 76.1146 268.406 74.7396 270.219 73.0938C268.781 73.125 267.172 73.1771 265.391 73.25C264.693 73.2812 264.042 73.3438 263.438 73.4375L262.828 72.0312C263.432 71.8438 263.938 71.599 264.344 71.2969C266.031 69.9635 267.542 68.4583 268.875 66.7812H255.469V65.2812H269.578C269.349 64.5521 268.958 63.5052 268.406 62.1406ZM269.141 80.5781H270.828V83.4844H285.016V85.0312H270.828V91.875H269.141V85.0312H255.031V83.4844H269.141V80.5781ZM262.188 74.75L263.125 76.1562C260.812 77.4896 258.464 78.9323 256.078 80.4844L255.094 78.9375C257.448 77.6042 259.812 76.2083 262.188 74.75ZM283.922 80.25C281.557 78.5938 279.422 77.1667 277.516 75.9688L278.547 74.75C280.766 76.0833 282.922 77.4583 285.016 78.875L283.922 80.25ZM277.812 72.1562C279.531 71.0208 281.068 69.8594 282.422 68.6719L283.531 69.8906C282.125 71.0365 280.557 72.2188 278.828 73.4375L277.812 72.1562ZM256.344 69.8281L257.422 68.7031C259.151 69.974 260.625 71.1146 261.844 72.125L260.656 73.375C259.271 72.1146 257.833 70.9323 256.344 69.8281Z" fill="black"/>
<rect x="130" y="358" width="70" height="58" rx="10" fill="#EFDEEF"/>
<rect x="376" y="206" width="70" height="210" rx="10" fill="#1D2547"/>
<rect x="212" y="184" width="70" height="232" rx="10" fill="#EFDEEF"/>
<rect x="294" y="282" width="70" height="134" rx="10" fill="#EFDEEF"/>
<path d="M65.6875 284.926C66.7031 285.59 67.7643 285.922 68.8711 285.922C69.9128 285.922 70.7526 285.635 71.3906 285.062C72.0286 284.477 72.3477 283.702 72.3477 282.738C72.3477 281.762 72.0221 281.007 71.3711 280.473C70.7331 279.939 69.7956 279.672 68.5586 279.672C67.9727 279.672 67.1719 279.717 66.1562 279.809V272.113H73.6172V273.812H67.9531V278.09C68.513 278.064 68.9362 278.051 69.2227 278.051C70.8242 278.051 72.0677 278.454 72.9531 279.262C73.8385 280.069 74.2812 281.176 74.2812 282.582C74.2812 284.053 73.806 285.238 72.8555 286.137C71.9049 287.048 70.5833 287.504 68.8906 287.504C67.4844 287.504 66.4167 287.296 65.6875 286.879V284.926ZM76.8984 280.297C76.8984 277.628 77.3411 275.609 78.2266 274.242C79.112 272.862 80.388 272.172 82.0547 272.172C85.2578 272.172 86.8594 274.763 86.8594 279.945C86.8594 282.497 86.4102 284.451 85.5117 285.805C84.6133 287.146 83.3503 287.816 81.7227 287.816C80.1862 287.816 78.9948 287.178 78.1484 285.902C77.3151 284.613 76.8984 282.745 76.8984 280.297ZM78.8516 280.219C78.8516 284.229 79.8672 286.234 81.8984 286.234C83.9036 286.234 84.9062 284.19 84.9062 280.102C84.9062 275.883 83.9232 273.773 81.957 273.773C79.8867 273.773 78.8516 275.922 78.8516 280.219Z" fill="black"/>
<path d="M75.0234 197.188L69.125 211.66H67.1328L72.7578 198.223H65.1992V196.523H75.0234V197.188ZM77.4062 208.926C78.4219 209.59 79.4831 209.922 80.5898 209.922C81.6315 209.922 82.4714 209.635 83.1094 209.062C83.7474 208.477 84.0664 207.702 84.0664 206.738C84.0664 205.762 83.7409 205.007 83.0898 204.473C82.4518 203.939 81.5143 203.672 80.2773 203.672C79.6914 203.672 78.8906 203.717 77.875 203.809V196.113H85.3359V197.812H79.6719V202.09C80.2318 202.064 80.6549 202.051 80.9414 202.051C82.543 202.051 83.7865 202.454 84.6719 203.262C85.5573 204.069 86 205.176 86 206.582C86 208.053 85.5247 209.238 84.5742 210.137C83.6237 211.048 82.3021 211.504 80.6094 211.504C79.2031 211.504 78.1354 211.296 77.4062 210.879V208.926Z" fill="black"/>
<path d="M74.8086 363.562H65.6094V361.902L70.0039 357.508C71.2279 356.284 72.0417 355.333 72.4453 354.656C72.849 353.94 73.0508 353.204 73.0508 352.449C73.0508 351.59 72.8099 350.932 72.3281 350.477C71.8464 350.008 71.1497 349.773 70.2383 349.773C68.8971 349.773 67.6146 350.346 66.3906 351.492V349.559C67.5885 348.621 68.9688 348.159 70.5312 348.172C71.8984 348.172 72.9727 348.543 73.7539 349.285C74.5482 350.027 74.9453 351.017 74.9453 352.254C74.9453 353.191 74.6914 354.109 74.1836 355.008C73.6758 355.919 72.7188 357.065 71.3125 358.445L67.875 361.824V361.863H74.8086V363.562ZM77.4062 360.926C78.4219 361.59 79.4831 361.922 80.5898 361.922C81.6315 361.922 82.4714 361.635 83.1094 361.062C83.7474 360.477 84.0664 359.702 84.0664 358.738C84.0664 357.762 83.7409 357.007 83.0898 356.473C82.4518 355.939 81.5143 355.672 80.2773 355.672C79.6914 355.672 78.8906 355.717 77.875 355.809V348.113H85.3359V349.812H79.6719V354.09C80.2318 354.064 80.6549 354.051 80.9414 354.051C82.543 354.051 83.7865 354.454 84.6719 355.262C85.5573 356.069 86 357.176 86 358.582C86 360.053 85.5247 361.238 84.5742 362.137C83.6237 363.048 82.3021 363.504 80.6094 363.504C79.2031 363.504 78.1354 363.296 77.4062 362.879V360.926Z" fill="black"/>
<path d="M159.586 459.031C160.029 459.435 160.615 459.76 161.344 460.008C162.073 460.255 162.77 460.379 163.434 460.379C165.452 460.379 166.461 459.656 166.461 458.211C166.461 457.807 166.35 457.449 166.129 457.137C165.921 456.811 165.628 456.525 165.25 456.277C164.872 456.03 164.163 455.652 163.121 455.145C161.676 454.428 160.725 453.764 160.27 453.152C159.814 452.527 159.586 451.818 159.586 451.023C159.586 449.839 160.068 448.895 161.031 448.191C161.995 447.475 163.206 447.117 164.664 447.117C166.083 447.117 167.132 447.293 167.809 447.645V449.676C166.936 449.077 165.842 448.777 164.527 448.777C163.642 448.777 162.926 448.96 162.379 449.324C161.832 449.689 161.559 450.203 161.559 450.867C161.559 451.44 161.747 451.915 162.125 452.293C162.503 452.658 163.329 453.146 164.605 453.758C166.025 454.448 167.014 455.132 167.574 455.809C168.134 456.473 168.414 457.228 168.414 458.074C168.414 459.337 167.952 460.307 167.027 460.984C166.116 461.648 164.846 461.98 163.219 461.98C162.646 461.98 161.982 461.902 161.227 461.746C160.484 461.59 159.938 461.388 159.586 461.141V459.031Z" fill="#1D2547"/>
<path d="M252.566 461.941V452.43C252.566 451.648 252.618 450.698 252.723 449.578H252.684C252.501 450.281 252.352 450.763 252.234 451.023L247.508 461.941H246.473L241.727 451.121C241.635 450.874 241.499 450.359 241.316 449.578H241.258C241.323 450.255 241.355 451.232 241.355 452.508V461.941H239.578V447.586H242.098L246.336 457.41C246.648 458.178 246.857 458.771 246.961 459.188H247.039C247.365 458.302 247.586 457.697 247.703 457.371L252.02 447.586H254.422V461.941H252.566Z" fill="#1D2547"/>
<path d="M336.059 449.207H331.918V461.941H330.062V449.207H325.941V447.586H336.059V449.207Z" fill="#1D2547"/>
<path d="M426.424 447.469L422.381 461.844H420.232L417.342 451.492C417.212 451.023 417.133 450.529 417.107 450.008H417.068C417.029 450.516 416.945 451.004 416.814 451.473L413.885 461.844H411.736L407.576 447.469H409.627L412.557 458.328C412.674 458.81 412.745 459.298 412.771 459.793H412.85C412.876 459.428 412.973 458.94 413.143 458.328L416.268 447.469H418.084L421.053 458.406C421.157 458.771 421.235 459.227 421.287 459.773H421.326C421.365 459.383 421.463 458.914 421.619 458.367L424.432 447.469H426.424Z" fill="#1D2547"/>
<path d="M508.059 449.207H503.918V461.941H502.062V449.207H497.941V447.586H508.059V449.207Z" fill="#1D2547"/>
<path d="M586.701 449.266H581.154V454.09H586.291V455.73H581.154V462H579.299V447.645H586.701V449.266Z" fill="#1D2547"/>
<path d="M657.586 459.031C658.029 459.435 658.615 459.76 659.344 460.008C660.073 460.255 660.77 460.379 661.434 460.379C663.452 460.379 664.461 459.656 664.461 458.211C664.461 457.807 664.35 457.449 664.129 457.137C663.921 456.811 663.628 456.525 663.25 456.277C662.872 456.03 662.163 455.652 661.121 455.145C659.676 454.428 658.725 453.764 658.27 453.152C657.814 452.527 657.586 451.818 657.586 451.023C657.586 449.839 658.068 448.895 659.031 448.191C659.995 447.475 661.206 447.117 662.664 447.117C664.083 447.117 665.132 447.293 665.809 447.645V449.676C664.936 449.077 663.842 448.777 662.527 448.777C661.642 448.777 660.926 448.96 660.379 449.324C659.832 449.689 659.559 450.203 659.559 450.867C659.559 451.44 659.747 451.915 660.125 452.293C660.503 452.658 661.329 453.146 662.605 453.758C664.025 454.448 665.014 455.132 665.574 455.809C666.134 456.473 666.414 457.228 666.414 458.074C666.414 459.337 665.952 460.307 665.027 460.984C664.116 461.648 662.846 461.98 661.219 461.98C660.646 461.98 659.982 461.902 659.227 461.746C658.484 461.59 657.938 461.388 657.586 461.141V459.031Z" fill="#1D2547"/>
</svg>
