<svg width="648" height="442" viewBox="0 0 648 442" fill="none" xmlns="http://www.w3.org/2000/svg">
<path d="M5.33547 18.8794C3.66252 18.8794 2.35308 18.1132 1.40716 16.581C0.469053 15.041 0 12.8051 0 9.87356C0 6.63709 0.492505 4.19802 1.47752 2.55634C2.47034 0.914652 3.88923 0.0938105 5.73417 0.0938105C9.22861 0.0938105 10.9758 3.19737 10.9758 9.4045C10.9758 12.4924 10.4794 14.8455 9.48659 16.4637C8.50158 18.0742 7.11787 18.8794 5.33547 18.8794ZM5.62863 1.16091C4.23711 1.16091 3.15047 1.87621 2.36872 3.30682C1.59478 4.72961 1.20781 6.86771 1.20781 9.72111C1.20781 12.3244 1.57914 14.3256 2.32181 15.725C3.06448 17.1165 4.11984 17.8123 5.48791 17.8123C6.83253 17.8123 7.87617 17.1009 8.61884 15.6781C9.36932 14.2553 9.74457 12.2227 9.74457 9.5804C9.74457 3.9674 8.37259 1.16091 5.62863 1.16091ZM18.8325 0V18.5628H17.6716V1.8293C17.0852 2.39217 16.4168 2.87686 15.6664 3.28337C14.9237 3.68206 14.1107 4.03776 13.2273 4.35046V3.29509C13.7589 3.11529 14.2514 2.91594 14.7048 2.69705C15.1582 2.47034 15.5921 2.22018 16.0064 1.94657C16.4286 1.67295 16.8351 1.37589 17.226 1.05537C17.6246 0.727031 18.0273 0.375242 18.4338 0H18.8325ZM22.2096 21.5764H21.0487L29.82 0.398695H31.0396L22.2096 21.5764ZM32.1301 18.5628V17.7185C32.1301 17.1478 32.1731 16.6396 32.2591 16.194C32.3529 15.7406 32.4936 15.3263 32.6812 14.951C32.8767 14.568 33.1151 14.2084 33.3965 13.8722C33.678 13.5361 34.0063 13.2038 34.3816 12.8755C34.7646 12.5393 35.1946 12.1954 35.6714 11.8436C36.1483 11.4918 36.6682 11.1087 37.231 10.6944C37.7783 10.3035 38.2903 9.91264 38.7672 9.52177C39.2441 9.13089 39.6584 8.71265 40.0102 8.26705C40.3698 7.82145 40.6512 7.33285 40.8545 6.80126C41.0656 6.26185 41.1711 5.64427 41.1711 4.9485C41.1711 3.75242 40.8388 2.82213 40.1744 2.15764C39.5099 1.49315 38.5796 1.16091 37.3835 1.16091C36.5705 1.16091 35.7887 1.34071 35.0382 1.70032C34.2877 2.0521 33.5529 2.54461 32.8337 3.17783V1.80585C33.5294 1.27426 34.276 0.856021 35.0734 0.551137C35.8786 0.246253 36.7151 0.0938105 37.5828 0.0938105C38.3099 0.0938105 38.9665 0.207165 39.5529 0.433874C40.147 0.652765 40.6512 0.965466 41.0656 1.37198C41.4877 1.77067 41.8121 2.25927 42.0388 2.83777C42.2655 3.40845 42.3789 4.04949 42.3789 4.76088C42.3789 5.59736 42.2577 6.34003 42.0154 6.98888C41.7809 7.62992 41.4564 8.21624 41.0421 8.74783C40.6278 9.27161 40.1431 9.75629 39.588 10.2019C39.0408 10.6397 38.4584 11.0814 37.8408 11.527C37.02 12.1055 36.3242 12.6214 35.7535 13.0748C35.1907 13.5283 34.7333 13.9699 34.3816 14.3999C34.0298 14.8299 33.7757 15.2716 33.6193 15.725C33.463 16.1784 33.3848 16.7061 33.3848 17.308V17.4957H42.4141V18.5628H32.1301ZM45.6388 13.497C45.6388 13.0123 45.7053 12.5393 45.8382 12.0781C45.9789 11.6091 46.1899 11.1674 46.4714 10.753C46.7606 10.3387 47.1163 9.96737 47.5385 9.63903C47.9606 9.30288 48.457 9.03708 49.0277 8.84164C48.6056 8.63838 48.2186 8.39213 47.8668 8.10288C47.5228 7.81363 47.2297 7.49702 46.9873 7.15305C46.745 6.80126 46.5574 6.42211 46.4245 6.0156C46.2916 5.60127 46.2251 5.17521 46.2251 4.73743C46.2251 4.06512 46.3463 3.44754 46.5886 2.88467C46.831 2.32181 47.1632 1.83321 47.5854 1.41888C48.0075 1.00455 48.5079 0.680126 49.0863 0.4456C49.6727 0.211074 50.302 0.0938105 50.9743 0.0938105C51.6622 0.0938105 52.2955 0.214982 52.8739 0.457326C53.4603 0.691853 53.9645 1.01628 54.3866 1.43061C54.8088 1.84494 55.1371 2.33354 55.3717 2.8964C55.6062 3.45926 55.7234 4.07294 55.7234 4.73743C55.7234 5.18303 55.657 5.60909 55.5241 6.0156C55.399 6.42211 55.2153 6.80126 54.973 7.15305C54.7384 7.50484 54.4531 7.82536 54.1169 8.11461C53.7808 8.39604 53.4055 8.63838 52.9912 8.84164C53.5463 9.03708 54.0309 9.30288 54.4453 9.63903C54.8596 9.96737 55.2036 10.3387 55.4772 10.753C55.7586 11.1674 55.9658 11.6091 56.0987 12.0781C56.2394 12.5393 56.3098 13.0123 56.3098 13.497C56.3098 14.3413 56.1769 15.0957 55.9111 15.7602C55.6531 16.4247 55.2896 16.9875 54.8205 17.4488C54.3515 17.9022 53.7886 18.2501 53.1319 18.4924C52.4831 18.7347 51.7599 18.8559 50.9626 18.8559C50.1886 18.8559 49.4772 18.7347 48.8284 18.4924C48.1795 18.2501 47.6167 17.9022 47.1398 17.4488C46.6707 16.9953 46.3033 16.4364 46.0375 15.7719C45.7717 15.1074 45.6388 14.3491 45.6388 13.497ZM46.8349 13.626C46.8349 14.2592 46.9365 14.8338 47.1398 15.3497C47.343 15.8657 47.6245 16.3074 47.9841 16.6748C48.3437 17.0422 48.7736 17.3237 49.274 17.5191C49.7743 17.7146 50.3293 17.8123 50.9391 17.8123C51.5411 17.8123 52.0922 17.7146 52.5925 17.5191C53.1007 17.3237 53.5384 17.0422 53.9059 16.6748C54.2733 16.3074 54.5586 15.8657 54.7619 15.3497C54.9651 14.8338 55.0668 14.2592 55.0668 13.626C55.0668 13.0553 54.969 12.5198 54.7736 12.0195C54.5782 11.5113 54.3006 11.0696 53.941 10.6944C53.5893 10.3113 53.1554 10.0065 52.6394 9.77975C52.1313 9.55304 51.5645 9.43968 50.9391 9.43968C50.3606 9.43968 49.8173 9.54522 49.3091 9.75629C48.8088 9.95955 48.375 10.2449 48.0075 10.6123C47.6401 10.9797 47.3509 11.4214 47.1398 11.9374C46.9365 12.4533 46.8349 13.0162 46.8349 13.626ZM47.4681 4.77261C47.4681 5.28075 47.558 5.75371 47.7378 6.19149C47.9254 6.62146 48.1756 6.9967 48.4883 7.31722C48.8088 7.63774 49.1802 7.89181 49.6023 8.07943C50.0323 8.26705 50.4857 8.36086 50.9626 8.36086C51.4472 8.36086 51.9046 8.26705 52.3345 8.07943C52.7645 7.89181 53.1358 7.63774 53.4485 7.31722C53.7691 6.98888 54.0192 6.60973 54.199 6.17977C54.3866 5.74198 54.4805 5.27293 54.4805 4.77261C54.4805 4.25665 54.3906 3.77978 54.2107 3.342C54.0309 2.90422 53.7808 2.52507 53.4603 2.20455C53.1476 1.87621 52.7762 1.62214 52.3463 1.44234C51.9241 1.25472 51.4629 1.16091 50.9626 1.16091C50.4388 1.16091 49.9619 1.25862 49.5319 1.45406C49.1098 1.64168 48.7424 1.89966 48.4297 2.228C48.1248 2.54852 47.8864 2.92767 47.7144 3.36545C47.5502 3.80323 47.4681 4.27229 47.4681 4.77261Z" fill="black"/>
<path d="M5.33547 299.06C3.66252 299.06 2.35308 298.294 1.40716 296.762C0.469053 295.222 0 292.986 0 290.054C0 286.818 0.492505 284.379 1.47752 282.737C2.47034 281.095 3.88923 280.275 5.73417 280.275C9.22861 280.275 10.9758 283.378 10.9758 289.585C10.9758 292.673 10.4794 295.026 9.48659 296.644C8.50158 298.255 7.11787 299.06 5.33547 299.06ZM5.62863 281.342C4.23711 281.342 3.15047 282.057 2.36872 283.488C1.59478 284.91 1.20781 287.048 1.20781 289.902C1.20781 292.505 1.57914 294.506 2.32181 295.906C3.06448 297.297 4.11984 297.993 5.48791 297.993C6.83253 297.993 7.87617 297.282 8.61884 295.859C9.36932 294.436 9.74457 292.403 9.74457 289.761C9.74457 284.148 8.37259 281.342 5.62863 281.342ZM18.8325 280.181V298.743H17.6716V282.01C17.0852 282.573 16.4168 283.058 15.6664 283.464C14.9237 283.863 14.1107 284.218 13.2273 284.531V283.476C13.7589 283.296 14.2514 283.097 14.7048 282.878C15.1582 282.651 15.5921 282.401 16.0064 282.127C16.4286 281.854 16.8351 281.557 17.226 281.236C17.6246 280.908 18.0273 280.556 18.4338 280.181H18.8325ZM22.2096 301.757H21.0487L29.82 280.579H31.0396L22.2096 301.757ZM32.1301 298.743V297.899C32.1301 297.328 32.1731 296.82 32.2591 296.375C32.3529 295.921 32.4936 295.507 32.6812 295.132C32.8767 294.749 33.1151 294.389 33.3965 294.053C33.678 293.717 34.0063 293.385 34.3816 293.056C34.7646 292.72 35.1946 292.376 35.6714 292.024C36.1483 291.673 36.6682 291.289 37.231 290.875C37.7783 290.484 38.2903 290.093 38.7672 289.702C39.2441 289.312 39.6584 288.893 40.0102 288.448C40.3698 288.002 40.6512 287.514 40.8545 286.982C41.0656 286.443 41.1711 285.825 41.1711 285.129C41.1711 283.933 40.8388 283.003 40.1744 282.338C39.5099 281.674 38.5796 281.342 37.3835 281.342C36.5705 281.342 35.7887 281.521 35.0382 281.881C34.2877 282.233 33.5529 282.725 32.8337 283.359V281.987C33.5294 281.455 34.276 281.037 35.0734 280.732C35.8786 280.427 36.7151 280.275 37.5828 280.275C38.3099 280.275 38.9665 280.388 39.5529 280.615C40.147 280.833 40.6512 281.146 41.0656 281.553C41.4877 281.951 41.8121 282.44 42.0388 283.018C42.2655 283.589 42.3789 284.23 42.3789 284.942C42.3789 285.778 42.2577 286.521 42.0154 287.17C41.7809 287.811 41.4564 288.397 41.0421 288.929C40.6278 289.452 40.1431 289.937 39.588 290.383C39.0408 290.82 38.4584 291.262 37.8408 291.708C37.02 292.286 36.3242 292.802 35.7535 293.256C35.1907 293.709 34.7333 294.151 34.3816 294.581C34.0298 295.011 33.7757 295.452 33.6193 295.906C33.463 296.359 33.3848 296.887 33.3848 297.489V297.676H42.4141V298.743H32.1301ZM45.6388 293.678C45.6388 293.193 45.7053 292.72 45.8382 292.259C45.9789 291.79 46.1899 291.348 46.4714 290.934C46.7606 290.519 47.1163 290.148 47.5385 289.82C47.9606 289.484 48.457 289.218 49.0277 289.022C48.6056 288.819 48.2186 288.573 47.8668 288.284C47.5228 287.994 47.2297 287.678 46.9873 287.334C46.745 286.982 46.5574 286.603 46.4245 286.196C46.2916 285.782 46.2251 285.356 46.2251 284.918C46.2251 284.246 46.3463 283.628 46.5886 283.065C46.831 282.503 47.1632 282.014 47.5854 281.6C48.0075 281.185 48.5079 280.861 49.0863 280.626C49.6727 280.392 50.302 280.275 50.9743 280.275C51.6622 280.275 52.2955 280.396 52.8739 280.638C53.4603 280.873 53.9645 281.197 54.3866 281.611C54.8088 282.026 55.1371 282.514 55.3717 283.077C55.6062 283.64 55.7234 284.254 55.7234 284.918C55.7234 285.364 55.657 285.79 55.5241 286.196C55.399 286.603 55.2153 286.982 54.973 287.334C54.7384 287.686 54.4531 288.006 54.1169 288.295C53.7808 288.577 53.4055 288.819 52.9912 289.022C53.5463 289.218 54.0309 289.484 54.4453 289.82C54.8596 290.148 55.2036 290.519 55.4772 290.934C55.7586 291.348 55.9658 291.79 56.0987 292.259C56.2394 292.72 56.3098 293.193 56.3098 293.678C56.3098 294.522 56.1769 295.276 55.9111 295.941C55.6531 296.605 55.2896 297.168 54.8205 297.629C54.3515 298.083 53.7886 298.431 53.1319 298.673C52.4831 298.915 51.7599 299.037 50.9626 299.037C50.1886 299.037 49.4772 298.915 48.8284 298.673C48.1795 298.431 47.6167 298.083 47.1398 297.629C46.6707 297.176 46.3033 296.617 46.0375 295.953C45.7717 295.288 45.6388 294.53 45.6388 293.678ZM46.8349 293.807C46.8349 294.44 46.9365 295.015 47.1398 295.53C47.343 296.046 47.6245 296.488 47.9841 296.856C48.3437 297.223 48.7736 297.504 49.274 297.7C49.7743 297.895 50.3293 297.993 50.9391 297.993C51.5411 297.993 52.0922 297.895 52.5925 297.7C53.1007 297.504 53.5384 297.223 53.9059 296.856C54.2733 296.488 54.5586 296.046 54.7619 295.53C54.9651 295.015 55.0668 294.44 55.0668 293.807C55.0668 293.236 54.969 292.701 54.7736 292.2C54.5782 291.692 54.3006 291.25 53.941 290.875C53.5893 290.492 53.1554 290.187 52.6394 289.96C52.1313 289.734 51.5645 289.62 50.9391 289.62C50.3606 289.62 49.8173 289.726 49.3091 289.937C48.8088 290.14 48.375 290.426 48.0075 290.793C47.6401 291.16 47.3509 291.602 47.1398 292.118C46.9365 292.634 46.8349 293.197 46.8349 293.807ZM47.4681 284.953C47.4681 285.461 47.558 285.934 47.7378 286.372C47.9254 286.802 48.1756 287.177 48.4883 287.498C48.8088 287.818 49.1802 288.073 49.6023 288.26C50.0323 288.448 50.4857 288.542 50.9626 288.542C51.4472 288.542 51.9046 288.448 52.3345 288.26C52.7645 288.073 53.1358 287.818 53.4485 287.498C53.7691 287.17 54.0192 286.79 54.199 286.36C54.3866 285.923 54.4805 285.454 54.4805 284.953C54.4805 284.437 54.3906 283.961 54.2107 283.523C54.0309 283.085 53.7808 282.706 53.4603 282.385C53.1476 282.057 52.7762 281.803 52.3463 281.623C51.9241 281.435 51.4629 281.342 50.9626 281.342C50.4388 281.342 49.9619 281.439 49.5319 281.635C49.1098 281.822 48.7424 282.08 48.4297 282.409C48.1248 282.729 47.8864 283.108 47.7144 283.546C47.5502 283.984 47.4681 284.453 47.4681 284.953Z" fill="black"/>
<path d="M5.33547 158.97C3.66252 158.97 2.35308 158.204 1.40716 156.671C0.469053 155.131 0 152.895 0 149.964C0 146.727 0.492505 144.288 1.47752 142.647C2.47034 141.005 3.88923 140.184 5.73417 140.184C9.22861 140.184 10.9758 143.288 10.9758 149.495C10.9758 152.583 10.4794 154.936 9.48659 156.554C8.50158 158.165 7.11787 158.97 5.33547 158.97ZM5.62863 141.251C4.23711 141.251 3.15047 141.967 2.36872 143.397C1.59478 144.82 1.20781 146.958 1.20781 149.811C1.20781 152.415 1.57914 154.416 2.32181 155.815C3.06448 157.207 4.11984 157.903 5.48791 157.903C6.83253 157.903 7.87617 157.191 8.61884 155.768C9.36932 154.346 9.74457 152.313 9.74457 149.671C9.74457 144.058 8.37259 141.251 5.62863 141.251ZM18.8325 140.09V158.653H17.6716V141.92C17.0852 142.483 16.4168 142.967 15.6664 143.374C14.9237 143.772 14.1107 144.128 13.2273 144.441V143.385C13.7589 143.206 14.2514 143.006 14.7048 142.787C15.1582 142.561 15.5921 142.311 16.0064 142.037C16.4286 141.763 16.8351 141.466 17.226 141.146C17.6246 140.817 18.0273 140.466 18.4338 140.09H18.8325ZM22.2096 161.667H21.0487L29.82 140.489H31.0396L22.2096 161.667ZM32.1301 158.653V157.809C32.1301 157.238 32.1731 156.73 32.2591 156.284C32.3529 155.831 32.4936 155.417 32.6812 155.041C32.8767 154.658 33.1151 154.299 33.3965 153.963C33.678 153.626 34.0063 153.294 34.3816 152.966C34.7646 152.63 35.1946 152.286 35.6714 151.934C36.1483 151.582 36.6682 151.199 37.231 150.785C37.7783 150.394 38.2903 150.003 38.7672 149.612C39.2441 149.221 39.6584 148.803 40.0102 148.357C40.3698 147.912 40.6512 147.423 40.8545 146.892C41.0656 146.352 41.1711 145.735 41.1711 145.039C41.1711 143.843 40.8388 142.912 40.1744 142.248C39.5099 141.584 38.5796 141.251 37.3835 141.251C36.5705 141.251 35.7887 141.431 35.0382 141.791C34.2877 142.142 33.5529 142.635 32.8337 143.268V141.896C33.5294 141.365 34.276 140.946 35.0734 140.641C35.8786 140.337 36.7151 140.184 37.5828 140.184C38.3099 140.184 38.9665 140.298 39.5529 140.524C40.147 140.743 40.6512 141.056 41.0656 141.462C41.4877 141.861 41.8121 142.35 42.0388 142.928C42.2655 143.499 42.3789 144.14 42.3789 144.851C42.3789 145.688 42.2577 146.43 42.0154 147.079C41.7809 147.72 41.4564 148.307 41.0421 148.838C40.6278 149.362 40.1431 149.847 39.588 150.292C39.0408 150.73 38.4584 151.172 37.8408 151.617C37.02 152.196 36.3242 152.712 35.7535 153.165C35.1907 153.619 34.7333 154.06 34.3816 154.49C34.0298 154.92 33.7757 155.362 33.6193 155.815C33.463 156.269 33.3848 156.796 33.3848 157.398V157.586H42.4141V158.653H32.1301ZM45.6388 153.587C45.6388 153.103 45.7053 152.63 45.8382 152.168C45.9789 151.699 46.1899 151.258 46.4714 150.843C46.7606 150.429 47.1163 150.058 47.5385 149.729C47.9606 149.393 48.457 149.127 49.0277 148.932C48.6056 148.729 48.2186 148.482 47.8668 148.193C47.5228 147.904 47.2297 147.587 46.9873 147.243C46.745 146.892 46.5574 146.512 46.4245 146.106C46.2916 145.692 46.2251 145.266 46.2251 144.828C46.2251 144.155 46.3463 143.538 46.5886 142.975C46.831 142.412 47.1632 141.924 47.5854 141.509C48.0075 141.095 48.5079 140.77 49.0863 140.536C49.6727 140.301 50.302 140.184 50.9743 140.184C51.6622 140.184 52.2955 140.305 52.8739 140.548C53.4603 140.782 53.9645 141.107 54.3866 141.521C54.8088 141.935 55.1371 142.424 55.3717 142.987C55.6062 143.55 55.7234 144.163 55.7234 144.828C55.7234 145.273 55.657 145.699 55.5241 146.106C55.399 146.512 55.2153 146.892 54.973 147.243C54.7384 147.595 54.4531 147.916 54.1169 148.205C53.7808 148.486 53.4055 148.729 52.9912 148.932C53.5463 149.127 54.0309 149.393 54.4453 149.729C54.8596 150.058 55.2036 150.429 55.4772 150.843C55.7586 151.258 55.9658 151.699 56.0987 152.168C56.2394 152.63 56.3098 153.103 56.3098 153.587C56.3098 154.432 56.1769 155.186 55.9111 155.851C55.6531 156.515 55.2896 157.078 54.8205 157.539C54.3515 157.993 53.7886 158.34 53.1319 158.583C52.4831 158.825 51.7599 158.946 50.9626 158.946C50.1886 158.946 49.4772 158.825 48.8284 158.583C48.1795 158.34 47.6167 157.993 47.1398 157.539C46.6707 157.086 46.3033 156.527 46.0375 155.862C45.7717 155.198 45.6388 154.439 45.6388 153.587ZM46.8349 153.716C46.8349 154.35 46.9365 154.924 47.1398 155.44C47.343 155.956 47.6245 156.398 47.9841 156.765C48.3437 157.133 48.7736 157.414 49.274 157.609C49.7743 157.805 50.3293 157.903 50.9391 157.903C51.5411 157.903 52.0922 157.805 52.5925 157.609C53.1007 157.414 53.5384 157.133 53.9059 156.765C54.2733 156.398 54.5586 155.956 54.7619 155.44C54.9651 154.924 55.0668 154.35 55.0668 153.716C55.0668 153.146 54.969 152.61 54.7736 152.11C54.5782 151.602 54.3006 151.16 53.941 150.785C53.5893 150.402 53.1554 150.097 52.6394 149.87C52.1313 149.643 51.5645 149.53 50.9391 149.53C50.3606 149.53 49.8173 149.636 49.3091 149.847C48.8088 150.05 48.375 150.335 48.0075 150.703C47.6401 151.07 47.3509 151.512 47.1398 152.028C46.9365 152.544 46.8349 153.107 46.8349 153.716ZM47.4681 144.863C47.4681 145.371 47.558 145.844 47.7378 146.282C47.9254 146.712 48.1756 147.087 48.4883 147.408C48.8088 147.728 49.1802 147.982 49.6023 148.17C50.0323 148.357 50.4857 148.451 50.9626 148.451C51.4472 148.451 51.9046 148.357 52.3345 148.17C52.7645 147.982 53.1358 147.728 53.4485 147.408C53.7691 147.079 54.0192 146.7 54.199 146.27C54.3866 145.832 54.4805 145.363 54.4805 144.863C54.4805 144.347 54.3906 143.87 54.2107 143.432C54.0309 142.995 53.7808 142.615 53.4603 142.295C53.1476 141.967 52.7762 141.713 52.3463 141.533C51.9241 141.345 51.4629 141.251 50.9626 141.251C50.4388 141.251 49.9619 141.349 49.5319 141.544C49.1098 141.732 48.7424 141.99 48.4297 142.318C48.1248 142.639 47.8864 143.018 47.7144 143.456C47.5502 143.894 47.4681 144.363 47.4681 144.863Z" fill="black"/>
<path d="M5.33547 439.15C3.66252 439.15 2.35308 438.384 1.40716 436.852C0.469053 435.312 0 433.076 0 430.145C0 426.908 0.492505 424.469 1.47752 422.827C2.47034 421.186 3.88923 420.365 5.73417 420.365C9.22861 420.365 10.9758 423.468 10.9758 429.676C10.9758 432.764 10.4794 435.117 9.48659 436.735C8.50158 438.345 7.11787 439.15 5.33547 439.15ZM5.62863 421.432C4.23711 421.432 3.15047 422.147 2.36872 423.578C1.59478 425.001 1.20781 427.139 1.20781 429.992C1.20781 432.595 1.57914 434.597 2.32181 435.996C3.06448 437.388 4.11984 438.083 5.48791 438.083C6.83253 438.083 7.87617 437.372 8.61884 435.949C9.36932 434.526 9.74457 432.494 9.74457 429.851C9.74457 424.238 8.37259 421.432 5.62863 421.432ZM18.8325 420.271V438.834H17.6716V422.1C17.0852 422.663 16.4168 423.148 15.6664 423.554C14.9237 423.953 14.1107 424.309 13.2273 424.622V423.566C13.7589 423.386 14.2514 423.187 14.7048 422.968C15.1582 422.741 15.5921 422.491 16.0064 422.218C16.4286 421.944 16.8351 421.647 17.226 421.326C17.6246 420.998 18.0273 420.646 18.4338 420.271H18.8325ZM22.2096 441.847H21.0487L29.82 420.67H31.0396L22.2096 441.847ZM32.1301 438.834V437.99C32.1301 437.419 32.1731 436.911 32.2591 436.465C32.3529 436.012 32.4936 435.597 32.6812 435.222C32.8767 434.839 33.1151 434.479 33.3965 434.143C33.678 433.807 34.0063 433.475 34.3816 433.147C34.7646 432.81 35.1946 432.466 35.6714 432.115C36.1483 431.763 36.6682 431.38 37.231 430.965C37.7783 430.575 38.2903 430.184 38.7672 429.793C39.2441 429.402 39.6584 428.984 40.0102 428.538C40.3698 428.093 40.6512 427.604 40.8545 427.072C41.0656 426.533 41.1711 425.915 41.1711 425.22C41.1711 424.024 40.8388 423.093 40.1744 422.429C39.5099 421.764 38.5796 421.432 37.3835 421.432C36.5705 421.432 35.7887 421.612 35.0382 421.971C34.2877 422.323 33.5529 422.816 32.8337 423.449V422.077C33.5294 421.545 34.276 421.127 35.0734 420.822C35.8786 420.517 36.7151 420.365 37.5828 420.365C38.3099 420.365 38.9665 420.478 39.5529 420.705C40.147 420.924 40.6512 421.237 41.0656 421.643C41.4877 422.042 41.8121 422.53 42.0388 423.109C42.2655 423.68 42.3789 424.321 42.3789 425.032C42.3789 425.868 42.2577 426.611 42.0154 427.26C41.7809 427.901 41.4564 428.487 41.0421 429.019C40.6278 429.543 40.1431 430.027 39.588 430.473C39.0408 430.911 38.4584 431.352 37.8408 431.798C37.02 432.377 36.3242 432.893 35.7535 433.346C35.1907 433.799 34.7333 434.241 34.3816 434.671C34.0298 435.101 33.7757 435.543 33.6193 435.996C33.463 436.449 33.3848 436.977 33.3848 437.579V437.767H42.4141V438.834H32.1301ZM45.6388 433.768C45.6388 433.283 45.7053 432.81 45.8382 432.349C45.9789 431.88 46.1899 431.438 46.4714 431.024C46.7606 430.61 47.1163 430.238 47.5385 429.91C47.9606 429.574 48.457 429.308 49.0277 429.113C48.6056 428.909 48.2186 428.663 47.8668 428.374C47.5228 428.085 47.2297 427.768 46.9873 427.424C46.745 427.072 46.5574 426.693 46.4245 426.287C46.2916 425.872 46.2251 425.446 46.2251 425.009C46.2251 424.336 46.3463 423.719 46.5886 423.156C46.831 422.593 47.1632 422.104 47.5854 421.69C48.0075 421.276 48.5079 420.951 49.0863 420.717C49.6727 420.482 50.302 420.365 50.9743 420.365C51.6622 420.365 52.2955 420.486 52.8739 420.728C53.4603 420.963 53.9645 421.287 54.3866 421.702C54.8088 422.116 55.1371 422.605 55.3717 423.167C55.6062 423.73 55.7234 424.344 55.7234 425.009C55.7234 425.454 55.657 425.88 55.5241 426.287C55.399 426.693 55.2153 427.072 54.973 427.424C54.7384 427.776 54.4531 428.096 54.1169 428.386C53.7808 428.667 53.4055 428.909 52.9912 429.113C53.5463 429.308 54.0309 429.574 54.4453 429.91C54.8596 430.238 55.2036 430.61 55.4772 431.024C55.7586 431.438 55.9658 431.88 56.0987 432.349C56.2394 432.81 56.3098 433.283 56.3098 433.768C56.3098 434.612 56.1769 435.367 55.9111 436.031C55.6531 436.696 55.2896 437.259 54.8205 437.72C54.3515 438.173 53.7886 438.521 53.1319 438.763C52.4831 439.006 51.7599 439.127 50.9626 439.127C50.1886 439.127 49.4772 439.006 48.8284 438.763C48.1795 438.521 47.6167 438.173 47.1398 437.72C46.6707 437.266 46.3033 436.707 46.0375 436.043C45.7717 435.378 45.6388 434.62 45.6388 433.768ZM46.8349 433.897C46.8349 434.53 46.9365 435.105 47.1398 435.621C47.343 436.137 47.6245 436.578 47.9841 436.946C48.3437 437.313 48.7736 437.595 49.274 437.79C49.7743 437.986 50.3293 438.083 50.9391 438.083C51.5411 438.083 52.0922 437.986 52.5925 437.79C53.1007 437.595 53.5384 437.313 53.9059 436.946C54.2733 436.578 54.5586 436.137 54.7619 435.621C54.9651 435.105 55.0668 434.53 55.0668 433.897C55.0668 433.326 54.969 432.791 54.7736 432.291C54.5782 431.782 54.3006 431.341 53.941 430.965C53.5893 430.582 53.1554 430.278 52.6394 430.051C52.1313 429.824 51.5645 429.711 50.9391 429.711C50.3606 429.711 49.8173 429.816 49.3091 430.027C48.8088 430.231 48.375 430.516 48.0075 430.883C47.6401 431.251 47.3509 431.693 47.1398 432.208C46.9365 432.724 46.8349 433.287 46.8349 433.897ZM47.4681 425.044C47.4681 425.552 47.558 426.025 47.7378 426.463C47.9254 426.893 48.1756 427.268 48.4883 427.588C48.8088 427.909 49.1802 428.163 49.6023 428.351C50.0323 428.538 50.4857 428.632 50.9626 428.632C51.4472 428.632 51.9046 428.538 52.3345 428.351C52.7645 428.163 53.1358 427.909 53.4485 427.588C53.7691 427.26 54.0192 426.881 54.199 426.451C54.3866 426.013 54.4805 425.544 54.4805 425.044C54.4805 424.528 54.3906 424.051 54.2107 423.613C54.0309 423.175 53.7808 422.796 53.4603 422.476C53.1476 422.147 52.7762 421.893 52.3463 421.713C51.9241 421.526 51.4629 421.432 50.9626 421.432C50.4388 421.432 49.9619 421.53 49.5319 421.725C49.1098 421.913 48.7424 422.171 48.4297 422.499C48.1248 422.82 47.8864 423.199 47.7144 423.637C47.5502 424.074 47.4681 424.543 47.4681 425.044Z" fill="black"/>
<path d="M5.33547 88.9245C3.66252 88.9245 2.35308 88.1584 1.40716 86.6262C0.469053 85.0861 0 82.8503 0 79.9187C0 76.6823 0.492505 74.2432 1.47752 72.6015C2.47034 70.9598 3.88923 70.139 5.73417 70.139C9.22861 70.139 10.9758 73.2426 10.9758 79.4497C10.9758 82.5376 10.4794 84.8907 9.48659 86.5089C8.50158 88.1193 7.11787 88.9245 5.33547 88.9245ZM5.62863 71.2061C4.23711 71.2061 3.15047 71.9214 2.36872 73.352C1.59478 74.7748 1.20781 76.9129 1.20781 79.7663C1.20781 82.3695 1.57914 84.3708 2.32181 85.7702C3.06448 87.1617 4.11984 87.8575 5.48791 87.8575C6.83253 87.8575 7.87617 87.1461 8.61884 85.7233C9.36932 84.3005 9.74457 82.2679 9.74457 79.6256C9.74457 74.0126 8.37259 71.2061 5.62863 71.2061ZM18.8325 70.0452V88.6079H17.6716V71.8745C17.0852 72.4373 16.4168 72.922 15.6664 73.3285C14.9237 73.7272 14.1107 74.0829 13.2273 74.3956V73.3403C13.7589 73.1605 14.2514 72.9611 14.7048 72.7422C15.1582 72.5155 15.5921 72.2654 16.0064 71.9917C16.4286 71.7181 16.8351 71.4211 17.226 71.1005C17.6246 70.7722 18.0273 70.4204 18.4338 70.0452H18.8325ZM22.2096 91.6216H21.0487L29.82 70.4439H31.0396L22.2096 91.6216ZM32.1301 88.6079V87.7636C32.1301 87.193 32.1731 86.6848 32.2591 86.2392C32.3529 85.7858 32.4936 85.3715 32.6812 84.9962C32.8767 84.6132 33.1151 84.2536 33.3965 83.9174C33.678 83.5813 34.0063 83.249 34.3816 82.9207C34.7646 82.5845 35.1946 82.2405 35.6714 81.8888C36.1483 81.537 36.6682 81.1539 37.231 80.7396C37.7783 80.3487 38.2903 79.9578 38.7672 79.5669C39.2441 79.1761 39.6584 78.7578 40.0102 78.3122C40.3698 77.8666 40.6512 77.378 40.8545 76.8464C41.0656 76.307 41.1711 75.6894 41.1711 74.9937C41.1711 73.7976 40.8388 72.8673 40.1744 72.2028C39.5099 71.5383 38.5796 71.2061 37.3835 71.2061C36.5705 71.2061 35.7887 71.3859 35.0382 71.7455C34.2877 72.0973 33.5529 72.5898 32.8337 73.223V71.851C33.5294 71.3194 34.276 70.9012 35.0734 70.5963C35.8786 70.2914 36.7151 70.139 37.5828 70.139C38.3099 70.139 38.9665 70.2523 39.5529 70.4791C40.147 70.6979 40.6512 71.0106 41.0656 71.4172C41.4877 71.8159 41.8121 72.3044 42.0388 72.8829C42.2655 73.4536 42.3789 74.0947 42.3789 74.8061C42.3789 75.6425 42.2577 76.3852 42.0154 77.0341C41.7809 77.6751 41.4564 78.2614 41.0421 78.793C40.6278 79.3168 40.1431 79.8015 39.588 80.2471C39.0408 80.6849 38.4584 81.1265 37.8408 81.5721C37.02 82.1506 36.3242 82.6666 35.7535 83.12C35.1907 83.5734 34.7333 84.0151 34.3816 84.4451C34.0298 84.8751 33.7757 85.3167 33.6193 85.7702C33.463 86.2236 33.3848 86.7513 33.3848 87.3532V87.5408H42.4141V88.6079H32.1301ZM45.6388 83.5422C45.6388 83.0575 45.7053 82.5845 45.8382 82.1233C45.9789 81.6542 46.1899 81.2125 46.4714 80.7982C46.7606 80.3839 47.1163 80.0125 47.5385 79.6842C47.9606 79.3481 48.457 79.0823 49.0277 78.8868C48.6056 78.6836 48.2186 78.4373 47.8668 78.1481C47.5228 77.8588 47.2297 77.5422 46.9873 77.1982C46.745 76.8464 46.5574 76.4673 46.4245 76.0608C46.2916 75.6464 46.2251 75.2204 46.2251 74.7826C46.2251 74.1103 46.3463 73.4927 46.5886 72.9299C46.831 72.367 47.1632 71.8784 47.5854 71.4641C48.0075 71.0497 48.5079 70.7253 49.0863 70.4908C49.6727 70.2563 50.302 70.139 50.9743 70.139C51.6622 70.139 52.2955 70.2602 52.8739 70.5025C53.4603 70.737 53.9645 71.0615 54.3866 71.4758C54.8088 71.8901 55.1371 72.3787 55.3717 72.9416C55.6062 73.5044 55.7234 74.1181 55.7234 74.7826C55.7234 75.2282 55.657 75.6543 55.5241 76.0608C55.399 76.4673 55.2153 76.8464 54.973 77.1982C54.7384 77.55 54.4531 77.8705 54.1169 78.1598C53.7808 78.4412 53.4055 78.6836 52.9912 78.8868C53.5463 79.0823 54.0309 79.3481 54.4453 79.6842C54.8596 80.0125 55.2036 80.3839 55.4772 80.7982C55.7586 81.2125 55.9658 81.6542 56.0987 82.1233C56.2394 82.5845 56.3098 83.0575 56.3098 83.5422C56.3098 84.3865 56.1769 85.1409 55.9111 85.8053C55.6531 86.4698 55.2896 87.0327 54.8205 87.4939C54.3515 87.9474 53.7886 88.2952 53.1319 88.5376C52.4831 88.7799 51.7599 88.9011 50.9626 88.9011C50.1886 88.9011 49.4772 88.7799 48.8284 88.5376C48.1795 88.2952 47.6167 87.9474 47.1398 87.4939C46.6707 87.0405 46.3033 86.4816 46.0375 85.8171C45.7717 85.1526 45.6388 84.3943 45.6388 83.5422ZM46.8349 83.6712C46.8349 84.3044 46.9365 84.879 47.1398 85.3949C47.343 85.9109 47.6245 86.3526 47.9841 86.72C48.3437 87.0874 48.7736 87.3689 49.274 87.5643C49.7743 87.7597 50.3293 87.8575 50.9391 87.8575C51.5411 87.8575 52.0922 87.7597 52.5925 87.5643C53.1007 87.3689 53.5384 87.0874 53.9059 86.72C54.2733 86.3526 54.5586 85.9109 54.7619 85.3949C54.9651 84.879 55.0668 84.3044 55.0668 83.6712C55.0668 83.1005 54.969 82.565 54.7736 82.0647C54.5782 81.5565 54.3006 81.1148 53.941 80.7396C53.5893 80.3565 53.1554 80.0516 52.6394 79.8249C52.1313 79.5982 51.5645 79.4849 50.9391 79.4849C50.3606 79.4849 49.8173 79.5904 49.3091 79.8015C48.8088 80.0047 48.375 80.2901 48.0075 80.6575C47.6401 81.0249 47.3509 81.4666 47.1398 81.9826C46.9365 82.4985 46.8349 83.0614 46.8349 83.6712ZM47.4681 74.8178C47.4681 75.3259 47.558 75.7989 47.7378 76.2367C47.9254 76.6666 48.1756 77.0419 48.4883 77.3624C48.8088 77.6829 49.1802 77.937 49.6023 78.1246C50.0323 78.3122 50.4857 78.406 50.9626 78.406C51.4472 78.406 51.9046 78.3122 52.3345 78.1246C52.7645 77.937 53.1358 77.6829 53.4485 77.3624C53.7691 77.0341 54.0192 76.6549 54.199 76.2249C54.3866 75.7872 54.4805 75.3181 54.4805 74.8178C54.4805 74.3018 54.3906 73.825 54.2107 73.3872C54.0309 72.9494 53.7808 72.5702 53.4603 72.2497C53.1476 71.9214 52.7762 71.6673 52.3463 71.4875C51.9241 71.2999 51.4629 71.2061 50.9626 71.2061C50.4388 71.2061 49.9619 71.3038 49.5319 71.4992C49.1098 71.6869 48.7424 71.9448 48.4297 72.2732C48.1248 72.5937 47.8864 72.9728 47.7144 73.4106C47.5502 73.8484 47.4681 74.3175 47.4681 74.8178Z" fill="black"/>
<path d="M5.33547 369.105C3.66252 369.105 2.35308 368.339 1.40716 366.807C0.469053 365.267 0 363.031 0 360.099C0 356.863 0.492505 354.424 1.47752 352.782C2.47034 351.141 3.88923 350.32 5.73417 350.32C9.22861 350.32 10.9758 353.423 10.9758 359.63C10.9758 362.718 10.4794 365.071 9.48659 366.69C8.50158 368.3 7.11787 369.105 5.33547 369.105ZM5.62863 351.387C4.23711 351.387 3.15047 352.102 2.36872 353.533C1.59478 354.956 1.20781 357.094 1.20781 359.947C1.20781 362.55 1.57914 364.552 2.32181 365.951C3.06448 367.342 4.11984 368.038 5.48791 368.038C6.83253 368.038 7.87617 367.327 8.61884 365.904C9.36932 364.481 9.74457 362.449 9.74457 359.806C9.74457 354.193 8.37259 351.387 5.62863 351.387ZM18.8325 350.226V368.789H17.6716V352.055C17.0852 352.618 16.4168 353.103 15.6664 353.509C14.9237 353.908 14.1107 354.264 13.2273 354.576V353.521C13.7589 353.341 14.2514 353.142 14.7048 352.923C15.1582 352.696 15.5921 352.446 16.0064 352.172C16.4286 351.899 16.8351 351.602 17.226 351.281C17.6246 350.953 18.0273 350.601 18.4338 350.226H18.8325ZM22.2096 371.802H21.0487L29.82 350.625H31.0396L22.2096 371.802ZM32.1301 368.789V367.944C32.1301 367.374 32.1731 366.866 32.2591 366.42C32.3529 365.967 32.4936 365.552 32.6812 365.177C32.8767 364.794 33.1151 364.434 33.3965 364.098C33.678 363.762 34.0063 363.43 34.3816 363.101C34.7646 362.765 35.1946 362.421 35.6714 362.069C36.1483 361.718 36.6682 361.335 37.231 360.92C37.7783 360.529 38.2903 360.139 38.7672 359.748C39.2441 359.357 39.6584 358.939 40.0102 358.493C40.3698 358.047 40.6512 357.559 40.8545 357.027C41.0656 356.488 41.1711 355.87 41.1711 355.174C41.1711 353.978 40.8388 353.048 40.1744 352.384C39.5099 351.719 38.5796 351.387 37.3835 351.387C36.5705 351.387 35.7887 351.567 35.0382 351.926C34.2877 352.278 33.5529 352.771 32.8337 353.404V352.032C33.5294 351.5 34.276 351.082 35.0734 350.777C35.8786 350.472 36.7151 350.32 37.5828 350.32C38.3099 350.32 38.9665 350.433 39.5529 350.66C40.147 350.879 40.6512 351.191 41.0656 351.598C41.4877 351.997 41.8121 352.485 42.0388 353.064C42.2655 353.634 42.3789 354.275 42.3789 354.987C42.3789 355.823 42.2577 356.566 42.0154 357.215C41.7809 357.856 41.4564 358.442 41.0421 358.974C40.6278 359.498 40.1431 359.982 39.588 360.428C39.0408 360.866 38.4584 361.307 37.8408 361.753C37.02 362.331 36.3242 362.847 35.7535 363.301C35.1907 363.754 34.7333 364.196 34.3816 364.626C34.0298 365.056 33.7757 365.497 33.6193 365.951C33.463 366.404 33.3848 366.932 33.3848 367.534V367.722H42.4141V368.789H32.1301ZM45.6388 363.723C45.6388 363.238 45.7053 362.765 45.8382 362.304C45.9789 361.835 46.1899 361.393 46.4714 360.979C46.7606 360.565 47.1163 360.193 47.5385 359.865C47.9606 359.529 48.457 359.263 49.0277 359.068C48.6056 358.864 48.2186 358.618 47.8668 358.329C47.5228 358.04 47.2297 357.723 46.9873 357.379C46.745 357.027 46.5574 356.648 46.4245 356.241C46.2916 355.827 46.2251 355.401 46.2251 354.963C46.2251 354.291 46.3463 353.673 46.5886 353.111C46.831 352.548 47.1632 352.059 47.5854 351.645C48.0075 351.23 48.5079 350.906 49.0863 350.672C49.6727 350.437 50.302 350.32 50.9743 350.32C51.6622 350.32 52.2955 350.441 52.8739 350.683C53.4603 350.918 53.9645 351.242 54.3866 351.657C54.8088 352.071 55.1371 352.559 55.3717 353.122C55.6062 353.685 55.7234 354.299 55.7234 354.963C55.7234 355.409 55.657 355.835 55.5241 356.241C55.399 356.648 55.2153 357.027 54.973 357.379C54.7384 357.731 54.4531 358.051 54.1169 358.341C53.7808 358.622 53.4055 358.864 52.9912 359.068C53.5463 359.263 54.0309 359.529 54.4453 359.865C54.8596 360.193 55.2036 360.565 55.4772 360.979C55.7586 361.393 55.9658 361.835 56.0987 362.304C56.2394 362.765 56.3098 363.238 56.3098 363.723C56.3098 364.567 56.1769 365.322 55.9111 365.986C55.6531 366.651 55.2896 367.213 54.8205 367.675C54.3515 368.128 53.7886 368.476 53.1319 368.718C52.4831 368.961 51.7599 369.082 50.9626 369.082C50.1886 369.082 49.4772 368.961 48.8284 368.718C48.1795 368.476 47.6167 368.128 47.1398 367.675C46.6707 367.221 46.3033 366.662 46.0375 365.998C45.7717 365.333 45.6388 364.575 45.6388 363.723ZM46.8349 363.852C46.8349 364.485 46.9365 365.06 47.1398 365.576C47.343 366.092 47.6245 366.533 47.9841 366.901C48.3437 367.268 48.7736 367.55 49.274 367.745C49.7743 367.94 50.3293 368.038 50.9391 368.038C51.5411 368.038 52.0922 367.94 52.5925 367.745C53.1007 367.55 53.5384 367.268 53.9059 366.901C54.2733 366.533 54.5586 366.092 54.7619 365.576C54.9651 365.06 55.0668 364.485 55.0668 363.852C55.0668 363.281 54.969 362.746 54.7736 362.245C54.5782 361.737 54.3006 361.296 53.941 360.92C53.5893 360.537 53.1554 360.232 52.6394 360.006C52.1313 359.779 51.5645 359.666 50.9391 359.666C50.3606 359.666 49.8173 359.771 49.3091 359.982C48.8088 360.185 48.375 360.471 48.0075 360.838C47.6401 361.206 47.3509 361.647 47.1398 362.163C46.9365 362.679 46.8349 363.242 46.8349 363.852ZM47.4681 354.999C47.4681 355.507 47.558 355.98 47.7378 356.417C47.9254 356.847 48.1756 357.223 48.4883 357.543C48.8088 357.864 49.1802 358.118 49.6023 358.305C50.0323 358.493 50.4857 358.587 50.9626 358.587C51.4472 358.587 51.9046 358.493 52.3345 358.305C52.7645 358.118 53.1358 357.864 53.4485 357.543C53.7691 357.215 54.0192 356.836 54.199 356.406C54.3866 355.968 54.4805 355.499 54.4805 354.999C54.4805 354.483 54.3906 354.006 54.2107 353.568C54.0309 353.13 53.7808 352.751 53.4603 352.43C53.1476 352.102 52.7762 351.848 52.3463 351.668C51.9241 351.481 51.4629 351.387 50.9626 351.387C50.4388 351.387 49.9619 351.485 49.5319 351.68C49.1098 351.868 48.7424 352.126 48.4297 352.454C48.1248 352.774 47.8864 353.154 47.7144 353.591C47.5502 354.029 47.4681 354.498 47.4681 354.999Z" fill="black"/>
<path d="M5.33547 229.015C3.66252 229.015 2.35308 228.249 1.40716 226.717C0.469053 225.176 0 222.941 0 220.009C0 216.773 0.492505 214.334 1.47752 212.692C2.47034 211.05 3.88923 210.229 5.73417 210.229C9.22861 210.229 10.9758 213.333 10.9758 219.54C10.9758 222.628 10.4794 224.981 9.48659 226.599C8.50158 228.21 7.11787 229.015 5.33547 229.015ZM5.62863 211.296C4.23711 211.296 3.15047 212.012 2.36872 213.442C1.59478 214.865 1.20781 217.003 1.20781 219.857C1.20781 222.46 1.57914 224.461 2.32181 225.861C3.06448 227.252 4.11984 227.948 5.48791 227.948C6.83253 227.948 7.87617 227.236 8.61884 225.814C9.36932 224.391 9.74457 222.358 9.74457 219.716C9.74457 214.103 8.37259 211.296 5.62863 211.296ZM18.8325 210.136V228.698H17.6716V211.965C17.0852 212.528 16.4168 213.012 15.6664 213.419C14.9237 213.818 14.1107 214.173 13.2273 214.486V213.431C13.7589 213.251 14.2514 213.051 14.7048 212.833C15.1582 212.606 15.5921 212.356 16.0064 212.082C16.4286 211.808 16.8351 211.511 17.226 211.191C17.6246 210.863 18.0273 210.511 18.4338 210.136H18.8325ZM22.2096 231.712H21.0487L29.82 210.534H31.0396L22.2096 231.712ZM32.1301 228.698V227.854C32.1301 227.283 32.1731 226.775 32.2591 226.33C32.3529 225.876 32.4936 225.462 32.6812 225.087C32.8767 224.704 33.1151 224.344 33.3965 224.008C33.678 223.672 34.0063 223.339 34.3816 223.011C34.7646 222.675 35.1946 222.331 35.6714 221.979C36.1483 221.627 36.6682 221.244 37.231 220.83C37.7783 220.439 38.2903 220.048 38.7672 219.657C39.2441 219.266 39.6584 218.848 40.0102 218.403C40.3698 217.957 40.6512 217.468 40.8545 216.937C41.0656 216.397 41.1711 215.78 41.1711 215.084C41.1711 213.888 40.8388 212.958 40.1744 212.293C39.5099 211.629 38.5796 211.296 37.3835 211.296C36.5705 211.296 35.7887 211.476 35.0382 211.836C34.2877 212.188 33.5529 212.68 32.8337 213.313V211.941C33.5294 211.41 34.276 210.992 35.0734 210.687C35.8786 210.382 36.7151 210.229 37.5828 210.229C38.3099 210.229 38.9665 210.343 39.5529 210.569C40.147 210.788 40.6512 211.101 41.0656 211.508C41.4877 211.906 41.8121 212.395 42.0388 212.973C42.2655 213.544 42.3789 214.185 42.3789 214.896C42.3789 215.733 42.2577 216.476 42.0154 217.124C41.7809 217.765 41.4564 218.352 41.0421 218.883C40.6278 219.407 40.1431 219.892 39.588 220.337C39.0408 220.775 38.4584 221.217 37.8408 221.663C37.02 222.241 36.3242 222.757 35.7535 223.21C35.1907 223.664 34.7333 224.105 34.3816 224.535C34.0298 224.965 33.7757 225.407 33.6193 225.861C33.463 226.314 33.3848 226.842 33.3848 227.444V227.631H42.4141V228.698H32.1301ZM45.6388 223.633C45.6388 223.148 45.7053 222.675 45.8382 222.214C45.9789 221.745 46.1899 221.303 46.4714 220.889C46.7606 220.474 47.1163 220.103 47.5385 219.775C47.9606 219.438 48.457 219.173 49.0277 218.977C48.6056 218.774 48.2186 218.528 47.8668 218.238C47.5228 217.949 47.2297 217.633 46.9873 217.289C46.745 216.937 46.5574 216.558 46.4245 216.151C46.2916 215.737 46.2251 215.311 46.2251 214.873C46.2251 214.201 46.3463 213.583 46.5886 213.02C46.831 212.457 47.1632 211.969 47.5854 211.554C48.0075 211.14 48.5079 210.816 49.0863 210.581C49.6727 210.347 50.302 210.229 50.9743 210.229C51.6622 210.229 52.2955 210.351 52.8739 210.593C53.4603 210.827 53.9645 211.152 54.3866 211.566C54.8088 211.98 55.1371 212.469 55.3717 213.032C55.6062 213.595 55.7234 214.208 55.7234 214.873C55.7234 215.319 55.657 215.745 55.5241 216.151C55.399 216.558 55.2153 216.937 54.973 217.289C54.7384 217.64 54.4531 217.961 54.1169 218.25C53.7808 218.532 53.4055 218.774 52.9912 218.977C53.5463 219.173 54.0309 219.438 54.4453 219.775C54.8596 220.103 55.2036 220.474 55.4772 220.889C55.7586 221.303 55.9658 221.745 56.0987 222.214C56.2394 222.675 56.3098 223.148 56.3098 223.633C56.3098 224.477 56.1769 225.231 55.9111 225.896C55.6531 226.56 55.2896 227.123 54.8205 227.584C54.3515 228.038 53.7886 228.386 53.1319 228.628C52.4831 228.87 51.7599 228.991 50.9626 228.991C50.1886 228.991 49.4772 228.87 48.8284 228.628C48.1795 228.386 47.6167 228.038 47.1398 227.584C46.6707 227.131 46.3033 226.572 46.0375 225.907C45.7717 225.243 45.6388 224.485 45.6388 223.633ZM46.8349 223.762C46.8349 224.395 46.9365 224.969 47.1398 225.485C47.343 226.001 47.6245 226.443 47.9841 226.81C48.3437 227.178 48.7736 227.459 49.274 227.655C49.7743 227.85 50.3293 227.948 50.9391 227.948C51.5411 227.948 52.0922 227.85 52.5925 227.655C53.1007 227.459 53.5384 227.178 53.9059 226.81C54.2733 226.443 54.5586 226.001 54.7619 225.485C54.9651 224.969 55.0668 224.395 55.0668 223.762C55.0668 223.191 54.969 222.655 54.7736 222.155C54.5782 221.647 54.3006 221.205 53.941 220.83C53.5893 220.447 53.1554 220.142 52.6394 219.915C52.1313 219.689 51.5645 219.575 50.9391 219.575C50.3606 219.575 49.8173 219.681 49.3091 219.892C48.8088 220.095 48.375 220.38 48.0075 220.748C47.6401 221.115 47.3509 221.557 47.1398 222.073C46.9365 222.589 46.8349 223.152 46.8349 223.762ZM47.4681 214.908C47.4681 215.416 47.558 215.889 47.7378 216.327C47.9254 216.757 48.1756 217.132 48.4883 217.453C48.8088 217.773 49.1802 218.027 49.6023 218.215C50.0323 218.403 50.4857 218.496 50.9626 218.496C51.4472 218.496 51.9046 218.403 52.3345 218.215C52.7645 218.027 53.1358 217.773 53.4485 217.453C53.7691 217.124 54.0192 216.745 54.199 216.315C54.3866 215.878 54.4805 215.408 54.4805 214.908C54.4805 214.392 54.3906 213.915 54.2107 213.478C54.0309 213.04 53.7808 212.661 53.4603 212.34C53.1476 212.012 52.7762 211.758 52.3463 211.578C51.9241 211.39 51.4629 211.296 50.9626 211.296C50.4388 211.296 49.9619 211.394 49.5319 211.59C49.1098 211.777 48.7424 212.035 48.4297 212.364C48.1248 212.684 47.8864 213.063 47.7144 213.501C47.5502 213.939 47.4681 214.408 47.4681 214.908Z" fill="black"/>
<path d="M621.733 18.8794C620.06 18.8794 618.751 18.1132 617.805 16.581C616.867 15.041 616.398 12.8051 616.398 9.87356C616.398 6.63709 616.89 4.19802 617.875 2.55634C618.868 0.914652 620.287 0.0938105 622.132 0.0938105C625.626 0.0938105 627.373 3.19737 627.373 9.4045C627.373 12.4924 626.877 14.8455 625.884 16.4637C624.899 18.0742 623.515 18.8794 621.733 18.8794ZM622.026 1.16091C620.635 1.16091 619.548 1.87621 618.766 3.30682C617.992 4.72961 617.605 6.86771 617.605 9.72111C617.605 12.3244 617.977 14.3256 618.719 15.725C619.462 17.1165 620.517 17.8123 621.885 17.8123C623.23 17.8123 624.274 17.1009 625.016 15.6781C625.767 14.2553 626.142 12.2227 626.142 9.5804C626.142 3.9674 624.77 1.16091 622.026 1.16091ZM633.811 9.33415C632.513 9.33415 631.489 8.90809 630.739 8.05598C629.988 7.20387 629.613 6.09768 629.613 4.73743C629.613 3.25992 630.012 2.11074 630.809 1.28989C631.607 0.461235 632.65 0.0469053 633.94 0.0469053C635.207 0.0469053 636.211 0.457326 636.954 1.27817C637.696 2.09901 638.068 3.24037 638.068 4.70225C638.068 6.02342 637.681 7.12569 636.907 8.00907C636.133 8.89245 635.101 9.33415 633.811 9.33415ZM633.917 1.09055C632.947 1.09055 632.181 1.41498 631.618 2.06383C631.055 2.70487 630.774 3.60389 630.774 4.76088C630.774 5.84752 631.044 6.71136 631.583 7.3524C632.13 7.99344 632.881 8.31396 633.835 8.31396C634.796 8.31396 635.551 7.98562 636.098 7.32895C636.645 6.67227 636.919 5.78889 636.919 4.6788C636.919 3.49053 636.645 2.59542 636.098 1.99347C635.558 1.39152 634.831 1.09055 633.917 1.09055ZM633.835 18.9849H632.58L643.509 0.422147H644.728L633.835 18.9849ZM643.743 18.8794C642.453 18.8794 641.429 18.4533 640.671 17.6012C639.913 16.7491 639.534 15.6429 639.534 14.2827C639.534 12.7895 639.94 11.6325 640.753 10.8117C641.566 9.99082 642.606 9.5804 643.872 9.5804C645.139 9.5804 646.143 9.99473 646.886 10.8234C647.629 11.652 648 12.7973 648 14.2592C648 15.5725 647.613 16.6709 646.839 17.5543C646.065 18.4377 645.033 18.8794 643.743 18.8794ZM643.837 10.624C642.876 10.624 642.113 10.9524 641.551 11.6091C640.988 12.2657 640.706 13.1647 640.706 14.3061C640.706 15.3927 640.976 16.2605 641.515 16.9093C642.063 17.5504 642.813 17.8709 643.767 17.8709C644.736 17.8709 645.494 17.5426 646.042 16.8859C646.589 16.2292 646.863 15.3458 646.863 14.2357C646.863 13.0397 646.589 12.1406 646.042 11.5387C645.502 10.9289 644.767 10.624 643.837 10.624Z" fill="black"/>
<path d="M621.733 299.06C620.06 299.06 618.751 298.294 617.805 296.762C616.867 295.222 616.398 292.986 616.398 290.054C616.398 286.818 616.89 284.379 617.875 282.737C618.868 281.095 620.287 280.275 622.132 280.275C625.626 280.275 627.373 283.378 627.373 289.585C627.373 292.673 626.877 295.026 625.884 296.644C624.899 298.255 623.515 299.06 621.733 299.06ZM622.026 281.342C620.635 281.342 619.548 282.057 618.766 283.488C617.992 284.91 617.605 287.048 617.605 289.902C617.605 292.505 617.977 294.506 618.719 295.906C619.462 297.297 620.517 297.993 621.885 297.993C623.23 297.993 624.274 297.282 625.016 295.859C625.767 294.436 626.142 292.403 626.142 289.761C626.142 284.148 624.77 281.342 622.026 281.342ZM633.811 289.515C632.513 289.515 631.489 289.089 630.739 288.237C629.988 287.385 629.613 286.278 629.613 284.918C629.613 283.441 630.012 282.291 630.809 281.471C631.607 280.642 632.65 280.228 633.94 280.228C635.207 280.228 636.211 280.638 636.954 281.459C637.696 282.28 638.068 283.421 638.068 284.883C638.068 286.204 637.681 287.306 636.907 288.19C636.133 289.073 635.101 289.515 633.811 289.515ZM633.917 281.271C632.947 281.271 632.181 281.596 631.618 282.245C631.055 282.886 630.774 283.785 630.774 284.942C630.774 286.028 631.044 286.892 631.583 287.533C632.13 288.174 632.881 288.495 633.835 288.495C634.796 288.495 635.551 288.166 636.098 287.51C636.645 286.853 636.919 285.97 636.919 284.86C636.919 283.671 636.645 282.776 636.098 282.174C635.558 281.572 634.831 281.271 633.917 281.271ZM633.835 299.166H632.58L643.509 280.603H644.728L633.835 299.166ZM643.743 299.06C642.453 299.06 641.429 298.634 640.671 297.782C639.913 296.93 639.534 295.824 639.534 294.463C639.534 292.97 639.94 291.813 640.753 290.992C641.566 290.172 642.606 289.761 643.872 289.761C645.139 289.761 646.143 290.175 646.886 291.004C647.629 291.833 648 292.978 648 294.44C648 295.753 647.613 296.852 646.839 297.735C646.065 298.618 645.033 299.06 643.743 299.06ZM643.837 290.805C642.876 290.805 642.113 291.133 641.551 291.79C640.988 292.446 640.706 293.345 640.706 294.487C640.706 295.573 640.976 296.441 641.515 297.09C642.063 297.731 642.813 298.052 643.767 298.052C644.736 298.052 645.494 297.723 646.042 297.067C646.589 296.41 646.863 295.527 646.863 294.416C646.863 293.22 646.589 292.321 646.042 291.719C645.502 291.11 644.767 290.805 643.837 290.805Z" fill="black"/>
<path d="M621.733 158.97C620.06 158.97 618.751 158.204 617.805 156.671C616.867 155.131 616.398 152.895 616.398 149.964C616.398 146.727 616.89 144.288 617.875 142.647C618.868 141.005 620.287 140.184 622.132 140.184C625.626 140.184 627.373 143.288 627.373 149.495C627.373 152.583 626.877 154.936 625.884 156.554C624.899 158.165 623.515 158.97 621.733 158.97ZM622.026 141.251C620.635 141.251 619.548 141.967 618.766 143.397C617.992 144.82 617.605 146.958 617.605 149.811C617.605 152.415 617.977 154.416 618.719 155.815C619.462 157.207 620.517 157.903 621.885 157.903C623.23 157.903 624.274 157.191 625.016 155.768C625.767 154.346 626.142 152.313 626.142 149.671C626.142 144.058 624.77 141.251 622.026 141.251ZM633.811 149.425C632.513 149.425 631.489 148.998 630.739 148.146C629.988 147.294 629.613 146.188 629.613 144.828C629.613 143.35 630.012 142.201 630.809 141.38C631.607 140.552 632.65 140.137 633.94 140.137C635.207 140.137 636.211 140.548 636.954 141.369C637.696 142.189 638.068 143.331 638.068 144.793C638.068 146.114 637.681 147.216 636.907 148.099C636.133 148.983 635.101 149.425 633.811 149.425ZM633.917 141.181C632.947 141.181 632.181 141.505 631.618 142.154C631.055 142.795 630.774 143.694 630.774 144.851C630.774 145.938 631.044 146.802 631.583 147.443C632.13 148.084 632.881 148.404 633.835 148.404C634.796 148.404 635.551 148.076 636.098 147.419C636.645 146.763 636.919 145.879 636.919 144.769C636.919 143.581 636.645 142.686 636.098 142.084C635.558 141.482 634.831 141.181 633.917 141.181ZM633.835 159.075H632.58L643.509 140.513H644.728L633.835 159.075ZM643.743 158.97C642.453 158.97 641.429 158.544 640.671 157.692C639.913 156.839 639.534 155.733 639.534 154.373C639.534 152.88 639.94 151.723 640.753 150.902C641.566 150.081 642.606 149.671 643.872 149.671C645.139 149.671 646.143 150.085 646.886 150.914C647.629 151.742 648 152.888 648 154.35C648 155.663 647.613 156.761 646.839 157.645C646.065 158.528 645.033 158.97 643.743 158.97ZM643.837 150.714C642.876 150.714 642.113 151.043 641.551 151.699C640.988 152.356 640.706 153.255 640.706 154.396C640.706 155.483 640.976 156.351 641.515 157C642.063 157.641 642.813 157.961 643.767 157.961C644.736 157.961 645.494 157.633 646.042 156.976C646.589 156.32 646.863 155.436 646.863 154.326C646.863 153.13 646.589 152.231 646.042 151.629C645.502 151.019 644.767 150.714 643.837 150.714Z" fill="black"/>
<path d="M621.733 439.15C620.06 439.15 618.751 438.384 617.805 436.852C616.867 435.312 616.398 433.076 616.398 430.145C616.398 426.908 616.89 424.469 617.875 422.827C618.868 421.186 620.287 420.365 622.132 420.365C625.626 420.365 627.373 423.468 627.373 429.676C627.373 432.764 626.877 435.117 625.884 436.735C624.899 438.345 623.515 439.15 621.733 439.15ZM622.026 421.432C620.635 421.432 619.548 422.147 618.766 423.578C617.992 425.001 617.605 427.139 617.605 429.992C617.605 432.595 617.977 434.597 618.719 435.996C619.462 437.388 620.517 438.083 621.885 438.083C623.23 438.083 624.274 437.372 625.016 435.949C625.767 434.526 626.142 432.494 626.142 429.851C626.142 424.238 624.77 421.432 622.026 421.432ZM633.811 429.605C632.513 429.605 631.489 429.179 630.739 428.327C629.988 427.475 629.613 426.369 629.613 425.009C629.613 423.531 630.012 422.382 630.809 421.561C631.607 420.732 632.65 420.318 633.94 420.318C635.207 420.318 636.211 420.728 636.954 421.549C637.696 422.37 638.068 423.511 638.068 424.973C638.068 426.294 637.681 427.397 636.907 428.28C636.133 429.164 635.101 429.605 633.811 429.605ZM633.917 421.362C632.947 421.362 632.181 421.686 631.618 422.335C631.055 422.976 630.774 423.875 630.774 425.032C630.774 426.119 631.044 426.982 631.583 427.623C632.13 428.265 632.881 428.585 633.835 428.585C634.796 428.585 635.551 428.257 636.098 427.6C636.645 426.943 636.919 426.06 636.919 424.95C636.919 423.762 636.645 422.867 636.098 422.265C635.558 421.663 634.831 421.362 633.917 421.362ZM633.835 439.256H632.58L643.509 420.693H644.728L633.835 439.256ZM643.743 439.15C642.453 439.15 641.429 438.724 640.671 437.872C639.913 437.02 639.534 435.914 639.534 434.554C639.534 433.061 639.94 431.904 640.753 431.083C641.566 430.262 642.606 429.851 643.872 429.851C645.139 429.851 646.143 430.266 646.886 431.094C647.629 431.923 648 433.068 648 434.53C648 435.844 647.613 436.942 646.839 437.825C646.065 438.709 645.033 439.15 643.743 439.15ZM643.837 430.895C642.876 430.895 642.113 431.223 641.551 431.88C640.988 432.537 640.706 433.436 640.706 434.577C640.706 435.664 640.976 436.532 641.515 437.18C642.063 437.821 642.813 438.142 643.767 438.142C644.736 438.142 645.494 437.814 646.042 437.157C646.589 436.5 646.863 435.617 646.863 434.507C646.863 433.311 646.589 432.412 646.042 431.81C645.502 431.2 644.767 430.895 643.837 430.895Z" fill="black"/>
<path d="M621.733 88.9245C620.06 88.9245 618.751 88.1584 617.805 86.6262C616.867 85.0861 616.398 82.8503 616.398 79.9187C616.398 76.6823 616.89 74.2432 617.875 72.6015C618.868 70.9598 620.287 70.139 622.132 70.139C625.626 70.139 627.373 73.2426 627.373 79.4497C627.373 82.5376 626.877 84.8907 625.884 86.5089C624.899 88.1193 623.515 88.9245 621.733 88.9245ZM622.026 71.2061C620.635 71.2061 619.548 71.9214 618.766 73.352C617.992 74.7748 617.605 76.9129 617.605 79.7663C617.605 82.3695 617.977 84.3708 618.719 85.7702C619.462 87.1617 620.517 87.8575 621.885 87.8575C623.23 87.8575 624.274 87.1461 625.016 85.7233C625.767 84.3005 626.142 82.2679 626.142 79.6256C626.142 74.0126 624.77 71.2061 622.026 71.2061ZM633.811 79.3793C632.513 79.3793 631.489 78.9533 630.739 78.1012C629.988 77.249 629.613 76.1429 629.613 74.7826C629.613 73.3051 630.012 72.1559 630.809 71.3351C631.607 70.5064 632.65 70.0921 633.94 70.0921C635.207 70.0921 636.211 70.5025 636.954 71.3233C637.696 72.1442 638.068 73.2856 638.068 74.7474C638.068 76.0686 637.681 77.1709 636.907 78.0543C636.133 78.9376 635.101 79.3793 633.811 79.3793ZM633.917 71.1357C632.947 71.1357 632.181 71.4602 631.618 72.109C631.055 72.75 630.774 73.6491 630.774 74.8061C630.774 75.8927 631.044 76.7565 631.583 77.3976C632.13 78.0386 632.881 78.3591 633.835 78.3591C634.796 78.3591 635.551 78.0308 636.098 77.3741C636.645 76.7175 636.919 75.8341 636.919 74.724C636.919 73.5357 636.645 72.6406 636.098 72.0387C635.558 71.4367 634.831 71.1357 633.917 71.1357ZM633.835 89.0301H632.58L643.509 70.4673H644.728L633.835 89.0301ZM643.743 88.9245C642.453 88.9245 641.429 88.4985 640.671 87.6464C639.913 86.7943 639.534 85.6881 639.534 84.3278C639.534 82.8347 639.94 81.6777 640.753 80.8568C641.566 80.036 642.606 79.6256 643.872 79.6256C645.139 79.6256 646.143 80.0399 646.886 80.8686C647.629 81.6972 648 82.8425 648 84.3044C648 85.6177 647.613 86.7161 646.839 87.5995C646.065 88.4829 645.033 88.9245 643.743 88.9245ZM643.837 80.6692C642.876 80.6692 642.113 80.9976 641.551 81.6542C640.988 82.3109 640.706 83.2099 640.706 84.3513C640.706 85.4379 640.976 86.3057 641.515 86.9545C642.063 87.5956 642.813 87.9161 643.767 87.9161C644.736 87.9161 645.494 87.5877 646.042 86.9311C646.589 86.2744 646.863 85.391 646.863 84.2809C646.863 83.0848 646.589 82.1858 646.042 81.5839C645.502 80.9741 644.767 80.6692 643.837 80.6692Z" fill="black"/>
<path d="M621.733 369.105C620.06 369.105 618.751 368.339 617.805 366.807C616.867 365.267 616.398 363.031 616.398 360.099C616.398 356.863 616.89 354.424 617.875 352.782C618.868 351.141 620.287 350.32 622.132 350.32C625.626 350.32 627.373 353.423 627.373 359.63C627.373 362.718 626.877 365.071 625.884 366.69C624.899 368.3 623.515 369.105 621.733 369.105ZM622.026 351.387C620.635 351.387 619.548 352.102 618.766 353.533C617.992 354.956 617.605 357.094 617.605 359.947C617.605 362.55 617.977 364.552 618.719 365.951C619.462 367.342 620.517 368.038 621.885 368.038C623.23 368.038 624.274 367.327 625.016 365.904C625.767 364.481 626.142 362.449 626.142 359.806C626.142 354.193 624.77 351.387 622.026 351.387ZM633.811 359.56C632.513 359.56 631.489 359.134 630.739 358.282C629.988 357.43 629.613 356.324 629.613 354.963C629.613 353.486 630.012 352.337 630.809 351.516C631.607 350.687 632.65 350.273 633.94 350.273C635.207 350.273 636.211 350.683 636.954 351.504C637.696 352.325 638.068 353.466 638.068 354.928C638.068 356.249 637.681 357.352 636.907 358.235C636.133 359.118 635.101 359.56 633.811 359.56ZM633.917 351.316C632.947 351.316 632.181 351.641 631.618 352.29C631.055 352.931 630.774 353.83 630.774 354.987C630.774 356.073 631.044 356.937 631.583 357.578C632.13 358.219 632.881 358.54 633.835 358.54C634.796 358.54 635.551 358.212 636.098 357.555C636.645 356.898 636.919 356.015 636.919 354.905C636.919 353.716 636.645 352.821 636.098 352.219C635.558 351.617 634.831 351.316 633.917 351.316ZM633.835 369.211H632.58L643.509 350.648H644.728L633.835 369.211ZM643.743 369.105C642.453 369.105 641.429 368.679 640.671 367.827C639.913 366.975 639.534 365.869 639.534 364.509C639.534 363.015 639.94 361.858 640.753 361.038C641.566 360.217 642.606 359.806 643.872 359.806C645.139 359.806 646.143 360.221 646.886 361.049C647.629 361.878 648 363.023 648 364.485C648 365.798 647.613 366.897 646.839 367.78C646.065 368.664 645.033 369.105 643.743 369.105ZM643.837 360.85C642.876 360.85 642.113 361.178 641.551 361.835C640.988 362.492 640.706 363.391 640.706 364.532C640.706 365.619 640.976 366.486 641.515 367.135C642.063 367.776 642.813 368.097 643.767 368.097C644.736 368.097 645.494 367.768 646.042 367.112C646.589 366.455 646.863 365.572 646.863 364.462C646.863 363.266 646.589 362.367 646.042 361.765C645.502 361.155 644.767 360.85 643.837 360.85Z" fill="black"/>
<path d="M621.733 229.015C620.06 229.015 618.751 228.249 617.805 226.717C616.867 225.176 616.398 222.941 616.398 220.009C616.398 216.773 616.89 214.334 617.875 212.692C618.868 211.05 620.287 210.229 622.132 210.229C625.626 210.229 627.373 213.333 627.373 219.54C627.373 222.628 626.877 224.981 625.884 226.599C624.899 228.21 623.515 229.015 621.733 229.015ZM622.026 211.296C620.635 211.296 619.548 212.012 618.766 213.442C617.992 214.865 617.605 217.003 617.605 219.857C617.605 222.46 617.977 224.461 618.719 225.861C619.462 227.252 620.517 227.948 621.885 227.948C623.23 227.948 624.274 227.236 625.016 225.814C625.767 224.391 626.142 222.358 626.142 219.716C626.142 214.103 624.77 211.296 622.026 211.296ZM633.811 219.47C632.513 219.47 631.489 219.044 630.739 218.192C629.988 217.339 629.613 216.233 629.613 214.873C629.613 213.395 630.012 212.246 630.809 211.425C631.607 210.597 632.65 210.182 633.94 210.182C635.207 210.182 636.211 210.593 636.954 211.414C637.696 212.235 638.068 213.376 638.068 214.838C638.068 216.159 637.681 217.261 636.907 218.145C636.133 219.028 635.101 219.47 633.811 219.47ZM633.917 211.226C632.947 211.226 632.181 211.551 631.618 212.199C631.055 212.84 630.774 213.739 630.774 214.896C630.774 215.983 631.044 216.847 631.583 217.488C632.13 218.129 632.881 218.449 633.835 218.449C634.796 218.449 635.551 218.121 636.098 217.464C636.645 216.808 636.919 215.924 636.919 214.814C636.919 213.626 636.645 212.731 636.098 212.129C635.558 211.527 634.831 211.226 633.917 211.226ZM633.835 229.12H632.58L643.509 210.558H644.728L633.835 229.12ZM643.743 229.015C642.453 229.015 641.429 228.589 640.671 227.737C639.913 226.885 639.534 225.778 639.534 224.418C639.534 222.925 639.94 221.768 640.753 220.947C641.566 220.126 642.606 219.716 643.872 219.716C645.139 219.716 646.143 220.13 646.886 220.959C647.629 221.788 648 222.933 648 224.395C648 225.708 647.613 226.806 646.839 227.69C646.065 228.573 645.033 229.015 643.743 229.015ZM643.837 220.76C642.876 220.76 642.113 221.088 641.551 221.745C640.988 222.401 640.706 223.3 640.706 224.442C640.706 225.528 640.976 226.396 641.515 227.045C642.063 227.686 642.813 228.006 643.767 228.006C644.736 228.006 645.494 227.678 646.042 227.021C646.589 226.365 646.863 225.481 646.863 224.371C646.863 223.175 646.589 222.276 646.042 221.674C645.502 221.064 644.767 220.76 643.837 220.76Z" fill="black"/>
</svg>
